<svg width="40" height="40" viewBox="0 0 40 40" fill="none" xmlns="http://www.w3.org/2000/svg">
<path d="M36.5599 38.5555C35.4119 38.5555 34.2789 37.8446 33.7412 36.7894C33.5001 36.3152 33.1548 36.1032 32.6223 36.1032H32.5914C32.0616 36.1112 31.4955 36.1147 30.8147 36.1147C30.2766 36.1147 29.7385 36.1129 29.2004 36.1094H28.9417C28.2441 36.1094 27.9703 35.8365 27.9703 35.1451C27.9642 33.9088 27.965 32.6425 27.9703 31.4221V31.3611C27.9703 30.8613 27.9703 30.3609 27.9703 29.8599V28.7676H27.4405C27.233 28.7676 27.0299 28.7676 26.8294 28.7676H26.7684H26.1671C25.881 28.7676 25.647 28.7676 25.4324 28.7579C25.2724 28.7592 25.1149 28.7193 24.9749 28.6419C24.8349 28.5646 24.7172 28.4524 24.6332 28.3163C24.5654 28.1959 24.5309 28.0597 24.5333 27.9216C24.5356 27.7834 24.5747 27.6484 24.6465 27.5304C24.809 27.2363 25.0589 27.1048 25.4563 27.1048C26.3393 27.1048 27.21 27.1048 28.0834 27.1048C28.9567 27.1048 29.8318 27.1048 30.7052 27.1048C34.6048 27.1048 37.617 24.5085 38.1998 20.6584C38.4841 18.7774 37.9349 16.7826 36.6844 15.1833C35.434 13.5841 33.6237 12.5615 31.7216 12.3831C31.4699 12.3593 31.2156 12.3469 30.9666 12.3469C29.3938 12.3469 27.95 12.8088 26.5512 13.7598C26.3243 13.9115 26.0601 13.9979 25.7874 14.0097H25.7635C25.3697 14.0009 25.1931 13.6971 25.1154 13.4437C25.0657 13.284 25.0693 13.1126 25.1257 12.9552C25.1821 12.7978 25.2882 12.663 25.428 12.5712C25.9728 12.218 26.5309 11.8966 27.1208 11.553L27.1314 11.5469C27.3881 11.3973 27.6483 11.2448 27.912 11.0894L28.2202 10.9066L28.1663 10.5534C27.966 9.29374 27.4609 8.1021 26.6951 7.08206C25.9323 6.05132 24.9384 5.21378 23.7933 4.63668C22.6481 4.05958 21.3836 3.75901 20.1013 3.75908C19.0583 3.7578 18.025 3.95841 17.0582 4.34984C15.3653 5.03689 13.9443 6.26 13.0129 7.83179C12.0878 9.3931 11.7213 11.2226 11.9735 13.0198C12.0963 13.8729 12.3789 14.6826 12.657 15.4385C12.8637 15.9975 12.7383 16.4673 12.3303 16.6651C12.214 16.7224 12.0864 16.7526 11.9568 16.7534C11.6433 16.7534 11.3581 16.5406 11.1726 16.1715C10.7093 15.2567 10.4104 14.2677 10.2896 13.2494C10.2763 13.1364 10.2586 13.0322 10.2392 12.9218C10.2304 12.8723 10.2216 12.8229 10.2127 12.7708L10.1474 12.369L9.74204 12.3292C9.48683 12.3036 9.22983 12.2913 8.97815 12.2913C7.80115 12.2909 6.64214 12.5799 5.60309 13.1329C2.7287 14.6447 1.18774 17.8308 1.77674 21.061C2.06268 22.5832 2.82343 23.9756 3.94983 25.0385C5.07624 26.1015 6.5104 26.7803 8.04653 26.9776C8.55169 27.0338 9.05985 27.0592 9.5681 27.0535C9.735 27.0535 9.90187 27.0535 10.0697 27.0535H10.5616H10.8326C11.6998 27.0641 11.9374 27.3035 11.9382 28.1671C11.9382 30.4534 11.9382 32.7352 11.9382 34.9491C11.9382 35.8251 11.6919 36.0653 10.7973 36.0661H8.95168C8.26023 36.0661 7.70037 36.0661 7.18554 36.0599H7.17053C6.71487 36.0599 6.40845 36.2507 6.20623 36.6596C5.6446 37.7916 4.54425 38.4955 3.33445 38.4955C3.00503 38.4953 2.67753 38.4452 2.36307 38.3471C1.61402 38.1141 0.972738 37.6214 0.554591 36.9577C0.136444 36.2939 -0.031123 35.5028 0.0820978 34.7265C0.2958 33.2032 1.6787 31.9996 3.23113 31.989H3.27089C4.57695 31.989 5.52978 32.578 6.18502 33.7905C6.42168 34.232 6.74133 34.4254 7.22348 34.4254H7.26057C7.56876 34.4192 7.90344 34.4166 8.32025 34.4166H9.01791H9.7385H10.2683V28.7773L9.77291 28.7455C9.56098 28.7314 9.34991 28.7208 9.14062 28.7102H9.13096C8.67618 28.6872 8.24789 28.666 7.82844 28.6139C3.81136 28.1221 0.551045 24.8406 0.0768373 20.812C0.062043 20.7083 0.0362796 20.6065 0 20.5082V20.5029V18.8825L0.0158676 18.8154C0.0457612 18.6992 0.0685145 18.5812 0.0839088 18.4622C0.525443 14.5546 3.79811 11.221 7.68891 10.7106C8.16841 10.6479 8.67443 10.6276 9.16365 10.6082H9.18391C9.41174 10.5993 9.64754 10.5896 9.88243 10.5755L10.2701 10.5534L10.4467 9.84695C11.3863 6.08331 13.7397 3.58334 17.4406 2.41769C17.9232 2.28093 18.4152 2.1797 18.9127 2.1148C19.129 2.08125 19.3701 2.04415 19.6085 2H20.5728C20.7706 2.03267 20.9703 2.06181 21.1628 2.08831H21.1751C21.6097 2.14122 22.0409 2.21996 22.4662 2.32409C26.3269 3.36611 28.781 5.8749 29.7594 9.7816C29.9502 10.5402 30.4332 10.6435 30.8801 10.6444C35.0676 10.6532 38.6104 13.3554 39.6948 17.3689C40.0265 18.6073 40.0887 19.9024 39.8771 21.1668C39.6655 22.4312 39.1851 23.6355 38.4682 24.6984C37.7562 25.7659 36.8236 26.6682 35.7331 27.3446C34.6427 28.0209 33.4199 28.4556 32.1472 28.6192C31.7375 28.6704 31.3216 28.6908 30.8809 28.7075H30.8588C30.6504 28.7172 30.4412 28.727 30.2292 28.7402L29.7329 28.772V34.4113H30.2628H30.8889H31.5124C31.9353 34.4113 32.4916 34.4113 33.0462 34.3936C33.3376 34.3857 33.5876 34.179 33.7898 33.7755C34.0571 33.234 34.4703 32.7779 34.9828 32.4585C35.4953 32.1392 36.0868 31.9692 36.6906 31.9678C37.3084 31.9675 37.9121 32.152 38.4241 32.4977C38.9722 32.8791 39.3937 33.416 39.634 34.0391C39.8743 34.6622 39.9226 35.343 39.7726 35.9937C39.4397 37.3801 38.3702 38.3241 36.9123 38.5193C36.7958 38.5394 36.678 38.5515 36.5599 38.5555ZM3.27882 33.6342C2.86153 33.6476 2.46504 33.8194 2.16981 34.1146C1.87459 34.4099 1.70277 34.8064 1.6893 35.2237C1.69003 35.6501 1.85999 36.0589 2.16179 36.3602C2.46174 36.6676 2.87145 36.8432 3.3009 36.8485H3.31858C3.73846 36.8365 4.13781 36.6644 4.43483 36.3673C4.73185 36.0703 4.90403 35.6709 4.91604 35.2511C4.91441 34.8247 4.74389 34.4163 4.44182 34.1154C4.14138 33.8091 3.73176 33.6344 3.30271 33.6298H3.28322L3.27882 33.6342ZM36.6341 33.6342C36.2149 33.6542 35.8192 33.8341 35.5283 34.1367C35.2375 34.4394 35.0736 34.8419 35.0702 35.2617C35.0827 35.6832 35.2572 36.0838 35.5576 36.3799C35.8579 36.676 36.261 36.8448 36.6827 36.8512H36.7375C37.1566 36.8306 37.552 36.6501 37.8421 36.3469C38.1322 36.0436 38.2949 35.6407 38.2969 35.221C38.2838 34.7997 38.109 34.3995 37.8088 34.1036C37.5086 33.8076 37.1059 33.6386 36.6844 33.6315L36.6341 33.6342Z" fill="#1A5D88"/>
<path d="M19.9874 38.5058C19.8098 38.5058 19.6325 38.4905 19.4575 38.4599C17.8327 38.172 16.6644 36.7397 16.7386 35.1281C16.796 33.8918 17.4106 32.9549 18.5648 32.3464C18.9957 32.1195 19.19 31.7963 19.1768 31.3274C19.1635 30.8585 19.1662 30.3737 19.1688 29.8685C19.1688 29.6613 19.1688 29.4509 19.1688 29.2372V28.7073H17.4027C17.1545 28.7073 16.9099 28.7073 16.6653 28.7073C16.3253 28.7073 15.7549 28.5987 15.7443 27.9126C15.7372 27.3968 16.0621 27.0825 16.6132 27.071C17.1642 27.0595 17.7294 27.0542 18.2804 27.0542C18.8314 27.0542 19.3949 27.0604 19.938 27.0719C20.5217 27.0851 20.7954 27.3721 20.8007 27.977C20.8122 29.2875 20.8113 30.3472 20.8007 31.3106C20.7936 31.8016 20.9977 32.1345 21.4427 32.3579C22.9183 33.0997 23.6044 34.7519 23.0737 36.2867C22.8484 36.9281 22.4317 37.4849 21.8797 37.8818C21.3277 38.2787 20.6672 38.4965 19.9874 38.5058V38.5058ZM19.9874 33.6339C19.7768 33.6343 19.5684 33.6767 19.3744 33.7588C19.1804 33.8408 19.0048 33.9608 18.8579 34.1117C18.7071 34.2621 18.5878 34.4411 18.5069 34.6383C18.4261 34.8354 18.3854 35.0466 18.3872 35.2597C18.393 35.6795 18.5623 36.0805 18.8591 36.3773C19.156 36.6742 19.557 36.8435 19.9768 36.8492H19.9919C20.2026 36.8494 20.4112 36.8075 20.6054 36.7259C20.7997 36.6443 20.9757 36.5247 21.123 36.3741C21.2735 36.2235 21.3924 36.0444 21.4728 35.8473C21.5532 35.6502 21.5934 35.439 21.591 35.2261C21.5851 34.8064 21.4157 34.4055 21.1189 34.1087C20.8221 33.8119 20.4212 33.6425 20.0015 33.6366L19.9874 33.6339Z" fill="#1A5D88"/>
</svg>
