<svg width="40" height="40" viewBox="0 0 40 40" fill="none" xmlns="http://www.w3.org/2000/svg">
<path d="M1.14536 37.8913C0.792116 37.8913 0.350608 37.8339 0.0397567 37.3897L0 37.3323V9.92527L0.0388943 9.86875C0.145364 9.70719 0.291633 9.57577 0.463627 9.48715C0.635621 9.39852 0.827555 9.35567 1.02091 9.36273C1.06683 9.36273 1.1136 9.36273 1.16217 9.36891C1.26638 9.37686 1.3803 9.38039 1.51541 9.38039C1.61255 9.38039 1.70972 9.38039 1.80863 9.38039H1.90927C1.90927 8.96239 1.90927 8.54675 1.90927 8.13346C1.90927 6.75935 1.90928 5.46562 1.90134 4.14539C1.89604 3.62348 2.05142 3.28172 2.40377 3.03975L2.46121 3H12.0622L12.1285 3.10156C12.1726 3.17044 12.2247 3.24197 12.2759 3.31085C12.4106 3.47769 12.5206 3.66296 12.6027 3.86102C12.9559 4.83243 13.2456 5.70052 13.4858 6.51651C13.5644 6.78144 13.6386 6.83707 13.9274 6.83707C19.1244 6.82736 24.2958 6.82648 29.1096 6.82648H36.8553C37.8443 6.82648 38.0854 7.0711 38.0863 8.07518V9.37775H38.8634C39.713 9.37775 40 9.66741 40 10.5258V36.7538C40 37.6069 39.7121 37.8948 38.8599 37.8948H30.3203C20.502 37.8948 10.8825 37.8948 1.14363 37.9019L1.14536 37.8913ZM38.2532 36.1445V11.1263H1.74326V36.1445H38.2532ZM36.3475 9.34419V8.54322H13.3198C12.4906 8.54322 12.3255 8.42312 12.0597 7.62392C11.9766 7.37223 11.8918 7.12143 11.8079 6.86975C11.5951 6.23656 11.3761 5.58395 11.1739 4.93664C11.1138 4.74501 11.0652 4.70792 10.8701 4.70792C9.5145 4.71675 8.18985 4.71763 7.18665 4.71763H3.6596V9.34508L36.3475 9.34419Z" fill="#1A5D88"/>
<path d="M20.023 32.7304C18.4158 32.7304 16.8544 32.2889 15.3832 31.4243C15.1077 31.2618 14.9301 31.0516 14.8692 30.815C14.8447 30.7164 14.8405 30.6139 14.8565 30.5136C14.8726 30.4133 14.9087 30.3172 14.9628 30.2312C15.0252 30.1122 15.1192 30.0127 15.2345 29.9437C15.3498 29.8747 15.4819 29.8388 15.6163 29.84C15.827 29.8484 16.032 29.9117 16.2107 30.0237C17.4034 30.7161 18.7561 31.0853 20.1351 31.0949C23.7311 31.0949 26.7381 28.5542 27.4481 24.9132C27.8279 22.9704 27.3377 20.8889 26.1031 19.2084C24.8685 17.5279 23.0308 16.4381 21.0615 16.2182C20.7527 16.1838 20.4423 16.1664 20.1316 16.1661C18.3248 16.1661 16.661 16.7516 15.3196 17.8573C14.0064 18.9399 13.1207 20.4271 12.7524 22.165C12.8611 22.0484 12.9723 21.9319 13.0897 21.8197C13.2569 21.6473 13.4846 21.5466 13.7247 21.5389C13.8313 21.5397 13.9367 21.5626 14.034 21.6062C14.1313 21.6498 14.2184 21.7132 14.2899 21.7923C14.6132 22.1306 14.5937 22.5995 14.2422 22.9607C13.6241 23.5939 13.0059 24.2112 12.4063 24.7958C12.2085 24.9874 12.0018 25.0854 11.7881 25.0854C11.5744 25.0854 11.3721 24.9883 11.1752 24.7966C10.5782 24.2138 9.97769 23.6142 9.3401 22.9616C8.98686 22.6013 8.96746 22.1323 9.28715 21.7941C9.35955 21.7148 9.44747 21.6511 9.54544 21.6071C9.6434 21.563 9.74936 21.5395 9.85676 21.538C10.0966 21.5449 10.3239 21.6465 10.4891 21.8206C10.6657 21.9972 10.8344 22.1738 11.0119 22.3734L11.0445 22.4096C11.0578 22.3443 11.071 22.2798 11.0834 22.2162C11.1514 21.8807 11.2149 21.5636 11.2971 21.2554C12.3506 17.2894 15.9837 14.52 20.1281 14.52C20.2729 14.52 20.4195 14.52 20.5643 14.5297C24.7467 14.7249 28.3109 17.8855 29.0421 22.044C29.264 23.2666 29.2309 24.5219 28.9447 25.7312C28.6586 26.9404 28.1256 28.0774 27.3792 29.0708C26.6318 30.0729 25.6853 30.9096 24.5992 31.5286C23.5131 32.1476 22.3108 32.5354 21.0677 32.6677C20.7209 32.7082 20.3721 32.7291 20.023 32.7304Z" fill="#1A5D88"/>
<path d="M23.2979 26.3475C23.1664 26.3425 23.0368 26.315 22.9146 26.2663C22.0828 25.9448 21.242 25.6084 20.4287 25.2834L19.8459 25.0511C19.4591 24.8966 19.2639 24.6034 19.2656 24.1804C19.2656 23.4827 19.2656 22.7857 19.2656 22.0892C19.2656 21.3527 19.2656 20.6171 19.2656 19.8815C19.2656 19.3516 19.5924 18.9931 20.0737 18.9922C20.555 18.9913 20.8808 19.3454 20.8879 19.8753C20.8932 20.3009 20.8879 20.7337 20.8879 21.1522C20.8879 21.3377 20.8879 21.5232 20.8879 21.7086C20.8879 21.879 20.8879 22.0495 20.8879 22.2208C20.8879 22.6544 20.8879 23.1039 20.8808 23.5454C20.8808 23.6929 20.902 23.7309 21.0389 23.783C21.7551 24.0568 22.4766 24.3482 23.1742 24.6308L23.516 24.7685C23.9355 24.9381 24.1395 25.2604 24.0458 25.6101C23.9734 25.8883 23.7235 26.1267 23.5257 26.2786C23.4592 26.3257 23.3793 26.3498 23.2979 26.3475Z" fill="#1A5D88"/>
</svg>
