<svg width="40" height="40" viewBox="0 0 40 40" fill="none" xmlns="http://www.w3.org/2000/svg">
<path d="M16.6711 38.0862C16.5184 38.0864 16.366 38.0714 16.2163 38.0412C15.8155 37.9601 15.442 37.7783 15.131 37.5129C14.8199 37.2474 14.5816 36.9071 14.4386 36.524C14.3431 36.2632 14.2942 35.9876 14.2938 35.7098V34.7861C13.6898 34.5962 13.1325 34.3913 12.5912 34.1608C12.1497 33.9736 11.7204 33.7679 11.308 33.548L10.6325 34.2218C10.5751 34.2774 10.5133 34.3322 10.447 34.3852H10.4418H10.4356C10.2527 34.529 10.0503 34.6459 9.8342 34.7322C9.54775 34.8483 9.24165 34.9083 8.93256 34.9088C8.75973 34.9089 8.58738 34.8902 8.41857 34.8532C7.97856 34.7569 7.57553 34.5362 7.25735 34.2174L3.86096 30.821C3.63724 30.6018 3.46069 30.3392 3.34223 30.0493C3.22377 29.7594 3.16585 29.4483 3.17208 29.1351C3.16604 28.8219 3.22404 28.5107 3.34249 28.2207C3.46093 27.9307 3.63739 27.6679 3.86096 27.4484L4.5727 26.772C4.3272 26.311 4.11788 25.8809 3.93332 25.4606C3.69935 24.9297 3.49996 24.3843 3.33636 23.8277H2.37643C1.77423 23.8259 1.19504 23.5962 0.755203 23.1849C0.315367 22.7735 0.0474983 22.211 0.00534688 21.6103C0.00534688 21.5573 0 21.5034 0 21.4495V16.634C0.000701224 16.004 0.251307 15.3999 0.696819 14.9544C1.14233 14.5089 1.74638 14.2583 2.37643 14.2576H3.30014C3.61562 13.248 4.02973 12.2719 4.53648 11.3434L3.86001 10.6687C3.63644 10.4492 3.46007 10.1864 3.34163 9.89641C3.22318 9.60637 3.16518 9.29521 3.17122 8.98198C3.1697 8.3507 3.41719 7.7443 3.86001 7.29439L7.2564 3.89799C7.71232 3.45536 8.32273 3.20767 8.95817 3.20741C9.26966 3.20557 9.5784 3.26567 9.86645 3.38423C10.1545 3.50278 10.4161 3.67742 10.6361 3.89799L11.2736 4.53647C12.2236 4.02252 13.2242 3.6082 14.2594 3.30013V2.3773C14.2613 1.74737 14.5123 1.14378 14.9577 0.698355C15.4031 0.252929 16.0068 0.0018637 16.6367 0H21.4205C22.0496 0.00302658 22.652 0.254601 23.0965 0.699902C23.541 1.1452 23.7915 1.74813 23.7933 2.3773V3.33987C24.3409 3.51119 24.8531 3.69311 25.3458 3.90064C25.8386 4.10817 26.3217 4.33336 26.7773 4.57709L27.4547 3.90152C27.9103 3.45894 28.5203 3.21124 29.1555 3.21094C29.466 3.20972 29.7736 3.27014 30.0606 3.38868C30.3475 3.50722 30.6081 3.68154 30.8272 3.90152L34.2244 7.25729C34.5121 7.54091 34.7205 7.89504 34.8285 8.28433C34.8876 8.49983 34.9173 8.72232 34.9168 8.94577C34.9223 9.25922 34.8639 9.57051 34.7452 9.86065C34.6265 10.1508 34.4499 10.4137 34.2262 10.6334L33.5506 11.3089C33.6707 11.5332 33.7785 11.7434 33.8792 11.9501C34.2491 12.6909 34.5534 13.4628 34.7888 14.2567H35.7478C35.9753 14.2567 36.2017 14.2897 36.4198 14.3547C36.8522 14.4869 37.2399 14.7354 37.5405 15.073C37.8411 15.4107 38.043 15.8246 38.1242 16.2693C38.146 16.3897 38.1587 16.5117 38.1622 16.634V21.4133C38.1603 22.0433 37.9093 22.6469 37.4638 23.0923C37.0184 23.5377 36.4148 23.7888 35.7849 23.7906H34.824C34.7905 23.8948 34.756 23.9982 34.7207 24.1024L34.7155 24.1165C34.6455 24.3197 34.5136 24.496 34.3385 24.6206C34.1634 24.7452 33.9537 24.812 33.7387 24.8115C33.4729 24.8115 33.2176 24.7079 33.027 24.5227L32.7329 24.2401C32.2163 23.7332 31.7695 23.2687 31.3659 22.8069C30.9623 22.345 30.919 21.4487 30.8952 20.8588C30.6824 15.5019 27.1544 11.2886 22.3159 10.6148C21.8006 10.5432 21.281 10.5069 20.7607 10.5062C15.2352 10.5062 10.8329 14.6568 10.5168 20.1611C10.4311 21.5298 10.6286 22.9014 11.0971 24.1902C11.5656 25.479 12.2948 26.6574 13.2394 27.6515C15.1954 29.7224 17.8748 30.8634 20.7819 30.8634C20.9435 30.8634 21.1078 30.8634 21.2685 30.8519C21.3521 30.8483 21.4342 30.8466 21.5149 30.8466C22.5075 30.8466 23.2008 31.1495 23.8348 31.8577C24.0468 32.0962 24.2817 32.3461 24.5528 32.6234L24.7294 32.8662C24.8379 33.014 24.9095 33.1857 24.9381 33.3668C24.9667 33.548 24.9514 33.7334 24.8937 33.9074C24.8371 34.0817 24.7395 34.2399 24.6092 34.3688C24.4789 34.4977 24.3197 34.5936 24.1448 34.6483L24.1306 34.6527C24.0282 34.6854 23.9249 34.7163 23.8225 34.7463V35.6683C23.8234 35.8771 23.7957 36.0851 23.7403 36.2865C23.695 36.4561 23.6304 36.6199 23.5478 36.7748C23.347 37.1586 23.045 37.4802 22.6746 37.7047C22.3041 37.9291 21.8792 38.048 21.4461 38.0482H19.2056L17.4907 38.0862H16.6711ZM11.1076 31.3897C11.2738 31.3914 11.4373 31.4326 11.5845 31.5098C12.777 32.2253 14.0671 32.7637 15.4144 33.1082C15.6207 33.1581 15.8042 33.2762 15.935 33.4434C16.0658 33.6106 16.1362 33.817 16.1351 34.0293V35.7822C16.138 35.9129 16.191 36.0376 16.2832 36.1303C16.3754 36.223 16.4998 36.2767 16.6305 36.2803H21.4461C21.5769 36.2767 21.7013 36.223 21.7936 36.1303C21.886 36.0376 21.9393 35.913 21.9424 35.7822V34.1414C21.9477 33.9401 22.0148 33.7453 22.1348 33.5835C22.2547 33.4217 22.4215 33.3007 22.6126 33.2371C22.0245 32.9015 21.3454 32.8318 19.9748 32.717C16.0662 32.3885 12.6301 30.3706 10.5486 27.1808C9.5583 25.6663 8.92911 23.9446 8.70954 22.1484C8.48998 20.3523 8.68593 18.5297 9.28226 16.8212C10.9407 11.9978 15.5725 8.62963 20.5461 8.62963C21.0537 8.6298 21.5605 8.66462 22.0633 8.73383C25.0455 9.14889 27.633 10.4709 29.5467 12.5585C31.4603 14.6462 32.5616 17.3414 32.7373 20.3625C32.7814 21.1051 32.9334 21.6871 33.1886 22.0924C33.2424 22.1807 33.2927 22.2549 33.3413 22.3265C33.4289 22.208 33.5434 22.112 33.6752 22.0463C33.8071 21.9806 33.9527 21.9471 34.1 21.9485H35.7408C35.8716 21.9449 35.996 21.8912 36.0883 21.7985C36.1807 21.7059 36.2339 21.5812 36.237 21.4504V16.6367C36.2339 16.5059 36.1807 16.3812 36.0883 16.2885C35.996 16.1959 35.8716 16.1422 35.7408 16.1386H34.1C33.8903 16.1333 33.6878 16.0609 33.5222 15.9322C33.3567 15.8035 33.2367 15.6252 33.1798 15.4233C32.8118 14.0943 32.2745 12.8181 31.5813 11.626C31.372 11.2074 31.4321 10.7756 31.7394 10.4656L32.8874 9.35023C32.9677 9.24302 33.0149 9.11475 33.0234 8.9811C33.0276 8.91441 33.018 8.84758 32.9954 8.7847C32.9728 8.72183 32.9375 8.66425 32.8918 8.6155L29.4954 5.21822C29.4544 5.17037 29.4033 5.13217 29.3457 5.10638C29.2882 5.08058 29.2256 5.06781 29.1626 5.06898C29.0275 5.06946 28.8981 5.12307 28.8022 5.21822L28.4437 5.57588L27.6445 6.37066C27.5554 6.46108 27.4491 6.53274 27.3319 6.58143C27.2146 6.63011 27.0888 6.65484 26.9619 6.65414C26.7961 6.65421 26.6329 6.61228 26.4877 6.53227C25.7985 6.12159 25.0773 5.7672 24.3311 5.47256C23.7859 5.2569 23.2271 5.07696 22.6585 4.93386C22.4523 4.88411 22.2689 4.76617 22.1381 4.59914C22.0073 4.43212 21.9368 4.22582 21.9379 4.01368V2.3773C21.9345 2.24681 21.8812 2.12262 21.7888 2.0304C21.6964 1.93819 21.5721 1.88501 21.4416 1.88188H21.0327C20.9294 1.88718 20.842 1.88983 20.7599 1.88983H20.5832C20.4658 1.88983 20.3483 1.88983 20.23 1.89689C20.1117 1.90396 19.9924 1.90484 19.8768 1.90484C19.7375 1.90596 19.5983 1.89859 19.46 1.88276H16.6261C16.5265 1.88252 16.4292 1.9134 16.3479 1.97107C16.2822 2.01624 16.2283 2.07642 16.1905 2.1466C16.1527 2.21678 16.1322 2.29496 16.1307 2.37465V4.01809C16.1244 4.22779 16.0514 4.43002 15.9223 4.59537C15.7932 4.76071 15.6147 4.88053 15.4127 4.9374C14.0712 5.29863 12.7835 5.83643 11.5836 6.53669C11.4318 6.6156 11.2636 6.65765 11.0926 6.65944C10.9677 6.65966 10.844 6.63467 10.729 6.58596C10.614 6.53725 10.51 6.46583 10.4232 6.37596L9.2664 5.21911C9.22531 5.17125 9.17415 5.13306 9.1166 5.10726C9.05905 5.08146 8.99648 5.06869 8.93342 5.06986C8.79838 5.07034 8.66894 5.12396 8.57311 5.21911L5.18026 8.61196C5.10229 8.72059 5.05588 8.84864 5.04607 8.98198C5.04221 9.04287 5.05193 9.10385 5.07453 9.16051C5.09714 9.21717 5.13202 9.2681 5.17673 9.30961L6.36891 10.4656C6.66033 10.7976 6.72217 11.2736 6.52966 11.6251C5.79881 12.7966 5.25893 14.0769 4.93034 15.418C4.88101 15.6239 4.76331 15.807 4.5965 15.9374C4.4297 16.0678 4.22369 16.1378 4.01197 16.136H2.36936C2.29608 16.1374 2.22401 16.1549 2.15824 16.1873C2.09247 16.2196 2.03465 16.266 1.98878 16.3232L1.96929 16.347C1.90745 16.43 1.87374 16.5305 1.87305 16.634V21.4116C1.87433 21.5273 1.91696 21.6388 1.99318 21.726C2.03947 21.7807 2.09702 21.8249 2.16195 21.8554C2.22688 21.8859 2.29763 21.902 2.36936 21.9026H4.01197C4.22136 21.9083 4.42336 21.9809 4.58848 22.1097C4.7536 22.2386 4.87313 22.417 4.92948 22.6188C5.04075 23.0603 5.16789 23.4851 5.30919 23.8887C5.61542 24.7741 6.02442 25.6206 6.52785 26.4108C6.73891 26.832 6.67885 27.2639 6.36977 27.5729L5.22174 28.721C5.14339 28.8298 5.09669 28.9581 5.08669 29.0919C5.08284 29.1585 5.09244 29.2251 5.11489 29.288C5.13734 29.3508 5.17215 29.4084 5.21734 29.4575L8.61373 32.8539C8.65457 32.9021 8.70568 32.9406 8.76327 32.9665C8.82087 32.9925 8.88354 33.0053 8.9467 33.004C9.08216 33.0034 9.21192 32.9495 9.30788 32.8539L10.4249 31.6608C10.5149 31.5724 10.6217 31.5028 10.7389 31.4563C10.8562 31.4097 10.9815 31.3871 11.1076 31.3897V31.3897Z" fill="#1A5D88"/>
<path d="M35.6744 39.9308C34.5388 39.9308 33.4906 39.4345 32.4706 38.4136L30.1144 36.0558L28.9073 34.8477C27.95 33.8904 26.9933 32.932 26.0372 31.9723C25.213 31.1481 24.3923 30.3215 23.5751 29.4926C23.1813 29.0934 22.8192 28.847 22.2346 28.847C22.1108 28.8476 21.9871 28.8568 21.8646 28.8744C21.4284 28.9369 20.9884 28.9685 20.5478 28.9689C19.2926 28.976 18.0512 28.7059 16.9123 28.1781C15.7734 27.6502 14.7651 26.8775 13.9591 25.9152C12.3192 23.9459 11.6551 21.3107 12.139 18.6861C12.2123 18.2861 12.442 17.9152 12.6636 17.5566C12.7652 17.3942 12.8693 17.2255 12.9559 17.0577L12.9868 16.9994L13.0433 17.0312C13.1943 17.1195 13.3577 17.1946 13.5149 17.2705C13.8681 17.441 14.2346 17.6167 14.5084 17.8887C15.365 18.7285 16.1986 19.6204 17.0808 20.5645C17.4261 20.9336 17.7873 21.316 18.1582 21.7125L22.3521 17.0595L22.3988 17.1169L23.4497 18.4141L23.5716 18.5651L23.531 18.6058C23.1518 18.9837 22.7732 19.3643 22.3953 19.7476C21.2305 20.923 20.0268 22.1382 18.7746 23.2712C18.6536 23.3807 18.4355 23.4036 18.273 23.4036C17.9313 23.4036 17.4465 23.2924 17.2195 23.0857C16.4168 22.3563 15.6696 21.5421 14.9473 20.7552C14.6823 20.4638 14.4042 20.1636 14.1287 19.8721L13.7675 20.0108C13.794 20.2351 13.8116 20.4647 13.8292 20.6863C13.8699 21.1968 13.9114 21.7249 14.0535 22.2106C14.4506 23.6055 15.2928 24.8324 16.4519 25.7042C17.611 26.576 19.0233 27.0448 20.4737 27.0393C21.0341 27.0387 21.5924 26.9708 22.1366 26.8371C22.3424 26.7822 22.5541 26.7526 22.7671 26.7488C23.3782 26.7488 23.788 27.0367 24.2145 27.4685C25.9348 29.21 27.7027 30.9886 29.6208 32.9058C30.0241 33.3102 30.4288 33.7141 30.8351 34.1174C31.75 35.0305 32.6896 35.9622 33.6981 36.9654C34.3056 37.5676 35.028 37.8988 35.7292 37.8988C36.5098 37.8988 37.2145 37.504 37.7135 36.7861C38.4412 35.7405 38.2381 34.5156 37.1571 33.425C36.2205 32.4783 35.2818 31.5325 34.341 30.5876C33.9077 30.1514 33.4726 29.7148 33.0357 29.278C31.1185 27.3555 29.4239 25.6723 27.8564 24.134C27.0899 23.3824 26.885 22.721 27.1137 21.6895C27.3324 20.7033 27.3275 19.6806 27.0993 18.6965C26.8712 17.7124 26.4255 16.7918 25.7952 16.0024C25.203 15.246 24.449 14.6317 23.5886 14.2045C22.7282 13.7772 21.7831 13.5479 20.8225 13.5333H20.8128C20.6701 13.5383 20.5281 13.5545 20.388 13.5818L20.1293 13.6216L21.2005 14.865L19.9076 16.2408L19.8617 16.1905C19.6312 15.9415 19.4069 15.6977 19.1853 15.4566C18.7102 14.9418 18.2625 14.4543 17.8041 13.966C17.3131 13.4414 17.132 13.0687 17.2177 12.7561C17.3034 12.4435 17.6592 12.2015 18.3807 11.9905C19.1066 11.7775 19.8594 11.6695 20.6159 11.6699C22.7071 11.6699 24.83 12.5115 26.4443 13.9792C28.1125 15.4981 29.098 17.5213 29.219 19.6778C29.219 19.7255 29.227 19.7732 29.2323 19.8227C29.257 19.963 29.2528 20.107 29.2199 20.2457C28.6061 22.1691 29.5899 23.3038 31.0479 24.6974C31.3888 25.0232 31.7367 25.3588 32.1076 25.7235C32.9854 26.5766 33.8844 27.4685 34.855 28.4497C36.018 29.6259 37.2649 30.9117 38.6663 32.3786C39.8364 33.6025 40.2727 35.2566 39.8329 36.8037C39.4143 38.2785 38.2575 39.3939 36.7421 39.7895C36.3962 39.8811 36.0401 39.9285 35.6824 39.9308H35.6744Z" fill="#1A5D88"/>
<path d="M38.6189 32.4231C37.3584 31.1037 36.0882 29.7944 34.8083 28.4951C33.9005 27.5778 32.985 26.6691 32.0619 25.7689C31.7087 25.4251 31.3554 25.0834 31.0022 24.7437C29.6687 23.4694 28.5083 22.2577 29.1565 20.2266C29.2095 20.0624 29.1635 19.8637 29.1565 19.6818C28.8606 14.4273 23.4305 10.5761 18.4022 12.0518C17.0775 12.4421 16.9327 12.9349 17.8547 13.9222C18.5293 14.6428 19.1952 15.3722 19.9123 16.1485C20.4262 15.6001 20.7609 15.2433 21.1186 14.8636L20.0085 13.5743C20.4103 13.5222 20.6188 13.4683 20.8272 13.47C24.9698 13.5116 28.1074 17.4943 27.1855 21.7023C26.9541 22.762 27.1855 23.3802 27.9105 24.0866C29.6478 25.791 31.3746 27.5057 33.0908 29.2307C33.527 29.6669 33.962 30.1038 34.3959 30.5412C35.3379 31.4832 36.2767 32.4287 37.2122 33.3777C38.3346 34.5098 38.5112 35.7621 37.7756 36.8218C36.7794 38.2559 35.0194 38.3584 33.6594 37.0099C32.7039 36.062 31.7496 35.1127 30.7964 34.1619C30.3908 33.7586 29.986 33.3547 29.5822 32.9503C27.7748 31.1435 25.9727 29.3311 24.1759 27.5131C23.5851 26.9143 23.0817 26.6679 22.1589 26.8949C18.5541 27.778 15.0225 25.723 13.999 22.2242C13.7889 21.5054 13.7977 20.7229 13.705 19.9652L14.1519 19.7939C15.1807 20.8854 16.1608 22.0299 17.2682 23.0366C17.5808 23.321 18.4887 23.4482 18.7386 23.2221C20.3856 21.7279 21.9266 20.118 23.4897 18.5585L22.3522 17.1543C20.9393 18.7227 19.6314 20.1745 18.1619 21.8038C16.7922 20.3556 15.6654 19.1077 14.4671 17.9323C14.0803 17.5526 13.5054 17.3636 13.0153 17.0881C12.7371 17.6233 12.3088 18.131 12.2046 18.6989C11.1069 24.6289 15.8915 29.6563 21.8542 28.8121C22.672 28.6964 23.1108 28.934 23.6204 29.4479C24.4399 30.2751 25.2606 31.1017 26.0825 31.9277C27.0391 32.8879 27.9958 33.8463 28.9525 34.803C30.1406 35.9929 31.3283 37.1818 32.5158 38.3699C33.6868 39.5417 35.0477 40.1643 36.7229 39.7281C39.978 38.8812 41.0253 34.9399 38.6189 32.4231Z" fill="#1A5D88"/>
</svg>
