<svg width="40" height="40" viewBox="0 0 40 40" fill="none" xmlns="http://www.w3.org/2000/svg">
<path d="M36.915 18.7854C36.8975 17.675 36.2028 16.8757 35.0983 16.6983C34.7458 16.6402 34.4086 16.5886 34.0962 16.5443C33.9116 16.0458 33.7067 15.5894 33.5621 15.2762C33.7859 14.9856 34.0068 14.6854 34.2161 14.3773C34.4882 13.9921 34.6205 13.5255 34.591 13.0548C34.5608 12.5849 34.3711 12.1393 34.0533 11.7918C33.8011 11.5096 33.5343 11.2409 33.254 10.9867C32.8738 10.6263 32.3716 10.4229 31.8478 10.4169C31.4002 10.4234 30.9655 10.5678 30.603 10.8304C30.2731 11.0622 29.997 11.2664 29.7361 11.4663C29.335 11.2831 28.9128 11.1087 28.4811 10.9467C28.4448 10.656 28.3932 10.3712 28.3431 10.0928L28.3205 9.97002C28.1752 9.15033 27.7283 8.55082 27.0619 8.27541V3.70606C27.0619 1.85812 26.0787 0.581344 24.2955 0.101009L24.2787 0.0915622L24.1094 0H7.04196L6.93803 0.0305237L6.8225 0.0668576C6.76218 0.0850245 6.70621 0.103185 6.65679 0.114812C5.91165 0.301926 5.24814 0.727598 4.76743 1.32692C4.29111 1.92892 4.02515 2.67041 4.01024 3.43792C3.99861 4.2191 3.99935 5.01408 4.0008 5.7829V33.0333C4.0008 34.8377 4.71803 35.9451 6.32617 36.618V37.6485C6.35233 38.9565 7.31083 39.9346 8.60431 39.9738C9.01198 39.9876 9.41308 39.9949 9.79677 39.9949C10.1805 39.9949 10.5598 39.9884 10.9391 39.9738C12.229 39.9259 13.1809 38.9398 13.2034 37.6289C13.2071 37.3767 13.2078 37.1325 13.2078 36.8767H17.8723C17.8723 37.0221 17.8687 37.1413 17.86 37.2524C17.7946 38.0518 18.0344 38.7697 18.5336 39.2733C18.9958 39.7406 19.6498 40 20.3765 40C20.4579 40 20.5342 40 20.6083 39.9906C20.7704 39.9789 20.9462 39.9738 21.1613 39.9738C21.3066 39.9738 21.4607 39.9738 21.6155 39.9789H21.6315H21.8662H22.1096C22.1903 39.9789 22.2724 39.9789 22.3545 39.9789C23.7417 39.9535 24.7235 38.9616 24.7409 37.5635V37.1274C24.7358 36.9262 24.7351 36.7692 24.7409 36.6253C26.2669 36.0265 27.0721 34.8304 27.0721 33.1641V30.2116C27.9267 29.8665 28.2348 29.07 28.3452 28.4574L28.3634 28.3564C28.423 28.0461 28.4659 27.7824 28.4964 27.5302C28.9506 27.3558 29.3604 27.1843 29.7463 27.0092C30.0137 27.2156 30.3276 27.4539 30.6648 27.6814C31.0111 27.9298 31.4267 28.0633 31.8529 28.0629C31.8987 28.0629 31.9437 28.0629 31.9895 28.0578C32.4607 28.0263 32.9064 27.8327 33.2511 27.5099C33.4691 27.3115 33.6747 27.1029 33.8898 26.8813L33.9625 26.8086C34.7386 25.9991 34.817 24.9309 34.1681 24.0196C34.0838 23.9019 33.9966 23.7864 33.913 23.6759L33.8963 23.6534C33.7866 23.508 33.6732 23.3583 33.5715 23.2101C33.7219 22.8184 33.8942 22.4064 34.0962 21.9529C34.2698 21.9202 34.4486 21.8934 34.6361 21.865L34.7553 21.8461C34.8817 21.8265 35.0082 21.8069 35.1346 21.7851C36.1985 21.6049 36.8982 20.7939 36.9171 19.7184C36.92 19.3921 36.92 19.076 36.915 18.7854ZM32.8136 21.2023C32.5433 21.8025 32.3238 22.3294 32.1407 22.8141C32.0768 22.9877 32.052 23.1733 32.068 23.3576C32.0847 23.5427 32.1421 23.7218 32.2359 23.8823C32.3921 24.1294 32.5622 24.3539 32.7133 24.553C32.77 24.6257 32.823 24.6983 32.8754 24.771C32.9044 24.8095 32.9328 24.8488 32.9611 24.8858C33.198 25.2165 33.1791 25.4955 32.8884 25.792C32.6464 26.0442 32.4597 26.2367 32.2526 26.422C32.1545 26.5222 32.0233 26.5832 31.8834 26.5935H31.8427C31.7151 26.5928 31.5913 26.5502 31.4903 26.4722C31.1313 26.228 30.7905 25.9678 30.473 25.7222C30.2837 25.5667 30.0472 25.4801 29.8022 25.4766C29.6245 25.4793 29.4496 25.5213 29.2899 25.5994C28.8706 25.7971 28.3852 26.0006 27.809 26.2193C27.5978 26.2834 27.411 26.4101 27.2734 26.5826C27.1717 26.7103 27.1001 26.8594 27.0641 27.0186V24.0174C29.5348 23.3198 30.6735 21.1958 30.7062 19.3892C30.7281 18.7341 30.6174 18.0813 30.3807 17.4701C30.1457 16.8584 29.7893 16.3008 29.3328 15.8307C28.6926 15.1541 28.2203 14.886 27.0641 14.5663V11.4663C27.1535 11.8638 27.4042 12.1319 27.8271 12.2823C28.3096 12.4553 28.7943 12.6558 29.2659 12.8789C29.4315 12.9615 29.6135 13.006 29.7986 13.009C30.0512 13.0056 30.2948 12.915 30.4882 12.7525C30.7564 12.5396 31.0616 12.3165 31.4482 12.0411C31.5615 11.9535 31.699 11.9028 31.842 11.8957C32.0004 11.9019 32.1504 11.9685 32.2613 12.0818C32.5034 12.3018 32.7336 12.5347 32.9509 12.7794C33.0479 12.88 33.1059 13.0119 33.1144 13.1514C33.1222 13.2922 33.0795 13.4311 32.9938 13.5431C32.7693 13.8716 32.5258 14.1971 32.2707 14.5219C31.9801 14.8853 31.9387 15.2995 32.1472 15.7508C32.3427 16.17 32.5665 16.6685 32.7518 17.1859C32.8175 17.4011 32.9455 17.592 33.1195 17.7346C33.2938 17.8777 33.5069 17.9652 33.7314 17.986C34.1674 18.0456 34.5852 18.1125 34.8621 18.1575C35.2465 18.22 35.4289 18.4278 35.4355 18.8115C35.4405 19.0949 35.4405 19.3841 35.4355 19.6952C35.4282 20.0643 35.2458 20.2765 34.8781 20.3383C34.7393 20.3623 34.599 20.3833 34.4595 20.4051H34.4399C34.1667 20.4465 33.884 20.4894 33.5955 20.5505C33.4249 20.5928 33.266 20.6727 33.1304 20.7845C32.9949 20.898 32.8866 21.0406 32.8136 21.2016V21.2023ZM29.0116 18.0049C29.179 18.4374 29.2557 18.8997 29.2369 19.3631C29.2245 20.2053 28.7507 21.7865 27.0706 22.4631V16.1039C27.7167 16.3132 27.9376 16.4956 28.2682 16.8444C28.5928 17.1751 28.8459 17.5692 29.0116 18.002V18.0049ZM23.2781 36.2998C23.2599 36.5417 23.2607 36.7779 23.2621 37.0061V37.5475C23.2541 38.1462 22.9119 38.4921 22.3175 38.5067C22.2332 38.5067 22.1423 38.511 22.0406 38.511C21.9178 38.511 21.7928 38.511 21.6642 38.5067H21.6271C21.4738 38.5067 21.3175 38.5016 21.1598 38.5016C20.9055 38.5016 20.6948 38.5081 20.4971 38.5219C20.4571 38.5219 20.4186 38.5263 20.3801 38.5263C20.0502 38.5263 19.7581 38.4224 19.5808 38.2407C19.3868 38.0445 19.2996 37.7451 19.3293 37.3752C19.3484 37.0806 19.3525 36.7852 19.3417 36.4901C19.3366 36.3739 19.3366 36.2569 19.3366 36.1435V35.4059H11.7283V36.145V36.626C11.7341 36.9974 11.7341 37.3098 11.7283 37.61C11.7181 38.1266 11.3788 38.4871 10.8832 38.506C10.5264 38.519 10.1725 38.5256 9.80042 38.5256C9.42836 38.5256 9.0541 38.519 8.65371 38.506C8.15448 38.49 7.81221 38.1353 7.80277 37.6245V37.1376C7.80277 36.847 7.80275 36.5839 7.78967 36.3092C7.76933 35.9553 7.51937 35.4953 7.09717 35.3413C5.88507 34.8965 5.47669 34.3152 5.47669 33.0377V6.37587C5.47669 5.42102 5.47157 4.43347 5.48538 3.45681C5.49626 3.0131 5.65251 2.58522 5.93012 2.2389C6.20906 1.89318 6.59382 1.6486 7.02524 1.54274C7.11244 1.52021 7.19527 1.49478 7.26794 1.47007H23.7366C23.7742 1.48525 23.8128 1.49764 23.8522 1.50713C25.0236 1.7978 25.5962 2.51576 25.5962 3.7046V33.1656C25.5962 34.2745 25.0955 34.9598 24.02 35.3209C23.5891 35.4648 23.3057 35.9306 23.2781 36.2983V36.2998Z" fill="#1A5D88"/>
<path d="M22.033 6.27539H9.0364C8.8409 6.27577 8.65351 6.35361 8.51527 6.49185C8.37703 6.63009 8.29921 6.81747 8.29883 7.01297C8.29921 7.2086 8.37716 7.39609 8.51555 7.53435C8.65395 7.67261 8.84152 7.75036 9.03714 7.75055H22.033C22.2286 7.75036 22.4161 7.67258 22.5544 7.5343C22.6927 7.39602 22.7704 7.20853 22.7706 7.01297C22.7704 6.81741 22.6927 6.62992 22.5544 6.49164C22.4161 6.35336 22.2286 6.27558 22.033 6.27539V6.27539Z" fill="#1A5D88"/>
<path d="M22.0318 11.5562H9.03516C8.83953 11.5563 8.65196 11.6341 8.51357 11.7724C8.37517 11.9106 8.29726 12.0981 8.29688 12.2937C8.29707 12.4895 8.3749 12.6772 8.51332 12.8156C8.65173 12.954 8.8394 13.0318 9.03516 13.032H22.0318C22.2274 13.0316 22.4149 12.9537 22.5532 12.8153C22.6914 12.6769 22.7692 12.4894 22.7694 12.2937C22.7692 12.0982 22.6914 11.9107 22.5531 11.7724C22.4149 11.6341 22.2274 11.5563 22.0318 11.5562V11.5562Z" fill="#1A5D88"/>
<path d="M15.5333 28.0432C15.848 28.0432 16.1038 27.7525 16.1038 27.3972V23.5625C16.1038 23.2057 15.848 22.9165 15.5326 22.9165C15.2172 22.9165 14.9629 23.2072 14.9629 23.5625V27.3972C14.9629 27.7533 15.2179 28.0432 15.5326 28.0432H15.5333Z" fill="#1A5D88"/>
<path d="M22.0317 16.6279H21.2825C21.0869 16.6281 20.8994 16.7059 20.7612 16.8442C20.6229 16.9824 20.5451 17.1699 20.5449 17.3655C20.5451 17.5611 20.6229 17.7487 20.7611 17.8871C20.8994 18.0255 21.0869 18.1034 21.2825 18.1038H22.0317C22.2273 18.1034 22.4148 18.0255 22.5531 17.8871C22.6913 17.7487 22.7691 17.5611 22.7693 17.3655C22.7691 17.1699 22.6913 16.9824 22.553 16.8442C22.4148 16.7059 22.2273 16.6281 22.0317 16.6279V16.6279Z" fill="#1A5D88"/>
<path d="M17.9497 18.1038C18.1454 18.1036 18.3331 18.0258 18.4715 17.8873C18.61 17.7489 18.6878 17.5613 18.688 17.3655C18.6876 17.1699 18.6097 16.9824 18.4713 16.8441C18.3329 16.7059 18.1453 16.6281 17.9497 16.6279H17.2012C17.0056 16.6281 16.818 16.7059 16.6796 16.8441C16.5412 16.9824 16.4633 17.1699 16.4629 17.3655C16.4631 17.5613 16.541 17.7489 16.6794 17.8873C16.8178 18.0258 17.0055 18.1036 17.2012 18.1038H17.9497Z" fill="#1A5D88"/>
<path d="M13.1145 18.1038H13.8637C14.0594 18.1034 14.2469 18.0255 14.3851 17.8871C14.5234 17.7487 14.6011 17.5611 14.6013 17.3655C14.6011 17.1699 14.5234 16.9824 14.3851 16.8442C14.2468 16.7059 14.0593 16.6281 13.8637 16.6279H13.1145C12.919 16.6281 12.7315 16.7059 12.5932 16.8442C12.4549 16.9824 12.3771 17.1699 12.377 17.3655C12.3771 17.5611 12.4549 17.7487 12.5931 17.8871C12.7314 18.0255 12.9189 18.1034 13.1145 18.1038V18.1038Z" fill="#1A5D88"/>
<path d="M9.78561 16.6279H9.03714C8.84152 16.6281 8.65395 16.7059 8.51555 16.8441C8.37716 16.9824 8.29921 17.1699 8.29883 17.3655C8.29902 17.5613 8.37685 17.7489 8.51527 17.8873C8.65369 18.0258 8.84139 18.1036 9.03714 18.1038H9.78561C9.98123 18.1034 10.1687 18.0255 10.307 17.8871C10.4452 17.7487 10.523 17.5611 10.5232 17.3655C10.523 17.1699 10.4452 16.9824 10.307 16.8442C10.1687 16.7059 9.98117 16.6281 9.78561 16.6279V16.6279Z" fill="#1A5D88"/>
<path d="M18.5007 24.0814C18.4191 24.012 18.3227 23.9623 18.2188 23.9361C18.1614 23.921 18.1023 23.9134 18.0429 23.9136C17.9953 23.9137 17.9479 23.9186 17.9012 23.9281C17.7956 23.9494 17.6963 23.9944 17.6106 24.0596C17.5261 24.1254 17.4576 24.2094 17.41 24.3053C17.3424 24.4442 17.3229 24.6017 17.3548 24.7529C17.3867 24.904 17.468 25.0403 17.5859 25.1402C17.959 25.4591 18.2522 25.8611 18.4419 26.3138C18.6297 26.7661 18.7081 27.2563 18.6708 27.7446C18.6127 28.4922 18.2878 29.194 17.7552 29.7219C17.22 30.2521 16.5138 30.5748 15.7626 30.6325C15.6856 30.6375 15.6086 30.6404 15.5315 30.6404C15.1758 30.6405 14.8226 30.5808 14.4866 30.4639C14.0776 30.3222 13.7022 30.0976 13.3842 29.804C13.0665 29.5124 12.8131 29.1577 12.6401 28.7627C12.4656 28.3694 12.3758 27.9438 12.3763 27.5135C12.3752 27.1074 12.4542 26.7051 12.609 26.3296C12.7637 25.9541 12.9911 25.6129 13.2781 25.3255C13.3819 25.2229 13.4508 25.0902 13.475 24.9462C13.4991 24.8026 13.4772 24.6551 13.4125 24.5247C13.3643 24.4241 13.2922 24.3368 13.2025 24.2704C13.1132 24.2033 13.009 24.1587 12.8988 24.1403C12.8603 24.1343 12.8214 24.1311 12.7825 24.1309C12.71 24.131 12.638 24.1423 12.5689 24.1643C12.4623 24.1983 12.3653 24.2574 12.2862 24.3365C11.8581 24.7647 11.5212 25.2752 11.2957 25.8371C11.0696 26.3977 10.9601 26.9986 10.9738 27.6029C10.988 28.1963 11.1194 28.7809 11.3606 29.3232C11.6018 29.8655 11.948 30.3547 12.3792 30.7625C13.2329 31.5787 14.3693 32.0329 15.5504 32.0299H15.6173C16.8082 32.0092 17.9435 31.5226 18.7798 30.6746C19.6178 29.8343 20.0882 28.6959 20.0878 27.5092C20.0873 26.8583 19.9457 26.2152 19.6729 25.6242C19.3993 25.0306 18.9993 24.5041 18.5007 24.0814Z" fill="#1A5D88"/>
</svg>
