<svg width="40" height="40" viewBox="0 0 40 40" fill="none" xmlns="http://www.w3.org/2000/svg">
<path d="M20.0109 20.6324C20.1834 20.6304 20.3483 20.561 20.4704 20.4391C20.5925 20.3172 20.6621 20.1524 20.6644 19.9798V19.6496C20.6653 19.5635 20.6491 19.4781 20.6166 19.3984C20.5841 19.3187 20.5359 19.2463 20.4751 19.1854C20.4142 19.1245 20.3418 19.0764 20.2621 19.0439C20.1824 19.0114 20.0969 18.9952 20.0109 18.9961C19.9248 18.9952 19.8395 19.0114 19.7598 19.0439C19.68 19.0764 19.6076 19.1245 19.5467 19.1854C19.4859 19.2463 19.4377 19.3187 19.4052 19.3984C19.3727 19.4781 19.3565 19.5635 19.3575 19.6496V19.9798C19.3565 20.0659 19.3727 20.1512 19.4052 20.2309C19.4378 20.3106 19.4859 20.3829 19.5467 20.4437C19.6076 20.5045 19.68 20.5525 19.7598 20.5849C19.8395 20.6173 19.9248 20.6335 20.0109 20.6324Z" fill="#1A5D88"/>
<path d="M27.789 21.3292H26.8035L25.9814 19.2505C25.9315 19.1272 25.8461 19.0215 25.736 18.9468C25.626 18.8721 25.4962 18.8318 25.3632 18.831H24.3796C24.3902 18.71 24.3902 18.597 24.3902 18.4716V17.593H26.7744C26.8605 17.5939 26.9458 17.5777 27.0255 17.5451C27.1052 17.5126 27.1777 17.4645 27.2385 17.4037C27.2994 17.3428 27.3475 17.2704 27.38 17.1907C27.4125 17.111 27.4288 17.0256 27.4278 16.9395C27.4288 16.8534 27.4125 16.768 27.38 16.6883C27.3475 16.6086 27.2994 16.5362 27.2385 16.4753C27.1777 16.4145 27.1052 16.3664 27.0255 16.3339C26.9458 16.3014 26.8605 16.2851 26.7744 16.286H24.3902V15.0498H25.3862C25.5196 15.0484 25.6497 15.0073 25.7598 14.9319C25.8698 14.8564 25.9549 14.7499 26.0043 14.6259L26.8238 12.5454H27.8085C27.8945 12.5464 27.9799 12.5301 28.0596 12.4976C28.1393 12.4651 28.2117 12.417 28.2726 12.3561C28.3334 12.2953 28.3816 12.2229 28.4141 12.1432C28.4466 12.0634 28.4628 11.978 28.4619 11.892C28.4628 11.8059 28.4466 11.7206 28.4141 11.6409C28.3816 11.5613 28.3335 11.4889 28.2726 11.4281C28.2117 11.3673 28.1393 11.3193 28.0596 11.2869C27.9799 11.2545 27.8945 11.2383 27.8085 11.2394H26.3708C26.2374 11.2406 26.1074 11.2815 25.9973 11.3568C25.8873 11.4321 25.8021 11.5385 25.7527 11.6624L24.9323 13.7137H24.3831C24.3611 13.4488 24.253 13.1984 24.0751 13.0008C23.8973 12.8032 23.6596 12.6693 23.3985 12.6196V12.4103C23.3979 11.9637 23.2977 11.5229 23.1053 11.1199C22.9128 10.7169 22.6329 10.3619 22.2858 10.0808L23.2016 8.84456H24.2532C24.3393 8.84551 24.4247 8.82925 24.5044 8.79675C24.5841 8.76424 24.6566 8.71615 24.7174 8.65528C24.7783 8.59441 24.8264 8.52199 24.8589 8.44229C24.8914 8.36258 24.9077 8.27718 24.9067 8.1911C24.9077 8.10503 24.8914 8.01963 24.8589 7.93992C24.8264 7.86021 24.7783 7.7878 24.7174 7.72693C24.6566 7.66606 24.5841 7.61796 24.5044 7.58546C24.4247 7.55296 24.3393 7.5367 24.2532 7.53764H22.8863C22.6844 7.5465 22.4941 7.63436 22.3565 7.78225L22.3511 7.78843L21.0919 9.45916C20.8596 9.40901 20.6231 9.38121 20.3855 9.37616H19.5369C19.2993 9.38126 19.0628 9.40905 18.8305 9.45916L17.5721 7.76636C17.5075 7.68827 17.4266 7.62528 17.3351 7.5818C17.2435 7.53832 17.1436 7.51542 17.0423 7.51469H15.6523C15.5663 7.51374 15.481 7.52997 15.4013 7.56242C15.3217 7.59487 15.2493 7.64289 15.1885 7.70366C15.1276 7.76444 15.0795 7.83675 15.047 7.91635C15.0144 7.99596 14.998 8.08126 14.9989 8.16726C14.9979 8.25333 15.0142 8.33873 15.0467 8.41844C15.0792 8.49815 15.1273 8.57056 15.1881 8.63143C15.249 8.6923 15.3214 8.7404 15.4011 8.7729C15.4808 8.80541 15.5663 8.82167 15.6523 8.82072H16.7041L17.6207 10.057C17.2769 10.3459 16.9995 10.7055 16.8074 11.1113C16.6152 11.5171 16.5128 11.9596 16.5071 12.4086V12.6337C16.2629 12.701 16.0447 12.8407 15.8816 13.0344C15.7184 13.2282 15.6179 13.4669 15.5932 13.719H15.0678L14.2456 11.6403C14.1928 11.519 14.1067 11.4153 13.9973 11.341C13.8879 11.2668 13.7596 11.2251 13.6274 11.2209H12.1899C12.1038 11.2199 12.0184 11.2362 11.9387 11.2687C11.859 11.3012 11.7866 11.3493 11.7257 11.4101C11.6648 11.471 11.6168 11.5434 11.5843 11.6231C11.5518 11.7028 11.5355 11.7882 11.5364 11.8743C11.5355 11.9604 11.5518 12.0457 11.5843 12.1254C11.6168 12.205 11.6649 12.2774 11.7258 12.3382C11.7867 12.399 11.8591 12.447 11.9388 12.4794C12.0185 12.5118 12.1039 12.528 12.1899 12.5269H13.1745L13.9966 14.6056C14.0464 14.729 14.1317 14.8347 14.2418 14.9094C14.3519 14.9841 14.4817 15.0244 14.6148 15.025H15.6091V16.241H13.1815C13.0084 16.2599 12.8481 16.3415 12.7309 16.4703C12.6136 16.599 12.5475 16.7662 12.5448 16.9404C12.5439 17.0265 12.5602 17.1119 12.5927 17.1916C12.6252 17.2713 12.6733 17.3437 12.7341 17.4046C12.795 17.4654 12.8674 17.5135 12.9471 17.546C13.0268 17.5785 13.1123 17.5948 13.1983 17.5938H15.5826V18.4725C15.5826 18.5926 15.5825 18.7012 15.5914 18.8089H14.5988C14.4663 18.8219 14.3397 18.8701 14.2322 18.9487C14.1247 19.0273 14.0402 19.1334 13.9877 19.2557L13.1674 21.33H12.1828C12.0968 21.3291 12.0113 21.3453 11.9316 21.3779C11.8519 21.4104 11.7795 21.4585 11.7186 21.5193C11.6578 21.5802 11.6097 21.6526 11.5772 21.7323C11.5447 21.812 11.5284 21.8974 11.5293 21.9835C11.5284 22.0696 11.5447 22.155 11.5772 22.2347C11.6097 22.3144 11.6578 22.3868 11.7186 22.4477C11.7795 22.5085 11.8519 22.5566 11.9316 22.5891C12.0113 22.6216 12.0968 22.6379 12.1828 22.637H13.6205C13.7539 22.6356 13.8839 22.5945 13.9939 22.5191C14.104 22.4436 14.1892 22.3371 14.2386 22.2131L15.0589 20.1388H15.9208C16.117 20.618 16.3938 21.06 16.7393 21.4457C16.8015 21.5153 16.8777 21.5709 16.963 21.6089C17.0482 21.6468 17.1406 21.6661 17.2339 21.6656C17.3965 21.6672 17.5538 21.6083 17.6754 21.5005C17.7416 21.442 17.795 21.3705 17.8322 21.2904C17.8694 21.2103 17.8897 21.1234 17.8917 21.0351C17.8945 20.9491 17.8798 20.8635 17.8485 20.7833C17.8172 20.7032 17.7701 20.6302 17.7098 20.5688C17.2027 19.9876 16.9208 19.2438 16.9151 18.4725V13.9168H19.332V17.2936C19.3311 17.3797 19.3473 17.4651 19.3798 17.5448C19.4123 17.6245 19.4604 17.6969 19.5213 17.7578C19.5822 17.8187 19.6546 17.8667 19.7343 17.8993C19.814 17.9318 19.8993 17.948 19.9854 17.9471C20.0714 17.9479 20.1568 17.9315 20.2364 17.899C20.316 17.8664 20.3883 17.8183 20.449 17.7575C20.5098 17.6966 20.5578 17.6242 20.5903 17.5446C20.6227 17.4649 20.639 17.3796 20.6381 17.2936V13.9168H23.0558V18.4725C23.0549 19.2865 22.7311 20.0669 22.1555 20.6425C21.5799 21.2181 20.7994 21.5419 19.9854 21.5429C19.7937 21.5386 19.6024 21.5233 19.4124 21.4969C19.3762 21.4909 19.3396 21.488 19.3029 21.4881C19.1474 21.4836 18.9955 21.5359 18.8757 21.6352C18.756 21.7345 18.6764 21.874 18.652 22.0276C18.6324 22.1106 18.63 22.1967 18.6452 22.2806C18.6604 22.3645 18.6928 22.4443 18.7404 22.5151C18.7873 22.5893 18.8492 22.6529 18.922 22.702C18.9948 22.7511 19.077 22.7846 19.1633 22.8003C19.4343 22.8471 19.7087 22.8714 19.9837 22.8727C20.8559 22.8706 21.7078 22.6092 22.4311 22.1218C23.1543 21.6343 23.7164 20.9429 24.0457 20.1353H24.9076L25.7297 22.214C25.7797 22.3372 25.8651 22.4428 25.9752 22.5175C26.0852 22.5922 26.2149 22.6325 26.3479 22.6334H27.7854C27.8714 22.6342 27.9568 22.6179 28.0364 22.5853C28.116 22.5528 28.1883 22.5047 28.249 22.4438C28.3098 22.383 28.3578 22.3106 28.3903 22.2309C28.4227 22.1513 28.439 22.066 28.4381 21.98C28.4386 21.8945 28.4222 21.8097 28.3899 21.7306C28.3575 21.6515 28.3097 21.5796 28.2494 21.5191C28.189 21.4586 28.1172 21.4106 28.0382 21.378C27.9592 21.3454 27.8744 21.3288 27.789 21.3292ZM17.8361 12.4103C17.8368 11.9588 18.0165 11.5259 18.3358 11.2066C18.6551 10.8873 19.0879 10.7076 19.5395 10.7069H20.3881C20.8398 10.7074 21.2727 10.887 21.5921 11.2064C21.9114 11.5257 22.0911 11.9587 22.0916 12.4103V12.6055H17.8361V12.4103Z" fill="#1A5D88"/>
<path d="M39.9998 5.81039C40.0071 5.31656 39.9154 4.82627 39.7303 4.36841C39.5451 3.91056 39.2701 3.49439 38.9216 3.14445C38.5671 2.78366 38.144 2.49735 37.6772 2.30234C37.2104 2.10733 36.7095 2.00754 36.2036 2.00885H13.1242C13.0148 2.00766 12.9063 2.02833 12.8051 2.06963C12.7039 2.11092 12.6119 2.17202 12.5346 2.24934C12.4573 2.32665 12.3962 2.41863 12.3549 2.51987C12.3136 2.62111 12.2929 2.72958 12.2941 2.83892C12.2928 2.94833 12.3134 3.05689 12.3546 3.15824C12.3958 3.25958 12.4569 3.35166 12.5342 3.42907C12.6116 3.50648 12.7036 3.56766 12.8049 3.60901C12.9062 3.65036 13.0148 3.67105 13.1242 3.66987H36.2036C36.7704 3.67057 37.3137 3.89604 37.7145 4.29681C38.1153 4.69759 38.3408 5.24096 38.3415 5.80774V26.7944H1.68597V5.80774C1.68667 5.24096 1.91213 4.69759 2.3129 4.29681C2.71368 3.89604 3.25705 3.67057 3.82384 3.66987H10.6507C10.7601 3.67105 10.8687 3.65036 10.9701 3.60902C11.0714 3.56768 11.1636 3.50652 11.241 3.42913C11.3184 3.35173 11.3795 3.25965 11.4208 3.1583C11.4622 3.05695 11.4828 2.94837 11.4816 2.83892C11.4828 2.72951 11.4622 2.62096 11.4208 2.51966C11.3795 2.41836 11.3183 2.32635 11.2409 2.24902C11.1635 2.17169 11.0714 2.11061 10.97 2.06937C10.8687 2.02813 10.7601 2.00755 10.6507 2.00885H3.79909C2.79253 2.01048 1.8277 2.41106 1.11595 3.12281C0.404208 3.83455 0.0035961 4.79941 0.00196151 5.80597V28.6867C-0.000154407 29.6969 0.398377 30.6667 1.11017 31.3834C1.82197 32.1002 2.78895 32.5054 3.79909 32.5104H14.273V34.5626L12.3506 36.4391H11.5912C11.4817 36.4379 11.3731 36.4586 11.2717 36.4999C11.1704 36.5412 11.0784 36.6024 11.001 36.6798C10.9236 36.7572 10.8624 36.8493 10.8211 36.9506C10.7797 37.052 10.759 37.1606 10.7602 37.27C10.759 37.3794 10.7797 37.488 10.8211 37.5893C10.8624 37.6906 10.9236 37.7826 11.001 37.8599C11.0784 37.9372 11.1705 37.9983 11.2718 38.0396C11.3732 38.0808 11.4818 38.1014 11.5912 38.1001H28.4857C28.5951 38.1013 28.7035 38.0806 28.8047 38.0393C28.906 37.998 28.998 37.9369 29.0753 37.8596C29.1527 37.7823 29.2137 37.6903 29.255 37.5891C29.2963 37.4878 29.3169 37.3793 29.3158 37.27C29.3169 37.1606 29.2963 37.0521 29.2551 36.9508C29.2138 36.8495 29.1526 36.7575 29.0753 36.6801C28.998 36.6027 28.9061 36.5416 28.8048 36.5002C28.7036 36.4588 28.5951 36.438 28.4857 36.4391H27.7952L25.8728 34.5626V32.5104H30.855C30.9644 32.5114 31.0728 32.4907 31.1741 32.4493C31.2753 32.4079 31.3673 32.3467 31.4446 32.2693C31.5219 32.1919 31.583 32.0999 31.6243 31.9986C31.6656 31.8973 31.6862 31.7888 31.685 31.6794C31.6862 31.5701 31.6655 31.4616 31.6242 31.3604C31.5829 31.2591 31.5218 31.1671 31.4445 31.0898C31.3672 31.0125 31.2752 30.9514 31.174 30.9101C31.0727 30.8688 30.9643 30.8482 30.855 30.8493H3.79383C3.22704 30.8486 2.68367 30.6232 2.28289 30.2224C1.88212 29.8216 1.65666 29.2782 1.65596 28.7115V28.5031H38.3362V28.7115C38.3355 29.2782 38.11 29.8216 37.7092 30.2224C37.3085 30.6232 36.7651 30.8486 36.1983 30.8493H33.3284C33.2191 30.8482 33.1106 30.8688 33.0093 30.9101C32.9081 30.9514 32.8161 31.0125 32.7388 31.0898C32.6615 31.1671 32.6004 31.2591 32.5591 31.3604C32.5178 31.4616 32.4971 31.5701 32.4983 31.6794C32.4971 31.7888 32.5178 31.8973 32.5591 31.9986C32.6004 32.0999 32.6614 32.1919 32.7387 32.2693C32.816 32.3467 32.908 32.4079 33.0092 32.4493C33.1105 32.4907 33.219 32.5114 33.3284 32.5104H36.1983C37.2084 32.5054 38.1754 32.1002 38.8872 31.3834C39.599 30.6667 39.9976 29.6969 39.9954 28.6867L39.9998 5.81039ZM14.7843 36.417L15.7203 35.5127C15.8091 35.437 15.8792 35.3419 15.9251 35.2347C15.9711 35.1274 15.9916 35.0111 15.9852 34.8946V32.4839H24.2188V34.8778C24.2055 34.9972 24.2228 35.1179 24.2692 35.2287C24.3155 35.3395 24.3894 35.4366 24.4837 35.511L25.4197 36.4143L14.7843 36.417Z" fill="#1A5D88"/>
<path d="M19.1934 29.356V29.6033C19.1922 29.7127 19.2129 29.8213 19.2543 29.9226C19.2956 30.024 19.3568 30.1161 19.4342 30.1935C19.5116 30.2709 19.6036 30.332 19.705 30.3734C19.8063 30.4147 19.9149 30.4354 20.0244 30.4342C20.1337 30.4353 20.2422 30.4145 20.3434 30.3731C20.4447 30.3317 20.5367 30.2705 20.614 30.1931C20.6913 30.1158 20.7524 30.0237 20.7937 29.9224C20.835 29.8211 20.8557 29.7126 20.8545 29.6033V29.356C20.8557 29.2467 20.835 29.1382 20.7937 29.0369C20.7524 28.9357 20.6913 28.8437 20.614 28.7664C20.5366 28.6891 20.4447 28.628 20.3434 28.5867C20.2422 28.5454 20.1337 28.5247 20.0244 28.5259C19.805 28.5287 19.5953 28.617 19.4401 28.772C19.2849 28.9271 19.1964 29.1366 19.1934 29.356Z" fill="#1A5D88"/>
<path d="M38.8993 3.15685C38.5383 2.78901 38.1073 2.49716 37.6317 2.29849C37.1561 2.09982 36.6455 1.99835 36.1301 2.00005H13.1531C13.0326 1.99875 12.913 2.02153 12.8014 2.06704C12.6898 2.11256 12.5885 2.17989 12.5033 2.2651C12.4181 2.35031 12.3507 2.45169 12.3052 2.56327C12.2597 2.67485 12.2369 2.79439 12.2382 2.91489C12.2369 3.03539 12.2597 3.15494 12.3052 3.26652C12.3507 3.3781 12.4181 3.47947 12.5033 3.56468C12.5885 3.6499 12.6898 3.71723 12.8014 3.76275C12.913 3.80826 13.0326 3.83103 13.1531 3.82973H36.1301C36.6712 3.8302 37.19 4.04536 37.5726 4.42797C37.9552 4.81058 38.1703 5.32937 38.1708 5.87047V26.6743H1.85261V5.87047C1.85284 5.32945 2.06784 4.81066 2.45031 4.42802C2.83278 4.04538 3.3515 3.8302 3.89251 3.82973H10.692C10.8125 3.83103 10.932 3.80826 11.0436 3.76275C11.1552 3.71723 11.2566 3.6499 11.3418 3.56468C11.427 3.47947 11.4943 3.3781 11.5398 3.26652C11.5853 3.15494 11.6081 3.03539 11.6068 2.91489C11.6081 2.79439 11.5853 2.67485 11.5398 2.56327C11.4943 2.45169 11.427 2.35031 11.3418 2.2651C11.2566 2.17989 11.1552 2.11256 11.0436 2.06704C10.932 2.02153 10.8125 1.99875 10.692 2.00005H3.87043C2.84429 2.00122 1.86046 2.40937 1.13487 3.13496C0.409279 3.86055 0.00117871 4.84433 1.01146e-05 5.87047V28.6532C-0.00233714 29.6826 0.403941 30.6709 1.12961 31.401C1.85528 32.1312 2.84103 32.5435 3.87043 32.5475H14.2101V34.4664L12.3477 36.2837H11.628C11.5075 36.2824 11.388 36.3051 11.2764 36.3507C11.1649 36.3962 11.0634 36.4635 10.9782 36.5487C10.893 36.6339 10.8257 36.7353 10.7801 36.8469C10.7346 36.9585 10.7118 37.078 10.7131 37.1985C10.7118 37.319 10.7346 37.4386 10.7801 37.5501C10.8257 37.6617 10.893 37.7631 10.9782 37.8483C11.0634 37.9335 11.1649 38.0009 11.2764 38.0464C11.388 38.0919 11.5075 38.1147 11.628 38.1134H28.4484C28.5689 38.1145 28.6883 38.0917 28.7998 38.0461C28.9112 38.0005 29.0125 37.9332 29.0976 37.848C29.1827 37.7628 29.25 37.6615 29.2954 37.5499C29.3409 37.4384 29.3637 37.3189 29.3624 37.1985C29.3637 37.0781 29.3409 36.9586 29.2954 36.8471C29.25 36.7356 29.1827 36.6342 29.0976 36.549C29.0125 36.4638 28.9112 36.3965 28.7998 36.3509C28.6883 36.3054 28.5689 36.2825 28.4484 36.2837H27.802L25.9397 34.4664V32.5475H30.8123C30.9328 32.5488 31.0524 32.526 31.164 32.4805C31.2756 32.435 31.3769 32.3676 31.4621 32.2824C31.5473 32.1972 31.6147 32.0958 31.6602 31.9843C31.7057 31.8727 31.7285 31.7531 31.7272 31.6326C31.7284 31.5122 31.7055 31.3928 31.6599 31.2813C31.6144 31.1698 31.547 31.0685 31.4618 30.9834C31.3766 30.8983 31.2753 30.831 31.1637 30.7856C31.0522 30.7401 30.9327 30.7174 30.8123 30.7187H3.87043C3.32934 30.7182 2.8105 30.5031 2.42789 30.1204C2.04528 29.7378 1.83014 29.219 1.82967 28.6779V28.5578H19.5251C19.3992 28.6411 19.2957 28.7539 19.2235 28.8865C19.1513 29.019 19.1127 29.1672 19.111 29.3181V29.5645C19.1098 29.685 19.1327 29.8044 19.1783 29.9159C19.2239 30.0274 19.2912 30.1286 19.3764 30.2137C19.4616 30.2989 19.5629 30.3661 19.6744 30.4116C19.7859 30.457 19.9054 30.4798 20.0258 30.4785C20.1462 30.4798 20.2657 30.457 20.3771 30.4116C20.4886 30.3661 20.5899 30.2988 20.675 30.2137C20.7601 30.1286 20.8274 30.0273 20.8729 29.9158C20.9184 29.8043 20.9411 29.6849 20.9398 29.5645V29.3181C20.9414 29.1683 20.9057 29.0204 20.8361 28.8877C20.7664 28.755 20.6649 28.6417 20.5406 28.5578H38.1726V28.6779C38.1719 29.219 37.9567 29.7376 37.5741 30.1202C37.1915 30.5027 36.6729 30.718 36.1319 30.7187H33.2699C33.1494 30.7174 33.03 30.7401 32.9185 30.7856C32.8069 30.831 32.7056 30.8983 32.6204 30.9834C32.5352 31.0685 32.4678 31.1698 32.4223 31.2813C32.3767 31.3928 32.3538 31.5122 32.355 31.6326C32.3537 31.7531 32.3765 31.8727 32.422 31.9843C32.4675 32.0958 32.5349 32.1972 32.6201 32.2824C32.7053 32.3676 32.8066 32.435 32.9182 32.4805C33.0298 32.526 33.1494 32.5488 33.2699 32.5475H36.1265C37.1558 32.5433 38.1413 32.1308 38.8668 31.4007C39.5923 30.6706 39.9984 29.6825 39.9961 28.6532V5.87489C40.0037 5.3716 39.9106 4.87186 39.7223 4.40508C39.5339 3.9383 39.2541 3.5139 38.8993 3.15685ZM15.7952 35.5128C15.8924 35.429 15.9691 35.3241 16.0196 35.2061C16.0702 35.0881 16.0931 34.9601 16.0866 34.8319V32.5201H24.1082V34.8107C24.0936 34.9418 24.1123 35.0744 24.1624 35.1963C24.2126 35.3182 24.2926 35.4255 24.3952 35.5084L25.1705 36.2572H15.0251L15.7952 35.5128Z" fill="#1A5D88"/>
</svg>
