<svg width="45" height="48" viewBox="0 0 45 48" fill="none" xmlns="http://www.w3.org/2000/svg">
<path d="M7.12688 16.0542H9.01021C9.01021 16.165 9.01021 16.2758 9.01021 16.3765C9.10085 17.0513 9.20157 17.7462 9.36271 18.3907C9.95601 21.2805 11.5725 23.859 13.9149 25.6522C15.4031 26.8276 17.2358 27.4821 19.1319 27.5153C20.5339 27.4912 21.9119 27.1467 23.1604 26.5082C24.3648 25.8646 25.4295 24.9883 26.2925 23.93C27.9051 22.0466 28.9525 19.7459 29.3139 17.293C29.3844 16.8801 29.4247 16.4571 29.465 16.024H29.7369C30.2808 16.024 30.8246 16.024 31.3685 16.024C31.774 16.0011 32.1587 15.8372 32.4562 15.5607C32.6742 15.346 32.8203 15.0689 32.8744 14.7678C32.9285 14.4666 32.888 14.156 32.7583 13.8788C32.6417 13.6007 32.4412 13.3659 32.1849 13.2071C31.9286 13.0482 31.6291 12.9732 31.3282 12.9925H30.8649C30.86 12.9625 30.86 12.9319 30.8649 12.9019C30.8649 12.3077 30.7944 11.7437 30.7239 11.1596C30.5707 9.93222 30.1588 8.75137 29.5154 7.69503C29.4687 7.55656 29.4115 7.42188 29.3442 7.29218C28.6657 6.07952 27.7754 4.99824 26.7155 4.09958L26.6148 4.01901C26.2994 3.74433 25.9626 3.49513 25.6077 3.27374C25.3493 3.1086 25.0539 3.01019 24.748 2.98734C24.4422 2.96449 24.1354 3.01791 23.8553 3.14281L23.6438 3.29388C23.6395 3.26719 23.6395 3.23999 23.6438 3.21331C23.6438 2.9011 23.8352 1.79325 23.8553 1.56161C23.8926 1.23633 23.8113 0.908507 23.6263 0.638378C23.4412 0.368249 23.165 0.173959 22.8482 0.091206C22.3271 0.0256826 21.8022 -0.00460009 21.277 0.000564416H15.7378C15.5138 -0.00255723 15.2916 0.0426004 15.0866 0.132968C14.8815 0.223335 14.6983 0.356794 14.5494 0.524272C14.4049 0.697182 14.2987 0.898827 14.2379 1.11586C14.1772 1.33289 14.1632 1.56035 14.1969 1.78318L14.2473 2.13568C14.2473 2.32703 14.2976 2.50832 14.3279 2.69967C13.8948 2.9011 13.4517 3.10252 13.0186 3.35431C11.7653 4.07847 10.6725 5.05018 9.80673 6.21025C8.941 7.37033 8.32047 8.69448 7.98294 10.1021C7.74864 11.0509 7.63361 12.0253 7.64051 13.0026H7.12688C6.92811 13.0026 6.73131 13.0421 6.54792 13.1187C6.36454 13.1954 6.1982 13.3077 6.05859 13.4492C5.91898 13.5907 5.80887 13.7585 5.73465 13.9429C5.66043 14.1273 5.62359 14.3246 5.62626 14.5234C5.61796 14.7241 5.65086 14.9243 5.72294 15.1118C5.79502 15.2993 5.90475 15.47 6.04536 15.6135C6.18597 15.7569 6.35448 15.87 6.54049 15.9458C6.72649 16.0216 6.92606 16.0585 7.12688 16.0542ZM20.8541 24.2019C20.4914 24.3078 20.1209 24.3852 19.7462 24.4335H19.4642C18.5482 24.4351 17.6425 24.2399 16.8085 23.8611C15.9745 23.4823 15.2315 22.9288 14.63 22.238C13.184 20.579 12.2961 18.5073 12.092 16.3161C12.0872 16.2288 12.0872 16.1414 12.092 16.0542H26.4134C26.2631 17.846 25.679 19.5743 24.7114 21.0899C23.8496 22.5642 22.4772 23.6714 20.8541 24.2019ZM23.3114 5.29807C23.4494 5.503 23.6276 5.67774 23.8352 5.8117C24.8594 6.44826 25.7324 7.30064 26.3933 8.30938C27.3119 9.7018 27.7989 11.3345 27.7932 13.0026H10.7525C10.7372 12.7141 10.7372 12.425 10.7525 12.1365C10.833 11.0131 11.1566 9.92068 11.7009 8.93471C12.2452 7.94874 12.9972 7.09278 13.9049 6.42605C14.1821 6.21594 14.475 6.0274 14.7811 5.86206C14.7811 6.0937 14.8616 6.32534 14.8918 6.54691L15.1134 7.69503C15.2343 8.46045 15.3451 9.2158 15.4659 9.97115C15.4985 10.1731 15.5715 10.3663 15.6805 10.5394C15.7895 10.7124 15.9324 10.8617 16.1004 10.9783C16.269 11.0945 16.46 11.1743 16.6611 11.2124C16.8623 11.2506 17.0692 11.2463 17.2687 11.1998C17.4678 11.1649 17.6578 11.0904 17.8276 10.9807C17.9974 10.871 18.1434 10.7283 18.257 10.5612C18.3707 10.394 18.4496 10.2057 18.4891 10.0075C18.5287 9.80927 18.5281 9.60513 18.4873 9.40715C18.3967 8.87337 18.306 8.3396 18.2254 7.80582L17.5003 3.07231H20.5217V3.31402L19.7563 8.09788C19.6858 8.59138 19.6052 9.10501 19.5549 9.56829C19.5283 9.76134 19.5424 9.9578 19.5962 10.1451C19.6499 10.3324 19.7422 10.5064 19.8671 10.656C20.0003 10.8159 20.1644 10.9474 20.3495 11.0425C20.5347 11.1377 20.7371 11.1946 20.9447 11.2099C21.3326 11.2527 21.7219 11.1417 22.0288 10.9007C22.3358 10.6596 22.5359 10.3078 22.5863 9.92079L23.0899 6.6879C23.1704 6.21455 23.2409 5.76134 23.3114 5.29807Z" fill="#9E9E9E"/>
<path d="M44.4167 32.9937C44.1549 32.46 43.7117 32.4096 43.329 32.8729C43.1074 33.1347 42.8959 33.4067 42.6643 33.6585C42.608 33.7288 42.5379 33.7867 42.4582 33.8287C42.3786 33.8706 42.2911 33.8957 42.2013 33.9023C42.1115 33.9089 42.0213 33.8969 41.9363 33.8671C41.8514 33.8373 41.7735 33.7902 41.7075 33.729C41.6291 33.6734 41.5637 33.6014 41.5158 33.5181C41.4678 33.4348 41.4386 33.342 41.43 33.2463C41.4213 33.1506 41.4336 33.0541 41.4659 32.9635C41.4981 32.873 41.5497 32.7905 41.6169 32.7218C41.8284 32.4499 42.06 32.1981 42.2715 31.9262C42.3446 31.8533 42.3955 31.7611 42.4182 31.6604C42.4408 31.5597 42.4343 31.4546 42.3995 31.3574C42.3646 31.2602 42.3028 31.175 42.2213 31.1116C42.1398 31.0483 42.0419 31.0094 41.9392 30.9996C41.4369 30.8843 40.915 30.8842 40.4127 30.9994C39.9103 31.1145 39.4406 31.3418 39.0386 31.6643C38.4991 32.0687 38.0876 32.6202 37.8536 33.2525C37.6196 33.8849 37.573 34.5714 37.7193 35.2296C37.7272 35.2734 37.7259 35.3185 37.7155 35.3618C37.7051 35.4051 37.6858 35.4458 37.6589 35.4814L36.2086 37.2136C35.2485 38.3483 34.2951 39.4897 33.3484 40.6379C33.296 40.707 33.2269 40.7617 33.1477 40.7969C33.0684 40.8321 32.9816 40.8467 32.8951 40.8393C32.2432 40.8245 31.6005 40.9957 31.0423 41.3328C30.4841 41.6699 30.0333 42.1589 29.7428 42.7428C29.5148 43.1727 29.3783 43.6453 29.3419 44.1306C29.3055 44.6159 29.37 45.1035 29.5313 45.5627C29.5567 45.6846 29.6153 45.7971 29.7006 45.8877C29.7859 45.9784 29.8946 46.0437 30.0148 46.0764C30.1376 46.0964 30.2636 46.0794 30.3767 46.0273C30.4897 45.9753 30.5846 45.8907 30.6493 45.7843C30.8205 45.5627 31.0118 45.3512 31.1931 45.1297C31.2482 45.0512 31.3193 44.9854 31.4019 44.9365C31.4844 44.8877 31.5763 44.8571 31.6716 44.8466C31.7669 44.8361 31.8633 44.8461 31.9545 44.8758C32.0456 44.9055 32.1294 44.9543 32.2002 45.0189C32.2794 45.0742 32.3454 45.1463 32.3934 45.23C32.4414 45.3138 32.4703 45.4072 32.478 45.5034C32.4857 45.5997 32.4721 45.6965 32.438 45.7868C32.4039 45.8772 32.3502 45.9588 32.2808 46.026L31.606 46.8317C31.5211 46.904 31.459 46.9994 31.4274 47.1063C31.3958 47.2133 31.396 47.3272 31.4281 47.434C31.4601 47.5408 31.5226 47.636 31.6078 47.7079C31.6931 47.7798 31.7975 47.8253 31.9082 47.8388C32.2304 47.9194 32.5527 47.9597 32.8045 48C33.0712 47.9843 33.3368 47.9541 33.6001 47.9093C33.817 47.8606 34.0293 47.7932 34.2346 47.7079C34.9411 47.4298 35.5367 46.9273 35.9297 46.2777C36.3227 45.6281 36.4915 44.8673 36.41 44.1125C36.3699 43.9029 36.382 43.6867 36.4452 43.483C36.5085 43.2792 36.6209 43.0942 36.7726 42.9442C38.1221 41.3529 39.4616 39.7516 40.8011 38.1503C40.8715 38.0805 40.9642 38.0378 41.063 38.0294C41.8302 38.0494 42.5842 37.8274 43.2182 37.3949C43.904 36.9196 44.4001 36.2177 44.6193 35.4127C44.8385 34.6076 44.7668 33.7511 44.4167 32.9937Z" fill="#9E9E9E"/>
<path d="M34.2329 32.5106C34.1857 32.2485 34.0746 32.002 33.9095 31.7929C33.7444 31.5839 33.5303 31.4188 33.2862 31.3121L29.8418 29.7309L24.6148 27.334C24.252 27.1172 23.8185 27.0517 23.4078 27.1516C22.9971 27.2514 22.6421 27.5086 22.4193 27.8678L22.2783 28.049C22.1171 28.2505 21.9661 28.462 21.7948 28.6432C21.3955 29.0478 20.9088 29.3553 20.372 29.5422C19.8352 29.7291 19.2626 29.7904 18.6984 29.7213C18.1342 29.6523 17.5934 29.4547 17.1175 29.1438C16.6417 28.833 16.2434 28.4171 15.9535 27.9282C15.7777 27.5697 15.4672 27.2953 15.0897 27.1651C14.7123 27.0349 14.2987 27.0594 13.9392 27.2333L11.925 28.1195L9.47765 29.2173L5.44913 31.0201C4.5472 31.3791 3.7024 31.8676 2.94138 32.4703C2.02712 33.2218 1.28964 34.1655 0.781368 35.2343C0.273094 36.303 0.00650867 37.4707 0.000564679 38.6541C0.000564679 39.6008 0.000564679 40.5475 0.000564679 41.4942V42.5718C-0.00511763 42.7824 0.0321356 42.9919 0.110053 43.1875C0.187971 43.3832 0.304921 43.5609 0.453773 43.7099C0.598291 43.8486 0.768773 43.9573 0.955432 44.0299C1.14209 44.1025 1.34125 44.1375 1.54147 44.1329C1.74539 44.1374 1.94803 44.0996 2.13668 44.0221C2.32534 43.9446 2.49593 43.8289 2.63778 43.6823C2.77962 43.5358 2.88964 43.3615 2.96095 43.1704C3.03226 42.9793 3.06332 42.7755 3.05217 42.5718V41.7259C3.05217 41.2324 3.05217 40.7187 3.05217 40.2353V39.6713C3.04693 39.0816 3.08733 38.4923 3.17302 37.9088C3.25971 37.1654 3.52839 36.4547 3.95527 35.8399C4.38215 35.225 4.95406 34.7249 5.62035 34.3839C6.39584 33.971 7.23175 33.6084 8.02738 33.2559L8.27917 33.1451V42.2093C8.27917 42.4107 8.27917 42.6121 8.27917 42.8136C8.31226 43.0953 8.42005 43.363 8.59138 43.589C8.73517 43.7686 8.91759 43.9135 9.12508 44.0129C9.33257 44.1123 9.5598 44.1636 9.78986 44.1631C9.97148 44.1616 10.1517 44.131 10.3236 44.0725C10.6319 43.9691 10.8975 43.7671 11.0796 43.4977C11.2616 43.2283 11.3499 42.9065 11.3308 42.5819V39.7317H28.452C28.6915 39.7529 28.9328 39.7215 29.1589 39.6397C29.3851 39.558 29.5906 39.4278 29.7612 39.2584C29.9383 39.0832 30.0758 38.8721 30.1644 38.6393C30.253 38.4065 30.2907 38.1574 30.2749 37.9088C30.2749 36.6197 30.2749 35.3407 30.2749 34.0515V33.2962L32.0373 34.1019C32.3127 34.2518 32.6283 34.3111 32.9393 34.2714C33.2503 34.2316 33.5409 34.0947 33.7696 33.8803C33.9552 33.7089 34.0948 33.4938 34.1758 33.2545C34.2567 33.0152 34.2763 32.7595 34.2329 32.5106ZM27.183 36.1564V36.66H11.3408V34.968C11.3408 33.9609 11.3408 32.8933 11.3408 31.856L12.8213 31.151L14.0903 30.5467C14.8162 31.3894 15.7437 32.0345 16.7862 32.422C17.8288 32.8094 18.9525 32.9265 20.0525 32.7624C21.6783 32.5778 23.1745 31.7866 24.2422 30.5467L25.6219 31.1812L27.1729 31.8963C27.1931 33.3063 27.183 34.7263 27.183 36.1564Z" fill="#9E9E9E"/>
</svg>
