<svg width="65" height="48" viewBox="0 0 65 48" fill="none" xmlns="http://www.w3.org/2000/svg">
<path d="M29.1792 0.0174853C37.1756 0.0174853 45.1712 0.0174853 53.1662 0.0174853C55.5994 0.0174853 57.5168 1.52488 57.9957 3.81014C58.0758 4.23034 58.113 4.65759 58.1066 5.08532C58.1121 10.5656 58.109 16.0458 58.0974 21.526C58.0974 21.9257 58.2073 22.1611 58.5588 22.3892C63.5177 25.6146 65.9149 31.5487 64.5709 37.2125C63.9166 40.0184 62.4096 42.5528 60.257 44.4678C58.1043 46.3827 55.4116 47.5842 52.5486 47.9072C45.8162 48.6995 39.3765 44.3416 37.5999 37.7654C37.4694 37.2814 37.2865 37.1324 36.7779 37.1334C26.2284 37.1485 15.6817 37.1522 5.13772 37.1447C2.00268 37.1447 0 35.1451 0 32.007C0 23.0009 0 13.9948 0 4.98873C0 2.07462 2.06846 0.00102754 4.98258 0C13.0467 0 21.1109 0 29.1751 0L29.1792 0.0174853ZM54.6716 17.5453H3.40221V18.168C3.40221 22.7906 3.40221 27.4146 3.40221 32.0399C3.40221 33.2493 3.90571 33.7508 5.12335 33.7508H37.0646C37.0831 33.5452 37.0985 33.4127 37.1067 33.2781C37.2434 31.1254 37.7705 29.0703 38.9039 27.2351C40.0034 25.4564 41.1974 23.7753 43.0603 22.6111C45.7463 20.928 48.5854 20.0012 51.7544 20.1913C52.7213 20.2488 53.68 20.4266 54.6716 20.553V17.5453ZM54.6716 9.63323C54.6829 9.43389 54.7003 9.2664 54.7003 9.09994C54.7003 7.74769 54.7003 6.3951 54.7003 5.04217C54.7003 3.93448 54.1783 3.42276 53.0563 3.42276C50.3511 3.42276 47.6452 3.42276 44.9387 3.42276H5.09149C3.90057 3.42276 3.40324 3.9201 3.40221 5.10177C3.40221 6.41909 3.40221 7.73708 3.40221 9.05577V9.63323H54.6716ZM51.0125 23.5544C45.213 23.5544 40.4812 28.2719 40.4812 34.0631C40.4812 39.8831 45.2079 44.5872 51.0495 44.5872C56.8037 44.5872 61.5212 39.8605 61.5304 34.0785C61.5397 28.2965 56.814 23.5544 51.0145 23.5503L51.0125 23.5544Z" fill="#F76A2A"/>
<path d="M43.0234 34.2583L45.8893 31.1109L50.3169 35.1338L55.8195 27.1631L59.3224 29.5819L51.0547 41.5672L43.0234 34.2583Z" fill="#F76A2A"/>
</svg>
