<svg width="48" height="48" viewBox="0 0 48 48" fill="none" xmlns="http://www.w3.org/2000/svg">
<path d="M47.8032 28.334C47.6186 28.8868 47.2676 29.3686 46.7983 29.7131C46.329 30.0576 45.7644 30.2476 45.1827 30.2573H41.5734V44.9131C41.6048 45.695 41.3271 46.4576 40.8005 47.0355C40.2739 47.6135 39.541 47.9601 38.761 48H29.4499C28.9408 48 28.4524 47.7972 28.0923 47.4365C27.7323 47.0758 27.5301 46.5868 27.5301 46.0767V32.1905C27.5301 31.6804 27.3277 31.1913 26.9677 30.8306C26.6076 30.47 26.1195 30.2672 25.6103 30.2672H22.3849C21.8757 30.2672 21.3876 30.47 21.0275 30.8306C20.6675 31.1913 20.4651 31.6804 20.4651 32.1905V46.0767C20.4651 46.5868 20.2629 47.0758 19.9029 47.4365C19.5429 47.7972 19.0545 48 18.5453 48H9.24386C8.4629 47.9626 7.72858 47.6169 7.20148 47.0383C6.67439 46.4598 6.39751 45.6957 6.4314 44.9131V30.2672H2.81254C2.23211 30.2569 1.66906 30.0665 1.20137 29.722C0.733674 29.3775 0.384436 28.8959 0.201623 28.3439C-0.000415008 27.7906 -0.0517849 27.1933 0.0528096 26.6136C0.157404 26.0339 0.414069 25.4926 0.796643 25.0452L21.9818 0.888871C22.239 0.608804 22.5513 0.384888 22.8991 0.231961C23.2469 0.079034 23.6226 0 24.0024 0C24.3822 0 24.7579 0.079034 25.1057 0.231961C25.4535 0.384888 25.7659 0.608804 26.023 0.888871L47.2082 25.0551C47.5873 25.5005 47.8421 26.0386 47.9466 26.6145C48.0511 27.1904 48.0016 27.7834 47.8032 28.334Z" fill="#1A5D88"/>
</svg>
