<svg width="15" height="15" viewBox="0 0 15 15" fill="none" xmlns="http://www.w3.org/2000/svg">
<path d="M14.6506 1.24875L13.7502 0.34839C13.6387 0.234135 13.5048 0.144185 13.3569 0.084308C13.2089 0.0244312 13.0504 -0.00411066 12.8909 0.000477075C12.7314 -0.00337205 12.5729 0.0255733 12.425 0.0854071C12.2772 0.145241 12.1432 0.234732 12.0314 0.34839L11.1719 1.20778L13.7911 3.82712L14.6506 2.96763C14.7643 2.85577 14.8538 2.72178 14.9136 2.57396C14.9734 2.42613 15.0024 2.26767 14.9985 2.10824C15.0024 1.94881 14.9734 1.79025 14.9136 1.64242C14.8538 1.4946 14.7643 1.36061 14.6506 1.24875Z" fill="#9E9E9E"/>
<path d="M12.9327 4.68666L2.61928 15.0001H0V12.3808L10.3134 2.06738L12.9327 4.68666Z" fill="#9E9E9E"/>
</svg>
