<svg width="15" height="21" viewBox="0 0 15 21" fill="none" xmlns="http://www.w3.org/2000/svg">
<path d="M2.57031 6.98324H2.61524L2.61896 6.87402L2.57031 6.98324Z" fill="#9E9E9E"/>
<path d="M4.51256 12.1421C4.97168 12.1615 5.30717 12.3457 5.50884 12.7187C5.76556 13.1936 6.01189 13.6735 6.25933 14.1527C6.29381 14.2196 6.33533 14.2522 6.41651 14.2631C6.97258 14.3373 7.52865 14.414 8.08249 14.4963C8.53975 14.564 8.84929 14.8094 8.98367 15.2275C9.11342 15.6313 9.00221 15.9872 8.68915 16.286C8.58961 16.3809 8.49323 16.4786 8.33698 16.4961C8.15403 16.5162 7.97201 16.4357 7.88527 16.284C7.84126 16.2064 7.82383 16.1177 7.83538 16.0303C7.84693 15.9428 7.8869 15.8609 7.94977 15.7959C7.98554 15.7598 8.02391 15.7258 8.06209 15.6919C8.13457 15.6281 8.16144 15.5518 8.12993 15.4619C8.09842 15.3721 8.02298 15.3326 7.92604 15.3196C7.57164 15.2725 7.21744 15.2238 6.86304 15.1757C6.64061 15.1454 6.41578 15.1216 6.19428 15.0834C5.88103 15.0295 5.64229 14.8682 5.49809 14.5982C5.23692 14.109 4.98169 13.6176 4.72516 13.1258C4.68215 13.0437 4.6221 12.9889 4.5196 12.9875C4.41098 12.9859 4.35278 13.0479 4.30922 13.1319C4.06826 13.5917 3.81766 14.0472 3.58838 14.5119C3.4084 14.8766 3.1122 15.0571 2.69868 15.1072C2.17246 15.1706 1.6479 15.2473 1.12317 15.3185C1.02715 15.3315 0.941336 15.3625 0.908343 15.4586C0.87535 15.5548 0.912421 15.6337 0.98786 15.702C1.38693 16.0671 1.78247 16.4357 2.18265 16.7995C2.45939 17.0513 2.55429 17.35 2.48534 17.7062C2.38488 18.225 2.29461 18.7456 2.20045 19.2656C2.18451 19.3532 2.21195 19.4281 2.29054 19.4804C2.36913 19.5328 2.45253 19.5253 2.5352 19.4841C2.77814 19.3633 3.02126 19.2429 3.26457 19.1229C3.49886 19.0077 3.75909 19.0768 3.88087 19.2852C3.99913 19.4876 3.92202 19.7378 3.69422 19.8559C3.42935 19.9931 3.16281 20.1292 2.88997 20.2514C2.21676 20.5529 1.45032 20.184 1.32799 19.4899C1.29703 19.3148 1.32799 19.1238 1.35802 18.9439C1.43401 18.4803 1.52483 18.0187 1.61028 17.5566C1.62251 17.491 1.60787 17.4442 1.55356 17.3949C1.15097 17.0291 0.749499 16.6619 0.353212 16.2898C0.0175353 15.9746 -0.0864542 15.5966 0.0738772 15.175C0.233097 14.7565 0.567475 14.5385 1.03234 14.4826C1.44235 14.4332 1.85068 14.3711 2.25957 14.3142C2.3908 14.2967 2.52297 14.2811 2.65216 14.2538C2.69975 14.2417 2.74041 14.2125 2.76541 14.1724C3.0249 13.6856 3.2755 13.1944 3.5376 12.7089C3.74352 12.3293 4.08995 12.1592 4.51256 12.1421Z" fill="#9E9E9E"/>
<path d="M4.01972 19.7908C4.06114 19.5353 4.10221 19.2828 4.14309 19.0304C4.15966 18.9282 4.1727 18.8252 4.19473 18.7242C4.21236 18.6462 4.18997 18.5895 4.1364 18.5359C3.91063 18.3092 3.68663 18.0805 3.46228 17.8522C3.30261 17.6896 3.25079 17.4928 3.31741 17.2738C3.38403 17.0548 3.53401 16.9238 3.75572 16.889C4.06308 16.8412 4.37009 16.7902 4.67834 16.7494C4.77333 16.7367 4.82232 16.6896 4.86127 16.6055C4.99733 16.3123 5.13303 16.0173 5.27843 15.7285C5.31623 15.6522 5.37056 15.5861 5.43712 15.5354C5.50369 15.4846 5.58068 15.4507 5.66202 15.4362C5.74336 15.4217 5.82683 15.427 5.90585 15.4518C5.98486 15.4766 6.05726 15.5201 6.11733 15.5789C6.17312 15.6372 6.2189 15.7049 6.25269 15.7792C6.38875 16.0563 6.52134 16.3353 6.65046 16.6161C6.68712 16.6955 6.73541 16.736 6.82212 16.7479C7.13319 16.7906 7.44337 16.8408 7.75373 16.8895C7.96786 16.9233 8.11431 17.0506 8.18445 17.2601C8.25742 17.478 8.21159 17.6771 8.05351 17.841C7.83726 18.0647 7.61907 18.2868 7.39736 18.5047C7.32422 18.5767 7.29621 18.6464 7.3163 18.7543C7.37481 19.0686 7.42204 19.385 7.47121 19.701C7.50646 19.9225 7.43702 20.1069 7.26448 20.2404C7.08612 20.3784 6.88909 20.3936 6.69153 20.2897C6.40954 20.1413 6.12949 19.9863 5.85086 19.83C5.78424 19.7924 5.72749 19.7904 5.66105 19.827C5.39475 19.9753 5.12616 20.119 4.86004 20.2668C4.53893 20.4462 4.17658 20.3218 4.05903 19.985C4.03752 19.9236 4.03241 19.8554 4.01972 19.7908Z" fill="#9E9E9E"/>
<path d="M14.9971 19.0603C14.9517 18.1642 14.9056 17.268 14.8586 16.3717C14.8003 15.2195 14.7424 14.0671 14.6848 12.9147C14.6186 11.593 14.5524 10.2712 14.4862 8.94935C14.4265 7.74332 14.3673 6.5372 14.3087 5.331C14.2777 4.69232 13.823 4.25346 13.185 4.25246C12.5397 4.25246 11.8943 4.24874 11.2489 4.25519C11.1297 4.25644 11.098 4.21523 11.0821 4.10626C10.9473 3.18609 10.5856 2.36869 9.94026 1.69278C9.28371 1.00719 8.48319 0.622191 7.52281 0.641304C6.59122 0.659673 5.82595 1.06155 5.20092 1.73721C4.58036 2.40742 4.23483 3.21042 4.10203 4.108C4.0854 4.22119 4.04891 4.25693 3.93299 4.25569C3.27098 4.24998 2.60897 4.25073 1.9472 4.2537C1.40111 4.25619 0.917578 4.69505 0.887295 5.22352C0.840629 6.03694 0.80265 6.85087 0.763183 7.66455C0.734141 8.24291 0.708576 8.82127 0.678789 9.39963C0.643541 10.0894 0.600844 10.7788 0.570312 11.4686C0.570312 11.6068 0.625235 11.7394 0.722992 11.8372C0.820749 11.9349 0.953333 11.9898 1.09158 11.9898H1.87498C2.02708 11.9897 2.17321 11.9306 2.28257 11.8249C2.39194 11.7192 2.456 11.5752 2.46127 11.4232L2.61319 6.98268H2.56826L2.6179 6.87346L2.61418 6.98268H12.8658C12.9445 6.98268 13.0234 6.9869 13.1016 6.98268C13.1798 6.97846 13.2009 7.00626 13.2039 7.08197C13.2404 7.84625 13.2816 8.61028 13.3191 9.37456C13.3658 10.3203 13.4084 11.2663 13.4559 12.2123C13.5092 13.2779 13.5661 14.3433 13.6204 15.4089C13.6777 16.528 13.7342 17.6474 13.79 18.7669C13.7939 18.848 13.79 18.9297 13.79 19.028H13.5991C12.4076 19.028 11.2161 19.028 10.0247 19.028C9.67193 19.028 9.41775 19.2839 9.42073 19.6279C9.4237 19.9628 9.6831 20.2155 10.0271 20.2157C11.3179 20.2157 12.6087 20.2157 13.8994 20.2157C14.0489 20.2172 14.1971 20.1878 14.3348 20.1295C14.4724 20.0712 14.5966 19.9851 14.6996 19.8767C14.8026 19.7684 14.8821 19.6399 14.9333 19.4995C14.9845 19.359 15.0062 19.2095 14.9971 19.0603ZM9.89136 4.24278H5.26819C5.32379 4.03279 5.36375 3.83495 5.42854 3.6458C5.63283 3.04858 5.96148 2.53649 6.4959 2.18128C7.25199 1.67814 8.13742 1.7176 8.84485 2.28901C9.4463 2.77504 9.75036 3.43208 9.89458 4.17551C9.89591 4.19799 9.89483 4.22054 9.89136 4.24278Z" fill="#9E9E9E"/>
<path d="M2.61896 6.87402L2.61524 6.98324H2.57031L2.61896 6.87402Z" fill="#9E9E9E"/>
</svg>
