<svg width="19" height="35" viewBox="0 0 19 35" fill="none" xmlns="http://www.w3.org/2000/svg">
<path d="M9.13301 13.831C9.31656 13.2588 9.15664 12.8596 8.6401 12.6413C7.64633 12.2208 7.43657 11.4757 7.46017 10.4165C7.53359 6.98068 7.48641 3.54223 7.48641 0.0532227H12.0408V0.819689C12.0408 4.01329 11.9937 7.2069 12.0698 10.4165C12.096 11.481 11.8862 12.2235 10.8924 12.644C10.368 12.8622 10.208 13.2561 10.4073 13.8656C10.8531 13.8656 11.3225 13.8789 11.7918 13.8656C12.3556 13.8469 12.6938 14.1024 12.5994 14.6773C12.3687 16.0878 12.914 16.8063 14.1883 17.5142C17.3505 19.2973 18.8766 22.2408 18.6878 25.9081C18.499 29.5754 16.6793 32.2288 13.4437 33.7963C8.93372 35.9759 3.53747 33.8708 1.47129 29.2002C0.972014 28.0792 0.699729 26.8678 0.670585 25.6379C0.641441 24.408 0.856049 23.1847 1.30165 22.0406C1.74724 20.8965 2.4148 19.855 3.26461 18.9778C4.11442 18.1006 5.12922 17.4056 6.24874 16.9341C6.82298 16.6892 6.94888 16.4018 6.94625 15.8296C6.93052 13.7618 6.68395 13.8363 8.81831 13.8629C8.92374 13.8588 9.02888 13.8482 9.13301 13.831ZM2.93967 25.4211C2.94382 27.2549 3.66344 29.0125 4.94104 30.3092C6.21864 31.606 7.95023 32.3363 9.75703 32.3406C13.386 32.3406 16.4355 29.2002 16.446 25.445C16.446 21.6446 13.4174 18.4777 9.75703 18.4803C7.94842 18.4874 6.21634 19.2219 4.9404 20.5229C3.66446 21.824 2.94877 23.5854 2.95017 25.4211H2.93967ZM11.4143 16.2421V15.0632H8.09994V16.2421H11.4143Z" fill="#FECA4F"/>
<path d="M6.32698 0V11.0552C5.86025 10.7438 5.47219 10.4883 5.08675 10.2275C3.77572 9.34661 2.46479 8.48434 1.19834 7.56618C1.06236 7.46764 0.947533 7.34203 0.860977 7.19698C0.774421 7.05193 0.717843 6.8905 0.694794 6.72254C0.650219 4.75049 0.676542 2.77578 0.668676 0.803729C0.668676 0.271462 0.873099 0.00532787 1.42111 0.00532787C3.03106 0.00532787 4.64099 0 6.32698 0Z" fill="#FECA4F"/>
<path d="M13.0625 11.0712V0.00537607C14.7695 0.00537607 16.4449 -0.0185799 18.1178 0.0346469C18.2592 0.0817883 18.3863 0.165058 18.4869 0.276448C18.5875 0.387838 18.6582 0.523608 18.6921 0.67071C18.7393 2.71462 18.7341 4.76118 18.6921 6.79178C18.6773 6.9292 18.6347 7.06203 18.567 7.182C18.4994 7.30197 18.4081 7.40649 18.2988 7.48905C16.6233 8.68399 14.8979 9.8337 13.0625 11.0712Z" fill="#FECA4F"/>
<path d="M9.9427 20.1738L11.5343 23.4473L15.0924 23.9716L12.5176 26.5185L13.1259 30.1166L9.9427 28.416L6.75952 30.1166L7.36784 26.5185L4.79297 23.9716L8.35111 23.4473L9.9427 20.1738Z" fill="#FECA4F"/>
</svg>
