<svg width="30" height="29" viewBox="0 0 30 29" fill="none" xmlns="http://www.w3.org/2000/svg">
<path d="M14.9799 0C16.504 0.067236 17.6177 0.704463 18.2871 1.99467C19.1393 3.6374 19.9571 5.29771 20.7785 6.95559C20.8929 7.18698 21.0308 7.29964 21.3003 7.3372C23.1462 7.59403 24.9921 7.85934 26.8306 8.14403C28.3486 8.37845 29.3761 9.22707 29.8222 10.6736C30.2529 12.0704 29.8838 13.3018 28.8445 14.3352C28.5141 14.6635 28.1941 15.0015 27.6754 15.0621C27.0681 15.1317 26.4639 14.8531 26.1759 14.3285C26.0299 14.0598 25.972 13.7531 26.0103 13.4506C26.0487 13.1482 26.1814 12.8649 26.3901 12.6398C26.5088 12.515 26.6362 12.3975 26.7629 12.28C27.0035 12.0595 27.0927 11.7954 26.9881 11.4846C26.8835 11.1739 26.6331 11.037 26.3113 10.9922C25.1348 10.8292 23.959 10.6608 22.7825 10.4943C22.0442 10.3895 21.2978 10.3071 20.5625 10.175C19.5227 9.98848 18.7302 9.4306 18.2515 8.49657C17.3845 6.80416 16.5372 5.10448 15.6856 3.40299C15.5429 3.1189 15.3435 2.92931 15.0033 2.92446C14.6427 2.91901 14.4495 3.13344 14.3049 3.42419C13.505 5.01483 12.6731 6.59034 11.912 8.19794C11.3145 9.45968 10.3313 10.0842 8.95853 10.2574C7.21169 10.4767 5.47038 10.742 3.72846 10.9885C3.40973 11.0334 3.12486 11.1406 3.01533 11.4731C2.90581 11.8057 3.02887 12.0788 3.2793 12.3151C4.60405 13.578 5.9171 14.8531 7.24554 16.1118C8.16418 16.9828 8.47922 18.0162 8.25033 19.2483C7.91684 21.043 7.61718 22.8439 7.3046 24.6429C7.25169 24.9458 7.34277 25.205 7.60366 25.3861C7.86455 25.5672 8.14142 25.5412 8.41584 25.3988C9.2223 24.9809 10.0294 24.5643 10.8371 24.1492C11.6148 23.7506 12.4787 23.9899 12.8829 24.7107C13.2755 25.411 13.0196 26.2765 12.2633 26.6848C11.3841 27.1597 10.4993 27.6303 9.59354 28.0531C7.35876 29.0962 4.81449 27.8199 4.40839 25.4188C4.30563 24.8131 4.40839 24.1522 4.50807 23.5302C4.76035 21.9262 5.06184 20.3295 5.34549 18.731C5.3861 18.5038 5.33749 18.3421 5.15721 18.1713C3.82077 16.9059 2.48804 15.6357 1.17252 14.3485C0.0582101 13.2582 -0.286994 11.9504 0.245243 10.4918C0.773787 9.04414 1.88379 8.29001 3.42697 8.09678C4.78802 7.92597 6.14353 7.71094 7.50088 7.51407C7.93652 7.4535 8.37524 7.39959 8.8041 7.3051C8.96208 7.26335 9.09708 7.1622 9.18004 7.02343C10.0415 5.3395 10.8734 3.64043 11.7434 1.96075C12.427 0.647525 13.577 0.0593615 14.9799 0Z" fill="#9E9E9E"/>
<path d="M13.3951 26.4246C13.5278 25.5245 13.6593 24.6348 13.7903 23.7457C13.8433 23.3854 13.8851 23.0225 13.9557 22.6668C14.0121 22.3917 13.9404 22.1922 13.7688 22.003C13.0457 21.2043 12.3282 20.3985 11.6095 19.594C11.0981 19.0213 10.9321 18.3279 11.1455 17.5563C11.3589 16.7847 11.8393 16.3231 12.5494 16.2004C13.534 16.0319 14.5174 15.8524 15.5047 15.7084C15.809 15.6638 15.9659 15.4979 16.0907 15.2015C16.5265 14.1685 16.9611 13.1289 17.4269 12.1114C17.5479 11.8426 17.722 11.6097 17.9352 11.4309C18.1484 11.2522 18.395 11.1326 18.6556 11.0815C18.9161 11.0304 19.1835 11.0493 19.4366 11.1366C19.6897 11.2239 19.9216 11.3772 20.114 11.5845C20.2927 11.7897 20.4393 12.0284 20.5476 12.2902C20.9834 13.2665 21.4081 14.2494 21.8217 15.239C21.9391 15.5186 22.0938 15.6613 22.3715 15.7032C23.3679 15.8537 24.3614 16.0306 25.3556 16.2023C26.0414 16.3211 26.5106 16.7699 26.7352 17.5079C26.9689 18.2756 26.8222 18.9774 26.3158 19.5546C25.6231 20.343 24.9242 21.1256 24.2141 21.8933C23.9798 22.147 23.8901 22.3924 23.9544 22.7727C24.1418 23.88 24.2931 24.9951 24.4506 26.1082C24.5635 26.8888 24.3411 27.5383 23.7884 28.009C23.2171 28.4952 22.586 28.5488 21.9532 28.1827C21.05 27.6597 20.1529 27.1135 19.2604 26.5627C19.047 26.4304 18.8653 26.4233 18.6524 26.5524C17.7995 27.0748 16.9391 27.581 16.0867 28.102C15.0582 28.7341 13.8975 28.2957 13.521 27.109C13.4521 26.8927 13.4357 26.6525 13.3951 26.4246Z" fill="#9E9E9E"/>
</svg>
