<svg width="37" height="48" viewBox="0 0 37 48" fill="none" xmlns="http://www.w3.org/2000/svg">
<path d="M6.25 15.4378H6.35938L6.36844 15.1719L6.25 15.4378Z" fill="#F76A2A"/>
<path d="M10.9857 28C12.1034 28.0473 12.9202 28.4958 13.4111 29.4037C14.0361 30.5598 14.6358 31.7282 15.2382 32.8949C15.3221 33.0577 15.4232 33.137 15.6208 33.1634C16.9746 33.3442 18.3283 33.5309 19.6766 33.7312C20.7898 33.8962 21.5434 34.4934 21.8705 35.5113C22.1864 36.4943 21.9157 37.3609 21.1535 38.0881C20.9112 38.3192 20.6765 38.557 20.2962 38.5997C19.8508 38.6487 19.4077 38.4526 19.1965 38.0835C19.0893 37.8943 19.0469 37.6785 19.075 37.4657C19.1031 37.2528 19.2005 37.0534 19.3535 36.895C19.4406 36.8072 19.534 36.7245 19.627 36.6418C19.8034 36.4866 19.8688 36.3008 19.7921 36.0821C19.7154 35.8634 19.5317 35.7671 19.2957 35.7355C18.433 35.6209 17.5707 35.5024 16.7079 35.3852C16.1664 35.3114 15.619 35.2534 15.0798 35.1605C14.3172 35.0292 13.736 34.6366 13.3849 33.9793C12.7492 32.7883 12.1278 31.5922 11.5033 30.3948C11.3986 30.1949 11.2524 30.0614 11.0029 30.058C10.7384 30.0542 10.5967 30.2051 10.4907 30.4097C9.90408 31.5291 9.29399 32.6378 8.73581 33.7692C8.29766 34.6571 7.57657 35.0966 6.56986 35.2185C5.28879 35.3728 4.01178 35.5595 2.73432 35.733C2.50057 35.7645 2.29166 35.84 2.21134 36.074C2.13102 36.308 2.22127 36.5003 2.40492 36.6665C3.37644 37.5553 4.33939 38.4526 5.31361 39.3384C5.98731 39.9514 6.21835 40.6786 6.05049 41.5456C5.80592 42.8087 5.58616 44.076 5.35693 45.342C5.31812 45.5551 5.38492 45.7376 5.57625 45.865C5.76757 45.9925 5.97062 45.9742 6.17187 45.874C6.7633 45.5799 7.35518 45.2867 7.94751 44.9946C8.51787 44.7141 9.15142 44.8825 9.44788 45.3897C9.73577 45.8825 9.54806 46.4917 8.99349 46.779C8.34867 47.1132 7.69978 47.4444 7.03555 47.7419C5.39665 48.476 3.53077 47.5778 3.23295 45.8881C3.15759 45.4618 3.23296 44.9967 3.30606 44.5589C3.49107 43.4302 3.71217 42.3065 3.92019 41.1816C3.94997 41.0217 3.91432 40.9079 3.78211 40.7877C2.80201 39.8972 1.82464 39.0033 0.859885 38.0975C0.0426892 37.3302 -0.210471 36.4099 0.179852 35.3834C0.567467 34.3647 1.3815 33.834 2.51321 33.698C3.51136 33.5778 4.50544 33.4264 5.50087 33.2879C5.82035 33.2453 6.14209 33.2073 6.45661 33.1408C6.57246 33.1115 6.67146 33.0403 6.73231 32.9426C7.36405 31.7576 7.97413 30.5619 8.61218 29.3798C9.11351 28.4557 9.95688 28.0418 10.9857 28Z" fill="#F76A2A"/>
<path d="M9.77878 46.6205C9.87961 45.9986 9.97957 45.3838 10.0791 44.7695C10.1194 44.5206 10.1512 44.2699 10.2048 44.0241C10.2477 43.834 10.1932 43.6962 10.0628 43.5655C9.5132 43.0136 8.96788 42.4569 8.42169 41.901C8.03297 41.5053 7.90682 41.0262 8.069 40.493C8.23118 39.9599 8.59631 39.641 9.13606 39.5562C9.88433 39.4398 10.6317 39.3157 11.3821 39.2163C11.6134 39.1855 11.7327 39.0708 11.8275 38.8661C12.1587 38.1523 12.4891 37.434 12.8431 36.7309C12.9351 36.5452 13.0673 36.3843 13.2294 36.2608C13.3915 36.1373 13.5789 36.0547 13.7769 36.0194C13.9749 35.9841 14.1781 35.9971 14.3705 36.0574C14.5628 36.1177 14.7391 36.2237 14.8854 36.3669C15.0212 36.5087 15.1326 36.6736 15.2149 36.8545C15.5461 37.529 15.8689 38.2082 16.1832 38.8919C16.2725 39.0851 16.39 39.1837 16.6011 39.2127C17.3584 39.3166 18.1135 39.4389 18.8691 39.5575C19.3904 39.6396 19.7469 39.9497 19.9177 40.4596C20.0953 40.99 19.9838 41.475 19.5989 41.8738C19.0725 42.4185 18.5413 42.9592 18.0016 43.4896C17.8235 43.6649 17.7553 43.8345 17.8042 44.0972C17.9467 44.8623 18.0616 45.6328 18.1813 46.4019C18.2671 46.9412 18.0981 47.39 17.678 47.7152C17.2438 48.0512 16.7642 48.0882 16.2832 47.8352C15.5967 47.4739 14.915 47.0965 14.2366 46.7159C14.0744 46.6245 13.9363 46.6196 13.7745 46.7088C13.1262 47.0697 12.4724 47.4195 11.8245 47.7795C11.0428 48.2162 10.1606 47.9133 9.87446 47.0934C9.82211 46.9439 9.80967 46.7779 9.77878 46.6205Z" fill="#F76A2A"/>
<path d="M36.5122 44.8421C36.4018 42.6606 36.2894 40.4789 36.175 38.297C36.0332 35.4919 35.8922 32.6865 35.752 29.881C35.5909 26.6633 35.4297 23.4454 35.2686 20.2274C35.1231 17.2913 34.9791 14.3551 34.8365 11.4186C34.7609 9.86374 33.6539 8.79534 32.1008 8.79293C30.5297 8.79293 28.9585 8.78386 27.3873 8.79957C27.0973 8.8026 27.02 8.70228 26.9813 8.437C26.6531 6.19688 25.7727 4.20694 24.2015 2.56144C22.6032 0.892383 20.6543 -0.0448767 18.3163 0.00165393C16.0484 0.0463717 14.1853 1.02472 12.6637 2.66961C11.153 4.30121 10.3118 6.2561 9.98851 8.44123C9.94802 8.71679 9.85919 8.8038 9.57698 8.80078C7.96533 8.78688 6.35368 8.7887 4.74263 8.79595C3.41318 8.80199 2.23603 9.87038 2.16231 11.1569C2.0487 13.1372 1.95625 15.1187 1.86016 17.0996C1.78946 18.5076 1.72722 19.9156 1.65471 21.3236C1.5689 23.0029 1.46495 24.681 1.39062 26.3604C1.39062 26.6969 1.52433 27.0197 1.76232 27.2577C2.00031 27.4957 2.32308 27.6294 2.65964 27.6294H4.5668C4.93709 27.6291 5.29282 27.4852 5.55907 27.2278C5.82533 26.9705 5.98128 26.6198 5.99412 26.2498L6.36396 15.4396H6.25457L6.37543 15.1737L6.36637 15.4396H31.3237C31.5153 15.4396 31.7075 15.4498 31.8978 15.4396C32.0882 15.4293 32.1395 15.497 32.1468 15.6813C32.2356 17.5419 32.3359 19.4019 32.4272 21.2625C32.5408 23.5649 32.6447 25.8679 32.7601 28.1708C32.8901 30.7651 33.0284 33.3587 33.1608 35.9529C33.3002 38.6775 33.4377 41.4025 33.5735 44.1278C33.5832 44.3254 33.5735 44.5242 33.5735 44.7635H33.1088C30.2082 44.7635 27.3076 44.7635 24.407 44.7635C23.5483 44.7635 22.9295 45.3866 22.9367 46.2241C22.944 47.0393 23.5755 47.6545 24.413 47.6551C27.5554 47.6551 30.6977 47.6551 33.84 47.6551C34.204 47.6586 34.5647 47.5871 34.8999 47.4451C35.235 47.3032 35.5373 47.0937 35.788 46.8298C36.0387 46.5659 36.2323 46.2533 36.3569 45.9113C36.4815 45.5693 36.5344 45.2054 36.5122 44.8421ZM24.0825 8.76936H12.8275C12.9628 8.25813 13.0601 7.7765 13.2179 7.31603C13.7152 5.8621 14.5153 4.61544 15.8163 3.7507C17.657 2.52579 19.8125 2.62187 21.5348 4.01296C22.999 5.19617 23.7392 6.79573 24.0903 8.6056C24.0936 8.66031 24.0909 8.71521 24.0825 8.76936Z" fill="#F76A2A"/>
<path d="M6.36844 15.1719L6.35938 15.4378H6.25L6.36844 15.1719Z" fill="#F76A2A"/>
</svg>
