<svg width="49" height="48" viewBox="0 0 49 48" fill="none" xmlns="http://www.w3.org/2000/svg">
<path d="M4.53743 5.90632C4.53743 6.40779 4.53743 6.83908 4.53743 7.28037C4.53743 8.07835 4.85444 8.84363 5.4187 9.40789C5.98296 9.97215 6.74824 10.2892 7.54622 10.2892C8.3442 10.2892 9.10949 9.97215 9.67375 9.40789C10.238 8.84363 10.555 8.07835 10.555 7.28037V5.94645H28.6078C28.6078 6.50809 28.6078 7.06974 28.6078 7.61132C28.6561 8.28128 28.9273 8.91579 29.378 9.4138C29.8288 9.91181 30.4332 10.2447 31.0951 10.3593C31.7397 10.4694 32.4027 10.3665 32.9836 10.0661C33.5645 9.76566 34.0317 9.28416 34.3145 8.69447C34.4774 8.25642 34.5754 7.79691 34.6053 7.3305C34.6304 6.88287 34.6304 6.4342 34.6053 5.98658C37.3333 5.50517 39.0984 6.98949 39.1085 9.32632C39.1085 13.0873 39.1085 16.8483 39.1085 20.6093C39.1085 20.6996 39.1085 20.7798 39.1085 20.8901H36.1699V14.9628H3.07316C3.07316 15.1333 3.07316 15.3138 3.07316 15.4843C3.07316 22.1037 3.07316 28.7163 3.07316 35.3223C3.07316 35.9742 3.07315 35.9943 3.75514 35.9943H21.0858V39.0031H20.5944H3.5345C3.05498 39.0326 2.57474 38.958 2.12676 38.7845C1.67878 38.6109 1.27367 38.3424 0.939237 37.9975C0.604801 37.6526 0.348944 37.2394 0.189272 36.7863C0.0296014 36.3332 -0.0301215 35.8508 0.0142002 35.3724C0.0142002 26.9879 0.0142002 18.6068 0.0142002 10.229C-0.0214234 9.52366 0.0496031 8.81697 0.224838 8.13283C0.393461 7.53428 0.743391 7.00267 1.22651 6.61114C1.70964 6.21962 2.30222 5.98741 2.92273 5.94645C3.45972 5.9015 3.99887 5.88809 4.53743 5.90632Z" fill="#9E9E9E"/>
<path d="M36.2106 23.9296C38.5926 23.9396 40.9181 24.6562 42.8926 25.9887C44.8671 27.3212 46.4017 29.2097 47.3022 31.4149C48.2027 33.6202 48.4286 36.043 47.9512 38.3767C47.4738 40.7104 46.3146 42.85 44.6205 44.5244C42.9263 46.1989 40.7734 47.333 38.4342 47.7831C36.0951 48.2332 33.6751 47.979 31.4805 47.0528C29.2859 46.1266 27.4156 44.57 26.1062 42.5801C24.7969 40.5902 24.1075 38.2565 24.1253 35.8745C24.1306 34.2955 24.4478 32.7332 25.0587 31.2771C25.6696 29.8211 26.5622 28.5002 27.6853 27.3902C28.8083 26.2802 30.1396 25.4031 31.6027 24.8092C33.0657 24.2153 34.6317 23.9164 36.2106 23.9296ZM45.1769 35.9648C45.1766 34.1856 44.6506 32.4461 43.6649 30.9649C42.6791 29.4837 41.2776 28.3269 39.6364 27.6398C37.9952 26.9527 36.1875 26.7659 34.4405 27.103C32.6935 27.44 31.0851 28.2859 29.8173 29.5342C28.5496 30.7826 27.679 32.3777 27.315 34.1193C26.951 35.8609 27.1098 37.6713 27.7716 39.3229C28.4333 40.9745 29.5683 42.3937 31.0341 43.4022C32.4999 44.4107 34.2311 44.9635 36.0101 44.9912C37.2055 45.0098 38.3927 44.7907 39.5028 44.3467C40.6129 43.9027 41.6237 43.2425 42.4765 42.4046C43.3294 41.5667 44.0072 40.5677 44.4708 39.4657C44.9343 38.3636 45.1743 37.1805 45.1769 35.9849V35.9648Z" fill="#9E9E9E"/>
<path d="M12.0228 23.9002H6.10547V17.9629H12.0228V23.9002Z" fill="#9E9E9E"/>
<path d="M21.0462 23.892H15.1289V17.9546H21.0462V23.892Z" fill="#9E9E9E"/>
<path d="M24.1328 23.8802V17.9629H30.0601V23.8802H24.1328Z" fill="#9E9E9E"/>
<path d="M12.0272 27.001V32.8982H6.08984V27.001H12.0272Z" fill="#9E9E9E"/>
<path d="M15.1367 26.9692H21.0239V32.8966H15.1367V26.9692Z" fill="#9E9E9E"/>
<path d="M9.03168 4.34268C9.03168 5.34561 9.03168 6.2583 9.03168 7.22112C9.0528 7.42698 9.03033 7.63499 8.96575 7.8316C8.90118 8.02822 8.79593 8.20901 8.65687 8.36227C8.5178 8.51553 8.34802 8.63779 8.15858 8.72111C7.96915 8.80442 7.76431 8.84694 7.55737 8.84586C7.34957 8.84539 7.14417 8.80156 6.95426 8.71722C6.76435 8.63288 6.5941 8.50987 6.45441 8.35603C6.31473 8.20218 6.20866 8.02091 6.14299 7.82377C6.07732 7.62663 6.05349 7.41795 6.07302 7.21108C6.07302 5.31554 6.07302 3.40997 6.07302 1.5044C6.07302 1.10541 6.23151 0.722748 6.51364 0.440619C6.79577 0.15849 7.17843 0 7.57742 0C7.97641 0 8.35907 0.15849 8.64119 0.440619C8.92332 0.722748 9.08181 1.10541 9.08181 1.5044V4.33267L9.03168 4.34268Z" fill="#9E9E9E"/>
<path d="M30.1445 4.34268C30.1445 3.39992 30.1445 2.44715 30.1445 1.5044C30.1445 1.10541 30.303 0.722748 30.5852 0.440619C30.8673 0.15849 31.2499 0 31.6489 0C32.0479 0 32.4306 0.15849 32.7127 0.440619C32.9948 0.722748 33.1533 1.10541 33.1533 1.5044C33.1533 3.44005 33.1533 5.37572 33.1533 7.31138C33.1693 7.66596 33.0567 8.01438 32.8364 8.29267C32.6161 8.57096 32.3028 8.76042 31.954 8.82627C31.6053 8.89212 31.2444 8.82994 30.9378 8.65114C30.6312 8.47234 30.3994 8.18892 30.285 7.85294C30.2199 7.62818 30.1895 7.39483 30.1947 7.16091C30.1947 6.21816 30.1947 5.27542 30.1947 4.33267L30.1445 4.34268Z" fill="#9E9E9E"/>
<path d="M35.0876 38.3743L38.2369 35.2151L40.3129 33.149C40.4449 32.9895 40.6088 32.8593 40.7941 32.7669C40.9794 32.6745 41.1821 32.6218 41.3889 32.6124C41.5958 32.6029 41.8023 32.6369 41.9953 32.712C42.1882 32.7872 42.3633 32.9019 42.5093 33.0487C42.6556 33.1957 42.77 33.3713 42.8452 33.5645C42.9204 33.7578 42.9549 33.9645 42.9464 34.1717C42.9379 34.3789 42.8867 34.5821 42.796 34.7685C42.7052 34.955 42.5769 35.1207 42.4191 35.2552C40.4132 37.261 38.384 39.287 36.3313 41.3329C36.188 41.5298 36.0001 41.69 35.7831 41.8004C35.5661 41.9108 35.3261 41.9684 35.0826 41.9684C34.8391 41.9684 34.5991 41.9108 34.3821 41.8004C34.1651 41.69 33.9773 41.5298 33.834 41.3329C32.48 39.989 31.1361 38.6451 29.8222 37.3212C29.5951 37.1052 29.4434 36.822 29.3892 36.5133C29.3351 36.2046 29.3814 35.8866 29.5214 35.6062C29.6448 35.3245 29.859 35.0924 30.13 34.9469C30.4009 34.8015 30.7128 34.7511 31.0157 34.8039C31.4199 34.9017 31.7905 35.106 32.0889 35.3956C33.0718 36.3183 34.0446 37.3313 35.0876 38.3743Z" fill="#9E9E9E"/>
</svg>
