<svg width="58" height="48" viewBox="0 0 58 48" fill="none" xmlns="http://www.w3.org/2000/svg">
<path d="M55.8946 40.4399C56.2742 39.7905 56.7038 39.1412 57.1134 38.5118L57.453 38.0123L57.6229 37.6826V37.6127C57.7627 37.1872 57.8117 36.7371 57.767 36.2915C57.7223 35.8458 57.5847 35.4145 57.3631 35.0253L56.9135 34.316C56.484 33.6666 56.0344 32.9973 55.5549 32.318L55.4051 32.1281C55.4051 32.0682 55.3251 32.0083 55.3152 31.9783C55.3301 31.9279 55.3538 31.8806 55.3851 31.8384L55.6348 31.5088C56.0744 30.9193 56.504 30.3099 56.9135 29.7105L57.3731 29.0512L57.433 28.9413C57.6728 28.4495 57.7925 27.9077 57.7821 27.3607C57.7716 26.8136 57.6315 26.2768 57.3731 25.7944L57.3132 25.6746L57.1733 25.4248L56.9535 25.1051L55.9545 23.6166C55.8455 23.4761 55.7791 23.3073 55.7631 23.1303C55.7472 22.9532 55.7824 22.7753 55.8646 22.6176C56.1201 22.0411 56.4104 21.4806 56.7337 20.9393L56.9235 20.6296C57.0534 20.4098 57.1833 20.18 57.3032 19.9403C57.5165 19.5658 57.6466 19.1497 57.6845 18.7205C57.7224 18.2912 57.6674 17.8588 57.523 17.4527C57.3763 17.1174 57.1474 16.8244 56.8576 16.601C56.5677 16.3775 56.2262 16.2306 55.8646 16.174C55.695 16.1629 55.5247 16.1629 55.3551 16.174H50.9295C50.3601 15.7944 49.8506 15.4747 49.3011 15.175L49.0714 15.0451V14.8553C49.1039 14.7639 49.1306 14.6704 49.1513 14.5756V14.4557C49.3311 13.8563 49.481 13.2469 49.6308 12.6475L49.9405 11.4287V11.2988C49.9937 10.779 49.9323 10.2539 49.7607 9.76037C49.6144 9.34429 49.383 8.96324 49.0814 8.64147L48.7417 8.33179C48.679 8.27243 48.6084 8.222 48.5319 8.18193C48.4451 8.10967 48.3514 8.0461 48.2522 7.99212L48.1423 7.9122L46.8136 6.99311C46.6682 6.90683 46.5522 6.77864 46.4809 6.62534C46.4096 6.47203 46.3863 6.30076 46.414 6.13397C46.4613 5.46344 46.548 4.79628 46.6737 4.13595L46.7637 3.62646C46.7637 3.40668 46.8336 3.19689 46.8536 2.97711C46.9365 2.55201 46.9221 2.11365 46.8113 1.69493C46.7006 1.27621 46.4965 0.888022 46.2142 0.559509C46.0385 0.380487 45.8285 0.238686 45.5968 0.142569C45.3651 0.0464526 45.1164 -0.00201144 44.8655 6.39434e-05C44.6561 0.0039437 44.448 0.0341512 44.2461 0.0899748C44.0677 0.133486 43.8938 0.193692 43.7267 0.269796L43.0174 0.599467L41.0194 1.52854L40.7197 1.6784C39.5808 2.21786 38.402 2.78729 37.2132 3.32676C34.9354 4.47561 32.8375 5.47462 30.7196 6.47363L28.8615 7.37274L27.323 8.10201C25.4049 9.03109 23.4069 9.98014 21.4388 10.9092L19.301 11.9082L18.0122 12.5476L17.203 12.9372C15.205 13.9362 13.1071 14.9352 11.0991 15.8443L10.2999 16.214H9.43076H6.97318H3.2369C2.75625 16.1932 2.2747 16.2166 1.79833 16.2839C1.20795 16.4598 0.698546 16.8383 0.359756 17.3528L0.259879 17.5127C0.104707 17.9192 0.0421184 18.3552 0.0766814 18.789C0.111244 19.2227 0.242071 19.6433 0.459663 20.0202C0.589534 20.2799 0.739398 20.5297 0.879259 20.7694L1.37876 21.6486C1.58326 21.9988 1.76348 22.3626 1.9182 22.7375L2.15799 23.167C2.05809 23.3169 1.95819 23.4767 1.8483 23.6266L0.84929 25.175L0.799321 25.245L0.629507 25.5047C0.629507 25.5846 0.519592 25.6746 0.479632 25.7545L0.139973 26.5637C0.0443235 26.8879 -0.00279161 27.2246 0.000127793 27.5627C0.000246929 28.0867 0.12342 28.6034 0.359756 29.0712C0.459178 29.2721 0.572678 29.4657 0.699415 29.6506C1.15082 30.3463 1.64461 31.0136 2.17796 31.6486L2.42771 31.9783L2.48765 32.0682L2.26786 32.3779C1.86826 32.9273 1.48863 33.4868 1.10901 34.0462L0.479632 35.0452C0.226745 35.4767 0.0763172 35.9606 0.0399442 36.4594C0.00357118 36.9582 0.0822329 37.4588 0.269849 37.9224L0.909228 38.9214C1.16897 39.321 1.43869 39.7206 1.67845 40.1302L1.77836 40.28L2.04808 40.6896C2.27785 40.9494 2.3278 41.0093 2.04808 41.4689L1.8483 41.7785L1.53861 42.2681C1.38876 42.5178 1.24888 42.7676 1.11901 43.0073L0.799321 43.5967L0.689445 43.8065C0.599535 43.9764 0.509624 44.1462 0.439693 44.306C0.0851109 44.9572 0.00249903 45.7221 0.209911 46.4339C0.352339 46.8617 0.61796 47.2378 0.973434 47.515C1.32891 47.7923 1.75839 47.9584 2.20793 47.9924C2.37761 48.0023 2.54774 48.0023 2.71743 47.9924H18.0322C21.1091 47.9924 24.1861 47.9924 27.263 47.9924H30.6697C35.4749 47.9924 40.2901 47.9924 45.1053 47.9924H55.2053C55.375 48.0025 55.5451 48.0025 55.7148 47.9924C56.1643 47.9584 56.5937 47.7923 56.9492 47.515C57.3047 47.2378 57.5704 46.8617 57.7128 46.4339C57.8192 46.0824 57.8546 45.7132 57.8168 45.3479C57.7791 44.9826 57.669 44.6284 57.493 44.306C57.2832 43.8865 57.0634 43.4769 56.8437 43.0573C56.6239 42.6377 56.3242 42.1582 56.0744 41.7486L55.8147 41.4389C55.495 40.9694 55.5549 40.9094 55.7347 40.6896L55.8946 40.4399ZM20.6796 15.3648C23.7565 13.8663 27.1332 12.2479 31.299 10.2599L33.3969 9.26086L33.6167 9.15097C35.6148 8.23188 37.6128 7.27284 39.6108 6.33377L43.1673 4.63546V4.75534C43.1673 4.90519 43.1672 5.05504 43.0973 5.20489C42.9285 5.98203 42.8713 6.77926 42.9274 7.57254C42.9963 8.12356 43.2336 8.6399 43.6068 9.05107C43.8906 9.39293 44.228 9.68645 44.6058 9.92021L45.3051 10.3298H45.3551C45.7567 10.548 46.1264 10.8203 46.454 11.139C46.3949 11.7516 46.2641 12.3551 46.0643 12.9372L45.9645 13.3168C45.7427 14.0319 45.6282 14.776 45.6248 15.5246V15.8543L45.6847 16.1141C44.1363 16.1141 42.6378 16.1141 41.2292 16.1141H37.9225H33.9264H28.9314H23.9364H19.9403H19.0212L20.6796 15.3648ZM52.528 41.1092C52.6091 41.7042 52.8132 42.2758 53.1273 42.7875C53.3971 43.2771 53.6768 43.7866 53.9965 44.316L54.1563 44.6057H40.1702C36.0443 44.6057 32.8874 44.6057 29.9403 44.6057H27.9423C25.285 44.6057 22.5377 44.6057 19.5107 44.6057H13.8564H11.179H7.93225H5.27488H4.19594H3.6565L4.02613 43.9564C4.28587 43.4968 4.53563 43.0473 4.78538 42.6177C5.0472 42.172 5.20752 41.674 5.25492 41.1592V41.0593C5.26497 40.9363 5.26497 40.8126 5.25492 40.6896C5.25841 40.6231 5.25841 40.5564 5.25492 40.4898C5.24461 40.4236 5.24461 40.3562 5.25492 40.29C5.14377 39.8457 4.95796 39.4234 4.70544 39.0413C4.59555 38.8814 4.46568 38.7116 4.32582 38.5418L4.136 38.282C3.68645 37.7226 3.137 37.0932 3.20693 36.6636C3.38014 36.0176 3.72541 35.4306 4.20594 34.9653L4.26588 34.8854L4.40575 34.7156L4.49566 34.5757C4.91002 34.0216 5.24617 33.4132 5.49467 32.7675L5.55461 32.5677C5.64934 32.1906 5.64934 31.7959 5.55461 31.4188L5.50467 31.229C5.33554 30.7259 5.08585 30.2536 4.76538 29.8304C4.7044 29.7397 4.63768 29.6529 4.5656 29.5707L4.39575 29.3509C4.30584 29.251 4.22593 29.1411 4.12603 29.0412C3.70645 28.5517 3.2369 28.0422 3.2369 27.5926C3.37705 26.9613 3.68809 26.3807 4.136 25.9143L4.20594 25.8044C4.60506 25.3051 4.94063 24.7581 5.20495 24.176V24.0761C5.31371 23.6864 5.34426 23.279 5.29485 22.8773C5.23494 22.4954 5.11703 22.1248 4.9452 21.7784C4.89525 21.6685 4.83532 21.5586 4.77538 21.4487C4.53562 21.0591 4.30586 20.6495 4.06609 20.22C3.94621 19.9902 3.81633 19.7704 3.67647 19.5207H11.5686C12.6875 19.5207 13.7964 19.5207 14.9153 19.5207H17.4128C21.8984 19.5207 25.5547 19.5207 28.9214 19.5207C30.5997 19.5207 32.3579 19.5207 34.2461 19.5207H42.9474C44.1662 19.5207 45.405 19.5207 46.6338 19.5207H50.1603H54.1563L54.0864 19.6306L53.9965 19.7804C53.7867 20.15 53.5968 20.4897 53.417 20.8294C53.0196 21.4444 52.7228 22.1189 52.5379 22.8274C52.4311 23.2931 52.4659 23.7802 52.6378 24.226C52.7592 24.6039 52.9377 24.9611 53.1673 25.2849C53.3071 25.4947 53.467 25.7045 53.6468 25.9243C53.7467 26.0642 53.8466 26.204 53.9265 26.3339C54.406 27.0332 54.5559 27.3329 54.5359 27.5827C54.2976 28.1842 53.9599 28.7414 53.5369 29.231L53.457 29.3509L53.3871 29.4408C52.9619 29.9914 52.6249 30.6048 52.3881 31.259V31.3389C52.2732 31.7371 52.2732 32.1596 52.3881 32.5577V32.6676L52.448 32.7375C52.7022 33.365 53.0381 33.9562 53.447 34.4958L53.5569 34.6456L53.7367 34.8454C54.2134 35.3216 54.5577 35.9139 54.7357 36.5637C54.7357 36.9933 54.2462 37.6227 53.8066 38.1821L53.6168 38.4119V38.4718L53.2672 38.9414C53.0118 39.3243 52.8289 39.751 52.7277 40.2001C52.7277 40.2601 52.7277 40.33 52.7277 40.3799C52.7133 40.5361 52.7133 40.6933 52.7277 40.8495C52.6511 40.9352 52.5842 41.029 52.528 41.1292V41.1092Z" fill="#9E9E9E"/>
<path d="M49.7322 26.184L39.0781 37.0181L40.3389 38.2579L50.9929 27.4238L49.7322 26.184Z" fill="#9E9E9E"/>
<path d="M42.1708 31.2708C42.8174 31.2728 43.4499 31.0829 43.9884 30.7251C44.527 30.3674 44.9472 29.8579 45.196 29.2611C45.4448 28.6644 45.5109 28.0072 45.386 27.3729C45.2611 26.7385 44.9507 26.1555 44.4943 25.6977C44.0378 25.2398 43.4558 24.9277 42.8218 24.8008C42.1878 24.674 41.5305 24.7381 40.933 24.985C40.3355 25.232 39.8247 25.6507 39.4653 26.1881C39.1059 26.7255 38.9141 27.3575 38.9141 28.004C38.9141 28.8687 39.2569 29.6981 39.8673 30.3105C40.4778 30.9228 41.3062 31.2682 42.1708 31.2708ZM40.6723 28.004C40.6704 27.7049 40.7574 27.4118 40.9224 27.1622C41.0874 26.9126 41.3228 26.7177 41.5989 26.6023C41.8749 26.4869 42.1791 26.4562 42.4726 26.5141C42.7661 26.572 43.0359 26.7159 43.2475 26.9274C43.459 27.139 43.6029 27.4087 43.6607 27.7022C43.7186 27.9958 43.6879 28.2999 43.5725 28.576C43.4571 28.852 43.2622 29.0875 43.0127 29.2525C42.7631 29.4175 42.47 29.5045 42.1708 29.5026C41.7734 29.5026 41.3922 29.3447 41.1112 29.0636C40.8302 28.7826 40.6723 28.4015 40.6723 28.004Z" fill="#9E9E9E"/>
<path d="M47.8978 33.1777C47.2513 33.1758 46.6187 33.3657 46.0802 33.7234C45.5417 34.0812 45.1214 34.5907 44.8726 35.1874C44.6239 35.7842 44.5577 36.4413 44.6826 37.0757C44.8076 37.71 45.1179 38.293 45.5743 38.7509C46.0308 39.2087 46.6129 39.5209 47.2469 39.6477C47.8808 39.7746 48.5382 39.7105 49.1357 39.4635C49.7332 39.2166 50.2439 38.7979 50.6033 38.2604C50.9627 37.723 51.1546 37.091 51.1546 36.4445C51.152 35.5806 50.8083 34.7528 50.1984 34.141C49.5885 33.5292 48.7617 33.183 47.8978 33.1777ZM49.3963 36.4445C49.3963 36.7409 49.3085 37.0306 49.1438 37.277C48.9791 37.5235 48.7451 37.7155 48.4713 37.8289C48.1975 37.9424 47.8961 37.972 47.6055 37.9142C47.3148 37.8564 47.0478 37.7137 46.8382 37.5041C46.6287 37.2945 46.4859 37.0275 46.4281 36.7368C46.3703 36.4462 46.4 36.1449 46.5134 35.871C46.6268 35.5972 46.8189 35.3632 47.0653 35.1985C47.3117 35.0339 47.6015 34.946 47.8978 34.946C48.2953 34.946 48.6764 35.1039 48.9575 35.3849C49.2385 35.6659 49.3963 36.0471 49.3963 36.4445Z" fill="#9E9E9E"/>
<path d="M29.6564 26.6025H10.2157C9.68726 26.6359 9.19364 26.8778 8.84335 27.2749C8.49306 27.672 8.31477 28.1919 8.3476 28.7204V35.5536C8.31477 36.0822 8.49306 36.6021 8.84335 36.9992C9.19364 37.3963 9.68726 37.6381 10.2157 37.6715H29.6564C30.1849 37.6381 30.6785 37.3963 31.0288 36.9992C31.379 36.6021 31.5574 36.0822 31.5245 35.5536V28.7204C31.5574 28.1919 31.379 27.672 31.0288 27.2749C30.6785 26.8778 30.1849 26.6359 29.6564 26.6025ZM29.4766 30.2389V34.0351C29.4975 34.2006 29.4853 34.3686 29.4407 34.5294C29.3961 34.6901 29.32 34.8404 29.2168 34.9714C29.1136 35.1025 28.9854 35.2117 28.8397 35.2928C28.6939 35.3739 28.5335 35.4252 28.3677 35.4438H11.5045C11.1773 35.406 10.878 35.2416 10.6707 34.9857C10.4634 34.7299 10.3646 34.403 10.3955 34.0751V30.2789C10.3646 29.951 10.4634 29.6241 10.6707 29.3683C10.878 29.1124 11.1773 28.948 11.5045 28.9102H28.3677C28.6874 28.9479 28.9805 29.1067 29.1867 29.3538C29.393 29.6009 29.4967 29.9177 29.4766 30.2389Z" fill="#9E9E9E"/>
<path d="M36.2852 37.5913H34.457V41.897H36.2852V37.5913Z" fill="#9E9E9E"/>
<path d="M36.2852 32.5186H34.457V36.8243H36.2852V32.5186Z" fill="#9E9E9E"/>
<path d="M36.2852 27.4414H34.457V31.7471H36.2852V27.4414Z" fill="#9E9E9E"/>
<path d="M36.2852 22.3564H34.457V26.6622H36.2852V22.3564Z" fill="#9E9E9E"/>
</svg>
