<svg width="41" height="48" viewBox="0 0 41 48" fill="none" xmlns="http://www.w3.org/2000/svg">
<path d="M40.018 13.1759C39.4128 11.2597 38.7371 10.7656 36.7504 10.7656H30.0538C30.1338 9.13111 29.8266 7.50084 29.1571 6.00764C28.4876 4.51444 27.4748 3.20053 26.2013 2.17298C24.4129 0.702816 22.1515 -0.0677247 19.8375 0.00467521C18.4033 0.00536733 16.9869 0.323055 15.6898 0.935018C14.3926 1.54698 13.2467 2.43807 12.3341 3.54455C10.645 5.55827 9.7899 8.14174 9.94396 10.7656H3.27768C1.26065 10.7656 0.615195 11.2698 0 13.1759V40.8295V40.9404C0.128113 42.5132 0.686355 44.0204 1.61363 45.2972C2.80354 46.6994 4.43675 47.653 6.24272 48H33.745H33.8257C34.9332 47.8311 35.986 47.4058 36.9 46.7579C37.814 46.1101 38.564 45.2576 39.0901 44.2685C39.4136 43.5371 39.6571 42.7729 39.8162 41.9892C39.8868 41.6766 39.9675 41.3538 40.0583 41.0412V13.4079L40.018 13.1759ZM13.6553 10.7252C13.5532 9.66325 13.7205 8.59272 14.1418 7.6126C14.5631 6.63247 15.2248 5.77441 16.0657 5.11783C16.9864 4.31264 18.1364 3.81636 19.3539 3.69878C20.5714 3.58119 21.7952 3.84821 22.853 4.4623C25.2331 5.70278 26.3526 7.76015 26.2517 10.7252H13.6553ZM9.4498 16.0603C9.14307 16.3122 8.89422 16.6273 8.72019 16.984C8.54616 17.3408 8.45103 17.7309 8.44128 18.1277C8.43038 18.6117 8.51972 19.0927 8.70369 19.5405C8.88767 19.9883 9.1623 20.3932 9.51031 20.7297C10.1351 21.2945 10.9473 21.6072 11.7896 21.6072C12.6318 21.6072 13.444 21.2945 14.0688 20.7297C14.4192 20.3961 14.6968 19.9936 14.8843 19.5476C15.0717 19.1015 15.1649 18.6216 15.158 18.1378C15.1479 17.7382 15.0527 17.3452 14.8788 16.9853C14.7049 16.6253 14.4563 16.3065 14.1495 16.0502C13.9327 15.8787 13.7685 15.6497 13.6758 15.3893C13.583 15.1289 13.5655 14.8476 13.6251 14.5777H26.2114C26.2114 15.2837 26.2114 15.5863 25.7273 15.9998C25.4258 16.2453 25.18 16.5521 25.0062 16.8998C24.8323 17.2476 24.7343 17.6283 24.7188 18.0168C24.6922 18.5064 24.7681 18.9961 24.9418 19.4545C25.1154 19.913 25.383 20.3302 25.7273 20.6792C26.3411 21.2581 27.1492 21.5863 27.9928 21.5994C28.8364 21.6124 29.6543 21.3094 30.2858 20.7498C30.6393 20.4228 30.9219 20.0268 31.1162 19.5862C31.3105 19.1455 31.4123 18.6698 31.4153 18.1882C31.4167 17.8087 31.3385 17.433 31.1856 17.0855C31.0327 16.7381 30.8086 16.4266 30.5278 16.1712C30.3141 15.9809 30.1521 15.7396 30.0569 15.4698C29.9616 15.2 29.9363 14.9104 29.9832 14.6281H36.2058V40.3352C36.2058 42.8969 34.8443 44.2483 32.2625 44.2483H7.64455C5.11317 44.2483 3.77183 42.907 3.76175 40.3857V14.618H9.94396C10.0022 14.8806 9.98686 15.1542 9.89968 15.4087C9.81249 15.6631 9.65683 15.8886 9.4498 16.0603Z" fill="#9E9E9E"/>
<path d="M17.9483 28.6263H24.7357C27.0654 28.6263 29.395 28.6263 31.7247 28.6263C32.7836 28.6263 33.2778 28.0817 33.2476 27.1236C33.2173 26.1656 32.7635 25.7017 31.6743 25.7017H17.8979C16.7886 25.7017 16.244 26.1958 16.254 27.1741C16.2641 28.1523 16.839 28.6263 17.9483 28.6263Z" fill="#9E9E9E"/>
<path d="M17.8151 39.0966H31.5612C32.5697 39.0966 33.1748 38.5722 33.195 37.6847C33.21 37.4725 33.1778 37.2596 33.1008 37.0613C33.0238 36.863 32.9039 36.6842 32.7497 36.5377C32.5955 36.3912 32.4107 36.2806 32.2088 36.2139C32.0068 36.1472 31.7925 36.126 31.5814 36.1518C27.0027 36.1518 22.4207 36.1518 17.8353 36.1518C16.7058 36.1518 16.1914 36.6157 16.1914 37.6242C16.1914 38.6327 16.6957 39.0966 17.8151 39.0966Z" fill="#9E9E9E"/>
<path d="M7.32031 27.2551C7.32031 29.605 7.43124 29.7159 9.80126 29.7159C12.1713 29.7159 12.4234 29.5949 12.4234 27.0938V27.003C12.4234 24.6935 12.3024 24.5825 9.98278 24.5825C7.43123 24.5825 7.32031 24.7036 7.32031 27.2551Z" fill="#9E9E9E"/>
<path d="M11.3601 35.5745C10.9265 35.998 10.4827 36.4015 9.98857 36.8654L9.46412 37.3595C9.32624 37.1373 9.16014 36.9339 8.96996 36.7544C8.84196 36.6192 8.68403 36.516 8.50888 36.4529C8.33372 36.3898 8.14622 36.3688 7.96144 36.3913C7.80913 36.4158 7.66447 36.475 7.53859 36.5641C7.4127 36.6533 7.30894 36.7701 7.2353 36.9057C7.14176 37.1376 7.10484 37.3885 7.12764 37.6376C7.15045 37.8866 7.23231 38.1267 7.36642 38.3378C7.62953 38.7044 7.93035 39.0424 8.26398 39.3463C8.42534 39.4976 8.58671 39.6489 8.73799 39.8102C8.84551 39.9385 8.97769 40.0438 9.12667 40.12C9.27566 40.1963 9.43842 40.2418 9.60533 40.254C9.7848 40.2407 9.95967 40.191 10.1192 40.1077C10.2788 40.0245 10.4196 39.9095 10.5331 39.7699C11.34 38.9227 12.1569 38.0756 12.9839 37.2385C13.1128 37.138 13.2188 37.0111 13.2947 36.8663C13.3707 36.7215 13.415 36.5623 13.4245 36.399C13.4341 36.2358 13.4087 36.0725 13.3501 35.9198C13.2915 35.7672 13.201 35.6288 13.0847 35.5139C12.9919 35.4004 12.877 35.307 12.747 35.2394C12.617 35.1718 12.4745 35.1314 12.3283 35.1206C12.1446 35.127 11.9642 35.1705 11.7978 35.2485C11.6314 35.3265 11.4825 35.4374 11.3601 35.5745Z" fill="#9E9E9E"/>
</svg>
