<svg width="48" height="48" viewBox="0 0 48 48" fill="none" xmlns="http://www.w3.org/2000/svg">
<path d="M46.6152 20.6485C46.0325 19.9971 45.6066 19.2209 45.3701 18.3794C45.1337 17.538 45.093 16.6536 45.2511 15.794C45.5842 14.4714 45.3879 13.071 44.7042 11.8909C44.0205 10.7108 42.9032 9.84408 41.5902 9.47515C40.8391 9.2296 40.1554 8.81271 39.5931 8.25741C39.0308 7.70211 38.6055 7.02362 38.3506 6.27561C37.2573 3.34688 35.0106 2.04301 32.0317 2.59465C31.1932 2.75132 30.3298 2.71246 29.5087 2.48109C28.6876 2.24973 27.931 1.83209 27.2976 1.26066C26.3805 0.448426 25.1977 0 23.9727 0C22.7476 0 21.5649 0.448426 20.6477 1.26066C20.0132 1.8306 19.2568 2.24797 18.4364 2.48091C17.6159 2.71384 16.753 2.75621 15.9136 2.60469C12.8244 2.03299 10.5175 3.387 9.42428 6.406C9.18752 7.10496 8.79294 7.74 8.27112 8.26182C7.7493 8.78364 7.11426 9.17821 6.41531 9.41498C5.06205 9.79324 3.9107 10.6863 3.20772 11.9029C2.50473 13.1196 2.30599 14.5631 2.65409 15.9244C2.81151 16.6989 2.78364 17.4997 2.57273 18.2614C2.36183 19.0231 1.97385 19.7242 1.44048 20.3074C0.515961 21.2743 0 22.5604 0 23.8982C0 25.2359 0.515961 26.5221 1.44048 27.4889C1.9851 28.0548 2.38169 28.7462 2.59514 29.502C2.80859 30.2578 2.83229 31.0547 2.66413 31.8218C2.62001 32.0531 2.60319 32.2887 2.614 32.5239C2.619 32.6107 2.619 32.6978 2.614 32.7846C2.4335 33.893 2.65458 35.0294 3.23747 35.9893C3.82036 36.9491 4.72675 37.6693 5.79346 38.0203C6.7524 38.3368 7.62251 38.8764 8.33219 39.5948C9.04187 40.3132 9.57086 41.1899 9.87564 42.1526C9.93269 42.3056 10.0032 42.4533 10.0863 42.5939C10.5031 43.467 11.1749 44.1931 12.0129 44.6766C12.8509 45.1601 13.8158 45.3782 14.7803 45.302C15.0511 45.302 15.3319 45.302 15.6127 45.2318C16.0661 45.183 16.5234 45.183 16.9768 45.2318C17.8027 45.2905 18.613 45.487 19.374 45.8135C20.2666 46.2247 21.1091 46.7162 22.0018 47.2378L23.1352 47.8997L23.3057 48H24.6597L24.8202 47.9198C25.0409 47.8095 25.2816 47.7092 25.5123 47.6089C26.1282 47.3916 26.7067 47.0803 27.2274 46.6861C27.9303 46.0739 28.7637 45.6301 29.664 45.3885C30.5643 45.1469 31.5079 45.1139 32.4229 45.292C33.6697 45.5755 34.9777 45.372 36.0795 44.7233C37.1813 44.0745 37.9937 43.0293 38.3506 41.8015C38.6196 40.9969 39.0697 40.2648 39.6661 39.6614C40.2625 39.058 40.9894 38.5996 41.7908 38.3212C42.428 38.1512 43.0255 37.8573 43.5489 37.4562C44.0724 37.055 44.5116 36.5546 44.8414 35.9835C45.1712 35.4124 45.3851 34.7818 45.4709 34.1279C45.5567 33.4741 45.5127 32.8097 45.3414 32.1728C45.1668 31.2993 45.1973 30.3971 45.4305 29.5374C45.6637 28.6776 46.0933 27.8837 46.6854 27.2181C47.4781 26.3034 47.9087 25.1303 47.8957 23.92C47.8828 22.7097 47.4273 21.546 46.6152 20.6485ZM41.7106 32.8348C41.7683 33.0416 41.7845 33.2578 41.7581 33.4709C41.7318 33.684 41.6635 33.8897 41.5571 34.0762C41.4508 34.2627 41.3086 34.4263 41.1387 34.5576C40.9687 34.6888 40.7745 34.7851 40.5672 34.8408C40.2829 34.9637 40.005 35.1009 39.7347 35.252C39.5077 35.3797 39.2733 35.4936 39.0326 35.593C38.2335 35.8842 37.5097 36.3507 36.9144 36.9582C36.3191 37.5656 35.8674 38.2986 35.5923 39.1035C34.8501 41.3702 33.5863 42.1125 31.3998 41.6511C29.0027 41.1195 27.1171 42.293 25.5925 43.5167C24.3789 44.5196 23.4561 44.5196 22.403 43.5167C20.9416 42.1914 19.0295 41.4739 17.0571 41.5107C16.456 41.5145 15.856 41.5614 15.2617 41.6511C13.697 41.8918 13.4663 41.7614 12.9147 40.3673C12.4493 39.1012 11.7126 37.9522 10.7561 37.001C9.79972 36.0498 8.6468 35.3193 7.3782 34.8608C6.03419 34.3293 5.88375 34.0585 6.12446 32.6242C6.39607 31.3341 6.3644 29.9985 6.03196 28.7227C5.69953 27.4469 5.0754 26.2658 4.20875 25.2723C4.01305 25.085 3.8573 24.86 3.7509 24.6109C3.6445 24.3618 3.58962 24.0938 3.58962 23.8229C3.58962 23.5521 3.6445 23.284 3.7509 23.0349C3.8573 22.7858 4.01305 22.5609 4.20875 22.3736C5.06056 21.4387 5.67622 20.3136 6.00426 19.0921C6.33231 17.8707 6.3632 16.5885 6.09437 15.3527C5.99299 15.0793 5.95238 14.7871 5.97543 14.4965C5.99848 14.2058 6.08462 13.9237 6.22783 13.6698C6.37104 13.4158 6.5679 13.1961 6.80468 13.026C7.04146 12.8559 7.31248 12.7394 7.59886 12.6847C8.81444 12.2641 9.92024 11.5763 10.835 10.672C11.7497 9.7677 12.4501 8.66981 12.8846 7.45913C13.4764 6.01482 13.7271 5.86441 15.2015 6.11516C16.4729 6.38252 17.7891 6.35038 19.0459 6.02137C20.3027 5.69237 21.4658 5.0755 22.4431 4.21949C22.622 4.01504 22.8425 3.85119 23.0898 3.73893C23.3372 3.62667 23.6057 3.56856 23.8774 3.56856C24.149 3.56856 24.4175 3.62667 24.6649 3.73893C24.9123 3.85119 25.1328 4.01504 25.3117 4.21949C26.3045 5.0871 27.4859 5.71112 28.7622 6.04194C30.0385 6.37277 31.3744 6.40123 32.6636 6.12514C34.0277 5.89445 34.2383 6.02484 34.9504 7.50927C35.9534 9.51525 36.9564 11.6115 39.4839 12.434C41.4899 13.0759 42.182 14.2093 41.6705 16.1049C41.0988 18.6826 42.3926 20.5782 43.6764 22.4237C44.6794 23.9583 44.6794 23.9584 43.6764 25.2322C42.7928 26.2668 42.1565 27.4892 41.8159 28.8065C41.4753 30.1239 41.4392 31.5015 41.7106 32.8348Z" fill="#9E9E9E"/>
<path d="M18.7429 22.7448C19.3397 22.7502 19.9315 22.6362 20.4835 22.4094C21.0355 22.1826 21.5366 21.8477 21.9572 21.4243C22.3778 21.0009 22.7094 20.4976 22.9325 19.9441C23.1556 19.3906 23.2657 18.798 23.2563 18.2013C23.2485 17.5922 23.1205 16.9907 22.8795 16.4313C22.6385 15.8719 22.2894 15.3656 21.8522 14.9416C21.0057 14.1196 19.8726 13.6592 18.6927 13.6577C17.4919 13.6839 16.3491 14.1795 15.5092 15.0382C14.6692 15.8968 14.1991 17.0503 14.1993 18.2514C14.195 18.8453 14.309 19.434 14.5346 19.9833C14.7602 20.5327 15.0928 21.0316 15.5133 21.451C16.3767 22.2918 17.5377 22.7569 18.7429 22.7448ZM16.8172 18.1913C16.8251 17.6849 17.0332 17.2023 17.3959 16.8489C17.7587 16.4956 18.2466 16.3003 18.7529 16.3056C19.2609 16.3059 19.7479 16.508 20.107 16.8673C20.4487 17.2469 20.6328 17.7426 20.6216 18.2533C20.6104 18.764 20.4048 19.2512 20.0468 19.6155C19.8711 19.7892 19.6627 19.9264 19.4338 20.0194C19.2049 20.1123 18.9599 20.1592 18.7128 20.1571C18.207 20.1294 17.7304 19.9112 17.3788 19.5466C17.0272 19.1819 16.8265 18.6977 16.8172 18.1913Z" fill="#9E9E9E"/>
<path d="M29.0425 25.2152C28.4482 25.2138 27.8597 25.3308 27.3112 25.5594C26.7626 25.788 26.2652 26.1236 25.8478 26.5466C25.4304 26.9696 25.1015 27.4714 24.8802 28.023C24.6589 28.5745 24.5498 29.1646 24.5591 29.7588C24.5771 30.9548 25.0589 32.097 25.9028 32.9446C26.7467 33.7923 27.8867 34.279 29.0826 34.3023C29.6801 34.3029 30.2717 34.1844 30.8228 33.9536C31.3739 33.7228 31.8734 33.3844 32.2922 32.9583C32.7228 32.523 33.0617 32.0058 33.2891 31.4373C33.5165 30.8688 33.6277 30.2606 33.6162 29.6484C33.6207 29.053 33.5044 28.4629 33.2743 27.9138C33.0443 27.3646 32.7052 26.8678 32.2777 26.4534C31.8502 26.039 31.343 25.7156 30.787 25.5028C30.2309 25.29 29.6374 25.1921 29.0425 25.2152ZM29.0425 27.823C29.5452 27.8426 30.0223 28.0505 30.379 28.4053C30.7357 28.7602 30.946 29.2361 30.9682 29.7387C30.9742 29.9917 30.9283 30.2432 30.8334 30.4777C30.7385 30.7123 30.5967 30.925 30.4166 31.1028C30.2272 31.2881 30.0029 31.434 29.7567 31.5322C29.5105 31.6303 29.2473 31.6787 28.9823 31.6745C28.733 31.6733 28.4865 31.6221 28.2573 31.524C28.0282 31.4259 27.821 31.2829 27.648 31.1034C27.475 30.9239 27.3398 30.7115 27.2502 30.4788C27.1607 30.2462 27.1188 29.9979 27.1268 29.7488C27.1319 29.2431 27.3337 28.7592 27.6894 28.3997C28.0451 28.0402 28.5269 27.8334 29.0325 27.823H29.0425Z" fill="#9E9E9E"/>
<path d="M31.4054 14.5037L14.293 31.3906L16.4065 33.5324L33.5189 16.6454L31.4054 14.5037Z" fill="#9E9E9E"/>
</svg>
