<svg width="49" height="48" viewBox="0 0 49 48" fill="none" xmlns="http://www.w3.org/2000/svg">
<path d="M37.0347 15.3306H33.5651L33.8282 16.159C34.1293 17.0841 34.2807 18.0514 34.2765 19.0243C34.2765 23.9851 30.5633 24.9597 24.0236 24.9597C17.484 24.9597 13.7805 23.9851 13.7805 18.9951C13.7855 18.0428 13.9333 17.0967 14.2191 16.1882L14.492 15.3696H11.0126L10.8956 15.8374C10.6187 16.8904 10.4778 17.9745 10.4766 19.0633C10.4766 27.3085 18.215 28.2636 24.0236 28.2636C29.8323 28.2636 37.5805 27.289 37.5805 19.0633C37.5787 17.9745 37.4378 16.8905 37.1614 15.8374L37.0347 15.3306Z" fill="#9E9E9E"/>
<path d="M47.3758 11.6953C47.3476 10.383 46.8025 9.13478 45.8589 8.22223C44.9153 7.30968 43.6496 6.80655 42.337 6.82227H37.3275C35.9436 0.711465 29.1116 0 24.0241 0C18.9367 0 12.1144 0.721211 10.7304 6.82227H5.72096C4.40839 6.80655 3.14269 7.30968 2.19911 8.22223C1.25554 9.13478 0.71039 10.383 0.682227 11.6953L0 43.1265C0.0281662 44.4405 0.57466 45.6902 1.52035 46.603C2.46604 47.5159 3.73423 48.0178 5.04848 47.9995H43.0582C44.3708 48.0152 45.6365 47.5121 46.5801 46.5996C47.5237 45.687 48.0688 44.4388 48.097 43.1265L47.3758 11.6953ZM14.1611 6.82227C15.2819 3.84971 18.8002 3.22596 24.0241 3.22596C29.248 3.22596 32.7956 3.84971 33.8969 6.82227H14.1611ZM44.7541 43.1167C44.7388 43.5665 44.5473 43.9923 44.221 44.3023C43.8946 44.6122 43.4595 44.7815 43.0095 44.7736H5.04848C4.82367 44.7827 4.59927 44.7472 4.38822 44.6693C4.17716 44.5913 3.98362 44.4723 3.81874 44.3192C3.65387 44.1661 3.52091 43.9819 3.42754 43.7772C3.33417 43.5725 3.28222 43.3513 3.27469 43.1265L3.95691 11.6953C3.96194 11.4696 4.01172 11.2472 4.10336 11.0409C4.195 10.8346 4.32668 10.6485 4.49078 10.4935C4.65487 10.3385 4.8481 10.2176 5.05927 10.1378C5.27044 10.058 5.49535 10.0209 5.72096 10.0287H42.337C42.561 10.0249 42.7836 10.0651 42.992 10.1473C43.2004 10.2295 43.3906 10.3519 43.5517 10.5075C43.7128 10.6632 43.8416 10.8491 43.9309 11.0546C44.0201 11.26 44.068 11.4811 44.0718 11.7051L44.7541 43.1167Z" fill="#9E9E9E"/>
</svg>
