<svg width="30" height="31" viewBox="0 0 30 31" fill="none" xmlns="http://www.w3.org/2000/svg">
<path d="M24.8041 0.00820836C24.6665 -0.00273612 24.5282 -0.00273612 24.3906 0.00820836H5.38711C5.26902 0.00199036 5.15064 0.00199036 5.03256 0.00820836C4.8031 0.0176661 4.58584 0.114334 4.42519 0.278449C4.26454 0.442564 4.17253 0.661749 4.16797 0.891359C4.17023 1.12115 4.26109 1.34124 4.42154 1.50575C4.582 1.67026 4.7997 1.76655 5.02937 1.77455C5.29991 1.79632 5.57364 1.77455 5.8815 1.77455C5.93126 2.10729 5.98092 2.39647 6.01513 2.68567C6.25146 4.89669 6.4226 7.12328 6.7429 9.32496C7.0632 11.5266 7.69748 13.6381 9.0471 15.4667C11.9143 19.3538 17.8881 19.3787 20.6931 15.4667C21.3979 14.423 21.9517 13.285 22.3381 12.0864C23.1746 9.667 23.3612 7.11083 23.554 4.57641C23.6224 3.64349 23.7282 2.74478 23.8215 1.77766C24.2009 1.77766 24.4963 1.79943 24.7855 1.77766C25.0162 1.76875 25.234 1.66888 25.3913 1.4999C25.5486 1.33093 25.6327 1.10658 25.6251 0.875833C25.6247 0.653808 25.5394 0.440327 25.3868 0.279056C25.2342 0.117785 25.0258 0.0208951 24.8041 0.00820836V0.00820836ZM17.3812 11.7847L14.8935 10.4818L12.4057 11.7847L12.8814 9.02329L10.8725 7.06419L13.6464 6.66302L14.8903 4.14727L16.1342 6.66302L18.9081 7.06419L16.9023 9.02329L17.3812 11.7847Z" fill="#5CA78C"/>
<path d="M14.9557 26.6493H22.0024C22.9197 26.6493 23.1965 26.9323 23.1996 27.8497C23.1996 28.2664 23.1996 28.68 23.1996 29.0936C23.1996 29.8959 22.8886 30.2037 22.0926 30.2037C19.782 30.2037 17.4716 30.2037 15.1642 30.2037H7.76293C6.88599 30.2037 6.59997 29.9114 6.59375 29.0314C6.59375 28.596 6.59375 28.1638 6.59375 27.7284C6.59375 26.9665 6.90464 26.6493 7.67274 26.6493C10.1014 26.6462 12.5301 26.6493 14.9557 26.6493Z" fill="#5CA78C"/>
<path d="M12.4477 19.8452C14.0526 20.2277 15.7251 20.2277 17.33 19.8452C17.4202 20.52 17.5228 21.142 17.585 21.7639C17.6285 22.2366 17.8524 22.3641 18.3158 22.3672C19.7338 22.3672 20.589 23.4183 20.393 24.855H9.41571C9.33551 24.5575 9.32606 24.2454 9.38807 23.9436C9.45008 23.6418 9.58185 23.3587 9.77284 23.1169C9.96383 22.8751 10.2088 22.6814 10.488 22.5512C10.7673 22.421 11.073 22.358 11.381 22.3672C12.0309 22.3672 12.2052 22.0873 12.2643 21.5649C12.3233 21.0425 12.3855 20.4423 12.4477 19.8452Z" fill="#5CA78C"/>
<path d="M23.457 14.3784C23.7462 13.4859 24.0261 12.5871 24.337 11.7009C24.4326 11.5093 24.5671 11.3398 24.732 11.2033C26.0909 9.83504 27.1669 8.31129 27.512 6.3615C27.5338 6.22778 27.5556 6.09093 27.5743 5.95411C27.593 5.81728 27.6116 5.60271 27.6365 5.33216H25.2824L25.4161 3.56275C26.5325 3.56275 27.6116 3.52852 28.6875 3.57827C29.21 3.60004 29.465 4.01988 29.4618 4.65426C29.4892 7.20977 28.5354 9.6784 26.7969 11.5516C25.8235 12.6213 24.6698 13.5294 23.597 14.509L23.457 14.3784Z" fill="#5CA78C"/>
<path d="M4.31316 3.55322L4.44375 5.31645H2.15184C2.25758 6.62253 2.51573 7.80421 3.21231 8.83975C3.80627 9.71358 4.53398 10.5003 5.19946 11.3275C5.28933 11.4284 5.3608 11.5441 5.41083 11.6696C5.7218 12.5652 5.99547 13.4608 6.27845 14.3378C4.77646 13.6629 2.54685 11.3306 1.52064 9.45547C0.744513 7.98602 0.336915 6.35009 0.332779 4.68828C0.314121 3.89841 0.643612 3.56255 1.43348 3.55634C2.37573 3.55323 3.31805 3.55322 4.31316 3.55322Z" fill="#5CA78C"/>
</svg>
