<svg width="35" height="30" viewBox="0 0 35 30" fill="none" xmlns="http://www.w3.org/2000/svg">
<path d="M20.5974 0.5H27.7244L25.0995 5.06689L20.5974 0.5Z" fill="#8F00FF" stroke="black"/>
<path d="M29.8731 1.3196L33.5909 5.84573H27.2739L29.8731 1.3196Z" fill="#8F00FF" stroke="black"/>
<path d="M17.7097 1.10527L22.3954 5.84269H13.0422L17.7097 1.10527Z" fill="#8F00FF" stroke="black"/>
<path d="M7.64879 0.5H14.8678L10.3068 5.12929L7.64879 0.5Z" fill="#8F00FF" stroke="black"/>
<path d="M5.50905 1.31918L8.10675 5.8325H1.80353L5.50905 1.31918Z" fill="#8F00FF" stroke="black"/>
<path d="M11.8481 16.4425C12.7862 19.4569 13.7251 22.4713 14.6646 25.4857L1.66942 8.20068H1.67603H1.69336H1.71068H1.728H1.74531H1.76263H1.77994H1.79725H1.81456H1.83187H1.84918H1.86648H1.88379H1.90109H1.91838H1.93568H1.95298H1.97027H1.98756H2.00485H2.02214H2.03942H2.05671H2.07399H2.09127H2.10855H2.12583H2.1431H2.16037H2.17765H2.19492H2.21218H2.22945H2.24671H2.26398H2.28124H2.2985H2.31575H2.33301H2.35026H2.36752H2.38477H2.40201H2.41926H2.43651H2.45375H2.47099H2.48823H2.50547H2.52271H2.53994H2.55717H2.57441H2.59163H2.60886H2.62609H2.64331H2.66054H2.67776H2.69498H2.7122H2.72941H2.74663H2.76384H2.78105H2.79826H2.81547H2.83267H2.84988H2.86708H2.88428H2.90148H2.91868H2.93588H2.95307H2.97026H2.98745H3.00464H3.02183H3.03902H3.0562H3.07339H3.09057H3.10775H3.12493H3.14211H3.15928H3.17645H3.19363H3.2108H3.22797H3.24513H3.2623H3.27946H3.29663H3.31379H3.33095H3.34811H3.36526H3.38242H3.39957H3.41672H3.43387H3.45102H3.46817H3.48532H3.50246H3.5196H3.53675H3.55388H3.57102H3.58816H3.6053H3.62243H3.63956H3.65669H3.67382H3.69095H3.70808H3.7252H3.74232H3.75945H3.77657H3.79369H3.8108H3.82792H3.84504H3.86215H3.87926H3.89637H3.91348H3.93059H3.94769H3.9648H3.9819H3.999H4.0161H4.0332H4.0503H4.0674H4.08449H4.10159H4.11868H4.13577H4.15286H4.16995H4.18703H4.20412H4.2212H4.23828H4.25536H4.27244H4.28952H4.3066H4.32367H4.34075H4.35782H4.37489H4.39196H4.40903H4.4261H4.44317H4.46023H4.4773H4.49436H4.51142H4.52848H4.54554H4.56259H4.57965H4.5967H4.61376H4.63081H4.64786H4.66491H4.68196H4.699H4.71605H4.73309H4.75014H4.76718H4.78422H4.80126H4.8183H4.83533H4.85237H4.8694H4.88644H4.90347H4.9205H4.93753H4.95456H4.97158H4.98861H5.00563H5.02266H5.03968H5.0567H5.07372H5.09074H5.10776H5.12477H5.14179H5.1588H5.17581H5.19282H5.20983H5.22684H5.24385H5.26086H5.27786H5.29487H5.31187H5.32887H5.34587H5.36287H5.37987H5.39687H5.41387H5.43086H5.44786H5.46485H5.48184H5.49883H5.51582H5.53281H5.5498H5.56679H5.58377H5.60076H5.61774H5.63472H5.6517H5.66868H5.68566H5.70264H5.71962H5.73659H5.75357H5.77054H5.78751H5.80448H5.82146H5.83843H5.85539H5.87236H5.88933H5.90629H5.92326H5.94022H5.95718H5.97414H5.9911H6.00806H6.02502H6.04198H6.05894H6.07589H6.09285H6.1098H6.12675H6.1437H6.16065H6.1776H6.19455H6.2115H6.22845H6.24539H6.26234H6.27928H6.29622H6.31316H6.3301H6.34704H6.36398H6.38092H6.39786H6.4148H6.43173H6.44867H6.4656H6.48253H6.49946H6.51639H6.53332H6.55025H6.56718H6.58411H6.60103H6.61796H6.63488H6.65181H6.66873H6.68565H6.70257H6.7195H6.73641H6.75333H6.77025H6.78717H6.80408H6.821H6.83791H6.85483H6.87174H6.88865H6.90556H6.92247H6.93938H6.95629H6.9732H6.99011H7.00701H7.02392H7.04082H7.05773H7.07463H7.09153H7.10843H7.12533H7.14223H7.15913H7.17603H7.19293H7.20983H7.22672H7.24362H7.26051H7.27741H7.2943H7.31119H7.32809H7.34498H7.36187H7.37876H7.39565H7.41253H7.42942H7.44631H7.46319H7.48008H7.49696H7.51385H7.53073H7.54761H7.5645H7.58138H7.59826H7.61514H7.63202H7.6489H7.66577H7.68265H7.69953H7.7164H7.73328H7.75015H7.76703H7.7839H7.80077H7.81765H7.83452H7.85139H7.86826H7.88513H7.902H7.91887H7.93573H7.9526H7.96947H7.98633H8.0032H8.02006H8.03693H8.05379H8.07066H8.08752H8.10438H8.12124H8.1381H8.15496H8.17182H8.18868H8.20554H8.2224H8.23926H8.25611H8.27297H8.28982H8.30668H8.32354H8.34039H8.35724H8.3741H8.39095H8.4078H8.42465H8.44151H8.45836H8.47521H8.49206H8.50891H8.52575H8.5426H8.55945H8.5763H8.59315H8.60999H8.62684H8.64368H8.66053H8.67737H8.69422H8.71106H8.72791H8.74475H8.76159H8.77843H8.79527H8.81212H8.82896H8.8458H8.86264H8.87948H8.89632H8.91315H8.92999H8.94683H8.96367H8.9805H8.99734H9.01418H9.03101H9.04785H9.06468H9.08152H9.09835H9.11519H9.13202H9.14886H9.16569H9.18252H9.19936H9.21619H9.23302H9.24985H9.26668H9.28351H9.28545L11.848 16.4423L11.8481 16.4425Z" fill="#8F00FF" stroke="black"/>
<path d="M33.7267 8.19087C29.3703 13.9799 25.0362 19.7424 20.7243 25.4783C22.5153 19.7196 24.3064 13.96 26.0974 8.19956L26.1001 8.19087H26.1019H33.7267Z" fill="#8F00FF" stroke="black"/>
<path d="M11.6596 8.21094H23.7334L17.695 27.6086C15.685 21.1509 13.6732 14.685 11.6596 8.21094Z" fill="#8F00FF" stroke="black"/>
</svg>
