<svg width="41" height="48" viewBox="0 0 41 48" fill="none" xmlns="http://www.w3.org/2000/svg">
<path d="M20.1031 47.9989C15.5127 48.0415 10.9515 47.2661 6.63308 45.7089C4.70218 45.0433 2.95269 43.9375 1.52308 42.4789C1.01717 41.9462 0.622248 41.3183 0.361298 40.6315C0.100347 39.9448 -0.0214189 39.2131 0.00308232 38.4789C0.0512802 33.2658 2.12807 28.2765 5.79308 24.5689C5.95451 24.3656 6.15669 24.1984 6.38663 24.0779C6.61657 23.9575 6.86917 23.8865 7.1282 23.8695C7.38722 23.8526 7.64692 23.89 7.8906 23.9795C8.13428 24.0689 8.35654 24.2084 8.54308 24.3889C8.72674 24.5675 8.87106 24.7825 8.96683 25.0201C9.06259 25.2577 9.10769 25.5127 9.09921 25.7688C9.09074 26.0248 9.0289 26.2763 8.91763 26.507C8.80637 26.7378 8.64814 26.9428 8.45308 27.1089C5.97196 29.6131 4.36263 32.8493 3.86308 36.3389C3.77308 36.9589 3.76308 37.5989 3.68308 38.2289C3.63986 38.6321 3.70082 39.0397 3.86015 39.4126C4.01947 39.7855 4.27183 40.1114 4.59308 40.3589C5.71376 41.301 7.00814 42.0144 8.40308 42.4589C12.9095 43.9581 17.6639 44.5694 22.4031 44.2589C25.7261 44.1758 29.0143 43.5613 32.1431 42.4389C33.2931 41.9722 34.4006 41.4067 35.4531 40.7489C35.9561 40.4607 36.3589 40.0256 36.6074 39.5018C36.8559 38.978 36.9381 38.3907 36.8431 37.8189C36.5906 33.8106 34.9046 30.0269 32.0931 27.1589C31.8487 26.9531 31.6555 26.6933 31.5288 26.3999C31.4021 26.1066 31.3454 25.7879 31.3631 25.4689C31.3797 25.1069 31.5052 24.7584 31.7231 24.4689C31.8916 24.2601 32.1028 24.0898 32.3425 23.9694C32.5823 23.8491 32.845 23.7814 33.1131 23.7709C33.3812 23.7605 33.6484 23.8076 33.8967 23.909C34.1451 24.0104 34.3689 24.1638 34.5531 24.3589C36.7363 26.512 38.3927 29.1403 39.3931 32.0389C40.071 34.0223 40.455 36.0943 40.5331 38.1889C40.5861 39.081 40.4333 39.9733 40.0865 40.7969C39.7397 41.6205 39.2082 42.3534 38.5331 42.9389C36.8274 44.4103 34.8256 45.4981 32.6631 46.1289C28.5977 47.3952 24.3611 48.026 20.1031 47.9989Z" fill="#9E9E9E"/>
<path d="M20.2776 0.000163639C22.411 -0.0105685 24.5139 0.506752 26.3988 1.50602C28.2838 2.50529 29.8922 3.95545 31.0806 5.72721C32.2691 7.49897 33.0006 9.53728 33.2101 11.6604C33.4196 13.7835 33.1005 15.9255 32.2812 17.8954C31.4619 19.8652 30.1679 21.6017 28.5146 22.9501C26.8613 24.2985 24.9 25.2168 22.8057 25.6232C20.7113 26.0296 18.5489 25.9115 16.5113 25.2793C14.4737 24.6471 12.6241 23.5206 11.1276 22.0002C9.92362 20.7915 8.97139 19.356 8.32598 17.7768C7.68058 16.1976 7.35481 14.5061 7.36755 12.8002C7.40176 9.39694 8.77637 6.14445 11.1932 3.74821C13.61 1.35197 16.8742 0.00525598 20.2776 0.000163639ZM20.2776 22.1502C21.4879 22.1523 22.6871 21.9179 23.8076 21.4602C26.0688 20.5187 27.8661 18.7214 28.8076 16.4602C29.2681 15.3363 29.5091 14.1347 29.5176 12.9201C29.5175 11.0979 28.9775 9.31648 27.9658 7.80091C26.954 6.28535 25.5158 5.1036 23.8328 4.40489C22.1498 3.70617 20.2975 3.52186 18.5098 3.87519C16.7221 4.22853 15.0793 5.10365 13.7886 6.39009C12.498 7.67653 11.6175 9.31658 11.2584 11.1031C10.8992 12.8896 11.0776 14.7425 11.7708 16.4277C12.464 18.113 13.6411 19.555 15.1534 20.5717C16.6657 21.5884 18.4453 22.1342 20.2676 22.1401L20.2776 22.1502Z" fill="#9E9E9E"/>
</svg>
