<svg width="48" height="48" viewBox="0 0 48 48" fill="none" xmlns="http://www.w3.org/2000/svg">
<path d="M47.2871 42.7056C47.189 40.6904 46.7576 38.7053 46.0105 36.8312C44.4181 32.9996 41.5063 29.8649 37.8024 27.9947C37.5618 27.8594 37.2828 27.8085 37.0099 27.85C36.7369 27.8916 36.4858 28.0233 36.2964 28.2241C36.0171 28.5034 35.7379 28.7826 35.4486 29.0519C34.2641 30.2381 32.7546 31.0465 31.1107 31.375C29.4669 31.7034 27.7626 31.537 26.2132 30.897C24.9639 30.4081 23.8467 29.6327 22.9519 28.6331C22.823 28.435 22.6524 28.2674 22.452 28.142C22.2517 28.0166 22.0264 27.9363 21.7919 27.9069C21.5574 27.8775 21.3193 27.8995 21.0942 27.9715C20.8691 28.0436 20.6623 28.1638 20.4885 28.3239C19.1115 29.1062 17.8354 30.0541 16.6886 31.1463L15.9805 31.8445L16.9778 32.8418C17.2271 33.0912 17.4565 33.3305 17.6859 33.5798C17.7883 33.7023 17.9144 33.8028 18.0565 33.8754C18.1987 33.948 18.354 33.9912 18.5132 34.0024C18.6724 34.0135 18.8323 33.9925 18.9832 33.9405C19.134 33.8884 19.2729 33.8064 19.3914 33.6995L19.4911 33.6198C20.0795 33.151 20.678 32.6823 21.2863 32.2335C23.311 33.9716 25.8367 35.0197 28.4971 35.2255C30.1499 35.3625 31.8133 35.1589 33.3841 34.6271C34.9022 34.0819 36.3131 33.2751 37.553 32.2434C39.8982 33.7694 41.6835 36.0168 42.6395 38.6464C43.0957 39.9769 43.3741 41.3619 43.4673 42.7654C43.4673 42.9449 43.4673 43.1145 43.4673 43.294H20.7677V46.9842H45.7013C46.7785 46.9842 47.2372 46.5454 47.2572 45.4782V45.2687C47.317 44.431 47.337 43.5533 47.2871 42.7056Z" fill="#9E9E9E"/>
<path d="M17.9612 17.8695C17.9409 20.9094 19.1283 23.833 21.2624 25.9979C22.3123 27.0801 23.5676 27.9419 24.9548 28.5328C26.342 29.1236 27.8331 29.4316 29.3409 29.4387H29.4107C31.6771 29.44 33.8931 28.7698 35.7789 27.5128C37.6647 26.2557 39.1359 24.4681 40.0066 22.3756C40.8773 20.2832 41.1086 17.9796 40.6712 15.7558C40.2338 13.532 39.1474 11.4877 37.5491 9.88079C35.3869 7.72178 32.4562 6.50932 29.4007 6.50977C26.3861 6.5278 23.4989 7.72793 21.3598 9.85215C19.2206 11.9764 18.0003 14.8551 17.9612 17.8695ZM29.3509 10.2997C30.3681 10.2808 31.3787 10.4669 32.3225 10.8469C33.2663 11.2269 34.1239 11.793 34.8443 12.5115C35.5646 13.23 36.133 14.0862 36.5154 15.029C36.8978 15.9717 37.0866 16.9819 37.0703 17.9992C37.0652 20.0134 36.2668 21.9446 34.8481 23.3745C33.4295 24.8044 31.5046 25.6179 29.4905 25.6389C28.4865 25.6505 27.4903 25.4616 26.5604 25.0831C25.6304 24.7046 24.7854 24.1442 24.0749 23.4347C23.3447 22.7164 22.7657 21.8593 22.3717 20.9138C21.9778 19.9684 21.7769 18.9536 21.781 17.9293C21.7991 15.9166 22.6047 13.991 24.0252 12.5649C25.4456 11.1388 27.3681 10.3257 29.3808 10.2997H29.3509Z" fill="#9E9E9E"/>
<path d="M16.8349 45.5765L16.7651 45.5067C16.137 44.9547 15.5565 44.3509 15.0297 43.7015C14.0753 42.4056 13.477 40.8823 13.2943 39.2833C13.2943 38.9841 13.2046 38.6948 13.1647 38.3956V38.266H13.434L15.6481 38.1862C15.7688 38.1938 15.8885 38.1606 15.988 38.0918C16.0875 38.0231 16.161 37.9228 16.1966 37.8072C16.3063 37.508 16.4659 37.1191 16.6354 36.7401C16.7011 36.6266 16.7231 36.4931 16.6974 36.3646C16.6717 36.2361 16.6 36.1214 16.4958 36.0419L13.4539 33.1297L11.2996 31.0752L9.95321 29.7985L9.28501 29.1802L8.97583 29.4495L8.7265 29.6689L7.52967 30.736C6.27302 31.9129 5.023 33.0964 3.77965 34.2866C3.41063 34.6456 3.04164 35.0246 2.68259 35.4036L2.04428 36.0619C1.94095 36.1576 1.8722 36.2849 1.84875 36.4238C1.8253 36.5627 1.84845 36.7054 1.91462 36.8298C2.06754 37.1622 2.20719 37.4947 2.33352 37.8271C2.37054 37.9329 2.44144 38.0235 2.53522 38.0848C2.629 38.1461 2.7404 38.1748 2.85212 38.1663H3.84947H5.26571H5.34548C5.50506 38.1663 5.51502 38.1662 5.55492 38.3358C6.12685 40.9194 7.5578 43.2329 9.61412 44.8983C11.4442 46.3278 13.5596 47.3481 15.8176 47.8904C16.0219 47.9519 16.2329 47.9887 16.4459 48.0001C16.8249 48.0001 16.9645 47.7707 17.2139 47.2022C17.5629 46.3545 17.5331 46.2248 16.8349 45.5765ZM12.6461 44.3298C11.4772 43.7183 10.4481 42.8706 9.62404 41.8405C8.79996 40.8104 8.19887 39.6204 7.85881 38.3458C7.68926 37.7174 7.56957 37.0691 7.46983 36.5106C7.46983 36.2413 7.30029 35.9322 6.85148 35.9322H6.78166C6.43259 35.9322 6.07355 35.9322 5.78432 35.9322H5.49508L9.28501 32.3019L13.045 35.9322H10.8608V36.1816C10.6843 39.011 11.3027 41.8334 12.6461 44.3298Z" fill="#9E9E9E"/>
<path d="M12.1765 18.2082C13.5026 18.7343 14.919 18.9952 16.3454 18.9762H17.3428V17.0912C17.3428 15.6949 16.884 15.2162 15.4977 15.0965C14.1377 15.0392 12.8449 14.4897 11.8597 13.5504C10.8745 12.6111 10.2641 11.3459 10.142 9.99013C9.99232 8.5491 10.4126 7.10671 11.3129 5.9716C12.2131 4.83648 13.5219 4.09875 14.9591 3.91628C15.7381 3.77423 16.5389 3.80832 17.3029 4.01602C18.7212 4.45364 19.9261 5.40273 20.6839 6.67894C20.7631 6.83547 20.8725 6.97475 21.0058 7.08871C21.1392 7.20267 21.2938 7.28905 21.4608 7.34285C21.6277 7.39665 21.8037 7.41678 21.9785 7.40211C22.1533 7.38745 22.3234 7.33825 22.4791 7.25739L23.4764 6.78863C23.6587 6.70851 23.8212 6.58924 23.9522 6.43928C24.0832 6.28932 24.1795 6.11235 24.2344 5.92095C24.2825 5.72884 24.2859 5.52828 24.2444 5.33465C24.2029 5.14102 24.1176 4.95948 23.9951 4.80393L23.7358 4.43492C23.4864 4.07587 23.2371 3.71683 22.9479 3.37773C21.8459 2.02612 20.3817 1.01649 18.7266 0.467147C17.0715 -0.0821916 15.2942 -0.148502 13.6027 0.275975C11.3028 0.798587 9.28671 2.1742 7.96136 4.12519C6.63602 6.07619 6.1001 8.4573 6.46175 10.788C6.65181 12.4268 7.28401 13.9831 8.29069 15.2902C9.29736 16.5973 10.6406 17.606 12.1765 18.2082Z" fill="#9E9E9E"/>
<path d="M2.56191 31.2971C2.86476 31.2958 3.15627 31.1817 3.37944 30.9769C3.60261 30.7722 3.74142 30.4916 3.76872 30.19C3.76872 29.9407 3.84851 29.6914 3.89838 29.442C4.44515 26.7832 5.93238 24.4106 8.08721 22.7598C9.94586 24.2552 12.2643 25.062 14.6498 25.0437L15.2481 24.9839L16.5247 24.8542C16.7214 24.8432 16.9132 24.7883 17.0858 24.6933C17.2584 24.5984 17.4075 24.4659 17.5221 24.3057C17.6296 24.1448 17.6998 23.9618 17.7274 23.7702C17.755 23.5787 17.7394 23.3834 17.6817 23.1986C17.5919 22.8496 17.5121 22.4905 17.4423 22.1415C17.417 21.9731 17.3566 21.812 17.265 21.6684C17.1735 21.5249 17.0529 21.4021 16.9109 21.3081C16.769 21.2141 16.6089 21.1509 16.441 21.1227C16.2732 21.0944 16.1012 21.1017 15.9363 21.1441C14.5232 21.4341 13.0538 21.2483 11.7574 20.6155C10.9727 20.1822 10.2596 19.6306 9.64306 18.9799C9.52186 18.8125 9.36729 18.6721 9.1891 18.5674C9.01092 18.4627 8.813 18.3961 8.60779 18.3718C8.40259 18.3474 8.19455 18.3658 7.99681 18.4258C7.79907 18.4859 7.6159 18.5862 7.45888 18.7206L7.1497 18.9001C5.24192 20.0521 3.61358 21.6131 2.38215 23.4706C1.15073 25.328 0.34692 27.4357 0.0286788 29.6415C-0.00819376 29.8125 -0.00953068 29.9893 0.024783 30.1609C0.0590966 30.3324 0.12831 30.4951 0.228129 30.6388C0.319098 30.7698 0.43597 30.8807 0.571484 30.9648C0.706998 31.0488 0.858287 31.1042 1.01604 31.1275C1.48479 31.2073 1.95355 31.2871 2.4223 31.3469L2.56191 31.2971Z" fill="#9E9E9E"/>
</svg>
