<svg width="48" height="48" viewBox="0 0 48 48" fill="none" xmlns="http://www.w3.org/2000/svg">
<path d="M45.8882 14.9679L45.7993 14.7408L42.6497 16.0342L42.7386 16.2613C43.7671 18.7444 44.2882 21.4082 44.2712 24.0958C44.2543 26.7834 43.6996 29.4405 42.6399 31.9104C41.6189 34.3998 40.1 36.6543 38.1764 38.5355C36.2528 40.4167 33.965 41.8849 31.4534 42.8501C28.2922 44.1186 24.8627 44.5713 21.4806 44.1664C18.0985 43.7615 14.8727 42.5121 12.1003 40.5332C9.32783 38.5543 7.09793 35.9096 5.61597 32.8427C4.134 29.7758 3.44761 26.3852 3.62003 22.9833C3.79245 19.5815 4.81813 16.2777 6.60259 13.3763C8.38706 10.4749 10.8729 8.06918 13.8312 6.38075C16.7895 4.69232 20.1252 3.7755 23.5308 3.71465C26.9365 3.6538 30.3028 4.45088 33.3195 6.03256L30.8512 9.45862L41.9191 11.0877L37.6933 0L35.3731 3.19893C29.9756 0.215308 23.6232 -0.532641 17.6802 1.11569C14.6886 1.90098 11.8839 3.27575 9.43057 5.15937C6.97729 7.04299 4.92483 9.39752 3.39358 12.0849C0.352753 17.1373 -0.694983 23.1419 0.455101 28.9256C1.60518 34.7092 4.87045 39.8562 9.61285 43.3609C14.3553 46.8656 20.234 48.476 26.1005 47.8776C31.9669 47.2792 37.3994 44.515 41.3366 40.125C44.4265 36.809 46.4983 32.6747 47.3053 28.2146C48.1122 23.7545 47.6203 19.1564 45.8882 14.9679Z" fill="#9E9E9E"/>
<path d="M15.0178 24.2577C15.0178 26.5285 15.0178 28.7994 15.0178 31.0801C15.0178 31.5244 15.0178 31.9687 15.0178 32.413C15.0228 33.254 15.3557 34.0599 15.9458 34.6592C16.5358 35.2584 17.3365 35.6039 18.1773 35.6218C21.9884 35.6218 25.8093 35.6218 29.6204 35.6218C30.0082 35.624 30.3924 35.5483 30.7503 35.399C31.1082 35.2497 31.4324 35.03 31.7037 34.753C32.0547 34.4159 32.331 34.0087 32.5147 33.558C32.6984 33.1073 32.7854 32.623 32.77 32.1365V24.2379C32.77 24.0898 32.77 23.9418 32.77 23.7937C32.7183 23.1103 32.4574 22.4594 32.0229 21.9295C31.5883 21.3995 31.0012 21.0163 30.3412 20.8317L29.8278 20.723C29.8278 19.9628 29.8278 19.2124 29.8278 18.4621C29.8181 17.8998 29.7686 17.3389 29.6797 16.7836C29.4748 15.442 28.8369 14.2041 27.863 13.2588C27.2928 12.757 26.6274 12.3751 25.9065 12.1359C25.1856 11.8967 24.4239 11.8052 23.6668 11.8667C22.692 11.8375 21.7283 12.0807 20.8841 12.569C20.04 13.0574 19.3487 13.7716 18.8882 14.6312C18.2865 15.7407 17.9709 16.9827 17.9699 18.2448C17.9699 19.0643 17.9699 19.8838 17.9699 20.6638C17.5399 20.7958 17.1207 20.9609 16.716 21.1575C16.1695 21.4616 15.7201 21.914 15.4196 22.4626C15.1192 23.0111 14.9799 23.6334 15.0178 24.2577ZM20.9418 17.7018C20.9258 17.2924 21.0023 16.8847 21.1656 16.509C21.3289 16.1333 21.5748 15.7992 21.8851 15.5316C22.1953 15.2641 22.5619 15.0699 22.9576 14.9636C23.3533 14.8573 23.7678 14.8415 24.1704 14.9175C24.5292 14.9131 24.8852 14.9821 25.2165 15.1201C25.5478 15.2582 25.8474 15.4624 26.097 15.7203C26.3466 15.9782 26.5409 16.2844 26.668 16.62C26.7951 16.9556 26.8523 17.3137 26.8361 17.6722C26.8361 18.6596 26.8361 19.7456 26.8361 20.8119H20.9122C20.9082 20.7528 20.9082 20.6934 20.9122 20.6342C20.9319 19.6568 20.9023 18.6793 20.9418 17.7018ZM22.1365 24.3268C22.5107 24.0656 22.9394 23.8929 23.3902 23.8217C23.841 23.7505 24.302 23.7826 24.7385 23.9158C25.1751 24.0489 25.5756 24.2795 25.9099 24.5902C26.2442 24.9009 26.5036 25.2834 26.6683 25.709C26.8364 26.115 26.8821 26.5613 26.7996 26.9929C26.7172 27.4245 26.5102 27.8225 26.2043 28.1379C26.0559 28.3234 25.8753 28.4806 25.6711 28.602C25.4686 28.6974 25.3046 28.8588 25.206 29.0598C25.1073 29.2607 25.0798 29.4892 25.1281 29.7078C25.1281 30.5667 25.1281 31.4257 25.1281 32.2847V32.6203H22.5906V32.255C22.5906 31.2677 22.5906 30.2804 22.5906 29.293C22.5979 29.2016 22.5784 29.11 22.5346 29.0293C22.4908 28.9487 22.4245 28.8826 22.3438 28.8389C22.0061 28.6612 21.7083 28.4162 21.4689 28.1191C21.2294 27.8219 21.0534 27.4789 20.9517 27.1111C20.8492 26.5818 20.9073 26.0339 21.1184 25.5378C21.3295 25.0417 21.684 24.62 22.1365 24.3268Z" fill="#9E9E9E"/>
</svg>
