<svg width="30" height="48" viewBox="0 0 30 48" fill="none" xmlns="http://www.w3.org/2000/svg">
<path d="M29.7958 24.2668V24.3522C29.6499 24.8008 29.3972 25.2073 29.0595 25.5367C21.28 32.2597 12.9137 39.4095 3.44812 47.4451L3.26666 47.5838C2.91061 47.8464 2.48181 47.9918 2.03949 48C1.75042 47.9964 1.46548 47.9307 1.20403 47.8073C0.94258 47.6839 0.710691 47.5058 0.524105 47.285C0.334988 47.0794 0.19145 46.8363 0.102759 46.5714C0.0140675 46.3065 -0.0177728 46.0259 0.00942291 45.7479C0.0366186 45.4699 0.122235 45.2008 0.260576 44.9581C0.398918 44.7155 0.586884 44.5047 0.812254 44.3397L1.24982 43.9875C8.1222 38.0969 14.9839 32.2205 21.8349 26.3584L22.0697 26.1663L23.2008 25.1845L24.6308 23.968L23.2115 22.7514L14.2689 15.1001L13.0417 14.0329L1.06836 3.78835C0.752538 3.58516 0.500135 3.2974 0.339778 2.95782C0.179421 2.61825 0.117576 2.24048 0.161313 1.8675C0.179018 1.49011 0.309451 1.12671 0.535829 0.824243C0.762206 0.521773 1.07413 0.294131 1.43121 0.170746C1.69111 0.0600105 1.97043 0.00197062 2.25293 0C2.74034 0.0187197 3.20377 0.216262 3.55481 0.554918L5.59302 2.28368L6.66016 3.2121L8.10084 4.44997L10.2351 6.25345C16.3392 11.4611 22.4396 16.6759 28.5365 21.8977L28.7287 22.0578C29.1257 22.3737 29.4558 22.7655 29.6998 23.2103C29.8553 23.5401 29.8893 23.9143 29.7958 24.2668Z" fill="#9E9E9E"/>
</svg>
