<svg width="41" height="48" viewBox="0 0 41 48" fill="none" xmlns="http://www.w3.org/2000/svg">
<path d="M39.6038 39.0521C38.9229 38.0876 37.994 37.3251 36.9154 36.8451C34.2409 35.6234 31.3904 34.8312 28.469 34.4978L27.4056 34.3574H27.1248C27.3856 33.916 27.6564 33.4847 27.9273 33.0433C28.5292 32.0401 29.1311 31.1172 29.7028 30.1342C31.4762 27.1978 32.9386 24.0847 34.0665 20.8452C34.6342 19.2285 34.9718 17.5401 35.0696 15.8295C35.2427 12.4087 34.2435 9.03126 32.2372 6.25524C30.2308 3.47922 27.3374 1.47075 24.0351 0.561753C23.363 0.381189 22.6809 0.27085 22.0288 0.160505L21.0257 0H19.1097H18.9893H18.8188C16.4335 0.167294 14.1288 0.933215 12.1179 2.22696C9.88212 3.59343 8.04753 5.52691 6.80022 7.83127C5.5529 10.1356 4.93724 12.7289 5.01568 15.348C5.13244 17.9621 5.75947 20.5282 6.86144 22.9016C8.58036 26.8849 10.6658 30.6999 13.0909 34.2972C10.529 34.5617 8.0011 35.0895 5.54734 35.8721C4.12058 36.2916 2.78391 36.9719 1.60502 37.8784C1.14035 38.2249 0.756261 38.668 0.479189 39.1771C0.202118 39.6862 0.0386402 40.2493 0 40.8276C0.00072144 41.3973 0.122753 41.9604 0.357984 42.4793C0.593215 42.9982 0.936252 43.461 1.36426 43.837C2.56784 44.8826 3.98516 45.6529 5.51724 46.0941C9.13462 47.2569 12.9031 47.8821 16.7022 47.9499C17.6351 47.9499 18.5981 48 19.5712 48C21.2865 48 23.0621 47.9499 24.8677 47.8596C28.2821 47.7234 31.6598 47.1019 34.8991 46.0138C36.4438 45.542 37.863 44.7296 39.0521 43.6364C39.6649 43.0569 40.0555 42.2813 40.1563 41.4439C40.2571 40.6066 40.0616 39.7604 39.6038 39.0521ZM20.1028 37.9285L19.5812 37.1963C19.0696 36.4841 18.5781 35.7919 18.0765 35.0797C15.5552 31.5107 13.3212 27.7471 11.3956 23.8245C10.3399 21.7327 9.54478 19.5193 9.02822 17.2339C8.4658 14.6557 8.86914 11.9607 10.1618 9.6602C10.9392 8.16823 12.0474 6.87376 13.4018 5.87579C14.7562 4.87781 16.3209 4.20276 17.9762 3.90221C18.6833 3.76306 19.4022 3.69249 20.1229 3.69153C21.8755 3.69358 23.6037 4.10236 25.1714 4.88566C26.7392 5.66896 28.1039 6.80541 29.1579 8.20561C30.2119 9.6058 30.9266 11.2315 31.2457 12.9548C31.5648 14.6781 31.4797 16.4519 30.9969 18.1367C30.2371 20.8075 29.1735 23.3823 27.827 25.8107C25.5577 30.0367 22.9757 34.0873 20.1028 37.9285ZM13.2314 38.1592C13.9135 38.0589 14.6057 37.9687 15.2376 37.8583H15.3279C15.4082 37.8583 15.4683 37.8583 15.5687 38.0288C16.4982 39.3663 17.4512 40.6738 18.4276 41.9511C18.5892 42.2462 18.8272 42.4923 19.1167 42.6637C19.4061 42.8352 19.7363 42.9257 20.0727 42.9257C20.4091 42.9257 20.7394 42.8352 21.0288 42.6637C21.3182 42.4923 21.5562 42.2462 21.7179 41.9511C22.2194 41.2891 22.721 40.617 23.1925 39.9449C23.664 39.2728 24.1956 38.6408 24.627 37.9988C24.627 37.9386 24.7574 37.8784 24.7574 37.8684C28.0309 38.0392 31.2617 38.6881 34.3474 39.7944C34.8958 40.0361 35.417 40.3354 35.9022 40.6872C36.0527 40.7875 36.2132 40.8878 36.4339 41.0082C36.4034 41.0625 36.3625 41.1102 36.3135 41.1486C35.4923 41.8097 34.5477 42.3008 33.5348 42.5931C30.9972 43.4281 28.3654 43.9436 25.7003 44.1279C24.3461 44.2483 23.0019 44.3185 21.9185 44.3687L20.8451 44.4288C15.6991 44.3586 11.7066 44.0878 7.80439 42.9543C6.65403 42.6321 5.54612 42.1742 4.50408 41.59C4.22308 41.458 3.96287 41.2856 3.73166 41.0784C3.73166 41.0082 3.9022 40.8477 4.51411 40.4565C5.92958 39.6187 7.49262 39.0602 9.1185 38.8113C10.4828 38.5405 11.8771 38.3097 13.2314 38.1592Z" fill="#9E9E9E"/>
<path d="M24.9312 10.9502C24.2808 10.3029 23.5095 9.78987 22.6612 9.44018C21.8144 9.09274 20.9064 8.91929 19.9912 8.93017C19.0823 8.9357 18.1834 9.12053 17.346 9.47402C16.5086 9.82751 15.7492 10.3427 15.1112 10.9902C14.2796 11.7992 13.6621 12.8022 13.3142 13.9091C12.9664 15.0159 12.8991 16.1918 13.1184 17.3311C13.3378 18.4704 13.8369 19.5373 14.5708 20.4359C15.3047 21.3345 16.2505 22.0365 17.3231 22.4789C18.3957 22.9213 19.5614 23.0901 20.7154 22.9703C21.8694 22.8504 22.9755 22.4456 23.9343 21.7922C24.893 21.1389 25.6743 20.2574 26.2079 19.2272C26.7415 18.1969 27.0107 17.0502 26.9912 15.8902C26.983 14.9707 26.7998 14.0611 26.4512 13.2102C26.0974 12.3646 25.5809 11.5967 24.9312 10.9502ZM23.9312 15.8902C23.9154 16.6606 23.673 17.4093 23.2341 18.0427C22.7952 18.676 22.1794 19.1661 21.4636 19.4514C20.7478 19.7368 19.9638 19.8048 19.2095 19.647C18.4553 19.4893 17.7642 19.1127 17.2228 18.5644C16.6813 18.0161 16.3135 17.3204 16.1652 16.5642C16.017 15.808 16.0949 15.025 16.3892 14.3128C16.6836 13.6006 17.1813 12.9911 17.8201 12.5602C18.459 12.1293 19.2106 11.8963 19.9812 11.8902C21.0334 11.9033 22.038 12.3306 22.7774 13.0793C23.5167 13.828 23.9313 14.8379 23.9312 15.8902Z" fill="#9E9E9E"/>
</svg>
