<svg width="49" height="48" viewBox="0 0 49 48" fill="none" xmlns="http://www.w3.org/2000/svg">
<path d="M33.0416 7.39111C32.0389 8.2735 31.2167 8.99544 30.4346 9.75751C29.2514 10.9106 29.111 12.0738 29.9934 12.9161C30.8758 13.7584 31.9286 13.5779 33.0516 12.4749L35.3378 10.2389C35.3378 10.2389 35.4281 10.2388 35.5785 10.1486C35.993 10.931 36.1648 11.8192 36.0719 12.6998C35.9791 13.5804 35.6257 14.4132 35.0571 15.092C34.5392 15.9158 33.78 16.5599 32.8829 16.9367C31.9857 17.3135 30.9943 17.4047 30.0435 17.1977C29.5979 17.0615 29.1216 17.0623 28.6764 17.2C28.2313 17.3376 27.8377 17.6058 27.5467 17.9697C23.9971 21.6096 20.3673 25.1693 16.7976 28.779C15.9654 29.6213 15.083 30.1127 13.97 29.4108C12.857 28.7089 12.877 27.3451 14.0502 26.1719C17.67 22.5321 21.2898 18.9023 24.9497 15.3026C25.3008 15.0315 25.5602 14.6593 25.6929 14.2361C25.8256 13.8129 25.8252 13.3591 25.6917 12.9362C25.4619 12.0059 25.5212 11.0276 25.8615 10.1319C26.2019 9.23613 26.8073 8.46548 27.5969 7.92258C28.3489 7.30304 29.2685 6.92156 30.2382 6.8269C31.208 6.73225 32.184 6.92869 33.0416 7.39111Z" fill="#9E9E9E"/>
<path d="M25.2891 22.6004L28.237 19.5923C30.4731 21.7782 32.7593 23.934 34.9452 26.1801C35.9981 27.2631 35.0956 28.0853 34.3235 28.8875C33.5514 29.6896 32.7192 30.0707 31.8268 29.1782C29.6208 27.0124 27.475 24.8064 25.2891 22.6004Z" fill="#9E9E9E"/>
<path d="M13.1523 8.66386L14.6263 7.25C15.6892 8.58361 16.6318 9.88715 17.7247 11.0804C18.8177 12.2736 19.9106 13.3466 21.0437 14.4395C21.4727 14.8072 21.9286 15.1423 22.4074 15.4422L22.1267 16.114C21.6955 16.114 21.1741 16.1942 20.8733 15.9837C20.3247 15.5291 19.8087 15.0366 19.3291 14.5097C17.5041 12.8251 15.6491 11.1606 13.8141 9.49613C13.5722 9.23634 13.351 8.95806 13.1523 8.66386Z" fill="#9E9E9E"/>
<path d="M42.2043 0H3.00816C2.21035 0 1.4452 0.316911 0.881062 0.881048C0.316925 1.44518 1.43254e-05 2.21034 1.43254e-05 3.00814V34.7541C-0.00130916 35.2179 0.0890852 35.6775 0.265993 36.1064C0.442901 36.5352 0.702838 36.9248 1.03085 37.2528C1.35886 37.5809 1.74847 37.8408 2.1773 38.0177C2.60612 38.1946 3.06568 38.285 3.52956 38.2836H17.718L32.879 47.7292C33.8818 48.3709 35.4259 47.7994 35.4259 46.7767V38.2836H44.5205C45.4593 38.2836 46.3596 37.9108 47.0234 37.247C47.6872 36.5832 48.0601 35.6828 48.0601 34.7441V5.78568C48.0702 1.96034e-05 48.0702 0 42.2043 0ZM44.5205 28.9183C44.5205 31.9265 45.5834 34.7441 39.2864 34.7441H38.6847H31.1845V40.7604C31.1845 41.4523 30.1817 41.8332 29.4698 41.4021L24.4562 38.2836L18.831 34.7741H9.42553C9.20493 34.7741 8.98434 34.7741 8.77377 34.7741C3.55965 34.7741 3.55964 31.9766 3.55964 28.9584V5.51493C3.55964 4.98306 3.77092 4.473 4.14702 4.09691C4.52311 3.72082 5.0332 3.5095 5.56507 3.5095H42.5151C43.047 3.5095 43.5571 3.72082 43.9332 4.09691C44.3093 4.473 44.5205 4.98306 44.5205 5.51493V28.9183Z" fill="#9E9E9E"/>
</svg>
