<svg width="34" height="32" viewBox="0 0 34 32" fill="none" xmlns="http://www.w3.org/2000/svg">
<path d="M32.867 7.83263H29.2259L18.512 0.354992C18.1823 0.124122 17.7872 0 17.3819 0C16.9766 0 16.5815 0.124122 16.2517 0.354992L5.45979 7.83666H1.79812C1.65562 7.83072 1.51329 7.85236 1.37933 7.90036C1.24537 7.94837 1.1224 8.02182 1.01743 8.11645C0.912459 8.21107 0.827567 8.32497 0.7676 8.45178C0.707633 8.57858 0.673783 8.71579 0.667969 8.85543V9.38286C0.678627 9.65739 0.797735 9.9172 1.00017 10.1073C1.20261 10.2974 1.47249 10.4029 1.75287 10.4016H5.82149V24.3422C5.82424 24.6658 5.91085 24.9833 6.07333 25.2651C6.2358 25.5468 6.4687 25.7835 6.75017 25.9528L16.2723 31.7151C16.5813 31.9014 16.9369 32 17.2997 32C17.6625 32 18.0182 31.9014 18.3271 31.7151L27.9437 25.9408C28.2254 25.7714 28.4587 25.5348 28.6218 25.2531C28.785 24.9714 28.8726 24.6539 28.8766 24.3301V10.4016H32.9205C33.2008 10.4039 33.4708 10.2986 33.6728 10.1082C33.8748 9.91777 33.9927 9.65737 34.0013 9.38286V8.85543C33.996 8.71509 33.9625 8.57716 33.9025 8.44961C33.8425 8.32207 33.7573 8.20742 33.6518 8.11232C33.5464 8.01722 33.4227 7.94356 33.288 7.89555C33.1533 7.84754 33.0102 7.82615 32.867 7.83263V7.83263ZM21.0929 23.9395L17.3325 22.0026L13.5722 23.9395L14.2873 19.8403L11.2462 16.9329L15.4504 16.333L17.3325 12.6002L19.2107 16.333L23.4148 16.9329L20.3737 19.8403L21.0929 23.9395ZM9.32282 7.83263L17.3819 2.24753L25.3875 7.83263H9.32282Z" fill="#828385"/>
</svg>
