<svg width="37" height="28" viewBox="0 0 37 28" fill="none" xmlns="http://www.w3.org/2000/svg">
<path d="M36.3319 6.08792C36.3319 6.50303 36.1713 6.90113 35.8854 7.19465C35.5995 7.48817 35.2118 7.65307 34.8075 7.65307C34.7164 7.65206 34.6257 7.64273 34.5362 7.62521C33.001 11.63 28.0914 22.0569 28.0914 22.0569H8.75695C8.75695 22.0569 3.80399 11.552 2.29043 7.57508C2.14962 7.61926 2.00362 7.64363 1.85644 7.64749C1.45214 7.64749 1.0644 7.4826 0.778519 7.18907C0.492637 6.89555 0.332031 6.49745 0.332031 6.08235C0.332031 5.66724 0.492637 5.26914 0.778519 4.97562C1.0644 4.6821 1.45214 4.5172 1.85644 4.5172C2.26073 4.5172 2.64847 4.6821 2.93435 4.97562C3.22023 5.26914 3.38084 5.66724 3.38084 6.08235C3.37713 6.44547 3.25055 6.79596 3.02279 7.07379C5.65388 9.7585 11.8763 16.9214 11.8763 16.9214C11.8763 16.9214 11.2524 7.95384 11.6918 7.85358C12.1313 7.75332 16.124 15.4732 16.124 15.4732C16.124 15.4732 17.2904 6.65049 17.9956 3.06346C17.6824 2.96574 17.4081 2.76747 17.2128 2.49778C17.0175 2.22809 16.9116 1.90121 16.9106 1.56515C16.9106 1.15004 17.0712 0.751943 17.3571 0.458421C17.643 0.164898 18.0307 0 18.435 0C18.8393 0 19.2271 0.164898 19.5129 0.458421C19.7988 0.751943 19.9594 1.15004 19.9594 1.56515C19.9585 1.90121 19.8526 2.22809 19.6573 2.49778C19.462 2.76747 19.1876 2.96574 18.8744 3.06346C19.5797 6.65049 20.746 15.4732 20.746 15.4732C20.746 15.4732 24.7496 7.75889 25.1782 7.85358C25.6068 7.94827 24.9938 16.9214 24.9938 16.9214C24.9938 16.9214 31.0588 9.93673 33.7442 7.17962C33.4597 6.88279 33.3016 6.48209 33.3048 6.06564C33.3048 5.65053 33.4654 5.25243 33.7512 4.95891C34.0371 4.66539 34.4249 4.50049 34.8292 4.50049C35.0294 4.5034 35.227 4.54676 35.4109 4.62811C35.5948 4.70946 35.7612 4.82721 35.9008 4.97462C36.0403 5.12203 36.1502 5.29622 36.2242 5.48724C36.2981 5.67827 36.3347 5.88238 36.3319 6.08792V6.08792ZM10.3573 25.772C10.7616 25.772 11.1493 25.6071 11.4352 25.3136C11.7211 25.0201 11.8817 24.622 11.8817 24.2069C11.8817 23.7918 11.7211 23.3937 11.4352 23.1002C11.1493 22.8066 10.7616 22.6417 10.3573 22.6417C10.1574 22.6417 9.95941 22.6823 9.77476 22.761C9.59011 22.8397 9.42242 22.9551 9.2813 23.1005C9.14018 23.2459 9.0284 23.4185 8.95239 23.6083C8.87637 23.7982 8.83761 24.0016 8.83832 24.2069C8.83761 24.4122 8.87637 24.6156 8.95239 24.8054C9.0284 24.9953 9.14018 25.1679 9.2813 25.3133C9.42242 25.4587 9.59011 25.5741 9.77476 25.6528C9.95941 25.7315 10.1574 25.772 10.3573 25.772V25.772ZM15.9179 24.2069C15.9179 23.7918 15.7573 23.3937 15.4714 23.1002C15.1855 22.8066 14.7977 22.6417 14.3935 22.6417C13.9892 22.6417 13.6014 22.8066 13.3155 23.1002C13.0297 23.3937 12.869 23.7918 12.869 24.2069C12.869 24.622 13.0297 25.0201 13.3155 25.3136C13.6014 25.6071 13.9892 25.772 14.3935 25.772C14.7977 25.772 15.1855 25.6071 15.4714 25.3136C15.7573 25.0201 15.9179 24.622 15.9179 24.2069V24.2069ZM19.9486 24.2069C19.9486 23.7918 19.788 23.3937 19.5021 23.1002C19.2162 22.8066 18.8285 22.6417 18.4242 22.6417C18.0199 22.6417 17.6321 22.8066 17.3463 23.1002C17.0604 23.3937 16.8998 23.7918 16.8998 24.2069C16.8998 24.622 17.0604 25.0201 17.3463 25.3136C17.6321 25.6071 18.0199 25.772 18.4242 25.772C18.8285 25.772 19.2162 25.6071 19.5021 25.3136C19.788 25.0201 19.9486 24.622 19.9486 24.2069V24.2069ZM23.9793 24.2069C23.9793 23.7918 23.8187 23.3937 23.5328 23.1002C23.2469 22.8066 22.8592 22.6417 22.4549 22.6417C22.0506 22.6417 21.6629 22.8066 21.377 23.1002C21.0911 23.3937 20.9305 23.7918 20.9305 24.2069C20.9305 24.622 21.0911 25.0201 21.377 25.3136C21.6629 25.6071 22.0506 25.772 22.4549 25.772C22.8592 25.772 23.2469 25.6071 23.5328 25.3136C23.8187 25.0201 23.9793 24.622 23.9793 24.2069V24.2069ZM26.4856 22.6417C26.0813 22.6417 25.6936 22.8066 25.4077 23.1002C25.1218 23.3937 24.9612 23.7918 24.9612 24.2069C24.9612 24.622 25.1218 25.0201 25.4077 25.3136C25.6936 25.6071 26.0813 25.772 26.4856 25.772C26.8899 25.772 27.2777 25.6071 27.5635 25.3136C27.8494 25.0201 28.01 24.622 28.01 24.2069C28.01 24.0013 27.9706 23.7978 27.894 23.6079C27.8174 23.418 27.7051 23.2455 27.5635 23.1002C27.422 22.9548 27.2539 22.8395 27.069 22.7609C26.884 22.6822 26.6858 22.6417 26.4856 22.6417V22.6417ZM26.9956 26.4349H9.85279C9.65086 26.4348 9.45711 26.5168 9.31381 26.6629C9.17052 26.809 9.0893 27.0073 9.08787 27.2146C9.08787 27.3178 9.10766 27.4199 9.1461 27.5152C9.18454 27.6105 9.24088 27.697 9.31191 27.77C9.38294 27.8429 9.46726 27.9007 9.56006 27.9402C9.65286 27.9797 9.75234 28 9.85279 28H26.9956C27.0958 28 27.195 27.9797 27.2875 27.9401C27.38 27.9006 27.4639 27.8426 27.5345 27.7696C27.6051 27.6966 27.661 27.61 27.6988 27.5148C27.7367 27.4195 27.7558 27.3175 27.7551 27.2146C27.7551 27.0078 27.675 26.8095 27.5326 26.6632C27.3902 26.517 27.197 26.4349 26.9956 26.4349V26.4349Z" fill="#CA4408"/>
</svg>
