<?xml version="1.0" encoding="UTF-8"?>
<svg width="330px" height="322px" viewBox="0 0 330 322" version="1.1" xmlns="http://www.w3.org/2000/svg" xmlns:xlink="http://www.w3.org/1999/xlink">
    <!-- Generator: Sketch 54.1 (76490) - https://sketchapp.com -->
    <title>Combined Shape</title>
    <desc>Created with Sketch.</desc>
    <g id="Page-1" stroke="none" stroke-width="1" fill="none" fill-rule="evenodd" fill-opacity="0.6">
        <g id="Careers-Page-Design" transform="translate(-1295.000000, -1099.000000)" fill="#CCD3F3">
            <path d="M1370.89,1105.445 C1369.11,1105.445 1367.667,1104.002 1367.667,1102.222 C1367.667,1100.443 1369.11,1099 1370.89,1099 C1372.67,1099 1374.113,1100.443 1374.113,1102.222 C1374.113,1104.002 1372.67,1105.445 1370.89,1105.445 Z M1370.89,1129.713 C1369.11,1129.713 1367.667,1128.27 1367.667,1126.49 C1367.667,1124.711 1369.11,1123.268 1370.89,1123.268 C1372.67,1123.268 1374.113,1124.711 1374.113,1126.49 C1374.113,1128.27 1372.67,1129.713 1370.89,1129.713 Z M1370.89,1153.9811 C1369.11,1153.9811 1367.667,1152.5381 1367.667,1150.7581 C1367.667,1148.9791 1369.11,1147.5361 1370.89,1147.5361 C1372.67,1147.5361 1374.113,1148.9791 1374.113,1150.7581 C1374.113,1152.5381 1372.67,1153.9811 1370.89,1153.9811 Z M1370.89,1178.2487 C1369.11,1178.2487 1367.667,1176.8067 1367.667,1175.0257 C1367.667,1173.2467 1369.11,1171.8037 1370.89,1171.8037 C1372.67,1171.8037 1374.113,1173.2467 1374.113,1175.0257 C1374.113,1176.8067 1372.67,1178.2487 1370.89,1178.2487 Z M1370.89,1202.5167 C1369.11,1202.5167 1367.667,1201.0737 1367.667,1199.2937 C1367.667,1197.5147 1369.11,1196.0717 1370.89,1196.0717 C1372.67,1196.0717 1374.113,1197.5147 1374.113,1199.2937 C1374.113,1201.0737 1372.67,1202.5167 1370.89,1202.5167 Z M1370.89,1226.7848 C1369.11,1226.7848 1367.667,1225.3418 1367.667,1223.5618 C1367.667,1221.7828 1369.11,1220.3398 1370.89,1220.3398 C1372.67,1220.3398 1374.113,1221.7828 1374.113,1223.5618 C1374.113,1225.3418 1372.67,1226.7848 1370.89,1226.7848 Z M1370.89,1251.0529 C1369.11,1251.0529 1367.667,1249.6099 1367.667,1247.8299 C1367.667,1246.0509 1369.11,1244.6069 1370.89,1244.6069 C1372.67,1244.6069 1374.113,1246.0509 1374.113,1247.8299 C1374.113,1249.6099 1372.67,1251.0529 1370.89,1251.0529 Z M1370.89,1275.3204 C1369.11,1275.3204 1367.667,1273.8774 1367.667,1272.0974 C1367.667,1270.3184 1369.11,1268.8754 1370.89,1268.8754 C1372.67,1268.8754 1374.113,1270.3184 1374.113,1272.0974 C1374.113,1273.8774 1372.67,1275.3204 1370.89,1275.3204 Z M1370.89,1299.5885 C1369.11,1299.5885 1367.667,1298.1455 1367.667,1296.3655 C1367.667,1294.5865 1369.11,1293.1435 1370.89,1293.1435 C1372.67,1293.1435 1374.113,1294.5865 1374.113,1296.3655 C1374.113,1298.1455 1372.67,1299.5885 1370.89,1299.5885 Z M1370.89,1323.8566 C1369.11,1323.8566 1367.667,1322.4136 1367.667,1320.6336 C1367.667,1318.8546 1369.11,1317.4116 1370.89,1317.4116 C1372.67,1317.4116 1374.113,1318.8546 1374.113,1320.6336 C1374.113,1322.4136 1372.67,1323.8566 1370.89,1323.8566 Z M1370.89,1348.1242 C1369.11,1348.1242 1367.667,1346.6812 1367.667,1344.9012 C1367.667,1343.1222 1369.11,1341.6792 1370.89,1341.6792 C1372.67,1341.6792 1374.113,1343.1222 1374.113,1344.9012 C1374.113,1346.6812 1372.67,1348.1242 1370.89,1348.1242 Z M1370.89,1372.3922 C1369.11,1372.3922 1367.667,1370.9492 1367.667,1369.1692 C1367.667,1367.3902 1369.11,1365.9472 1370.89,1365.9472 C1372.67,1365.9472 1374.113,1367.3902 1374.113,1369.1692 C1374.113,1370.9492 1372.67,1372.3922 1370.89,1372.3922 Z M1370.89,1396.6603 C1369.11,1396.6603 1367.667,1395.2173 1367.667,1393.4373 C1367.667,1391.6583 1369.11,1390.2153 1370.89,1390.2153 C1372.67,1390.2153 1374.113,1391.6583 1374.113,1393.4373 C1374.113,1395.2173 1372.67,1396.6603 1370.89,1396.6603 Z M1370.89,1420.9279 C1369.11,1420.9279 1367.667,1419.4859 1367.667,1417.7059 C1367.667,1415.9259 1369.11,1414.4829 1370.89,1414.4829 C1372.67,1414.4829 1374.113,1415.9259 1374.113,1417.7059 C1374.113,1419.4859 1372.67,1420.9279 1370.89,1420.9279 Z M1334.5565,1105.445 C1332.7765,1105.445 1331.3335,1104.002 1331.3335,1102.222 C1331.3335,1100.443 1332.7765,1099 1334.5565,1099 C1336.3365,1099 1337.7795,1100.443 1337.7795,1102.222 C1337.7795,1104.002 1336.3365,1105.445 1334.5565,1105.445 Z M1334.5565,1129.713 C1332.7765,1129.713 1331.3335,1128.27 1331.3335,1126.49 C1331.3335,1124.711 1332.7765,1123.268 1334.5565,1123.268 C1336.3365,1123.268 1337.7795,1124.711 1337.7795,1126.49 C1337.7795,1128.27 1336.3365,1129.713 1334.5565,1129.713 Z M1334.5565,1153.9811 C1332.7765,1153.9811 1331.3335,1152.5381 1331.3335,1150.7581 C1331.3335,1148.9791 1332.7765,1147.5361 1334.5565,1147.5361 C1336.3365,1147.5361 1337.7795,1148.9791 1337.7795,1150.7581 C1337.7795,1152.5381 1336.3365,1153.9811 1334.5565,1153.9811 Z M1334.5565,1178.2487 C1332.7765,1178.2487 1331.3335,1176.8067 1331.3335,1175.0257 C1331.3335,1173.2467 1332.7765,1171.8037 1334.5565,1171.8037 C1336.3365,1171.8037 1337.7795,1173.2467 1337.7795,1175.0257 C1337.7795,1176.8067 1336.3365,1178.2487 1334.5565,1178.2487 Z M1334.5565,1202.5167 C1332.7765,1202.5167 1331.3335,1201.0737 1331.3335,1199.2937 C1331.3335,1197.5147 1332.7765,1196.0717 1334.5565,1196.0717 C1336.3365,1196.0717 1337.7795,1197.5147 1337.7795,1199.2937 C1337.7795,1201.0737 1336.3365,1202.5167 1334.5565,1202.5167 Z M1334.5565,1226.7848 C1332.7765,1226.7848 1331.3335,1225.3418 1331.3335,1223.5618 C1331.3335,1221.7828 1332.7765,1220.3398 1334.5565,1220.3398 C1336.3365,1220.3398 1337.7795,1221.7828 1337.7795,1223.5618 C1337.7795,1225.3418 1336.3365,1226.7848 1334.5565,1226.7848 Z M1334.5565,1251.0529 C1332.7765,1251.0529 1331.3335,1249.6099 1331.3335,1247.8299 C1331.3335,1246.0509 1332.7765,1244.6069 1334.5565,1244.6069 C1336.3365,1244.6069 1337.7795,1246.0509 1337.7795,1247.8299 C1337.7795,1249.6099 1336.3365,1251.0529 1334.5565,1251.0529 Z M1334.5565,1275.3204 C1332.7765,1275.3204 1331.3335,1273.8774 1331.3335,1272.0974 C1331.3335,1270.3184 1332.7765,1268.8754 1334.5565,1268.8754 C1336.3365,1268.8754 1337.7795,1270.3184 1337.7795,1272.0974 C1337.7795,1273.8774 1336.3365,1275.3204 1334.5565,1275.3204 Z M1334.5565,1299.5885 C1332.7765,1299.5885 1331.3335,1298.1455 1331.3335,1296.3655 C1331.3335,1294.5865 1332.7765,1293.1435 1334.5565,1293.1435 C1336.3365,1293.1435 1337.7795,1294.5865 1337.7795,1296.3655 C1337.7795,1298.1455 1336.3365,1299.5885 1334.5565,1299.5885 Z M1334.5565,1323.8566 C1332.7765,1323.8566 1331.3335,1322.4136 1331.3335,1320.6336 C1331.3335,1318.8546 1332.7765,1317.4116 1334.5565,1317.4116 C1336.3365,1317.4116 1337.7795,1318.8546 1337.7795,1320.6336 C1337.7795,1322.4136 1336.3365,1323.8566 1334.5565,1323.8566 Z M1334.5565,1348.1242 C1332.7765,1348.1242 1331.3335,1346.6812 1331.3335,1344.9012 C1331.3335,1343.1222 1332.7765,1341.6792 1334.5565,1341.6792 C1336.3365,1341.6792 1337.7795,1343.1222 1337.7795,1344.9012 C1337.7795,1346.6812 1336.3365,1348.1242 1334.5565,1348.1242 Z M1334.5565,1372.3922 C1332.7765,1372.3922 1331.3335,1370.9492 1331.3335,1369.1692 C1331.3335,1367.3902 1332.7765,1365.9472 1334.5565,1365.9472 C1336.3365,1365.9472 1337.7795,1367.3902 1337.7795,1369.1692 C1337.7795,1370.9492 1336.3365,1372.3922 1334.5565,1372.3922 Z M1334.5565,1396.6603 C1332.7765,1396.6603 1331.3335,1395.2173 1331.3335,1393.4373 C1331.3335,1391.6583 1332.7765,1390.2153 1334.5565,1390.2153 C1336.3365,1390.2153 1337.7795,1391.6583 1337.7795,1393.4373 C1337.7795,1395.2173 1336.3365,1396.6603 1334.5565,1396.6603 Z M1334.5565,1420.9279 C1332.7765,1420.9279 1331.3335,1419.4859 1331.3335,1417.7059 C1331.3335,1415.9259 1332.7765,1414.4829 1334.5565,1414.4829 C1336.3365,1414.4829 1337.7795,1415.9259 1337.7795,1417.7059 C1337.7795,1419.4859 1336.3365,1420.9279 1334.5565,1420.9279 Z M1298.223,1105.445 C1296.443,1105.445 1295,1104.002 1295,1102.222 C1295,1100.443 1296.443,1099 1298.223,1099 C1300.003,1099 1301.446,1100.443 1301.446,1102.222 C1301.446,1104.002 1300.003,1105.445 1298.223,1105.445 Z M1298.223,1129.713 C1296.443,1129.713 1295,1128.27 1295,1126.49 C1295,1124.711 1296.443,1123.268 1298.223,1123.268 C1300.003,1123.268 1301.446,1124.711 1301.446,1126.49 C1301.446,1128.27 1300.003,1129.713 1298.223,1129.713 Z M1298.223,1153.9811 C1296.443,1153.9811 1295,1152.5381 1295,1150.7581 C1295,1148.9791 1296.443,1147.5361 1298.223,1147.5361 C1300.003,1147.5361 1301.446,1148.9791 1301.446,1150.7581 C1301.446,1152.5381 1300.003,1153.9811 1298.223,1153.9811 Z M1298.223,1178.2487 C1296.443,1178.2487 1295,1176.8067 1295,1175.0257 C1295,1173.2467 1296.443,1171.8037 1298.223,1171.8037 C1300.003,1171.8037 1301.446,1173.2467 1301.446,1175.0257 C1301.446,1176.8067 1300.003,1178.2487 1298.223,1178.2487 Z M1298.223,1202.5167 C1296.443,1202.5167 1295,1201.0737 1295,1199.2937 C1295,1197.5147 1296.443,1196.0717 1298.223,1196.0717 C1300.003,1196.0717 1301.446,1197.5147 1301.446,1199.2937 C1301.446,1201.0737 1300.003,1202.5167 1298.223,1202.5167 Z M1298.223,1226.7848 C1296.443,1226.7848 1295,1225.3418 1295,1223.5618 C1295,1221.7828 1296.443,1220.3398 1298.223,1220.3398 C1300.003,1220.3398 1301.446,1221.7828 1301.446,1223.5618 C1301.446,1225.3418 1300.003,1226.7848 1298.223,1226.7848 Z M1298.223,1251.0529 C1296.443,1251.0529 1295,1249.6099 1295,1247.8299 C1295,1246.0509 1296.443,1244.6069 1298.223,1244.6069 C1300.003,1244.6069 1301.446,1246.0509 1301.446,1247.8299 C1301.446,1249.6099 1300.003,1251.0529 1298.223,1251.0529 Z M1298.223,1275.3204 C1296.443,1275.3204 1295,1273.8774 1295,1272.0974 C1295,1270.3184 1296.443,1268.8754 1298.223,1268.8754 C1300.003,1268.8754 1301.446,1270.3184 1301.446,1272.0974 C1301.446,1273.8774 1300.003,1275.3204 1298.223,1275.3204 Z M1298.223,1299.5885 C1296.443,1299.5885 1295,1298.1455 1295,1296.3655 C1295,1294.5865 1296.443,1293.1435 1298.223,1293.1435 C1300.003,1293.1435 1301.446,1294.5865 1301.446,1296.3655 C1301.446,1298.1455 1300.003,1299.5885 1298.223,1299.5885 Z M1298.223,1323.8566 C1296.443,1323.8566 1295,1322.4136 1295,1320.6336 C1295,1318.8546 1296.443,1317.4116 1298.223,1317.4116 C1300.003,1317.4116 1301.446,1318.8546 1301.446,1320.6336 C1301.446,1322.4136 1300.003,1323.8566 1298.223,1323.8566 Z M1298.223,1348.1242 C1296.443,1348.1242 1295,1346.6812 1295,1344.9012 C1295,1343.1222 1296.443,1341.6792 1298.223,1341.6792 C1300.003,1341.6792 1301.446,1343.1222 1301.446,1344.9012 C1301.446,1346.6812 1300.003,1348.1242 1298.223,1348.1242 Z M1298.223,1372.3922 C1296.443,1372.3922 1295,1370.9492 1295,1369.1692 C1295,1367.3902 1296.443,1365.9472 1298.223,1365.9472 C1300.003,1365.9472 1301.446,1367.3902 1301.446,1369.1692 C1301.446,1370.9492 1300.003,1372.3922 1298.223,1372.3922 Z M1298.223,1396.6603 C1296.443,1396.6603 1295,1395.2173 1295,1393.4373 C1295,1391.6583 1296.443,1390.2153 1298.223,1390.2153 C1300.003,1390.2153 1301.446,1391.6583 1301.446,1393.4373 C1301.446,1395.2173 1300.003,1396.6603 1298.223,1396.6603 Z M1298.223,1420.9279 C1296.443,1420.9279 1295,1419.4859 1295,1417.7059 C1295,1415.9259 1296.443,1414.4829 1298.223,1414.4829 C1300.003,1414.4829 1301.446,1415.9259 1301.446,1417.7059 C1301.446,1419.4859 1300.003,1420.9279 1298.223,1420.9279 Z M1407.223,1105.445 C1405.443,1105.445 1404,1104.002 1404,1102.222 C1404,1100.443 1405.443,1099 1407.223,1099 C1409.003,1099 1410.446,1100.443 1410.446,1102.222 C1410.446,1104.002 1409.003,1105.445 1407.223,1105.445 Z M1407.223,1129.713 C1405.443,1129.713 1404,1128.27 1404,1126.49 C1404,1124.711 1405.443,1123.268 1407.223,1123.268 C1409.003,1123.268 1410.446,1124.711 1410.446,1126.49 C1410.446,1128.27 1409.003,1129.713 1407.223,1129.713 Z M1407.223,1153.9811 C1405.443,1153.9811 1404,1152.5381 1404,1150.7581 C1404,1148.9791 1405.443,1147.5361 1407.223,1147.5361 C1409.003,1147.5361 1410.446,1148.9791 1410.446,1150.7581 C1410.446,1152.5381 1409.003,1153.9811 1407.223,1153.9811 Z M1407.223,1178.2487 C1405.443,1178.2487 1404,1176.8067 1404,1175.0257 C1404,1173.2467 1405.443,1171.8037 1407.223,1171.8037 C1409.003,1171.8037 1410.446,1173.2467 1410.446,1175.0257 C1410.446,1176.8067 1409.003,1178.2487 1407.223,1178.2487 Z M1407.223,1202.5167 C1405.443,1202.5167 1404,1201.0737 1404,1199.2937 C1404,1197.5147 1405.443,1196.0717 1407.223,1196.0717 C1409.003,1196.0717 1410.446,1197.5147 1410.446,1199.2937 C1410.446,1201.0737 1409.003,1202.5167 1407.223,1202.5167 Z M1407.223,1226.7848 C1405.443,1226.7848 1404,1225.3418 1404,1223.5618 C1404,1221.7828 1405.443,1220.3398 1407.223,1220.3398 C1409.003,1220.3398 1410.446,1221.7828 1410.446,1223.5618 C1410.446,1225.3418 1409.003,1226.7848 1407.223,1226.7848 Z M1407.223,1251.0529 C1405.443,1251.0529 1404,1249.6099 1404,1247.8299 C1404,1246.0509 1405.443,1244.6069 1407.223,1244.6069 C1409.003,1244.6069 1410.446,1246.0509 1410.446,1247.8299 C1410.446,1249.6099 1409.003,1251.0529 1407.223,1251.0529 Z M1407.223,1275.3204 C1405.443,1275.3204 1404,1273.8774 1404,1272.0974 C1404,1270.3184 1405.443,1268.8754 1407.223,1268.8754 C1409.003,1268.8754 1410.446,1270.3184 1410.446,1272.0974 C1410.446,1273.8774 1409.003,1275.3204 1407.223,1275.3204 Z M1407.223,1299.5885 C1405.443,1299.5885 1404,1298.1455 1404,1296.3655 C1404,1294.5865 1405.443,1293.1435 1407.223,1293.1435 C1409.003,1293.1435 1410.446,1294.5865 1410.446,1296.3655 C1410.446,1298.1455 1409.003,1299.5885 1407.223,1299.5885 Z M1407.223,1323.8566 C1405.443,1323.8566 1404,1322.4136 1404,1320.6336 C1404,1318.8546 1405.443,1317.4116 1407.223,1317.4116 C1409.003,1317.4116 1410.446,1318.8546 1410.446,1320.6336 C1410.446,1322.4136 1409.003,1323.8566 1407.223,1323.8566 Z M1407.223,1348.1242 C1405.443,1348.1242 1404,1346.6812 1404,1344.9012 C1404,1343.1222 1405.443,1341.6792 1407.223,1341.6792 C1409.003,1341.6792 1410.446,1343.1222 1410.446,1344.9012 C1410.446,1346.6812 1409.003,1348.1242 1407.223,1348.1242 Z M1407.223,1372.3922 C1405.443,1372.3922 1404,1370.9492 1404,1369.1692 C1404,1367.3902 1405.443,1365.9472 1407.223,1365.9472 C1409.003,1365.9472 1410.446,1367.3902 1410.446,1369.1692 C1410.446,1370.9492 1409.003,1372.3922 1407.223,1372.3922 Z M1407.223,1396.6603 C1405.443,1396.6603 1404,1395.2173 1404,1393.4373 C1404,1391.6583 1405.443,1390.2153 1407.223,1390.2153 C1409.003,1390.2153 1410.446,1391.6583 1410.446,1393.4373 C1410.446,1395.2173 1409.003,1396.6603 1407.223,1396.6603 Z M1407.223,1420.9279 C1405.443,1420.9279 1404,1419.4859 1404,1417.7059 C1404,1415.9259 1405.443,1414.4829 1407.223,1414.4829 C1409.003,1414.4829 1410.446,1415.9259 1410.446,1417.7059 C1410.446,1419.4859 1409.003,1420.9279 1407.223,1420.9279 Z M1443.5565,1105.445 C1441.7765,1105.445 1440.3335,1104.002 1440.3335,1102.222 C1440.3335,1100.443 1441.7765,1099 1443.5565,1099 C1445.3365,1099 1446.7795,1100.443 1446.7795,1102.222 C1446.7795,1104.002 1445.3365,1105.445 1443.5565,1105.445 Z M1443.5565,1129.713 C1441.7765,1129.713 1440.3335,1128.27 1440.3335,1126.49 C1440.3335,1124.711 1441.7765,1123.268 1443.5565,1123.268 C1445.3365,1123.268 1446.7795,1124.711 1446.7795,1126.49 C1446.7795,1128.27 1445.3365,1129.713 1443.5565,1129.713 Z M1443.5565,1153.9811 C1441.7765,1153.9811 1440.3335,1152.5381 1440.3335,1150.7581 C1440.3335,1148.9791 1441.7765,1147.5361 1443.5565,1147.5361 C1445.3365,1147.5361 1446.7795,1148.9791 1446.7795,1150.7581 C1446.7795,1152.5381 1445.3365,1153.9811 1443.5565,1153.9811 Z M1443.5565,1178.2487 C1441.7765,1178.2487 1440.3335,1176.8067 1440.3335,1175.0257 C1440.3335,1173.2467 1441.7765,1171.8037 1443.5565,1171.8037 C1445.3365,1171.8037 1446.7795,1173.2467 1446.7795,1175.0257 C1446.7795,1176.8067 1445.3365,1178.2487 1443.5565,1178.2487 Z M1443.5565,1202.5167 C1441.7765,1202.5167 1440.3335,1201.0737 1440.3335,1199.2937 C1440.3335,1197.5147 1441.7765,1196.0717 1443.5565,1196.0717 C1445.3365,1196.0717 1446.7795,1197.5147 1446.7795,1199.2937 C1446.7795,1201.0737 1445.3365,1202.5167 1443.5565,1202.5167 Z M1443.5565,1226.7848 C1441.7765,1226.7848 1440.3335,1225.3418 1440.3335,1223.5618 C1440.3335,1221.7828 1441.7765,1220.3398 1443.5565,1220.3398 C1445.3365,1220.3398 1446.7795,1221.7828 1446.7795,1223.5618 C1446.7795,1225.3418 1445.3365,1226.7848 1443.5565,1226.7848 Z M1443.5565,1251.0529 C1441.7765,1251.0529 1440.3335,1249.6099 1440.3335,1247.8299 C1440.3335,1246.0509 1441.7765,1244.6069 1443.5565,1244.6069 C1445.3365,1244.6069 1446.7795,1246.0509 1446.7795,1247.8299 C1446.7795,1249.6099 1445.3365,1251.0529 1443.5565,1251.0529 Z M1443.5565,1275.3204 C1441.7765,1275.3204 1440.3335,1273.8774 1440.3335,1272.0974 C1440.3335,1270.3184 1441.7765,1268.8754 1443.5565,1268.8754 C1445.3365,1268.8754 1446.7795,1270.3184 1446.7795,1272.0974 C1446.7795,1273.8774 1445.3365,1275.3204 1443.5565,1275.3204 Z M1443.5565,1299.5885 C1441.7765,1299.5885 1440.3335,1298.1455 1440.3335,1296.3655 C1440.3335,1294.5865 1441.7765,1293.1435 1443.5565,1293.1435 C1445.3365,1293.1435 1446.7795,1294.5865 1446.7795,1296.3655 C1446.7795,1298.1455 1445.3365,1299.5885 1443.5565,1299.5885 Z M1443.5565,1323.8566 C1441.7765,1323.8566 1440.3335,1322.4136 1440.3335,1320.6336 C1440.3335,1318.8546 1441.7765,1317.4116 1443.5565,1317.4116 C1445.3365,1317.4116 1446.7795,1318.8546 1446.7795,1320.6336 C1446.7795,1322.4136 1445.3365,1323.8566 1443.5565,1323.8566 Z M1443.5565,1348.1242 C1441.7765,1348.1242 1440.3335,1346.6812 1440.3335,1344.9012 C1440.3335,1343.1222 1441.7765,1341.6792 1443.5565,1341.6792 C1445.3365,1341.6792 1446.7795,1343.1222 1446.7795,1344.9012 C1446.7795,1346.6812 1445.3365,1348.1242 1443.5565,1348.1242 Z M1443.5565,1372.3922 C1441.7765,1372.3922 1440.3335,1370.9492 1440.3335,1369.1692 C1440.3335,1367.3902 1441.7765,1365.9472 1443.5565,1365.9472 C1445.3365,1365.9472 1446.7795,1367.3902 1446.7795,1369.1692 C1446.7795,1370.9492 1445.3365,1372.3922 1443.5565,1372.3922 Z M1443.5565,1396.6603 C1441.7765,1396.6603 1440.3335,1395.2173 1440.3335,1393.4373 C1440.3335,1391.6583 1441.7765,1390.2153 1443.5565,1390.2153 C1445.3365,1390.2153 1446.7795,1391.6583 1446.7795,1393.4373 C1446.7795,1395.2173 1445.3365,1396.6603 1443.5565,1396.6603 Z M1443.5565,1420.9279 C1441.7765,1420.9279 1440.3335,1419.4859 1440.3335,1417.7059 C1440.3335,1415.9259 1441.7765,1414.4829 1443.5565,1414.4829 C1445.3365,1414.4829 1446.7795,1415.9259 1446.7795,1417.7059 C1446.7795,1419.4859 1445.3365,1420.9279 1443.5565,1420.9279 Z M1548.89,1105.445 C1547.11,1105.445 1545.667,1104.002 1545.667,1102.222 C1545.667,1100.443 1547.11,1099 1548.89,1099 C1550.67,1099 1552.113,1100.443 1552.113,1102.222 C1552.113,1104.002 1550.67,1105.445 1548.89,1105.445 Z M1548.89,1129.713 C1547.11,1129.713 1545.667,1128.27 1545.667,1126.49 C1545.667,1124.711 1547.11,1123.268 1548.89,1123.268 C1550.67,1123.268 1552.113,1124.711 1552.113,1126.49 C1552.113,1128.27 1550.67,1129.713 1548.89,1129.713 Z M1548.89,1153.9811 C1547.11,1153.9811 1545.667,1152.5381 1545.667,1150.7581 C1545.667,1148.9791 1547.11,1147.5361 1548.89,1147.5361 C1550.67,1147.5361 1552.113,1148.9791 1552.113,1150.7581 C1552.113,1152.5381 1550.67,1153.9811 1548.89,1153.9811 Z M1548.89,1178.2487 C1547.11,1178.2487 1545.667,1176.8067 1545.667,1175.0257 C1545.667,1173.2467 1547.11,1171.8037 1548.89,1171.8037 C1550.67,1171.8037 1552.113,1173.2467 1552.113,1175.0257 C1552.113,1176.8067 1550.67,1178.2487 1548.89,1178.2487 Z M1548.89,1202.5167 C1547.11,1202.5167 1545.667,1201.0737 1545.667,1199.2937 C1545.667,1197.5147 1547.11,1196.0717 1548.89,1196.0717 C1550.67,1196.0717 1552.113,1197.5147 1552.113,1199.2937 C1552.113,1201.0737 1550.67,1202.5167 1548.89,1202.5167 Z M1548.89,1226.7848 C1547.11,1226.7848 1545.667,1225.3418 1545.667,1223.5618 C1545.667,1221.7828 1547.11,1220.3398 1548.89,1220.3398 C1550.67,1220.3398 1552.113,1221.7828 1552.113,1223.5618 C1552.113,1225.3418 1550.67,1226.7848 1548.89,1226.7848 Z M1548.89,1251.0529 C1547.11,1251.0529 1545.667,1249.6099 1545.667,1247.8299 C1545.667,1246.0509 1547.11,1244.6069 1548.89,1244.6069 C1550.67,1244.6069 1552.113,1246.0509 1552.113,1247.8299 C1552.113,1249.6099 1550.67,1251.0529 1548.89,1251.0529 Z M1548.89,1275.3204 C1547.11,1275.3204 1545.667,1273.8774 1545.667,1272.0974 C1545.667,1270.3184 1547.11,1268.8754 1548.89,1268.8754 C1550.67,1268.8754 1552.113,1270.3184 1552.113,1272.0974 C1552.113,1273.8774 1550.67,1275.3204 1548.89,1275.3204 Z M1548.89,1299.5885 C1547.11,1299.5885 1545.667,1298.1455 1545.667,1296.3655 C1545.667,1294.5865 1547.11,1293.1435 1548.89,1293.1435 C1550.67,1293.1435 1552.113,1294.5865 1552.113,1296.3655 C1552.113,1298.1455 1550.67,1299.5885 1548.89,1299.5885 Z M1548.89,1323.8566 C1547.11,1323.8566 1545.667,1322.4136 1545.667,1320.6336 C1545.667,1318.8546 1547.11,1317.4116 1548.89,1317.4116 C1550.67,1317.4116 1552.113,1318.8546 1552.113,1320.6336 C1552.113,1322.4136 1550.67,1323.8566 1548.89,1323.8566 Z M1548.89,1348.1242 C1547.11,1348.1242 1545.667,1346.6812 1545.667,1344.9012 C1545.667,1343.1222 1547.11,1341.6792 1548.89,1341.6792 C1550.67,1341.6792 1552.113,1343.1222 1552.113,1344.9012 C1552.113,1346.6812 1550.67,1348.1242 1548.89,1348.1242 Z M1548.89,1372.3922 C1547.11,1372.3922 1545.667,1370.9492 1545.667,1369.1692 C1545.667,1367.3902 1547.11,1365.9472 1548.89,1365.9472 C1550.67,1365.9472 1552.113,1367.3902 1552.113,1369.1692 C1552.113,1370.9492 1550.67,1372.3922 1548.89,1372.3922 Z M1548.89,1396.6603 C1547.11,1396.6603 1545.667,1395.2173 1545.667,1393.4373 C1545.667,1391.6583 1547.11,1390.2153 1548.89,1390.2153 C1550.67,1390.2153 1552.113,1391.6583 1552.113,1393.4373 C1552.113,1395.2173 1550.67,1396.6603 1548.89,1396.6603 Z M1548.89,1420.9279 C1547.11,1420.9279 1545.667,1419.4859 1545.667,1417.7059 C1545.667,1415.9259 1547.11,1414.4829 1548.89,1414.4829 C1550.67,1414.4829 1552.113,1415.9259 1552.113,1417.7059 C1552.113,1419.4859 1550.67,1420.9279 1548.89,1420.9279 Z M1512.5565,1105.445 C1510.7765,1105.445 1509.3335,1104.002 1509.3335,1102.222 C1509.3335,1100.443 1510.7765,1099 1512.5565,1099 C1514.3365,1099 1515.7795,1100.443 1515.7795,1102.222 C1515.7795,1104.002 1514.3365,1105.445 1512.5565,1105.445 Z M1512.5565,1129.713 C1510.7765,1129.713 1509.3335,1128.27 1509.3335,1126.49 C1509.3335,1124.711 1510.7765,1123.268 1512.5565,1123.268 C1514.3365,1123.268 1515.7795,1124.711 1515.7795,1126.49 C1515.7795,1128.27 1514.3365,1129.713 1512.5565,1129.713 Z M1512.5565,1153.9811 C1510.7765,1153.9811 1509.3335,1152.5381 1509.3335,1150.7581 C1509.3335,1148.9791 1510.7765,1147.5361 1512.5565,1147.5361 C1514.3365,1147.5361 1515.7795,1148.9791 1515.7795,1150.7581 C1515.7795,1152.5381 1514.3365,1153.9811 1512.5565,1153.9811 Z M1512.5565,1178.2487 C1510.7765,1178.2487 1509.3335,1176.8067 1509.3335,1175.0257 C1509.3335,1173.2467 1510.7765,1171.8037 1512.5565,1171.8037 C1514.3365,1171.8037 1515.7795,1173.2467 1515.7795,1175.0257 C1515.7795,1176.8067 1514.3365,1178.2487 1512.5565,1178.2487 Z M1512.5565,1202.5167 C1510.7765,1202.5167 1509.3335,1201.0737 1509.3335,1199.2937 C1509.3335,1197.5147 1510.7765,1196.0717 1512.5565,1196.0717 C1514.3365,1196.0717 1515.7795,1197.5147 1515.7795,1199.2937 C1515.7795,1201.0737 1514.3365,1202.5167 1512.5565,1202.5167 Z M1512.5565,1226.7848 C1510.7765,1226.7848 1509.3335,1225.3418 1509.3335,1223.5618 C1509.3335,1221.7828 1510.7765,1220.3398 1512.5565,1220.3398 C1514.3365,1220.3398 1515.7795,1221.7828 1515.7795,1223.5618 C1515.7795,1225.3418 1514.3365,1226.7848 1512.5565,1226.7848 Z M1512.5565,1251.0529 C1510.7765,1251.0529 1509.3335,1249.6099 1509.3335,1247.8299 C1509.3335,1246.0509 1510.7765,1244.6069 1512.5565,1244.6069 C1514.3365,1244.6069 1515.7795,1246.0509 1515.7795,1247.8299 C1515.7795,1249.6099 1514.3365,1251.0529 1512.5565,1251.0529 Z M1512.5565,1275.3204 C1510.7765,1275.3204 1509.3335,1273.8774 1509.3335,1272.0974 C1509.3335,1270.3184 1510.7765,1268.8754 1512.5565,1268.8754 C1514.3365,1268.8754 1515.7795,1270.3184 1515.7795,1272.0974 C1515.7795,1273.8774 1514.3365,1275.3204 1512.5565,1275.3204 Z M1512.5565,1299.5885 C1510.7765,1299.5885 1509.3335,1298.1455 1509.3335,1296.3655 C1509.3335,1294.5865 1510.7765,1293.1435 1512.5565,1293.1435 C1514.3365,1293.1435 1515.7795,1294.5865 1515.7795,1296.3655 C1515.7795,1298.1455 1514.3365,1299.5885 1512.5565,1299.5885 Z M1512.5565,1323.8566 C1510.7765,1323.8566 1509.3335,1322.4136 1509.3335,1320.6336 C1509.3335,1318.8546 1510.7765,1317.4116 1512.5565,1317.4116 C1514.3365,1317.4116 1515.7795,1318.8546 1515.7795,1320.6336 C1515.7795,1322.4136 1514.3365,1323.8566 1512.5565,1323.8566 Z M1512.5565,1348.1242 C1510.7765,1348.1242 1509.3335,1346.6812 1509.3335,1344.9012 C1509.3335,1343.1222 1510.7765,1341.6792 1512.5565,1341.6792 C1514.3365,1341.6792 1515.7795,1343.1222 1515.7795,1344.9012 C1515.7795,1346.6812 1514.3365,1348.1242 1512.5565,1348.1242 Z M1512.5565,1372.3922 C1510.7765,1372.3922 1509.3335,1370.9492 1509.3335,1369.1692 C1509.3335,1367.3902 1510.7765,1365.9472 1512.5565,1365.9472 C1514.3365,1365.9472 1515.7795,1367.3902 1515.7795,1369.1692 C1515.7795,1370.9492 1514.3365,1372.3922 1512.5565,1372.3922 Z M1512.5565,1396.6603 C1510.7765,1396.6603 1509.3335,1395.2173 1509.3335,1393.4373 C1509.3335,1391.6583 1510.7765,1390.2153 1512.5565,1390.2153 C1514.3365,1390.2153 1515.7795,1391.6583 1515.7795,1393.4373 C1515.7795,1395.2173 1514.3365,1396.6603 1512.5565,1396.6603 Z M1512.5565,1420.9279 C1510.7765,1420.9279 1509.3335,1419.4859 1509.3335,1417.7059 C1509.3335,1415.9259 1510.7765,1414.4829 1512.5565,1414.4829 C1514.3365,1414.4829 1515.7795,1415.9259 1515.7795,1417.7059 C1515.7795,1419.4859 1514.3365,1420.9279 1512.5565,1420.9279 Z M1476.223,1105.445 C1474.443,1105.445 1473,1104.002 1473,1102.222 C1473,1100.443 1474.443,1099 1476.223,1099 C1478.003,1099 1479.446,1100.443 1479.446,1102.222 C1479.446,1104.002 1478.003,1105.445 1476.223,1105.445 Z M1476.223,1129.713 C1474.443,1129.713 1473,1128.27 1473,1126.49 C1473,1124.711 1474.443,1123.268 1476.223,1123.268 C1478.003,1123.268 1479.446,1124.711 1479.446,1126.49 C1479.446,1128.27 1478.003,1129.713 1476.223,1129.713 Z M1476.223,1153.9811 C1474.443,1153.9811 1473,1152.5381 1473,1150.7581 C1473,1148.9791 1474.443,1147.5361 1476.223,1147.5361 C1478.003,1147.5361 1479.446,1148.9791 1479.446,1150.7581 C1479.446,1152.5381 1478.003,1153.9811 1476.223,1153.9811 Z M1476.223,1178.2487 C1474.443,1178.2487 1473,1176.8067 1473,1175.0257 C1473,1173.2467 1474.443,1171.8037 1476.223,1171.8037 C1478.003,1171.8037 1479.446,1173.2467 1479.446,1175.0257 C1479.446,1176.8067 1478.003,1178.2487 1476.223,1178.2487 Z M1476.223,1202.5167 C1474.443,1202.5167 1473,1201.0737 1473,1199.2937 C1473,1197.5147 1474.443,1196.0717 1476.223,1196.0717 C1478.003,1196.0717 1479.446,1197.5147 1479.446,1199.2937 C1479.446,1201.0737 1478.003,1202.5167 1476.223,1202.5167 Z M1476.223,1226.7848 C1474.443,1226.7848 1473,1225.3418 1473,1223.5618 C1473,1221.7828 1474.443,1220.3398 1476.223,1220.3398 C1478.003,1220.3398 1479.446,1221.7828 1479.446,1223.5618 C1479.446,1225.3418 1478.003,1226.7848 1476.223,1226.7848 Z M1476.223,1251.0529 C1474.443,1251.0529 1473,1249.6099 1473,1247.8299 C1473,1246.0509 1474.443,1244.6069 1476.223,1244.6069 C1478.003,1244.6069 1479.446,1246.0509 1479.446,1247.8299 C1479.446,1249.6099 1478.003,1251.0529 1476.223,1251.0529 Z M1476.223,1275.3204 C1474.443,1275.3204 1473,1273.8774 1473,1272.0974 C1473,1270.3184 1474.443,1268.8754 1476.223,1268.8754 C1478.003,1268.8754 1479.446,1270.3184 1479.446,1272.0974 C1479.446,1273.8774 1478.003,1275.3204 1476.223,1275.3204 Z M1476.223,1299.5885 C1474.443,1299.5885 1473,1298.1455 1473,1296.3655 C1473,1294.5865 1474.443,1293.1435 1476.223,1293.1435 C1478.003,1293.1435 1479.446,1294.5865 1479.446,1296.3655 C1479.446,1298.1455 1478.003,1299.5885 1476.223,1299.5885 Z M1476.223,1323.8566 C1474.443,1323.8566 1473,1322.4136 1473,1320.6336 C1473,1318.8546 1474.443,1317.4116 1476.223,1317.4116 C1478.003,1317.4116 1479.446,1318.8546 1479.446,1320.6336 C1479.446,1322.4136 1478.003,1323.8566 1476.223,1323.8566 Z M1476.223,1348.1242 C1474.443,1348.1242 1473,1346.6812 1473,1344.9012 C1473,1343.1222 1474.443,1341.6792 1476.223,1341.6792 C1478.003,1341.6792 1479.446,1343.1222 1479.446,1344.9012 C1479.446,1346.6812 1478.003,1348.1242 1476.223,1348.1242 Z M1476.223,1372.3922 C1474.443,1372.3922 1473,1370.9492 1473,1369.1692 C1473,1367.3902 1474.443,1365.9472 1476.223,1365.9472 C1478.003,1365.9472 1479.446,1367.3902 1479.446,1369.1692 C1479.446,1370.9492 1478.003,1372.3922 1476.223,1372.3922 Z M1476.223,1396.6603 C1474.443,1396.6603 1473,1395.2173 1473,1393.4373 C1473,1391.6583 1474.443,1390.2153 1476.223,1390.2153 C1478.003,1390.2153 1479.446,1391.6583 1479.446,1393.4373 C1479.446,1395.2173 1478.003,1396.6603 1476.223,1396.6603 Z M1476.223,1420.9279 C1474.443,1420.9279 1473,1419.4859 1473,1417.7059 C1473,1415.9259 1474.443,1414.4829 1476.223,1414.4829 C1478.003,1414.4829 1479.446,1415.9259 1479.446,1417.7059 C1479.446,1419.4859 1478.003,1420.9279 1476.223,1420.9279 Z M1585.223,1105.445 C1583.443,1105.445 1582,1104.002 1582,1102.222 C1582,1100.443 1583.443,1099 1585.223,1099 C1587.003,1099 1588.446,1100.443 1588.446,1102.222 C1588.446,1104.002 1587.003,1105.445 1585.223,1105.445 Z M1585.223,1129.713 C1583.443,1129.713 1582,1128.27 1582,1126.49 C1582,1124.711 1583.443,1123.268 1585.223,1123.268 C1587.003,1123.268 1588.446,1124.711 1588.446,1126.49 C1588.446,1128.27 1587.003,1129.713 1585.223,1129.713 Z M1585.223,1153.9811 C1583.443,1153.9811 1582,1152.5381 1582,1150.7581 C1582,1148.9791 1583.443,1147.5361 1585.223,1147.5361 C1587.003,1147.5361 1588.446,1148.9791 1588.446,1150.7581 C1588.446,1152.5381 1587.003,1153.9811 1585.223,1153.9811 Z M1585.223,1178.2487 C1583.443,1178.2487 1582,1176.8067 1582,1175.0257 C1582,1173.2467 1583.443,1171.8037 1585.223,1171.8037 C1587.003,1171.8037 1588.446,1173.2467 1588.446,1175.0257 C1588.446,1176.8067 1587.003,1178.2487 1585.223,1178.2487 Z M1585.223,1202.5167 C1583.443,1202.5167 1582,1201.0737 1582,1199.2937 C1582,1197.5147 1583.443,1196.0717 1585.223,1196.0717 C1587.003,1196.0717 1588.446,1197.5147 1588.446,1199.2937 C1588.446,1201.0737 1587.003,1202.5167 1585.223,1202.5167 Z M1585.223,1226.7848 C1583.443,1226.7848 1582,1225.3418 1582,1223.5618 C1582,1221.7828 1583.443,1220.3398 1585.223,1220.3398 C1587.003,1220.3398 1588.446,1221.7828 1588.446,1223.5618 C1588.446,1225.3418 1587.003,1226.7848 1585.223,1226.7848 Z M1585.223,1251.0529 C1583.443,1251.0529 1582,1249.6099 1582,1247.8299 C1582,1246.0509 1583.443,1244.6069 1585.223,1244.6069 C1587.003,1244.6069 1588.446,1246.0509 1588.446,1247.8299 C1588.446,1249.6099 1587.003,1251.0529 1585.223,1251.0529 Z M1585.223,1275.3204 C1583.443,1275.3204 1582,1273.8774 1582,1272.0974 C1582,1270.3184 1583.443,1268.8754 1585.223,1268.8754 C1587.003,1268.8754 1588.446,1270.3184 1588.446,1272.0974 C1588.446,1273.8774 1587.003,1275.3204 1585.223,1275.3204 Z M1585.223,1299.5885 C1583.443,1299.5885 1582,1298.1455 1582,1296.3655 C1582,1294.5865 1583.443,1293.1435 1585.223,1293.1435 C1587.003,1293.1435 1588.446,1294.5865 1588.446,1296.3655 C1588.446,1298.1455 1587.003,1299.5885 1585.223,1299.5885 Z M1585.223,1323.8566 C1583.443,1323.8566 1582,1322.4136 1582,1320.6336 C1582,1318.8546 1583.443,1317.4116 1585.223,1317.4116 C1587.003,1317.4116 1588.446,1318.8546 1588.446,1320.6336 C1588.446,1322.4136 1587.003,1323.8566 1585.223,1323.8566 Z M1585.223,1348.1242 C1583.443,1348.1242 1582,1346.6812 1582,1344.9012 C1582,1343.1222 1583.443,1341.6792 1585.223,1341.6792 C1587.003,1341.6792 1588.446,1343.1222 1588.446,1344.9012 C1588.446,1346.6812 1587.003,1348.1242 1585.223,1348.1242 Z M1585.223,1372.3922 C1583.443,1372.3922 1582,1370.9492 1582,1369.1692 C1582,1367.3902 1583.443,1365.9472 1585.223,1365.9472 C1587.003,1365.9472 1588.446,1367.3902 1588.446,1369.1692 C1588.446,1370.9492 1587.003,1372.3922 1585.223,1372.3922 Z M1585.223,1396.6603 C1583.443,1396.6603 1582,1395.2173 1582,1393.4373 C1582,1391.6583 1583.443,1390.2153 1585.223,1390.2153 C1587.003,1390.2153 1588.446,1391.6583 1588.446,1393.4373 C1588.446,1395.2173 1587.003,1396.6603 1585.223,1396.6603 Z M1585.223,1420.9279 C1583.443,1420.9279 1582,1419.4859 1582,1417.7059 C1582,1415.9259 1583.443,1414.4829 1585.223,1414.4829 C1587.003,1414.4829 1588.446,1415.9259 1588.446,1417.7059 C1588.446,1419.4859 1587.003,1420.9279 1585.223,1420.9279 Z M1621.5565,1105.445 C1619.7765,1105.445 1618.3335,1104.002 1618.3335,1102.222 C1618.3335,1100.443 1619.7765,1099 1621.5565,1099 C1623.3365,1099 1624.7795,1100.443 1624.7795,1102.222 C1624.7795,1104.002 1623.3365,1105.445 1621.5565,1105.445 Z M1621.5565,1129.713 C1619.7765,1129.713 1618.3335,1128.27 1618.3335,1126.49 C1618.3335,1124.711 1619.7765,1123.268 1621.5565,1123.268 C1623.3365,1123.268 1624.7795,1124.711 1624.7795,1126.49 C1624.7795,1128.27 1623.3365,1129.713 1621.5565,1129.713 Z M1621.5565,1153.9811 C1619.7765,1153.9811 1618.3335,1152.5381 1618.3335,1150.7581 C1618.3335,1148.9791 1619.7765,1147.5361 1621.5565,1147.5361 C1623.3365,1147.5361 1624.7795,1148.9791 1624.7795,1150.7581 C1624.7795,1152.5381 1623.3365,1153.9811 1621.5565,1153.9811 Z M1621.5565,1178.2487 C1619.7765,1178.2487 1618.3335,1176.8067 1618.3335,1175.0257 C1618.3335,1173.2467 1619.7765,1171.8037 1621.5565,1171.8037 C1623.3365,1171.8037 1624.7795,1173.2467 1624.7795,1175.0257 C1624.7795,1176.8067 1623.3365,1178.2487 1621.5565,1178.2487 Z M1621.5565,1202.5167 C1619.7765,1202.5167 1618.3335,1201.0737 1618.3335,1199.2937 C1618.3335,1197.5147 1619.7765,1196.0717 1621.5565,1196.0717 C1623.3365,1196.0717 1624.7795,1197.5147 1624.7795,1199.2937 C1624.7795,1201.0737 1623.3365,1202.5167 1621.5565,1202.5167 Z M1621.5565,1226.7848 C1619.7765,1226.7848 1618.3335,1225.3418 1618.3335,1223.5618 C1618.3335,1221.7828 1619.7765,1220.3398 1621.5565,1220.3398 C1623.3365,1220.3398 1624.7795,1221.7828 1624.7795,1223.5618 C1624.7795,1225.3418 1623.3365,1226.7848 1621.5565,1226.7848 Z M1621.5565,1251.0529 C1619.7765,1251.0529 1618.3335,1249.6099 1618.3335,1247.8299 C1618.3335,1246.0509 1619.7765,1244.6069 1621.5565,1244.6069 C1623.3365,1244.6069 1624.7795,1246.0509 1624.7795,1247.8299 C1624.7795,1249.6099 1623.3365,1251.0529 1621.5565,1251.0529 Z M1621.5565,1275.3204 C1619.7765,1275.3204 1618.3335,1273.8774 1618.3335,1272.0974 C1618.3335,1270.3184 1619.7765,1268.8754 1621.5565,1268.8754 C1623.3365,1268.8754 1624.7795,1270.3184 1624.7795,1272.0974 C1624.7795,1273.8774 1623.3365,1275.3204 1621.5565,1275.3204 Z M1621.5565,1299.5885 C1619.7765,1299.5885 1618.3335,1298.1455 1618.3335,1296.3655 C1618.3335,1294.5865 1619.7765,1293.1435 1621.5565,1293.1435 C1623.3365,1293.1435 1624.7795,1294.5865 1624.7795,1296.3655 C1624.7795,1298.1455 1623.3365,1299.5885 1621.5565,1299.5885 Z M1621.5565,1323.8566 C1619.7765,1323.8566 1618.3335,1322.4136 1618.3335,1320.6336 C1618.3335,1318.8546 1619.7765,1317.4116 1621.5565,1317.4116 C1623.3365,1317.4116 1624.7795,1318.8546 1624.7795,1320.6336 C1624.7795,1322.4136 1623.3365,1323.8566 1621.5565,1323.8566 Z M1621.5565,1348.1242 C1619.7765,1348.1242 1618.3335,1346.6812 1618.3335,1344.9012 C1618.3335,1343.1222 1619.7765,1341.6792 1621.5565,1341.6792 C1623.3365,1341.6792 1624.7795,1343.1222 1624.7795,1344.9012 C1624.7795,1346.6812 1623.3365,1348.1242 1621.5565,1348.1242 Z M1621.5565,1372.3922 C1619.7765,1372.3922 1618.3335,1370.9492 1618.3335,1369.1692 C1618.3335,1367.3902 1619.7765,1365.9472 1621.5565,1365.9472 C1623.3365,1365.9472 1624.7795,1367.3902 1624.7795,1369.1692 C1624.7795,1370.9492 1623.3365,1372.3922 1621.5565,1372.3922 Z M1621.5565,1396.6603 C1619.7765,1396.6603 1618.3335,1395.2173 1618.3335,1393.4373 C1618.3335,1391.6583 1619.7765,1390.2153 1621.5565,1390.2153 C1623.3365,1390.2153 1624.7795,1391.6583 1624.7795,1393.4373 C1624.7795,1395.2173 1623.3365,1396.6603 1621.5565,1396.6603 Z M1621.5565,1420.9279 C1619.7765,1420.9279 1618.3335,1419.4859 1618.3335,1417.7059 C1618.3335,1415.9259 1619.7765,1414.4829 1621.5565,1414.4829 C1623.3365,1414.4829 1624.7795,1415.9259 1624.7795,1417.7059 C1624.7795,1419.4859 1623.3365,1420.9279 1621.5565,1420.9279 Z" id="Combined-Shape"></path>
        </g>
    </g>
</svg>