<?xml version="1.0" encoding="utf-8"?>
<!-- Generator: Adobe Illustrator 25.2.1, SVG Export Plug-In . SVG Version: 6.00 Build 0)  -->
<svg version="1.1" id="Layer_1" xmlns="http://www.w3.org/2000/svg" xmlns:xlink="http://www.w3.org/1999/xlink" x="0px" y="0px"
	 viewBox="0 0 282 113" style="enable-background:new 0 0 282 113;" xml:space="preserve">
<style type="text/css">
	.st0{fill:#F38020;}
</style>
<g>
	<g>
		<path class="st0" d="M106.3,14.4l-11,62.4H33.6c-2.9,0-5.7-1.3-7.6-3.5s-2.7-5.2-2.2-8.1l7.3-42.5c0.8-4.8,5-8.2,9.8-8.2
			L106.3,14.4 M107.6,13.3H41c-5.4,0-10,3.9-10.9,9.2L22.7,65c-1.2,6.8,4,12.9,10.9,12.9h62.6L107.6,13.3L107.6,13.3z"/>
		<g>
			<path class="st0" d="M49.2,68.4c-0.2,0-0.3-0.1-0.5-0.2c-3.2-2.2-5.9-5.2-7.9-8.5c-2.5-4.3-3.8-9.1-3.8-14.1
				c0-3.8,0.8-7.5,2.2-11c0.2-0.4,0.7-0.7,1.2-0.5c0.4,0.2,0.7,0.7,0.5,1.2c-1.4,3.2-2.1,6.7-2.1,10.3c0,4.7,1.2,9.2,3.6,13.2
				c1.8,3.1,4.4,5.9,7.4,8c0.4,0.3,0.5,0.8,0.2,1.2C49.7,68.3,49.5,68.4,49.2,68.4z"/>
			<path class="st0" d="M64.7,73.3c-4.5,0-9-1.1-12.9-3.2c-0.4-0.2-0.6-0.8-0.4-1.2c0.2-0.4,0.8-0.6,1.2-0.4c3.7,1.9,7.9,3,12.1,3
				c5.7,0,10.9-1.8,15.2-5.2c3.7-3,6.4-6.9,8-11.5h-6c-1.2,2.8-3.1,5.3-5.4,7.1c-0.4,0.3-0.9,0.2-1.2-0.1s-0.2-0.9,0.1-1.2
				c2.2-1.8,4-4.2,5.1-7c0.1-0.3,0.4-0.5,0.8-0.5h7.8c0.3,0,0.5,0.1,0.7,0.3s0.2,0.5,0.1,0.8c-1.6,5.4-4.7,10.1-8.9,13.5
				C76.4,71.4,70.7,73.3,64.7,73.3z"/>
			<path class="st0" d="M64.7,65.8c-6,0-11.7-2.6-15.5-7.2c-3-3.6-4.7-8.2-4.7-13c0-5.7,2.4-11.2,6.7-15c2.4-2.2,5.4-3.8,8.5-4.6
				c0.5-0.1,0.9,0.2,1.1,0.6c0.1,0.5-0.2,0.9-0.6,1.1c-2.9,0.7-5.6,2.2-7.8,4.2c-3.9,3.5-6.1,8.5-6.1,13.7c0,4.3,1.5,8.5,4.3,11.9
				c3.5,4.2,8.7,6.6,14.2,6.6c3.1,0,5.8-0.7,8.3-1.9c0.4-0.2,1-0.1,1.2,0.4s0.1,1-0.4,1.2C71.1,65.1,68,65.8,64.7,65.8z"/>
			<path class="st0" d="M59.8,26.9"/>
			<path class="st0" d="M80.3,36.5c-0.3,0-0.6-0.2-0.8-0.5c-1.2-2.2-2.8-4.1-4.7-5.6c-2.8-2.1-6.3-3.3-10.1-3.3
				c-0.5,0-0.9-0.4-0.9-0.9s0.4-0.9,0.9-0.9c4.1,0,8,1.3,11.2,3.6c2,1.5,3.6,3.4,4.9,5.6l5.9-1.7c-4.8-8.3-12.7-13.2-22-13.2
				c-9.2,0-17.5,4.7-22.3,12.6c-0.2,0.4-0.8,0.5-1.2,0.3s-0.5-0.8-0.3-1.2c2.4-4,5.8-7.4,9.9-9.8c4.2-2.4,9-3.7,13.9-3.7
				c10.3,0,19.1,5.5,24,15.2c0.1,0.2,0.1,0.5,0,0.7s-0.3,0.4-0.6,0.5l-7.6,2.2C80.4,36.5,80.4,36.5,80.3,36.5z"/>
			<path class="st0" d="M67.7,51.5h-4.9c-0.5,0-0.9-0.4-0.9-0.9v-7.5c0-0.2,0.1-0.5,0.3-0.6c0.2-0.2,0.4-0.2,0.6-0.3h14.8
				c0.5,0,0.9,0.4,0.9,0.9S78.1,44,77.6,44l0,0H63.7v5.7h4c0.5,0,0.9,0.4,0.9,0.9C68.6,51.1,68.2,51.5,67.7,51.5z"/>
			<path class="st0" d="M68,50.6"/>
			<path class="st0" d="M71.3,50.6"/>
			<path class="st0" d="M89.8,51.5H71.3c-0.5,0-0.9-0.4-0.9-0.9s0.4-0.9,0.9-0.9h17.8c0.2-1.4,0.3-2.8,0.3-4.1c0-0.5,0-1.1-0.1-1.5
				h-6.7c-0.5,0-0.9-0.4-0.9-0.9s0.4-0.9,0.9-0.9l0,0h7.5c0.4,0,0.8,0.3,0.9,0.8c0.1,0.6,0.2,1.5,0.2,2.5c0,1.7-0.2,3.4-0.4,5.1
				C90.6,51.2,90.3,51.5,89.8,51.5z"/>
			<path class="st0" d="M82.7,43.2"/>
			<path class="st0" d="M77.6,43.2"/>
			<circle class="st0" cx="41.7" cy="31.8" r="1.5"/>
			<circle class="st0" cx="40" cy="35" r="1.5"/>
			<circle class="st0" cx="49.2" cy="67.6" r="1.5"/>
			<circle class="st0" cx="52.2" cy="69.4" r="1.5"/>
			<circle class="st0" cx="73.4" cy="62.9" r="1.5"/>
			<circle class="st0" cx="59.8" cy="26.9" r="1.5"/>
			<circle class="st0" cx="64.8" cy="26.2" r="1.5"/>
			<circle class="st0" cx="82.7" cy="43.2" r="1.5"/>
			<circle class="st0" cx="77.6" cy="43.2" r="1.5"/>
			<circle class="st0" cx="71.3" cy="50.6" r="1.5"/>
			<circle class="st0" cx="67.6" cy="50.6" r="1.5"/>
			<circle class="st0" cx="76.3" cy="61.1" r="1.5"/>
		</g>
		<g>
			<path class="st0" d="M120.1,27.9l-2,11.2h18.4l-2.2,12.8h-18.4l-2.2,12.8H132l-2.2,12.8H98.6l8.7-49.7L120.1,27.9L120.1,27.9z
				 M107.6,26.3l2.2-12.8H141l-2.2,12.8H107.6z"/>
			<path class="st0" d="M155.8,27.9l-2,11.2h18.4L170,51.9h-18.4l-2.2,12.8h18.4l-2.2,12.8h-31.2l8.7-49.7L155.8,27.9L155.8,27.9z
				 M143.3,26.3l2.2-12.8h31.2l-2.2,12.8H143.3z"/>
			<path class="st0" d="M184.9,67.9l-1.7,9.7h-12.8l11.2-64h12.8l-4.3,24.3l15.8-24.3H220L184.9,67.9z M195.5,77.5l-2.6-19.2L204,41
				l4.8,36.5H195.5L195.5,77.5z"/>
			<path class="st0" d="M244.7,13.4c2.2,0,4.2,0.4,6,1.2s3.3,2,4.5,3.4s2.1,3.1,2.6,5.1s0.6,4,0.2,6.3l-0.6,3.3h-12.8
				c0.1-0.7,0.3-1.4,0.4-2.2c0.1-0.8,0.2-1.5,0.2-2.1s-0.2-1.2-0.6-1.6c-0.4-0.4-1.1-0.6-2.1-0.6h-4.6c-2.1,0-3.3,1.1-3.7,3.2
				l-1.1,6.4c-0.4,2.2,0.5,3.2,2.5,3.2h4.6c2.2,0,4.2,0.4,6,1.2s3.3,2,4.5,3.4s2.1,3.1,2.6,5.1c0.5,1.9,0.6,4,0.2,6.2l-1.1,6.4
				c-0.4,2.2-1.2,4.3-2.4,6.3c-1.2,1.9-2.7,3.7-4.4,5.1s-3.6,2.6-5.7,3.4s-4.2,1.2-6.4,1.2h-4.6c-2.2,0-4.2-0.4-6-1.2
				c-1.8-0.8-3.3-2-4.5-3.4s-2.1-3.2-2.6-5.1s-0.6-4-0.2-6.3l1.1-6.4h12.9l-1.1,6.5c-0.4,2.1,0.5,3.2,2.6,3.2h4.6
				c2.2,0,3.4-1.1,3.8-3.2l1.1-6.5c0.4-2.1-0.5-3.2-2.7-3.2h-4.6c-2.2,0-4.2-0.4-6-1.2s-3.3-2-4.4-3.4c-1.2-1.5-2-3.2-2.5-5.1
				c-0.5-2-0.6-4-0.2-6.3l1.1-6.4c0.4-2.2,1.2-4.3,2.4-6.3s2.7-3.6,4.4-5.1s3.6-2.6,5.7-3.4c2.1-0.8,4.2-1.2,6.4-1.2L244.7,13.4
				L244.7,13.4z"/>
		</g>
		<g>
			<path class="st0" d="M246.9,79.4h-32.8c-0.9,0-1.6,0.6-1.8,1.5l-2.9,15.7c-0.2,1.1,0.7,2.2,1.8,2.2h32.9c0.9,0,1.7-0.6,1.8-1.5
				l2.8-15.7C248.9,80.4,248,79.4,246.9,79.4z M221.4,95.3c-0.3,0.5-0.7,1-1.2,1.4s-1,0.7-1.6,0.9c-0.6,0.2-1.2,0.3-1.8,0.3h-0.7
				c-0.6,0-1.2-0.1-1.7-0.3c-0.5-0.2-0.9-0.5-1.2-0.9s-0.6-0.9-0.7-1.4s-0.1-1.1-0.1-1.7l1.6-8.8c0.1-0.6,0.3-1.2,0.6-1.7
				s0.7-1,1.2-1.4s1-0.7,1.6-0.9c0.6-0.2,1.2-0.3,1.8-0.3h0.7c0.6,0,1.2,0.1,1.7,0.3c0.5,0.2,0.9,0.6,1.2,0.9
				c0.3,0.4,0.6,0.9,0.7,1.4c0.1,0.5,0.1,1.1,0.1,1.7l-0.4,2h-3.5l0.2-1.1c0-0.2,0.1-0.4,0.1-0.6s0.1-0.4,0.1-0.6s-0.1-0.3-0.2-0.4
				c-0.1-0.1-0.3-0.2-0.6-0.2h-0.7c-0.6,0-0.9,0.3-1,0.9l-1.6,8.8c-0.1,0.6,0.1,0.9,0.7,0.9h0.7c0.3,0,0.5-0.1,0.6-0.2
				s0.3-0.3,0.3-0.4c0.1-0.2,0.1-0.4,0.1-0.6s0.1-0.4,0.1-0.6L219,91h3.5l-0.5,2.6C222,94.2,221.8,94.8,221.4,95.3z M228.4,98
				l-0.9-5.7c0.6,0,1.2,0,1.8,0s1.1-0.1,1.8-0.4l1.3,6.1H228.4z M232.3,90.5c-0.5,0.4-1,0.7-1.6,0.9c-0.6,0.2-1.2,0.3-1.8,0.3h-2
				l-1.1,6.2h-3.5l1.7-9.7h5.5c0.6,0,0.9-0.3,1-0.9l0.5-2.7c0.1-0.6-0.1-0.9-0.7-0.9h-2l-0.7,4h-3.5l1.3-7.5h5.5
				c0.6,0,1.2,0.1,1.7,0.3c0.5,0.2,0.9,0.6,1.2,0.9c0.3,0.4,0.6,0.9,0.7,1.4s0.1,1.1,0.1,1.7l-0.5,2.7c-0.1,0.6-0.3,1.2-0.6,1.7
				C233.1,89.7,232.8,90.1,232.3,90.5z M245.7,84.8l-0.1,0.9h-3.5c0-0.2,0.1-0.4,0.1-0.6s0.1-0.4,0.1-0.6s-0.1-0.3-0.2-0.4
				c-0.1-0.1-0.3-0.2-0.6-0.2h-1.3c-0.6,0-0.9,0.3-1,0.9l-0.3,1.8c-0.1,0.6,0.1,0.9,0.7,0.9h1.3c0.6,0,1.2,0.1,1.7,0.3
				c0.5,0.2,0.9,0.6,1.2,0.9c0.3,0.4,0.6,0.9,0.7,1.4c0.1,0.5,0.1,1.1,0.1,1.7l-0.3,1.8c-0.1,0.6-0.3,1.2-0.6,1.7s-0.7,1-1.2,1.4
				s-1,0.7-1.6,0.9c-0.6,0.2-1.2,0.3-1.8,0.3h-1.3c-0.6,0-1.2-0.1-1.7-0.3c-0.5-0.2-0.9-0.5-1.2-0.9s-0.6-0.9-0.7-1.4
				c-0.1-0.5-0.1-1.1-0.1-1.7l0.3-1.8h3.6l-0.3,1.8c-0.1,0.6,0.1,0.9,0.7,0.9h1.3c0.6,0,0.9-0.3,1.1-0.9l0.3-1.8
				c0.1-0.6-0.1-0.9-0.7-0.9h-1.3c-0.6,0-1.2-0.1-1.7-0.3c-0.5-0.2-0.9-0.5-1.2-0.9s-0.6-0.9-0.7-1.4s-0.1-1.1-0.1-1.7l0.3-1.8
				c0.1-0.6,0.3-1.2,0.6-1.7s0.7-1,1.2-1.4s1-0.7,1.6-0.9c0.6-0.2,1.2-0.3,1.8-0.3h1.3c0.6,0,1.2,0.1,1.7,0.3
				c0.5,0.2,0.9,0.6,1.2,0.9c0.3,0.4,0.6,0.9,0.7,1.4C245.8,83.6,245.8,84.1,245.7,84.8z"/>
		</g>
		<g>
			<g>
				<g>
					<g>
						<g>
							<path class="st0" d="M25.6,84.3c-0.2-0.2-0.5-0.2-0.7,0l-2.1,2.1c-0.2,0.2-0.2,0.5,0,0.7s0.5,0.2,0.7,0l2.1-2.1
								C25.8,84.8,25.8,84.4,25.6,84.3z"/>
						</g>
					</g>
					<g>
						<g>
							<path class="st0" d="M25.6,93.3l-2.1-2.1c-0.2-0.2-0.5-0.2-0.7,0s-0.2,0.5,0,0.7l2.1,2.1c0.2,0.2,0.5,0.2,0.7,0
								S25.8,93.5,25.6,93.3z"/>
						</g>
					</g>
					<g>
						<g>
							<path class="st0" d="M18.6,86.4l-2.1-2.1c-0.2-0.2-0.5-0.2-0.7,0s-0.2,0.5,0,0.7l2.1,2.1c0.2,0.2,0.5,0.2,0.7,0
								C18.8,86.9,18.8,86.6,18.6,86.4z"/>
						</g>
					</g>
					<g>
						<g>
							<path class="st0" d="M21.2,85.2v-2c0-0.3-0.2-0.5-0.5-0.5s-0.5,0.2-0.5,0.5v2c0,0.1,0,0.3,0.1,0.3s0.2,0.1,0.4,0.1
								C20.9,85.7,21.2,85.5,21.2,85.2z"/>
						</g>
					</g>
					<g>
						<g>
							<path class="st0" d="M27.1,89.1c0-0.3-0.2-0.5-0.5-0.5h-2c-0.3,0-0.5,0.2-0.5,0.5c0,0.1,0,0.3,0.1,0.3s0.2,0.1,0.4,0.1h2
								C26.9,89.6,27.1,89.4,27.1,89.1z"/>
						</g>
					</g>
					<g>
						<g>
							<path class="st0" d="M23.3,97.7c-0.2-0.2-0.5-0.4-0.8-0.5c0.4-0.7,0.3-1.6-0.3-2.1c-0.4-0.4-0.9-0.5-1.3-0.5
								c0-0.5-0.2-1-0.5-1.3c-0.2-0.2-0.5-0.4-0.7-0.4l2.4-2.4c0.7-0.7,0.7-1.8,0-2.6s-1.9-0.7-2.6,0l-1.8,1.8
								c-0.2,0.2-0.2,0.5,0,0.7s0.5,0.2,0.7,0l1.8-1.8c0.3-0.3,0.9-0.3,1.2,0c0.3,0.3,0.3,0.8,0,1.2l-5.8,5.8
								c-0.2,0.2-0.2,0.5,0,0.7s0.5,0.2,0.7,0l2.3-2.3c0.3-0.3,0.9-0.3,1.2,0c0.3,0.3,0.3,0.8,0,1.2l-0.3,0.3l-1.9,1.9
								c-0.2,0.2-0.2,0.5,0,0.7s0.5,0.2,0.7,0l1.9-1.9l0.3-0.3c0.3-0.3,0.9-0.3,1.2,0c0.3,0.3,0.3,0.8,0,1.2L21,97.8l-0.6,0.6
								l-0.9,0.9c-0.2,0.2-0.2,0.5,0,0.7s0.5,0.2,0.7,0l0.9-0.9l0.6-0.6c0.3-0.3,0.9-0.3,1.2,0c0.3,0.3,0.3,0.8,0,1.2l-3.6,3.6
								c-0.3,0.3-0.5,0.5-0.8,0.7c-0.2,0.2-0.3,0.5-0.1,0.7c0,0,0,0.1,0.1,0.1c0.2,0.2,0.4,0.2,0.6,0.1c0.4-0.2,0.7-0.5,1-0.8
								l3.6-3.6C24,99.6,24,98.4,23.3,97.7z"/>
						</g>
					</g>
					<g>
						<g>
							<path class="st0" d="M15,105.5c0-0.3-0.2-0.5-0.5-0.5c-1.5-0.1-3-0.7-4-1.8c-1.6-1.6-2.2-4.1-1.4-6.2l1.7-4.9
								c0.1-0.4,0.6-0.7,1.1-0.6s0.8,0.6,0.6,1.1l-0.7,3c-0.1,0.2,0,0.4,0.2,0.5s0.4,0.1,0.6-0.1l3.4-3.4c0.2-0.2,0.2-0.5,0-0.7
								s-0.5-0.2-0.7,0l-2.2,2.2l0.3-1.3c0.2-1-0.4-2-1.3-2.2c-0.9-0.2-1.9,0.3-2.3,1.2l-1.7,4.9c-0.4,1.2-0.5,2.6-0.2,3.9
								s0.9,2.4,1.9,3.4c1.2,1.2,2.9,2,4.7,2C14.8,106,15,105.8,15,105.5z"/>
						</g>
					</g>
					<g>
						<g>
							<path class="st0" d="M17.1,105.2c0-0.1,0-0.2-0.1-0.3c-0.1-0.1-0.2-0.1-0.4-0.1s-0.2,0.1-0.4,0.1c-0.1,0.1-0.1,0.2-0.1,0.3
								s0,0.2,0.1,0.3c0.1,0.1,0.2,0.1,0.4,0.1c0.1,0,0.2-0.1,0.4-0.1C17,105.5,17.1,105.3,17.1,105.2z"/>
						</g>
					</g>
					<g>
						<g>
							<path class="st0" d="M17.2,91.2c0-0.1,0-0.2-0.1-0.3c-0.1-0.1-0.2-0.1-0.4-0.1s-0.2,0.1-0.4,0.1c-0.1,0.1-0.1,0.2-0.1,0.3
								s0,0.2,0.1,0.3c0.1,0.1,0.2,0.1,0.4,0.1s0.2-0.1,0.4-0.1C17.2,91.5,17.2,91.3,17.2,91.2z"/>
						</g>
					</g>
				</g>
				<g>
					<g>
						<path class="st0" d="M34.4,96.8l1-4.5c0-0.1,0-0.3,0-0.4l-2.6-7.6h2.6c0.5,1.9,1.4,4.5,1.7,5.8c0.8-1.3,2.9-4,4.2-5.8H44
							L38.1,92c-0.1,0.1-0.2,0.2-0.2,0.4L37,96.8H34.4L34.4,96.8z"/>
						<path class="st0" d="M50.8,91.3c0,2.2-1.3,5.7-5.3,5.7c-2.6,0-3.8-1.6-3.8-3.9c0-2.5,1.6-5.9,5.2-5.9
							C49.1,87.3,50.8,88.5,50.8,91.3z M44.3,93.2c0,1.3,0.5,1.9,1.5,1.9c1.8,0,2.5-2.4,2.5-4.1c0-1.2-0.5-1.9-1.5-1.9
							C45,89.2,44.3,91.6,44.3,93.2z"/>
						<path class="st0" d="M60.1,94.3c-0.2,0.8-0.4,1.8-0.5,2.5h-2.4c0-0.3,0.1-1,0.2-1.3c-0.7,1-1.7,1.5-3,1.5
							c-1.7,0-2.7-1.2-2.3-3.3l1.3-6.2H56l-1.3,5.9c-0.2,1,0,1.6,1,1.6c1.1,0,2-0.8,2.5-2.9l1-4.6h2.5L60.1,94.3z"/>
						<path class="st0" d="M69,96l-0.9,4.5h-2.4l2.2-10.3c0.3-1.3,0.4-2.1,0.5-2.7h2.4c0,0.2-0.1,0.8-0.2,1.2
							c0.5-0.7,1.4-1.4,2.9-1.4c1.9,0,3,1.4,3,3.7c0,2.9-1.8,6.1-5.1,6.1C70.1,97,69.3,96.5,69,96z M73.8,91.2
							c0-1.3-0.6-1.9-1.6-1.9c-1.3,0-2.2,1.2-2.6,2.9c-0.3,1.6-0.1,2.8,1.5,2.8C73,95,73.8,92.8,73.8,91.2z"/>
						<path class="st0" d="M86.7,91.3c0,2.2-1.3,5.7-5.3,5.7c-2.6,0-3.8-1.6-3.8-3.9c0-2.5,1.6-5.9,5.2-5.9
							C85,87.3,86.7,88.5,86.7,91.3z M80.1,93.2c0,1.3,0.6,1.9,1.5,1.9c1.8,0,2.5-2.4,2.5-4.1c0-1.2-0.5-1.9-1.5-1.9
							C80.9,89.2,80.1,91.6,80.1,93.2z"/>
						<path class="st0" d="M89.5,87.4H92l-2,9.4h-2.5L89.5,87.4z M90.3,83.6h2.5l-0.5,2.3h-2.5L90.3,83.6z"/>
						<path class="st0" d="M93.8,89.8c0.2-0.8,0.3-1.6,0.5-2.4h2.4c0,0.3-0.1,0.9-0.2,1.2c0.4-0.6,1.3-1.4,2.8-1.4
							c1.8,0,2.9,1.1,2.3,3.9l-1.2,5.7H98l1.2-5.7c0.2-1.1,0-1.8-1.1-1.8c-1.2,0-2,0.9-2.3,2.7l-1,4.9h-2.5L93.8,89.8z"/>
						<path class="st0" d="M103.6,87.4h1.4l0.6-2.5h2.4l-0.5,2.5h1.8l-0.4,1.9H107l-1,4.7c-0.1,0.6-0.1,1,0.7,1c0.3,0,0.5,0,0.8-0.1
							l-0.4,1.8c-0.6,0.2-1.2,0.2-1.7,0.2c-1.9,0-2.3-1.1-1.9-2.8l1-4.8h-1.4L103.6,87.4z"/>
						<path class="st0" d="M115.2,87.4h2.5l-2,9.4h-2.5L115.2,87.4z M116,83.6h2.5l-0.5,2.3h-2.5L116,83.6z"/>
						<path class="st0" d="M119,87.4h1.4l0.6-2.5h2.4l-0.5,2.5h1.8l-0.4,1.9h-1.8l-1,4.7c-0.1,0.6-0.1,1,0.7,1c0.3,0,0.5,0,0.8-0.1
							l-0.4,1.8c-0.6,0.2-1.2,0.2-1.7,0.2c-1.9,0-2.3-1.1-1.9-2.8l1-4.8h-1.4L119,87.4z"/>
						<path class="st0" d="M123.6,98.8c1.2-1.8,2-4,2.3-5.1h2.5c-0.5,1.9-1.6,3.9-2.7,5.1H123.6z"/>
						<path class="st0" d="M137.1,87.4c0.1,3.1,0.1,5.8,0,6.9l0,0c0.4-1.1,0.9-2.2,3-6.9h2.3c0,4.7,0,6-0.1,7l0,0c0.4-1,1.1-2.9,3-7
							h2.6l-4.7,9.4h-2.6c-0.1-3.1-0.1-5-0.1-6.3l0,0c-0.4,1.2-1.2,2.9-2.8,6.3H135l-0.5-9.4H137.1z"/>
						<path class="st0" d="M150.4,92.7c0,0.2-0.1,0.4-0.1,0.6c0,1,0.4,1.8,1.5,1.8c1,0,1.4-0.5,1.8-1.1h2.6c-0.5,1.4-1.7,3-4.5,3
							c-2.5,0-3.8-1.6-3.8-3.8c0-2.5,1.4-5.9,5.1-5.9c2.8,0,3.7,1.7,3.7,3.6c0,0.8-0.1,1.3-0.2,1.8H150.4z M154.3,91.1
							c0-0.2,0-0.3,0-0.4c0-0.8-0.4-1.5-1.4-1.5c-1.1,0-1.8,0.7-2.1,1.9C150.7,91.1,154.3,91.1,154.3,91.1z"/>
						<path class="st0" d="M162,96.8l1.6-7.5h-1.3l0.4-1.9h1.3l0.2-0.9c0.4-1.9,1.5-3.1,3.4-3.1c0.4,0,1.1,0.1,1.3,0.1l-0.4,2
							c-0.1,0-0.4,0-0.6,0c-0.7,0-1.1,0.4-1.2,1.1l-0.2,0.9h1.6l-0.4,1.9H166l-1.6,7.5L162,96.8L162,96.8z"/>
						<path class="st0" d="M169.6,87.4h2.5l-2,9.4h-2.5L169.6,87.4z M170.4,83.6h2.5l-0.5,2.3h-2.5L170.4,83.6z"/>
						<path class="st0" d="M176,87.4c0.5,1.2,1,2.5,1.2,2.9l0,0c0.5-0.6,1.1-1.4,2.2-2.9h2.8l-3.9,4.6l2,4.8h-2.7
							c-0.5-1.2-1-2.5-1.2-2.9l0,0c-0.3,0.4-1.2,1.7-2.2,2.9h-2.8l3.9-4.8l-2-4.6H176L176,87.4z"/>
						<path class="st0" d="M188.4,87.4h2.5l-2,9.4h-2.5L188.4,87.4z M189.2,83.6h2.5l-0.5,2.3h-2.5L189.2,83.6z"/>
						<path class="st0" d="M192.2,87.4h1.4l0.6-2.5h2.4l-0.5,2.5h1.8l-0.4,1.9h-1.8l-1,4.7c-0.1,0.6-0.1,1,0.7,1
							c0.3,0,0.5,0,0.8-0.1l-0.4,1.8c-0.6,0.2-1.1,0.2-1.7,0.2c-1.9,0-2.3-1.1-1.9-2.8l1-4.8h-1.4L192.2,87.4z"/>
						<path class="st0" d="M198.6,96.8l0.6-3h2.4l-0.6,3H198.6z M199.8,92.3l0.9-5.8l0.5-2.2h2.6l-0.5,2.2l-1.5,5.8H199.8
							L199.8,92.3z"/>
					</g>
				</g>
			</g>
		</g>
	</g>
	<g>
		<g>
			<path class="st0" d="M260.6,19.9c0,0-0.1,0-0.1-0.1s-0.1-0.1-0.1-0.1V15c0-0.1,0-0.1,0.1-0.1l0.1-0.1h1.9c0.6,0,1,0.1,1.4,0.4
				c0.3,0.3,0.5,0.7,0.5,1.2c0,0.4-0.1,0.7-0.3,0.9c-0.2,0.2-0.4,0.4-0.7,0.5l1.1,1.8v0.1v0.1h-0.1h-0.7c-0.1,0-0.1,0-0.2-0.1
				s-0.1-0.1-0.1-0.1l-0.9-1.7h-1v1.7v0.1l-0.1,0.1h-0.8V19.9z M261.4,17.2h1c0.3,0,0.5-0.1,0.7-0.2c0.1-0.1,0.2-0.3,0.2-0.6
				c0-0.2-0.1-0.4-0.2-0.6c-0.1-0.1-0.4-0.2-0.7-0.2h-1V17.2z"/>
		</g>
		<path class="st0" d="M262.3,21.4c-2.2,0-4-1.8-4-4s1.8-4,4-4s4,1.8,4,4S264.5,21.4,262.3,21.4z M262.3,13.9
			c-1.9,0-3.5,1.6-3.5,3.5s1.6,3.5,3.5,3.5s3.5-1.6,3.5-3.5C265.8,15.4,264.2,13.9,262.3,13.9z"/>
	</g>
</g>
</svg>
