<svg id="Layer_1" data-name="Layer 1" xmlns="http://www.w3.org/2000/svg" viewBox="0 0 802 506"><defs><style>.cls-1{fill:#003564;}.cls-2{fill:#ed1b2e;}.cls-3{fill:#fcb330;}.cls-4{fill:#fff;}</style></defs><path d="M57.79,505.05A56.73,56.73,0,0,1,1,448.51v-391A56.73,56.73,0,0,1,57.79,1H744.21A56.73,56.73,0,0,1,801,57.49v391a56.73,56.73,0,0,1-56.79,56.54Z"/><path class="cls-1" d="M744.21,3.92H57.79A53.75,53.75,0,0,0,4,57.49v297h.24v.25H4v93.73a53.75,53.75,0,0,0,53.81,53.57H744.21A53.75,53.75,0,0,0,798,448.51v-391A53.75,53.75,0,0,0,744.21,3.92Z"/><path class="cls-2" d="M408.92,259.63c0,.36,0,.76,0,1.22H351.68c2.69-14.19,12-30.06,32-30.06C398.08,230.79,408.92,239.55,408.92,259.63Z"/><polygon class="cls-2" points="212.93 218.29 198.26 298.63 180.25 298.63 192.82 232.79 192.62 232.79 165.48 298.63 148.05 298.63 145.48 232.79 145.28 232.79 133.29 298.63 116.45 298.63 131.5 218.29 160.43 218.29 161.52 272.27 161.72 272.27 183.41 218.29 212.93 218.29"/><path class="cls-2" d="M267.56,253.28c0,10.41-5.05,25.27-7.25,45.2H244.18l.87-9.26-.22-.26v.26C240.66,296.84,233.3,300,225.62,300c-12.29,0-19.1-6.35-19.1-19.18,0-16.25,14-24.26,31.5-24.26,4,0,7.91.39,10.65.64a10.45,10.45,0,0,0,.23-2.66c0-5.62-5-7.8-9.86-8.4a46.56,46.56,0,0,0-17.8,1.08c-.85.24-4.37,1.1-4.7,2l5.24-14.64a54.27,54.27,0,0,1,21-3.81C256.36,230.79,267.56,237,267.56,253.28Z"/><path class="cls-2" d="M289.07,251.75c0,7.36,25.64,6.86,25.64,23.5,0,16.38-12.42,24.5-27.81,24.76A85.09,85.09,0,0,1,262,296.58L266,281a38.23,38.23,0,0,0,16.65,3.81c3.31,0,11.51-.39,11.51-5.84,0-9.4-24.5-4.58-24.5-26.42,0-15.5,16.18-21.72,30-21.72a61.83,61.83,0,0,1,19.72,3.94l-4.33,15A37.33,37.33,0,0,0,298.65,246C294.09,246,289.07,247.18,289.07,251.75Z"/><path class="cls-2" d="M337.49,267.1c-.84,4.9-1.57,8.17-1.57,11.31,0,4.4,2.4,7.28,6.15,7.28a7.45,7.45,0,0,0,1.79-.23c.35,2,.76,4.06,1.21,6.08H347l-1,7.22A63.39,63.39,0,0,1,334.36,300c-9.57,0-17.18-5.65-17.18-19.34,0-3.27.42-6.54,1.67-13.44l3.23-18.34,3-15.82,2.6-14.07,1-.34h15.48c-.56,2.84-1,5.68-1.44,8.57h2l-1.07,5.84h12.92l-2.3,15.82H340.71Z"/><path class="cls-2" d="M403.58,291.54l-.17,1.52a16,16,0,0,1-5.23,3.27A59.21,59.21,0,0,1,379,300c-8.93,0-15.86-3.22-20.62-8.47Z"/><polygon class="cls-2" points="426.79 291.54 425.66 298.63 408.49 298.63 409.61 291.54 426.79 291.54"/><path class="cls-2" d="M455.14,232.45l-3.91,20.23c-2.2-2.29-4.68-2.8-7.92-2.8-5.37,0-9.11,4.6-11.19,11H414.45l1.76-11.22c.86-5.73,1.63-11.33,2.1-17.31h15.94l-1.91,13.62h.18c2.77-7.76,8.31-15.15,15.36-15.15A15,15,0,0,1,455.14,232.45Z"/><path class="cls-2" d="M404.86,279.8l-.27,2.48H399.8l.52-.19A21.24,21.24,0,0,0,404.86,279.8Z"/><path class="cls-2" d="M407.56,272.07H368.71c.12,4.23,1.21,7.91,4.51,10.21h-20.3a36,36,0,0,1-2.1-12.17h57.07C407.79,270.79,407.68,271.46,407.56,272.07Z"/><path class="cls-2" d="M460.27,270.11q-.57,6.13-1.57,12.17H411.07L413,270.11Z"/><path class="cls-2" d="M461.07,253q0,3.94-.17,7.85h-9.54c.27-11.08,3.29-20.76,8.57-28.19q.39,3.36.63,6.76c.23,3.05.38,6.14.46,9.24C461.05,250.1,461.07,251.55,461.07,253Z"/><path class="cls-3" d="M408.89,260.85c-.11,2.43-.51,6.12-1,9.26H341.74c-.28-3.07-.5-6.16-.63-9.26Z"/><path class="cls-2" d="M425.66,298.63H408.49l1.12-7.09,1.46-9.26L413,270.11l1.46-9.26,1.76-11.22c.86-5.73,1.63-11.33,2.1-17.31h15.94l-1.91,13.62h.18c2.77-7.76,8.31-15.15,15.36-15.15a15,15,0,0,1,7.26,1.66l-3.91,20.23c-2.2-2.29-4.68-2.8-7.92-2.8-5.37,0-9.11,4.6-11.19,11h19.24c.27-11.08,3.29-20.76,8.57-28.19-.2-1.82-.44-3.63-.7-5.43H344.8l-1.07,5.84h12.92l-2.3,15.82H340.71l-3.22,18.21c-.84,4.9-1.57,8.17-1.57,11.31,0,4.4,2.4,7.28,6.15,7.28a7.45,7.45,0,0,0,1.79-.23,26.33,26.33,0,0,0,4.24-1.65L347,291.54l-1,7.22A63.39,63.39,0,0,1,334.36,300c-9.57,0-17.18-5.65-17.18-19.34,0-3.27.42-6.54,1.67-13.44l3.23-18.34,3-15.82,2.6-14.07,1-.34h15.48c0-.23.08-.45.13-.68H457.67q-1.2-6.16-2.83-12.18H347.17q1.26-4.68,2.77-9.25H452.07c-1.36-4.13-2.86-8.2-4.5-12.18H354.44q1.92-4.71,4.12-9.26h84.89q-3-6.23-6.41-12.18H365q2.71-4.71,5.71-9.25h60.65q-4.15-6.28-8.78-12.18H379.46q3.75-4.75,7.79-9.26h27.51A183.49,183.49,0,0,0,401,118.52a180.58,180.58,0,1,0,0,269q5.46-4.91,10.51-10.21h-21q-4.26-4.49-8.18-9.26h37.4q4.88-5.88,9.23-12.17H373.07q-3.17-4.53-6-9.26H435q3.62-5.94,6.76-12.18H360.29q-2.31-4.54-4.36-9.25h90.15c1.74-4,3.34-8,4.79-12.18H351.14q-1.62-4.56-3-9.26H453.85c1.17-4,2.21-8.06,3.09-12.17H426.79Zm-245.42,0,12.58-65.84h-.2l-27.14,65.84H148.05l-2.57-65.84h-.2l-12,65.84H116.45l15.06-80.34h28.92l1.09,54h.2l21.69-54h29.52l-14.67,80.34Zm63.94-.15.87-9.26-.22-.26v.26C240.66,296.84,233.3,300,225.62,300c-12.29,0-19.1-6.35-19.1-19.18,0-16.25,14-24.26,31.5-24.26,4,0,7.91.39,10.65.64a10.45,10.45,0,0,0,.23-2.66c0-5.62-5-7.8-9.86-8.4a46.56,46.56,0,0,0-17.8,1.08c-.85.24-4.37,1.1-4.7,2l5.24-14.64a54.27,54.27,0,0,1,21-3.81c13.61,0,24.81,6.22,24.81,22.49,0,10.41-5.05,25.27-7.25,45.2Zm70.53-23.23c0,16.38-12.42,24.5-27.81,24.76A85.09,85.09,0,0,1,262,296.58L266,281a38.23,38.23,0,0,0,16.65,3.81c3.31,0,11.51-.39,11.51-5.84,0-9.4-24.5-4.58-24.5-26.42,0-15.5,16.18-21.72,30-21.72a61.83,61.83,0,0,1,19.72,3.94l-4.33,15A37.33,37.33,0,0,0,298.65,246c-4.56,0-9.58,1.15-9.58,5.72C289.07,259.11,314.71,258.61,314.71,275.25Zm88.87,16.29-.17,1.52a16,16,0,0,1-5.23,3.27A59.21,59.21,0,0,1,379,300c-8.93,0-15.86-3.22-20.62-8.47a27.62,27.62,0,0,1-5.48-9.26,36,36,0,0,1-2.1-12.17h-9.08c-.28-3.07-.5-6.16-.63-9.26h10.57c2.69-14.19,12-30.06,32-30.06,14.42,0,25.26,8.76,25.26,28.84,0,.36,0,.76,0,1.22-.11,2.43-.51,6.12-1,9.26-.1.68-.21,1.35-.33,2H368.71c.12,4.23,1.21,7.91,4.51,10.21,2.25,1.57,5.52,2.49,10.23,2.49,0,0,8.84.21,16.35-2.49l.52-.19a21.24,21.24,0,0,0,4.54-2.29l-.27,2.48Z"/><path class="cls-3" d="M348.1,283.81,347,291.54h-1.95c-.45-2-.86-4-1.21-6.08A26.33,26.33,0,0,0,348.1,283.81Z"/><path class="cls-3" d="M404.59,282.28l-1,9.26H358.4a27.62,27.62,0,0,1-5.48-9.26h20.3c2.25,1.57,5.52,2.49,10.23,2.49,0,0,8.84.21,16.35-2.49Z"/><path class="cls-3" d="M702.1,253A180.58,180.58,0,0,1,401,387.48q5.46-4.91,10.51-10.21h-21q-4.26-4.49-8.18-9.26h37.4q4.88-5.88,9.23-12.17H373.07q-3.17-4.53-6-9.26H435q3.62-5.94,6.76-12.18H360.29q-2.31-4.54-4.36-9.25h90.15c1.74-4,3.34-8,4.79-12.18H351.14q-1.62-4.56-3-9.26H453.85c1.17-4,2.21-8.06,3.09-12.17H409.61l1.46-9.26H458.7q1-6,1.57-12.17H413l1.46-9.26H460.9q.17-3.9.17-7.85c0-1.45,0-2.9-.05-4.34-.08-3.1-.23-6.19-.46-9.24q-.24-3.4-.63-6.76c-.2-1.82-.44-3.63-.7-5.43H342.77c.41-2.89.88-5.73,1.44-8.57,0-.23.08-.45.13-.68H457.67q-1.2-6.16-2.83-12.18H347.17q1.26-4.68,2.77-9.25H452.07c-1.36-4.13-2.86-8.2-4.5-12.18H354.44q1.92-4.71,4.12-9.26h84.89q-3-6.23-6.41-12.18H365q2.71-4.71,5.71-9.25h60.65q-4.15-6.28-8.78-12.18H379.46q3.75-4.75,7.79-9.26h27.51A183.49,183.49,0,0,0,401,118.52,180.58,180.58,0,0,1,702.1,253Z"/><path class="cls-4" d="M183.41,218.29l-21.69,54h-.2l-1.09-54H131.51l-15.06,80.34h16.84l12-65.84h.2l2.57,65.84h17.43l27.14-65.84h.2l-12.58,65.84h18l14.67-80.34Z"/><path class="cls-4" d="M242.75,230.79a54.27,54.27,0,0,0-21,3.81l-5.24,14.64c.33-.91,3.85-1.77,4.7-2a46.56,46.56,0,0,1,17.8-1.08c4.84.6,9.86,2.78,9.86,8.4a10.45,10.45,0,0,1-.23,2.66c-2.74-.25-6.69-.64-10.65-.64-17.45,0-31.5,8-31.5,24.26,0,12.83,6.81,19.18,19.1,19.18,7.68,0,15-3.17,19.21-10.79V289l.22.26-.87,9.26h16.13c2.2-19.93,7.25-34.79,7.25-45.2C267.56,237,256.36,230.79,242.75,230.79Zm-10.87,54a6.72,6.72,0,0,1-6.7-6.61c0-5.84,6.92-9.77,16.36-9.39a27.3,27.3,0,0,1,5.26.37C245.39,278,240.34,284.77,231.88,284.77Z"/><path class="cls-4" d="M547.16,289.21l-.22-.25v.25c-4.17,7.62-11.53,10.8-19.21,10.8-12.3,0-19.11-6.35-19.11-19.18,0-16.25,14.06-24.26,31.51-24.26,4,0,7.91.39,10.65.64a11,11,0,0,0,.22-2.67c0-5.6-5-7.79-9.85-8.39a46.69,46.69,0,0,0-17.79,1.07c-.86.25-4.38,1.11-4.71,2l5.24-14.64a54.23,54.23,0,0,1,21-3.81c13.61,0,24.81,6.23,24.81,22.48,0,10.42-5,25.28-7.25,45.22H546.28ZM534,284.77c8.45,0,13.5-6.73,14.93-15.62a26.74,26.74,0,0,0-5.27-.38c-9.44-.38-16.36,3.55-16.36,9.4A6.72,6.72,0,0,0,534,284.77Z"/><path class="cls-4" d="M298.65,246a37.33,37.33,0,0,1,16.41,3.69l4.33-15a61.83,61.83,0,0,0-19.72-3.94c-13.79,0-30,6.22-30,21.72,0,21.84,24.5,17,24.5,26.42,0,5.45-8.2,5.84-11.51,5.84A38.23,38.23,0,0,1,266,281L262,296.58A85.09,85.09,0,0,0,286.9,300c15.39-.26,27.81-8.38,27.81-24.76,0-16.64-25.64-16.14-25.64-23.5C289.07,247.18,294.09,246,298.65,246Z"/><path class="cls-4" d="M340.71,248.89h13.64l2.3-15.82H343.73l1.07-5.84,1.57-8.57H328.73l-1,.34-2.6,14.07-3,15.82-3.23,18.34c-1.25,6.9-1.67,10.17-1.67,13.44,0,13.69,7.61,19.34,17.18,19.34A63.39,63.39,0,0,0,346,298.76l1-7.22,1.08-7.73a26.33,26.33,0,0,1-4.24,1.65,7.45,7.45,0,0,1-1.79.23c-3.75,0-6.15-2.88-6.15-7.28,0-3.14.73-6.41,1.57-11.31Z"/><path class="cls-4" d="M447.88,230.79c-7.05,0-12.59,7.39-15.36,15.15h-.18l1.91-13.62H418.31c-.47,6-1.24,11.58-2.1,17.31l-1.76,11.22L413,270.11l-1.92,12.17-1.46,9.26-1.12,7.09h17.17l1.13-7.09,1.48-9.26,1.93-12.17.33-2a38.21,38.21,0,0,1,1.59-7.23c2.08-6.37,5.82-11,11.19-11,3.24,0,5.72.51,7.92,2.8l3.91-20.23A15,15,0,0,0,447.88,230.79Z"/><path class="cls-4" d="M593.47,232.32l-1.91,13.62h.19c2.77-7.76,8.31-15.15,15.36-15.15a15.15,15.15,0,0,1,7.26,1.66l-3.92,20.23c-2.19-2.29-4.67-2.8-7.91-2.8-7.26,0-11.55,8.4-12.79,18.2l-4.86,30.55H567.71l7.73-49c.86-5.73,1.62-11.33,2.1-17.31Z"/><path class="cls-4" d="M494.64,232.79c5.62,0,11,.92,16.6,4.84l4.2-16.46c-3.63-1.62-10.79-4.26-23.57-4.26-13.93,0-24.93,5.91-31.94,15.75-5.28,7.43-8.3,17.11-8.57,28.19,0,.58,0,1.17,0,1.75a53.59,53.59,0,0,0,.51,7.51,41.09,41.09,0,0,0,3.55,12.17c5.25,11,15.46,17.73,29.7,17.73a54.25,54.25,0,0,0,17.75-3.11l1.91-17.26a32.12,32.12,0,0,1-16.89,4.49c-10.69,0-18.22-6.68-18.22-20.95C469.64,248,476.8,232.79,494.64,232.79Z"/><path class="cls-4" d="M657.67,218.65l-4.43,26.55H653c-2.73-6.84-9.11-11.73-18.32-11.73-18,0-26.71,19.42-26.71,40.29C608,288,616.3,300,627.64,300c10.12,0,14.47-4.52,19.13-11.6h.2l-1.42,10.13h16.7c.19-2.56.5-5.73,1.11-9.52l12.15-70.37Zm-22.14,64.51c-5.77,0-8.7-5.25-8.7-13.06,0-9.89,5.16-19.78,13.77-19.78,6.07,0,8.7,6.6,8.7,12.95C649.3,271.69,644.14,283.16,635.53,283.16Z"/><path class="cls-4" d="M383.66,230.79c-20,0-29.29,15.87-32,30.06a48.65,48.65,0,0,0-.87,8.94c0,.11,0,.21,0,.32a36,36,0,0,0,2.1,12.17,27.62,27.62,0,0,0,5.48,9.26c4.76,5.25,11.69,8.47,20.62,8.47a59.21,59.21,0,0,0,19.16-3.68,16,16,0,0,0,5.23-3.27l.17-1.52,1-9.26.27-2.48a21.24,21.24,0,0,1-4.54,2.29l-.52.19c-7.51,2.7-16.35,2.49-16.35,2.49-4.71,0-8-.92-10.23-2.49-3.3-2.3-4.39-6-4.51-10.21h38.85c.12-.61.23-1.28.33-2,.49-3.14.89-6.83,1-9.26,0-.46,0-.86,0-1.22C408.92,239.55,398.08,230.79,383.66,230.79Zm.2,15.24c7,0,9.27,6,9.27,13.09H369.87C371.23,252.77,375.66,246,383.86,246Z"/><path class="cls-4" d="M683.05,291.26h-2v3.91h-1.84V285h3.72a4.47,4.47,0,0,1,2.82.79,2.75,2.75,0,0,1,1,2.28,2.8,2.8,0,0,1-.51,1.71,3.23,3.23,0,0,1-1.42,1.06l2.37,4.23v.09h-2Zm-2-1.42h1.88a2.18,2.18,0,0,0,1.46-.45,1.56,1.56,0,0,0,.52-1.23,1.63,1.63,0,0,0-.48-1.26,2.12,2.12,0,0,0-1.44-.46H681Z"/><path class="cls-4" d="M682.73,298.25a8,8,0,1,1,8-8A8,8,0,0,1,682.73,298.25Zm0-15a7,7,0,1,0,6.95,7A7,7,0,0,0,682.73,283.27Z"/><path class="cls-3" d="M683.05,364.73h-2v3.9h-1.84V358.48h3.72a4.4,4.4,0,0,1,2.82.79,3.11,3.11,0,0,1,.48,4,3.16,3.16,0,0,1-1.42,1.06l2.37,4.23v.09h-2Zm-2-1.43h1.88a2.18,2.18,0,0,0,1.46-.45,1.56,1.56,0,0,0,.52-1.23,1.64,1.64,0,0,0-.48-1.26,2.12,2.12,0,0,0-1.44-.46H681Z"/><path class="cls-3" d="M682.73,371.71a8,8,0,1,1,8-8A8,8,0,0,1,682.73,371.71Zm0-15a6.95,6.95,0,1,0,6.95,6.95A7,7,0,0,0,682.73,356.73Z"/></svg>