<svg id="Layer_1" data-name="Layer 1" xmlns="http://www.w3.org/2000/svg" viewBox="0 0 802 506"><defs><style>.cls-1{fill:#325881;}.cls-2{fill:#fff;}.cls-3{fill:#dfa43b;}</style></defs><path class="cls-1" d="M746.79,1H55.21A54.28,54.28,0,0,0,1,55.17V355.74h.25V356H1v94.84a54.28,54.28,0,0,0,54.21,54.22H746.79A54.28,54.28,0,0,0,801,450.83V55.17A54.28,54.28,0,0,0,746.79,1ZM791,450.83a44.26,44.26,0,0,1-44.21,44.22H55.21A44.26,44.26,0,0,1,11,450.83V55.17A44.26,44.26,0,0,1,55.21,11H746.79A44.26,44.26,0,0,1,791,55.17Z"/><path class="cls-2" d="M746.79,11H55.21A44.26,44.26,0,0,0,11,55.17V450.83a44.26,44.26,0,0,0,44.21,44.22H746.79A44.26,44.26,0,0,0,791,450.83V55.17A44.26,44.26,0,0,0,746.79,11ZM768,450.83a21.25,21.25,0,0,1-21.22,21.23H55.21A21.25,21.25,0,0,1,34,450.83V355.74H768Zm0-300.89H34V55.17A21.25,21.25,0,0,1,55.21,33.94H746.79A21.25,21.25,0,0,1,768,55.17Z"/><path class="cls-1" d="M768,55.17v94.77H34V55.17A21.25,21.25,0,0,1,55.21,33.94H746.79A21.25,21.25,0,0,1,768,55.17Z"/><path class="cls-3" d="M768,355.74v95.09a21.25,21.25,0,0,1-21.22,21.23H55.21A21.25,21.25,0,0,1,34,450.83V355.74Z"/><path class="cls-1" d="M150.71,179c25.27,0,50.55.06,75.82-.06,4.16,0,3.85,2.42,3.93,5.2q1.47,51.07,3,102.17c0,.92.2,1.85.46,4.14,1.61-2.45,2.63-3.83,3.48-5.31,15.42-26.78,30.66-53.67,46.33-80.29,4.85-8.23,7.71-16.16,2.42-25.53H333.5c-.95,1.78-1.53,3.08-2.29,4.27q-46.5,71.76-93.1,143.45c-1,1.56-3.15,3.36-4.81,3.4-12.46.28-24.93.15-38,.15-.41-4.12-.91-8-1.17-11.92-2.4-36.29-4.67-72.6-7.19-108.89-.64-9.17-6.41-15.07-14.28-19-7.38-3.7-14.87-7.17-22.31-10.74Z"/><path class="cls-1" d="M586.43,179.32h43.93c.65,7.68,1.11,15,1.92,22.21,3.15,28,6.42,56.06,9.64,84.09,1.1,9.56,1.66,19.23,3.46,28.66,1,5.47,4,10.56,6.23,16H602.76c5.13-12.75-.26-25.31-.48-38-.06-3.41-1.77-4.49-5.07-4.46-12,.14-24-.05-35.93.18-1.78,0-4.44,1.2-5.17,2.63-4.52,8.84-8.93,17.78-12.69,27-1.54,3.77-1.39,8.23-2.07,12.8H504c13.83-25.06,27.8-50.07,41.46-75.25C559,230.19,573.62,205.76,586.43,179.32Zm8.75,37.57-1.46-.38c-8.66,16.64-17.33,33.27-26.21,50.33h32.08C598.09,249.86,596.63,233.38,595.18,216.89Z"/><path class="cls-1" d="M517.56,191.62c-1.19,6.73-2.58,13.48-4,20.55Z"/><path class="cls-1" d="M355.79,330.37H302.86C315,309.69,319,286.42,326.47,264.42s14.34-44.16,20.7-66.48c1.59-5.6.24-12,.24-18.51h51.41c-14.73,23.4-18.16,50.83-27.23,76.2-5.75,16.07-10,32.65-15.39,48.86A33.26,33.26,0,0,0,355,323,61.8,61.8,0,0,1,355.79,330.37Z"/><path class="cls-1" d="M518.94,184.49l-1.38,7.13-4,20.55c-8.77-4.2-16.84-8.43-25.2-12-7.7-3.26-15.72-5-24.29-3.49-13.9,2.53-19.4,16-10.44,27A75.71,75.71,0,0,0,466,235.21c7.35,5.7,15.07,10.93,22.63,16.37,24.17,17.36,25,45.77,2.57,65.12C465.72,338.62,437.61,338.78,408,328c-6.37-2.31-12.36-5.67-18.42-8.76l-3.25-1.63V290.59l0,.35v-.35c2.73,1.39,4.54,2.46,6.45,3.27,9.29,3.94,18.39,8.31,27.76,12.07,9,3.63,18.12,6.83,27.81,3.61,12.69-4.21,22.85-19,11.89-30.58A83.74,83.74,0,0,0,448.47,269c-8-5.74-16.12-11.16-24.2-16.71-13.16-9.06-20.88-29.59-17.07-45.05,4.58-18.58,25-29,42-33.52,22.65-6,46.81-1.43,67.29,9.43Z"/></svg>