<svg width="173" height="54" viewBox="0 0 173 54" fill="none" xmlns="http://www.w3.org/2000/svg">
<path d="M170.668 0H2.33247C1.10627 0 0.168792 1.09332 0.355883 2.30516L7.92414 51.3269C8.07322 52.2926 8.89818 53.0091 9.87518 53.0216L86.5 54L163.125 53.0216C164.102 53.0091 164.927 52.2926 165.076 51.3269L172.644 2.30516C172.831 1.09332 171.894 0 170.668 0Z" fill="url(#paint0_radial_1910_11)"/>
<path d="M28.9756 22C28.8556 22 28.7536 21.958 28.6696 21.874C28.5856 21.79 28.5436 21.688 28.5436 21.568V9.85C28.5436 9.718 28.5856 9.61 28.6696 9.526C28.7536 9.442 28.8556 9.4 28.9756 9.4H34.1956C35.1676 9.4 35.9596 9.55 36.5716 9.85C37.1836 10.138 37.6336 10.54 37.9216 11.056C38.2216 11.572 38.3716 12.172 38.3716 12.856C38.3716 13.312 38.2876 13.714 38.1196 14.062C37.9636 14.398 37.7656 14.674 37.5256 14.89C37.2976 15.106 37.0696 15.274 36.8416 15.394C37.3096 15.61 37.7236 15.97 38.0836 16.474C38.4436 16.978 38.6236 17.578 38.6236 18.274C38.6236 18.994 38.4616 19.636 38.1376 20.2C37.8136 20.764 37.3336 21.208 36.6976 21.532C36.0616 21.844 35.2756 22 34.3396 22H28.9756ZM31.0456 20.092H34.0516C34.6996 20.092 35.1916 19.918 35.5276 19.57C35.8636 19.21 36.0316 18.778 36.0316 18.274C36.0316 17.746 35.8576 17.308 35.5096 16.96C35.1736 16.612 34.6876 16.438 34.0516 16.438H31.0456V20.092ZM31.0456 14.566H33.8716C34.5076 14.566 34.9816 14.416 35.2936 14.116C35.6176 13.804 35.7796 13.402 35.7796 12.91C35.7796 12.406 35.6176 12.016 35.2936 11.74C34.9816 11.452 34.5076 11.308 33.8716 11.308H31.0456V14.566ZM45.7255 22.18C44.6575 22.18 43.7395 22.006 42.9715 21.658C42.2035 21.298 41.6035 20.752 41.1715 20.02C40.7395 19.276 40.5055 18.352 40.4695 17.248C40.4575 16.732 40.4515 16.222 40.4515 15.718C40.4515 15.214 40.4575 14.698 40.4695 14.17C40.5055 13.078 40.7455 12.166 41.1895 11.434C41.6335 10.702 42.2395 10.15 43.0075 9.778C43.7875 9.406 44.6935 9.22 45.7255 9.22C46.7575 9.22 47.6635 9.406 48.4435 9.778C49.2235 10.15 49.8355 10.702 50.2795 11.434C50.7235 12.166 50.9635 13.078 50.9995 14.17C51.0235 14.698 51.0355 15.214 51.0355 15.718C51.0355 16.222 51.0235 16.732 50.9995 17.248C50.9635 18.352 50.7295 19.276 50.2975 20.02C49.8655 20.752 49.2595 21.298 48.4795 21.658C47.7115 22.006 46.7935 22.18 45.7255 22.18ZM45.7255 20.11C46.5055 20.11 47.1415 19.882 47.6335 19.426C48.1255 18.958 48.3895 18.202 48.4255 17.158C48.4495 16.63 48.4615 16.144 48.4615 15.7C48.4615 15.244 48.4495 14.758 48.4255 14.242C48.4015 13.546 48.2695 12.982 48.0295 12.55C47.8015 12.106 47.4895 11.788 47.0935 11.596C46.6975 11.392 46.2415 11.29 45.7255 11.29C45.2215 11.29 44.7715 11.392 44.3755 11.596C43.9795 11.788 43.6615 12.106 43.4215 12.55C43.1935 12.982 43.0675 13.546 43.0435 14.242C43.0315 14.758 43.0255 15.244 43.0255 15.7C43.0255 16.144 43.0315 16.63 43.0435 17.158C43.0795 18.202 43.3435 18.958 43.8355 19.426C44.3275 19.882 44.9575 20.11 45.7255 20.11ZM58.2411 22.18C57.1731 22.18 56.2551 22.006 55.4871 21.658C54.7191 21.298 54.1191 20.752 53.6871 20.02C53.2551 19.276 53.0211 18.352 52.9851 17.248C52.9731 16.732 52.9671 16.222 52.9671 15.718C52.9671 15.214 52.9731 14.698 52.9851 14.17C53.0211 13.078 53.2611 12.166 53.7051 11.434C54.1491 10.702 54.7551 10.15 55.5231 9.778C56.3031 9.406 57.2091 9.22 58.2411 9.22C59.2731 9.22 60.1791 9.406 60.9591 9.778C61.7391 10.15 62.3511 10.702 62.7951 11.434C63.2391 12.166 63.4791 13.078 63.5151 14.17C63.5391 14.698 63.5511 15.214 63.5511 15.718C63.5511 16.222 63.5391 16.732 63.5151 17.248C63.4791 18.352 63.2451 19.276 62.8131 20.02C62.3811 20.752 61.7751 21.298 60.9951 21.658C60.2271 22.006 59.3091 22.18 58.2411 22.18ZM58.2411 20.11C59.0211 20.11 59.6571 19.882 60.1491 19.426C60.6411 18.958 60.9051 18.202 60.9411 17.158C60.9651 16.63 60.9771 16.144 60.9771 15.7C60.9771 15.244 60.9651 14.758 60.9411 14.242C60.9171 13.546 60.7851 12.982 60.5451 12.55C60.3171 12.106 60.0051 11.788 59.6091 11.596C59.2131 11.392 58.7571 11.29 58.2411 11.29C57.7371 11.29 57.2871 11.392 56.8911 11.596C56.4951 11.788 56.1771 12.106 55.9371 12.55C55.7091 12.982 55.5831 13.546 55.5591 14.242C55.5471 14.758 55.5411 15.244 55.5411 15.7C55.5411 16.144 55.5471 16.63 55.5591 17.158C55.5951 18.202 55.8591 18.958 56.3511 19.426C56.8431 19.882 57.4731 20.11 58.2411 20.11ZM66.3467 22C66.2267 22 66.1247 21.958 66.0407 21.874C65.9567 21.79 65.9147 21.688 65.9147 21.568V9.85C65.9147 9.718 65.9567 9.61 66.0407 9.526C66.1247 9.442 66.2267 9.4 66.3467 9.4H67.9307C68.0627 9.4 68.1707 9.442 68.2547 9.526C68.3387 9.61 68.3807 9.718 68.3807 9.85V14.062L72.4487 9.724C72.4967 9.664 72.5747 9.598 72.6827 9.526C72.8027 9.442 72.9587 9.4 73.1507 9.4H74.9327C75.0287 9.4 75.1127 9.436 75.1847 9.508C75.2687 9.58 75.3107 9.67 75.3107 9.778C75.3107 9.862 75.2867 9.934 75.2387 9.994L70.2887 15.43L75.5807 21.388C75.6407 21.46 75.6707 21.538 75.6707 21.622C75.6707 21.73 75.6287 21.82 75.5447 21.892C75.4727 21.964 75.3887 22 75.2927 22H73.4387C73.2347 22 73.0727 21.958 72.9527 21.874C72.8447 21.778 72.7727 21.712 72.7367 21.676L68.3807 16.906V21.568C68.3807 21.688 68.3387 21.79 68.2547 21.874C68.1707 21.958 68.0627 22 67.9307 22H66.3467ZM86.12 22.18C85.052 22.18 84.134 22.006 83.366 21.658C82.598 21.298 81.998 20.752 81.566 20.02C81.134 19.276 80.9 18.352 80.864 17.248C80.852 16.732 80.846 16.222 80.846 15.718C80.846 15.214 80.852 14.698 80.864 14.17C80.9 13.078 81.14 12.166 81.584 11.434C82.028 10.702 82.634 10.15 83.402 9.778C84.182 9.406 85.088 9.22 86.12 9.22C87.152 9.22 88.058 9.406 88.838 9.778C89.618 10.15 90.23 10.702 90.674 11.434C91.118 12.166 91.358 13.078 91.394 14.17C91.418 14.698 91.43 15.214 91.43 15.718C91.43 16.222 91.418 16.732 91.394 17.248C91.358 18.352 91.124 19.276 90.692 20.02C90.26 20.752 89.654 21.298 88.874 21.658C88.106 22.006 87.188 22.18 86.12 22.18ZM86.12 20.11C86.9 20.11 87.536 19.882 88.028 19.426C88.52 18.958 88.784 18.202 88.82 17.158C88.844 16.63 88.856 16.144 88.856 15.7C88.856 15.244 88.844 14.758 88.82 14.242C88.796 13.546 88.664 12.982 88.424 12.55C88.196 12.106 87.884 11.788 87.488 11.596C87.092 11.392 86.636 11.29 86.12 11.29C85.616 11.29 85.166 11.392 84.77 11.596C84.374 11.788 84.056 12.106 83.816 12.55C83.588 12.982 83.462 13.546 83.438 14.242C83.426 14.758 83.42 15.244 83.42 15.7C83.42 16.144 83.426 16.63 83.438 17.158C83.474 18.202 83.738 18.958 84.23 19.426C84.722 19.882 85.352 20.11 86.12 20.11ZM94.2256 22C94.1056 22 94.0036 21.958 93.9196 21.874C93.8356 21.79 93.7936 21.688 93.7936 21.568V9.85C93.7936 9.718 93.8356 9.61 93.9196 9.526C94.0036 9.442 94.1056 9.4 94.2256 9.4H95.6116C95.7796 9.4 95.8996 9.442 95.9716 9.526C96.0556 9.598 96.1096 9.652 96.1336 9.688L101.318 17.752V9.85C101.318 9.718 101.354 9.61 101.426 9.526C101.51 9.442 101.618 9.4 101.75 9.4H103.262C103.394 9.4 103.502 9.442 103.586 9.526C103.67 9.61 103.712 9.718 103.712 9.85V21.55C103.712 21.682 103.67 21.79 103.586 21.874C103.502 21.958 103.4 22 103.28 22H101.876C101.708 22 101.588 21.958 101.516 21.874C101.444 21.79 101.39 21.736 101.354 21.712L96.1876 13.828V21.568C96.1876 21.688 96.1456 21.79 96.0616 21.874C95.9776 21.958 95.8696 22 95.7376 22H94.2256ZM106.952 22C106.832 22 106.73 21.958 106.646 21.874C106.562 21.79 106.52 21.688 106.52 21.568V9.832C106.52 9.712 106.562 9.61 106.646 9.526C106.73 9.442 106.832 9.4 106.952 9.4H108.626C108.746 9.4 108.848 9.442 108.932 9.526C109.016 9.61 109.058 9.712 109.058 9.832V19.858H114.764C114.896 19.858 115.004 19.9 115.088 19.984C115.172 20.068 115.214 20.176 115.214 20.308V21.568C115.214 21.688 115.172 21.79 115.088 21.874C115.004 21.958 114.896 22 114.764 22H106.952ZM117.394 22C117.274 22 117.172 21.958 117.088 21.874C117.004 21.79 116.962 21.688 116.962 21.568V9.832C116.962 9.712 117.004 9.61 117.088 9.526C117.172 9.442 117.274 9.4 117.394 9.4H119.086C119.218 9.4 119.32 9.442 119.392 9.526C119.476 9.61 119.518 9.712 119.518 9.832V21.568C119.518 21.688 119.476 21.79 119.392 21.874C119.32 21.958 119.218 22 119.086 22H117.394ZM122.773 22C122.653 22 122.551 21.958 122.467 21.874C122.383 21.79 122.341 21.688 122.341 21.568V9.85C122.341 9.718 122.383 9.61 122.467 9.526C122.551 9.442 122.653 9.4 122.773 9.4H124.159C124.327 9.4 124.447 9.442 124.519 9.526C124.603 9.598 124.657 9.652 124.681 9.688L129.865 17.752V9.85C129.865 9.718 129.901 9.61 129.973 9.526C130.057 9.442 130.165 9.4 130.297 9.4H131.809C131.941 9.4 132.049 9.442 132.133 9.526C132.217 9.61 132.259 9.718 132.259 9.85V21.55C132.259 21.682 132.217 21.79 132.133 21.874C132.049 21.958 131.947 22 131.827 22H130.423C130.255 22 130.135 21.958 130.063 21.874C129.991 21.79 129.937 21.736 129.901 21.712L124.735 13.828V21.568C124.735 21.688 124.693 21.79 124.609 21.874C124.525 21.958 124.417 22 124.285 22H122.773ZM135.499 22C135.379 22 135.277 21.958 135.193 21.874C135.109 21.79 135.067 21.688 135.067 21.568V9.85C135.067 9.718 135.109 9.61 135.193 9.526C135.277 9.442 135.379 9.4 135.499 9.4H143.419C143.551 9.4 143.659 9.442 143.743 9.526C143.827 9.61 143.869 9.718 143.869 9.85V11.038C143.869 11.158 143.827 11.26 143.743 11.344C143.659 11.428 143.551 11.47 143.419 11.47H137.497V14.656H143.023C143.155 14.656 143.263 14.698 143.347 14.782C143.431 14.854 143.473 14.956 143.473 15.088V16.204C143.473 16.336 143.431 16.444 143.347 16.528C143.263 16.6 143.155 16.636 143.023 16.636H137.497V19.93H143.563C143.695 19.93 143.803 19.972 143.887 20.056C143.971 20.14 144.013 20.248 144.013 20.38V21.568C144.013 21.688 143.971 21.79 143.887 21.874C143.803 21.958 143.695 22 143.563 22H135.499Z" fill="white"/>
<path d="M14.7557 44C14.665 44 14.5857 43.966 14.5177 43.898C14.4497 43.83 14.4157 43.7507 14.4157 43.66C14.4157 43.6033 14.4214 43.541 14.4327 43.473L18.6487 32.474C18.694 32.3607 18.7564 32.27 18.8357 32.202C18.915 32.134 19.034 32.1 19.1927 32.1H20.3487C20.496 32.1 20.6094 32.134 20.6887 32.202C20.7794 32.27 20.8474 32.3607 20.8927 32.474L25.0917 43.473C25.1144 43.541 25.1257 43.6033 25.1257 43.66C25.1257 43.7507 25.0917 43.83 25.0237 43.898C24.9557 43.966 24.8764 44 24.7857 44H23.9187C23.7827 44 23.6807 43.966 23.6127 43.898C23.556 43.83 23.5164 43.7677 23.4937 43.711L22.5587 41.297H16.9827L16.0477 43.711C16.0364 43.7677 15.9967 43.83 15.9287 43.898C15.8607 43.966 15.7587 44 15.6227 44H14.7557ZM17.4757 39.835H22.0657L19.7707 33.8L17.4757 39.835ZM27.3344 44C27.2097 44 27.1134 43.966 27.0454 43.898C26.9774 43.8187 26.9434 43.7223 26.9434 43.609V32.508C26.9434 32.3833 26.9774 32.287 27.0454 32.219C27.1134 32.1397 27.2097 32.1 27.3344 32.1H28.1164C28.2524 32.1 28.3544 32.134 28.4224 32.202C28.4904 32.2587 28.53 32.304 28.5414 32.338L34.1854 41.008V32.508C34.1854 32.3833 34.2194 32.287 34.2874 32.219C34.3554 32.1397 34.4517 32.1 34.5764 32.1H35.3924C35.517 32.1 35.6134 32.1397 35.6814 32.219C35.7607 32.287 35.8004 32.3833 35.8004 32.508V43.592C35.8004 43.7053 35.7607 43.8017 35.6814 43.881C35.6134 43.9603 35.5227 44 35.4094 44H34.5934C34.4687 44 34.3724 43.966 34.3044 43.898C34.2477 43.83 34.208 43.7847 34.1854 43.762L28.5584 35.177V43.609C28.5584 43.7223 28.5187 43.8187 28.4394 43.898C28.3714 43.966 28.275 44 28.1504 44H27.3344ZM39.1381 44C39.0134 44 38.9171 43.966 38.8491 43.898C38.7811 43.8187 38.7471 43.7223 38.7471 43.609V32.508C38.7471 32.3833 38.7811 32.287 38.8491 32.219C38.9171 32.1397 39.0134 32.1 39.1381 32.1H42.9971C44.1644 32.1 45.1051 32.2757 45.8191 32.627C46.5331 32.9783 47.0544 33.4997 47.3831 34.191C47.7117 34.871 47.8817 35.7097 47.8931 36.707C47.9044 37.217 47.9101 37.6647 47.9101 38.05C47.9101 38.4353 47.9044 38.8773 47.8931 39.376C47.8704 40.4187 47.6947 41.2857 47.3661 41.977C47.0487 42.657 46.5387 43.167 45.8361 43.507C45.1447 43.8357 44.2267 44 43.0821 44H39.1381ZM40.4131 42.555H42.9971C43.7791 42.555 44.4024 42.4473 44.8671 42.232C45.3317 42.0167 45.6661 41.671 45.8701 41.195C46.0854 40.719 46.1987 40.09 46.2101 39.308C46.2327 38.968 46.2441 38.6733 46.2441 38.424C46.2441 38.1633 46.2441 37.9083 46.2441 37.659C46.2441 37.3983 46.2327 37.1037 46.2101 36.775C46.1874 35.6757 45.9267 34.8653 45.4281 34.344C44.9294 33.8113 44.0907 33.545 42.9121 33.545H40.4131V42.555ZM58.9528 44.17C57.9554 44.17 57.1054 43.983 56.4028 43.609C55.7114 43.235 55.1788 42.708 54.8048 42.028C54.4421 41.348 54.2381 40.549 54.1928 39.631C54.1814 39.1323 54.1758 38.6053 54.1758 38.05C54.1758 37.4833 54.1814 36.945 54.1928 36.435C54.2381 35.517 54.4421 34.7237 54.8048 34.055C55.1788 33.3863 55.7171 32.865 56.4198 32.491C57.1224 32.117 57.9668 31.93 58.9528 31.93C59.7574 31.93 60.4544 32.0433 61.0438 32.27C61.6331 32.4967 62.1148 32.7857 62.4888 33.137C62.8741 33.477 63.1574 33.834 63.3388 34.208C63.5314 34.582 63.6334 34.9107 63.6448 35.194C63.6561 35.296 63.6278 35.381 63.5598 35.449C63.4918 35.5057 63.4011 35.534 63.2878 35.534H62.2848C62.1714 35.534 62.0864 35.5113 62.0298 35.466C61.9844 35.4207 61.9391 35.3413 61.8938 35.228C61.7918 34.9333 61.6218 34.6443 61.3838 34.361C61.1571 34.0777 60.8454 33.8453 60.4488 33.664C60.0634 33.4713 59.5648 33.375 58.9528 33.375C58.0574 33.375 57.3321 33.6187 56.7768 34.106C56.2328 34.5933 55.9381 35.398 55.8928 36.52C55.8588 37.5287 55.8588 38.5373 55.8928 39.546C55.9381 40.6793 56.2384 41.4953 56.7938 41.994C57.3491 42.4813 58.0744 42.725 58.9698 42.725C59.5704 42.725 60.1031 42.6173 60.5678 42.402C61.0438 42.1753 61.4178 41.8297 61.6898 41.365C61.9618 40.9003 62.0978 40.311 62.0978 39.597V38.883H59.5478C59.4344 38.883 59.3381 38.849 59.2588 38.781C59.1908 38.7017 59.1568 38.5997 59.1568 38.475V37.931C59.1568 37.8063 59.1908 37.71 59.2588 37.642C59.3381 37.5627 59.4344 37.523 59.5478 37.523H63.3898C63.5144 37.523 63.6108 37.5627 63.6788 37.642C63.7468 37.71 63.7808 37.8063 63.7808 37.931V39.563C63.7808 40.4923 63.5881 41.3027 63.2028 41.994C62.8288 42.6853 62.2791 43.2237 61.5538 43.609C60.8284 43.983 59.9614 44.17 58.9528 44.17ZM66.5971 44C66.4724 44 66.3761 43.966 66.3081 43.898C66.2401 43.8187 66.2061 43.7223 66.2061 43.609V32.508C66.2061 32.3833 66.2401 32.287 66.3081 32.219C66.3761 32.1397 66.4724 32.1 66.5971 32.1H73.6181C73.7427 32.1 73.8391 32.1397 73.9071 32.219C73.9751 32.287 74.0091 32.3833 74.0091 32.508V33.154C74.0091 33.2787 73.9751 33.375 73.9071 33.443C73.8391 33.511 73.7427 33.545 73.6181 33.545H67.8381V37.268H73.2441C73.3687 37.268 73.4651 37.3077 73.5331 37.387C73.6011 37.455 73.6351 37.5513 73.6351 37.676V38.305C73.6351 38.4183 73.6011 38.5147 73.5331 38.594C73.4651 38.662 73.3687 38.696 73.2441 38.696H67.8381V42.555H73.7541C73.8787 42.555 73.9751 42.589 74.0431 42.657C74.1111 42.725 74.1451 42.8213 74.1451 42.946V43.609C74.1451 43.7223 74.1111 43.8187 74.0431 43.898C73.9751 43.966 73.8787 44 73.7541 44H66.5971ZM79.5076 44C79.3943 44 79.298 43.966 79.2186 43.898C79.1506 43.8187 79.1166 43.7223 79.1166 43.609V33.613H75.8526C75.7393 33.613 75.643 33.579 75.5636 33.511C75.4956 33.4317 75.4616 33.3353 75.4616 33.222V32.508C75.4616 32.3833 75.4956 32.287 75.5636 32.219C75.643 32.1397 75.7393 32.1 75.8526 32.1H84.0466C84.1713 32.1 84.2676 32.1397 84.3356 32.219C84.415 32.287 84.4546 32.3833 84.4546 32.508V33.222C84.4546 33.3353 84.415 33.4317 84.3356 33.511C84.2676 33.579 84.1713 33.613 84.0466 33.613H80.7996V43.609C80.7996 43.7223 80.76 43.8187 80.6806 43.898C80.6126 43.966 80.5163 44 80.3916 44H79.5076ZM93.2095 44C93.0962 44 92.9942 43.9603 92.9035 43.881C92.8242 43.8017 92.7845 43.6997 92.7845 43.575V35.483L90.4555 37.268C90.3535 37.3473 90.2458 37.3757 90.1325 37.353C90.0305 37.3303 89.9398 37.268 89.8605 37.166L88.8575 35.857C88.7895 35.755 88.7612 35.6473 88.7725 35.534C88.7952 35.4093 88.8632 35.313 88.9765 35.245L92.8865 32.219C92.9545 32.1737 93.0168 32.1453 93.0735 32.134C93.1415 32.1113 93.2152 32.1 93.2945 32.1H95.4195C95.5328 32.1 95.6292 32.1397 95.7085 32.219C95.7992 32.2983 95.8445 32.4003 95.8445 32.525V43.575C95.8445 43.6997 95.7992 43.8017 95.7085 43.881C95.6292 43.9603 95.5328 44 95.4195 44H93.2095ZM102.714 44.17C101.898 44.17 101.189 44.0567 100.589 43.83C99.988 43.592 99.4894 43.269 99.0927 42.861C98.7074 42.453 98.4127 41.977 98.2087 41.433C98.0047 40.889 97.8857 40.3053 97.8517 39.682C97.8404 39.376 97.829 39.0303 97.8177 38.645C97.8177 38.2483 97.8177 37.8517 97.8177 37.455C97.829 37.047 97.8404 36.6843 97.8517 36.367C97.8857 35.7437 98.0047 35.1657 98.2087 34.633C98.424 34.089 98.73 33.6187 99.1267 33.222C99.5347 32.814 100.033 32.4967 100.623 32.27C101.223 32.0433 101.92 31.93 102.714 31.93C103.518 31.93 104.215 32.0433 104.805 32.27C105.394 32.4967 105.887 32.814 106.284 33.222C106.692 33.6187 107.003 34.089 107.219 34.633C107.434 35.1657 107.553 35.7437 107.576 36.367C107.598 36.6843 107.61 37.047 107.61 37.455C107.621 37.8517 107.621 38.2483 107.61 38.645C107.61 39.0303 107.598 39.376 107.576 39.682C107.553 40.3053 107.434 40.889 107.219 41.433C107.015 41.977 106.714 42.453 106.318 42.861C105.932 43.269 105.439 43.592 104.839 43.83C104.249 44.0567 103.541 44.17 102.714 44.17ZM102.714 41.705C103.303 41.705 103.728 41.518 103.989 41.144C104.261 40.7587 104.402 40.243 104.414 39.597C104.436 39.2683 104.448 38.9227 104.448 38.56C104.459 38.1973 104.459 37.8347 104.448 37.472C104.448 37.1093 104.436 36.775 104.414 36.469C104.402 35.8457 104.261 35.3413 103.989 34.956C103.728 34.5707 103.303 34.3723 102.714 34.361C102.124 34.3723 101.699 34.5707 101.439 34.956C101.178 35.3413 101.036 35.8457 101.014 36.469C101.002 36.775 100.991 37.1093 100.98 37.472C100.98 37.8347 100.98 38.1973 100.98 38.56C100.991 38.9227 101.002 39.2683 101.014 39.597C101.036 40.243 101.184 40.7587 101.456 41.144C101.728 41.518 102.147 41.705 102.714 41.705ZM110.409 44C110.149 44 110.018 43.8867 110.018 43.66C110.018 43.592 110.041 43.5297 110.086 43.473L118.484 32.423C118.564 32.321 118.643 32.2417 118.722 32.185C118.802 32.1283 118.921 32.1 119.079 32.1H120.286C120.547 32.1 120.677 32.2133 120.677 32.44C120.677 32.508 120.655 32.5703 120.609 32.627L112.211 43.677C112.132 43.779 112.053 43.8583 111.973 43.915C111.894 43.9717 111.775 44 111.616 44H110.409ZM118.96 44.085C118.19 44.085 117.572 43.881 117.107 43.473C116.654 43.065 116.399 42.521 116.342 41.841C116.331 41.5463 116.325 41.2857 116.325 41.059C116.325 40.8323 116.331 40.5603 116.342 40.243C116.388 39.5517 116.631 39.002 117.073 38.594C117.527 38.1747 118.156 37.965 118.96 37.965C119.776 37.965 120.405 38.1747 120.847 38.594C121.289 39.002 121.533 39.5517 121.578 40.243C121.601 40.5603 121.612 40.8323 121.612 41.059C121.612 41.2857 121.601 41.5463 121.578 41.841C121.533 42.521 121.278 43.065 120.813 43.473C120.349 43.881 119.731 44.085 118.96 44.085ZM118.96 42.589C119.153 42.589 119.3 42.5493 119.402 42.47C119.516 42.3907 119.601 42.2887 119.657 42.164C119.714 42.028 119.742 41.8863 119.742 41.739C119.765 41.4783 119.776 41.2403 119.776 41.025C119.776 40.8097 119.765 40.5773 119.742 40.328C119.731 40.1127 119.669 39.92 119.555 39.75C119.442 39.5687 119.244 39.478 118.96 39.478C118.677 39.478 118.479 39.5687 118.365 39.75C118.252 39.92 118.19 40.1127 118.178 40.328C118.167 40.5773 118.161 40.8097 118.161 41.025C118.161 41.2403 118.167 41.4783 118.178 41.739C118.19 41.8863 118.218 42.028 118.263 42.164C118.32 42.2887 118.405 42.3907 118.518 42.47C118.632 42.5493 118.779 42.589 118.96 42.589ZM111.769 38.101C110.987 38.101 110.364 37.9027 109.899 37.506C109.446 37.098 109.197 36.554 109.151 35.874C109.129 35.5793 109.117 35.3243 109.117 35.109C109.129 34.8823 109.14 34.6103 109.151 34.293C109.185 33.6017 109.423 33.052 109.865 32.644C110.319 32.2247 110.953 32.015 111.769 32.015C112.585 32.015 113.214 32.2247 113.656 32.644C114.098 33.052 114.336 33.6017 114.37 34.293C114.393 34.6103 114.404 34.8823 114.404 35.109C114.404 35.3243 114.393 35.5793 114.37 35.874C114.336 36.554 114.087 37.098 113.622 37.506C113.158 37.9027 112.54 38.101 111.769 38.101ZM111.769 36.639C111.951 36.639 112.098 36.5993 112.211 36.52C112.325 36.4293 112.41 36.3217 112.466 36.197C112.523 36.061 112.551 35.925 112.551 35.789C112.574 35.5283 112.585 35.2903 112.585 35.075C112.585 34.8597 112.574 34.6273 112.551 34.378C112.54 34.1627 112.472 33.97 112.347 33.8C112.234 33.6187 112.041 33.528 111.769 33.528C111.486 33.528 111.282 33.6187 111.157 33.8C111.044 33.97 110.982 34.1627 110.97 34.378C110.959 34.6273 110.953 34.8597 110.953 35.075C110.953 35.2903 110.959 35.5283 110.97 35.789C110.982 35.925 111.01 36.061 111.055 36.197C111.112 36.3217 111.197 36.4293 111.31 36.52C111.424 36.5993 111.577 36.639 111.769 36.639ZM131.889 44.17C130.847 44.17 129.94 44 129.169 43.66C128.399 43.32 127.798 42.81 127.367 42.13C126.937 41.4387 126.699 40.5773 126.653 39.546C126.642 39.0587 126.636 38.5713 126.636 38.084C126.636 37.5967 126.642 37.1037 126.653 36.605C126.699 35.585 126.937 34.7293 127.367 34.038C127.809 33.3353 128.416 32.8083 129.186 32.457C129.957 32.1057 130.858 31.93 131.889 31.93C132.909 31.93 133.805 32.1057 134.575 32.457C135.357 32.8083 135.969 33.3353 136.411 34.038C136.853 34.7293 137.091 35.585 137.125 36.605C137.148 37.1037 137.159 37.5967 137.159 38.084C137.159 38.5713 137.148 39.0587 137.125 39.546C137.08 40.5773 136.842 41.4387 136.411 42.13C135.981 42.81 135.38 43.32 134.609 43.66C133.839 44 132.932 44.17 131.889 44.17ZM131.889 41.722C132.49 41.722 132.977 41.5407 133.351 41.178C133.737 40.8153 133.941 40.2373 133.963 39.444C133.986 38.9453 133.997 38.475 133.997 38.033C133.997 37.591 133.986 37.132 133.963 36.656C133.941 36.1233 133.839 35.6927 133.657 35.364C133.487 35.024 133.249 34.7747 132.943 34.616C132.637 34.4573 132.286 34.378 131.889 34.378C131.504 34.378 131.158 34.4573 130.852 34.616C130.546 34.7747 130.303 35.024 130.121 35.364C129.94 35.6927 129.838 36.1233 129.815 36.656C129.804 37.132 129.798 37.591 129.798 38.033C129.798 38.475 129.804 38.9453 129.815 39.444C129.849 40.2373 130.053 40.8153 130.427 41.178C130.801 41.5407 131.289 41.722 131.889 41.722ZM139.555 44C139.43 44 139.328 43.9603 139.249 43.881C139.17 43.8017 139.13 43.6997 139.13 43.575V32.525C139.13 32.4003 139.17 32.2983 139.249 32.219C139.328 32.1397 139.43 32.1 139.555 32.1H147.358C147.483 32.1 147.585 32.1397 147.664 32.219C147.755 32.2983 147.8 32.4003 147.8 32.525V34.242C147.8 34.3667 147.755 34.4687 147.664 34.548C147.585 34.6273 147.483 34.667 147.358 34.667H142.122V37.166H147.018C147.143 37.166 147.245 37.2113 147.324 37.302C147.415 37.3813 147.46 37.4833 147.46 37.608V39.308C147.46 39.4213 147.415 39.5233 147.324 39.614C147.245 39.6933 147.143 39.733 147.018 39.733H142.122V43.575C142.122 43.6997 142.082 43.8017 142.003 43.881C141.924 43.9603 141.822 44 141.697 44H139.555ZM150.047 44C149.922 44 149.82 43.9603 149.741 43.881C149.662 43.8017 149.622 43.6997 149.622 43.575V32.525C149.622 32.4003 149.662 32.2983 149.741 32.219C149.82 32.1397 149.922 32.1 150.047 32.1H157.85C157.975 32.1 158.077 32.1397 158.156 32.219C158.247 32.2983 158.292 32.4003 158.292 32.525V34.242C158.292 34.3667 158.247 34.4687 158.156 34.548C158.077 34.6273 157.975 34.667 157.85 34.667H152.614V37.166H157.51C157.635 37.166 157.737 37.2113 157.816 37.302C157.907 37.3813 157.952 37.4833 157.952 37.608V39.308C157.952 39.4213 157.907 39.5233 157.816 39.614C157.737 39.6933 157.635 39.733 157.51 39.733H152.614V43.575C152.614 43.6997 152.574 43.8017 152.495 43.881C152.416 43.9603 152.314 44 152.189 44H150.047Z" fill="#FFFF00"/>
<defs>
<radialGradient id="paint0_radial_1910_11" cx="0" cy="0" r="1" gradientUnits="userSpaceOnUse" gradientTransform="translate(86.5 26.9991) scale(67.1486 46.2654)">
<stop stop-color="#FF9100"/>
<stop offset="1" stop-color="#F76A2A"/>
</radialGradient>
</defs>
</svg>
