<svg width="95" height="95" viewBox="0 0 95 95" fill="none" xmlns="http://www.w3.org/2000/svg">
<circle cx="47.2371" cy="47.6595" r="47.2371" fill="#FAF2EF"/>
<path d="M59.8139 47.512C53.7209 47.512 48.5811 52.2899 48.5239 58.6729C48.4684 64.8363 53.3214 69.8805 59.6448 69.9981C65.7902 70.1108 70.8997 65.1393 70.9806 58.8388C71.059 52.753 66.2534 47.6288 59.8139 47.512ZM65.6138 58.0905C63.723 59.9889 61.8292 61.8824 59.9324 63.771C59.131 64.5683 58.386 64.5651 57.5937 63.771C56.3324 62.5152 55.0744 61.2543 53.8197 59.9881C53.6062 59.7857 53.4631 59.5204 53.4113 59.2309C53.3604 58.9416 53.4033 58.6436 53.5338 58.3805C53.7919 57.8569 54.3507 57.5007 54.9282 57.6306C55.3041 57.7263 55.6491 57.9167 55.9305 58.1836C56.8797 59.0822 57.7889 60.0232 58.7692 61.0035L61.7099 58.0537C62.3552 57.4068 62.9981 56.7565 63.6492 56.1153C64.3002 55.4741 65.1244 55.4479 65.706 56.0336C66.2877 56.6193 66.2501 57.4542 65.6146 58.0905H65.6138Z" fill="#F76A2A"/>
<path d="M37.1777 47.9324H33.1777V43.9324H37.1754L37.1777 47.9324Z" fill="#231F20"/>
<path d="M46 47.9216H42V43.9216H46V47.9216Z" fill="#231F20"/>
<path d="M50.0234 47.9303V43.9338H54.0234V47.9338L50.0234 47.9303Z" fill="#231F20"/>
<path d="M37.1738 50.3684V54.3684H33.1738V50.3708L37.1738 50.3684Z" fill="#231F20"/>
<path d="M42.0117 50.3503H46.0117V54.3503H42.0117V50.3503Z" fill="#231F20"/>
<path d="M31.2036 29.6601V30.6601C31.2036 30.8327 31.2028 30.9915 31.2021 31.1422C31.2007 31.418 31.1994 31.6669 31.2035 31.9237C31.2296 33.0914 32.0368 33.8449 33.0528 33.8352L31.2036 29.6601ZM31.2036 29.6601H30.2036M31.2036 29.6601H30.2036M30.2036 29.6601C30.0864 29.6601 29.9509 29.6565 29.8048 29.6526C29.4359 29.6428 28.9994 29.6313 28.6183 29.6712L28.6183 29.6712L28.6156 29.6715C27.8191 29.7572 27.0941 30.0306 26.4989 30.5131C25.903 30.9961 25.4885 31.6473 25.2484 32.4063L25.2483 32.4066M30.2036 29.6601L25.2483 32.4066M34.8401 31.9076L34.8401 31.9069C34.8433 31.6445 34.8423 31.3906 34.8412 31.1185C34.8407 30.9743 34.8401 30.825 34.8401 30.6666V29.6666H35.8401H52.729H53.729V30.6666C53.729 30.8779 53.7255 31.0652 53.7222 31.2391C53.716 31.5701 53.7107 31.8527 53.7322 32.1602L53.7324 32.1626C53.7596 32.5654 53.9219 32.9472 54.193 33.2463L54.1935 33.2469C54.4639 33.5458 54.8273 33.7447 55.2248 33.8113L55.2323 33.8126L55.2398 33.8139C55.624 33.8844 56.0206 33.8247 56.367 33.6443L56.3688 33.6433C56.7149 33.464 56.9915 33.1747 57.1552 32.821C57.2555 32.5986 57.3012 32.3024 57.3547 31.8463C57.3793 31.6248 57.374 31.4348 57.367 31.1871C57.3632 31.0495 57.3589 30.8942 57.3589 30.7058V29.8648L58.1874 29.7206C59.6726 29.4621 61.0238 29.7307 62.0252 30.5088C63.0322 31.2911 63.5584 32.4912 63.5666 33.8284L63.5666 33.8286C63.5812 36.3494 63.5778 38.872 63.5744 41.3931C63.5731 42.3888 63.5717 43.3844 63.5715 44.3795L34.8401 31.9076ZM34.8401 31.9076C34.827 33.0716 34.0409 33.8246 33.053 33.8352L34.8401 31.9076ZM63.465 45.6344H62.5478H59.7859H58.7859V44.6344V40.0951H29.8084V57.7598H45.6377H46.6377V58.7598V61.5371V62.4961L45.6795 62.5363C45.6547 62.5373 45.6199 62.5392 45.5789 62.5415C45.4665 62.5478 45.3073 62.5567 45.1794 62.5567H29.2904C28.0578 62.5567 26.9591 62.1519 26.1695 61.3378C25.3833 60.5271 25.0005 59.4111 25 58.1687L25 58.1683C25 50.3345 25.0024 42.5012 25.0073 34.6685L63.465 45.6344ZM63.465 45.6344L63.5441 44.7206M63.465 45.6344L63.5441 44.7206M63.5441 44.7206C63.5469 44.6881 63.5495 44.6706 63.5564 44.6115M63.5441 44.7206L63.5564 44.6115M25.2483 32.4066C25.0067 33.1708 25.0071 33.9954 25.0073 34.61M25.2483 32.4066L25.0073 34.61M63.5564 44.6115C63.5618 44.5644 63.5715 44.4785 63.5715 44.3797L63.5564 44.6115ZM25.0073 34.61C25.0073 34.6295 25.0073 34.6488 25.0073 34.6679L25.0073 34.61Z" stroke="#231F20" stroke-width="2"/>
<path d="M35.4206 29.2006V29.0776L35.4198 29.0743L35.4198 26.554L35.4198 26.5513C35.4181 25.9038 35.2241 25.2742 34.8011 24.7884C34.3692 24.2921 33.7591 24.0183 33.0853 24.0022C32.3987 23.9858 31.766 24.2477 31.3135 24.7395C30.8684 25.2234 30.6519 25.8677 30.649 26.5431L31.649 26.5474L30.649 26.541C30.6375 28.3227 30.6356 30.104 30.6433 31.8851L30.6433 31.888C30.648 32.5462 30.8561 33.1776 31.2944 33.6567C31.7393 34.143 32.3567 34.3996 33.025 34.4043C33.7049 34.409 34.3273 34.146 34.7718 33.6602C35.2096 33.182 35.4206 32.5494 35.4206 31.8914V29.2006Z" stroke="#231F20" stroke-width="2"/>
<path d="M53.1426 31.1154V29.1957V26.5523V26.5461L53.1426 26.5461C53.1511 25.1751 54.0994 23.9739 55.5786 24.0004C56.2553 24.0126 56.8682 24.2864 57.3021 24.7826C57.7272 25.2687 57.9235 25.9005 57.924 26.5514L57.924 26.5523C57.924 28.3624 57.9219 30.1723 57.9175 31.9818C57.9175 31.9822 57.9175 31.9825 57.9175 31.9829L56.9175 31.9805C56.9175 32.7254 56.4568 33.267 55.7739 33.3887L53.1426 31.1154ZM53.1426 31.1154L53.1547 31.1069M53.1426 31.1154L53.1547 31.1069M53.1547 31.1069C53.155 31.3462 53.1562 31.5852 53.1588 31.8231L53.1547 31.1069Z" stroke="#231F20" stroke-width="2"/>
</svg>
