<svg width="66" height="66" viewBox="0 0 66 66" fill="none" xmlns="http://www.w3.org/2000/svg">
<path d="M0.80549 65.9502C-0.101748 65.4275 -0.133751 65.2106 0.248902 64.0581L1.39269 60.623C3.42702 54.5061 5.53092 48.1752 7.61812 41.9568C7.73934 41.6027 7.93695 41.2795 8.19697 41.0101C19.2104 29.983 31.1033 18.0927 45.6275 3.59157C47.3292 1.89275 49.4832 0.950195 51.6915 0.950195C53.8775 0.950195 56.0176 1.86911 57.7179 3.53735C58.4276 4.23245 59.1442 4.94977 59.8371 5.64348C60.6386 6.44562 61.4679 7.27697 62.2973 8.08467C63.7847 9.53465 64.6377 11.1431 64.9063 13.0129C64.9263 13.142 64.9637 13.2678 65.0176 13.3869V15.1941C64.9898 15.3123 64.9633 15.4305 64.9369 15.5486C64.8645 15.8698 64.7977 16.1728 64.7128 16.469C64.3326 17.8588 63.5964 19.1256 62.5769 20.1446L61.7824 20.9398C49.6864 33.0345 37.1799 45.531 24.864 57.812C24.5827 58.0611 24.2502 58.2457 23.8899 58.3528C18.2489 60.2462 12.5091 62.1577 6.95856 64.0067L1.39269 65.8612C1.32333 65.8853 1.25588 65.9146 1.19093 65.9488L0.80549 65.9502ZM2.59492 63.3311L21.9558 56.8847L9.06107 43.999L2.59492 63.3311ZM10.3231 41.8678L24.1223 55.6572L57.0626 22.7401L43.2634 8.95076L10.3231 41.8678ZM51.7332 2.96459C50.2202 2.95957 48.7576 3.50796 47.6214 4.50631C47.0523 5.00817 46.5486 5.54617 46.0616 6.0675C45.8571 6.28576 45.6567 6.49984 45.4577 6.7042L44.883 7.29366L58.6586 21.0566L59.2486 20.5005C59.4489 20.3115 59.666 20.121 59.8886 19.918C60.454 19.4333 60.9871 18.9122 61.4846 18.3582C63.5371 15.9782 63.5287 12.4749 61.4624 10.2089C59.6354 8.20563 57.7054 6.27742 55.7212 4.47573C54.6269 3.4929 53.2046 2.95395 51.7332 2.96459Z" fill="black"/>
</svg>
