<svg width="248" height="54" viewBox="0 0 248 54" fill="none" xmlns="http://www.w3.org/2000/svg">
<path d="M64.004 42.0622H60.5889V40.8223H68.8434V42.0622H65.4211V50.8056H64.004V42.0622Z" fill="#231F20"/>
<path d="M76.2133 47.4827H70.0844C70.1712 48.131 70.503 48.7214 71.0117 49.1326C71.5204 49.5437 72.1673 49.7444 72.8194 49.6933C73.2275 49.7072 73.6338 49.6327 74.0105 49.4749C74.3871 49.3172 74.7252 49.0799 75.0017 48.7793L75.7598 49.665C75.3821 50.0745 74.9194 50.3964 74.4041 50.6082C73.8888 50.8199 73.3334 50.9164 72.7769 50.8907C70.3395 50.8907 68.7169 49.2753 68.7169 47.0221C68.6964 46.5162 68.7799 46.0114 68.9624 45.5391C69.1449 45.0668 69.4224 44.637 69.7778 44.2763C70.1332 43.9156 70.5589 43.6317 71.0284 43.4422C71.498 43.2527 72.0014 43.1617 72.5076 43.1747C73.0152 43.1607 73.5201 43.2529 73.9899 43.4456C74.4597 43.6382 74.884 43.9269 75.2356 44.2932C75.5872 44.6595 75.8584 45.0953 76.0316 45.5725C76.2049 46.0498 76.2764 46.5581 76.2416 47.0646C76.2416 47.1851 76.2275 47.3551 76.2133 47.4827ZM70.0844 46.4978H74.9308C74.8661 45.9003 74.5829 45.3478 74.1357 44.9463C73.6884 44.5449 73.1086 44.3228 72.5076 44.3228C71.9066 44.3228 71.3268 44.5449 70.8795 44.9463C70.4323 45.3478 70.1491 45.9003 70.0844 46.4978Z" fill="#231F20"/>
<path d="M77.4404 47.0225C77.4298 46.5022 77.5268 45.9854 77.7254 45.5044C77.924 45.0234 78.2199 44.5886 78.5944 44.2274C78.969 43.8661 79.4142 43.5861 79.902 43.4051C80.3899 43.224 80.9099 43.1457 81.4295 43.1751C82.0416 43.138 82.6523 43.2689 83.1955 43.5536C83.7387 43.8383 84.1938 44.266 84.5116 44.7906L83.4701 45.4566C83.2512 45.113 82.9466 44.8324 82.5863 44.6423C82.226 44.4522 81.8224 44.3592 81.4153 44.3726C80.7334 44.4078 80.0911 44.7034 79.6209 45.1985C79.1507 45.6936 78.8885 46.3503 78.8885 47.0331C78.8885 47.7159 79.1507 48.3726 79.6209 48.8677C80.0911 49.3628 80.7334 49.6585 81.4153 49.6937C81.8221 49.7049 82.2249 49.6111 82.5849 49.4212C82.9448 49.2313 83.2497 48.9517 83.4701 48.6096L84.5116 49.2615C84.1945 49.7876 83.7399 50.2173 83.1969 50.5044C82.6538 50.7916 82.0428 50.9252 81.4295 50.8911C80.9086 50.9186 80.3877 50.8382 79.8993 50.6551C79.4109 50.4719 78.9656 50.19 78.5911 49.8269C78.2167 49.4637 77.9212 49.0273 77.7232 48.5447C77.5252 48.0622 77.4289 47.544 77.4404 47.0225Z" fill="#231F20"/>
<path d="M93.3521 46.4556V50.8061H91.9846V46.6115C91.9846 45.1307 91.2406 44.4008 89.944 44.4008C88.4915 44.4008 87.5491 45.2724 87.5491 46.9091V50.8061H86.1816V40.2275H87.5491V44.3158C87.8762 43.9343 88.2865 43.6331 88.7484 43.4353C89.2103 43.2375 89.7115 43.1485 90.2132 43.1751C92.0555 43.1751 93.3521 44.2308 93.3521 46.4556Z" fill="#231F20"/>
<path d="M103.059 46.4554V50.8059H101.692V46.6113C101.692 45.1305 100.983 44.4006 99.651 44.4006C98.2339 44.4006 97.2562 45.2722 97.2562 46.9089V50.8059H95.8887V43.2812H97.1995V44.4219C97.5237 44.0178 97.9398 43.6971 98.413 43.4863C98.8863 43.2756 99.403 43.181 99.9203 43.2103C101.762 43.1749 103.059 44.2306 103.059 46.4554Z" fill="#231F20"/>
<path d="M104.946 47.0221C104.933 46.2417 105.153 45.4752 105.577 44.8202C106.002 44.1652 106.611 43.6513 107.329 43.3438C108.046 43.0364 108.839 42.9494 109.606 43.0938C110.373 43.2383 111.079 43.6077 111.636 44.155C112.192 44.7024 112.573 45.4029 112.73 46.1674C112.887 46.9319 112.813 47.7258 112.517 48.4481C112.221 49.1703 111.718 49.7883 111.07 50.2233C110.422 50.6583 109.659 50.8906 108.878 50.8907C108.361 50.9143 107.844 50.8309 107.361 50.6457C106.877 50.4605 106.437 50.1774 106.068 49.8143C105.699 49.4512 105.409 49.0157 105.216 48.5353C105.023 48.0548 104.931 47.5397 104.946 47.0221ZM111.415 47.0221C111.39 46.5249 111.22 46.0459 110.925 45.6446C110.631 45.2433 110.225 44.9372 109.758 44.7643C109.291 44.5914 108.784 44.5593 108.299 44.6719C107.814 44.7846 107.373 45.037 107.03 45.398C106.687 45.759 106.458 46.2127 106.37 46.7028C106.283 47.1928 106.341 47.6978 106.538 48.1551C106.735 48.6124 107.061 49.0018 107.477 49.2753C107.893 49.5487 108.381 49.694 108.878 49.6933C109.225 49.7022 109.571 49.6382 109.891 49.5053C110.212 49.3724 110.502 49.1737 110.741 48.9219C110.98 48.67 111.163 48.3708 111.28 48.0436C111.396 47.7163 111.442 47.3683 111.415 47.0221Z" fill="#231F20"/>
<path d="M114.694 40.2275H116.062V50.8061H114.694V40.2275Z" fill="#231F20"/>
<path d="M117.974 47.0221C117.962 46.2417 118.181 45.4752 118.606 44.8202C119.03 44.1652 119.64 43.6513 120.357 43.3438C121.074 43.0364 121.867 42.9494 122.634 43.0938C123.401 43.2383 124.108 43.6077 124.664 44.155C125.22 44.7024 125.601 45.4029 125.758 46.1674C125.915 46.9319 125.841 47.7258 125.545 48.4481C125.25 49.1703 124.746 49.7883 124.098 50.2233C123.45 50.6583 122.687 50.8906 121.907 50.8907C121.389 50.9143 120.873 50.8309 120.389 50.6457C119.906 50.4605 119.466 50.1774 119.096 49.8143C118.727 49.4512 118.437 49.0157 118.244 48.5353C118.051 48.0548 117.959 47.5397 117.974 47.0221ZM124.45 47.0221C124.427 46.5231 124.257 46.042 123.963 45.6385C123.668 45.2351 123.262 44.927 122.793 44.7525C122.325 44.578 121.816 44.5447 121.33 44.6569C120.843 44.7691 120.4 45.0217 120.055 45.3835C119.711 45.7452 119.48 46.2002 119.392 46.6919C119.304 47.1836 119.362 47.6904 119.559 48.1493C119.756 48.6083 120.084 48.9993 120.501 49.2738C120.918 49.5482 121.407 49.6941 121.907 49.6933C122.254 49.7032 122.6 49.64 122.922 49.5075C123.244 49.3751 123.534 49.1765 123.774 48.9245C124.014 48.6726 124.198 48.373 124.314 48.0453C124.431 47.7175 124.477 47.3689 124.45 47.0221Z" fill="#231F20"/>
<path d="M134.958 43.2816V49.8143C134.958 52.4784 133.598 53.6901 131.033 53.6901C129.736 53.7451 128.461 53.3467 127.426 52.5635L128.085 51.5077C128.911 52.1609 129.937 52.5088 130.99 52.4926C132.776 52.4926 133.583 51.6636 133.583 49.956V49.3538C133.246 49.7392 132.826 50.0442 132.355 50.2464C131.885 50.4487 131.375 50.5432 130.863 50.5229C130.363 50.554 129.863 50.4825 129.392 50.3128C128.922 50.1431 128.491 49.8789 128.126 49.5363C127.762 49.1938 127.471 48.7802 127.273 48.3211C127.074 47.862 126.972 47.367 126.972 46.8668C126.972 46.3665 127.074 45.8716 127.273 45.4125C127.471 44.9534 127.762 44.5398 128.126 44.1972C128.491 43.8547 128.922 43.5904 129.392 43.4208C129.863 43.2511 130.363 43.1796 130.863 43.2107C131.393 43.1897 131.921 43.2906 132.406 43.5056C132.891 43.7205 133.321 44.0438 133.661 44.4506V43.2816H134.958ZM133.619 46.8243C133.647 46.3032 133.519 45.7855 133.249 45.3384C132.98 44.8912 132.583 44.535 132.11 44.316C131.636 44.0969 131.107 44.025 130.593 44.1096C130.078 44.1942 129.6 44.4314 129.221 44.7905C128.842 45.1496 128.58 45.6141 128.468 46.1238C128.357 46.6336 128.4 47.1651 128.594 47.6498C128.787 48.1344 129.122 48.5498 129.554 48.8423C129.987 49.1347 130.497 49.2907 131.018 49.29C131.355 49.3158 131.693 49.2708 132.012 49.1579C132.33 49.0449 132.621 48.8665 132.866 48.6342C133.111 48.4019 133.304 48.1208 133.434 47.809C133.564 47.4973 133.627 47.1618 133.619 46.8243Z" fill="#231F20"/>
<path d="M137.326 40.9076C137.326 40.787 137.35 40.6676 137.397 40.5566C137.444 40.4455 137.513 40.345 137.6 40.2611C137.686 40.1771 137.789 40.1115 137.901 40.0679C138.014 40.0244 138.134 40.004 138.254 40.0078C138.429 40.0147 138.598 40.0727 138.74 40.1746C138.882 40.2765 138.99 40.4179 139.053 40.5811C139.115 40.7443 139.128 40.9222 139.091 41.0928C139.053 41.2634 138.966 41.4192 138.84 41.5408C138.715 41.6624 138.556 41.7446 138.385 41.7771C138.213 41.8095 138.036 41.7909 137.874 41.7235C137.713 41.6561 137.575 41.5428 137.478 41.3978C137.38 41.2528 137.328 41.0823 137.326 40.9076ZM137.567 43.2458H138.935V50.806H137.567V43.2458Z" fill="#231F20"/>
<path d="M148.343 47.4827H142.214C142.301 48.131 142.633 48.7214 143.142 49.1326C143.65 49.5437 144.297 49.7444 144.949 49.6933C145.357 49.7072 145.764 49.6327 146.14 49.4749C146.517 49.3172 146.855 49.0799 147.132 48.7793L147.89 49.665C147.512 50.0745 147.049 50.3964 146.534 50.6082C146.019 50.8199 145.463 50.9164 144.907 50.8907C142.469 50.8907 140.847 49.2753 140.847 47.0221C140.826 46.5162 140.91 46.0114 141.092 45.5391C141.275 45.0668 141.552 44.637 141.908 44.2763C142.263 43.9156 142.689 43.6317 143.158 43.4422C143.628 43.2527 144.131 43.1617 144.638 43.1747C145.145 43.1607 145.65 43.2529 146.12 43.4456C146.59 43.6382 147.014 43.9269 147.365 44.2932C147.717 44.6595 147.988 45.0953 148.162 45.5725C148.335 46.0498 148.406 46.5581 148.372 47.0646C148.372 47.1851 148.357 47.3551 148.343 47.4827ZM142.214 46.4978H147.061C146.996 45.9003 146.713 45.3478 146.266 44.9463C145.818 44.5449 145.238 44.3228 144.638 44.3228C144.037 44.3228 143.457 44.5449 143.009 44.9463C142.562 45.3478 142.279 45.9003 142.214 46.4978Z" fill="#231F20"/>
<path d="M149.313 50.0051L149.887 48.921C150.676 49.4341 151.597 49.7073 152.537 49.7075C153.806 49.7075 154.33 49.3178 154.33 48.6801C154.33 46.9796 149.554 48.4534 149.554 45.4421C149.554 44.0887 150.766 43.1747 152.707 43.1747C153.67 43.1628 154.619 43.4074 155.457 43.8833L154.876 44.9673C154.223 44.5562 153.464 44.3467 152.693 44.3651C151.496 44.3651 150.915 44.8115 150.915 45.4066C150.915 47.1922 155.705 45.7326 155.705 48.673C155.705 50.0405 154.443 50.912 152.438 50.912C151.329 50.9323 150.239 50.6161 149.313 50.0051Z" fill="#231F20"/>
<path d="M169.075 47.0225C169.1 47.5331 169.02 48.0436 168.838 48.5214C168.656 48.9992 168.376 49.4338 168.017 49.7977C167.658 50.1616 167.227 50.4468 166.751 50.635C166.276 50.8232 165.766 50.9104 165.255 50.8911C164.736 50.9124 164.22 50.8067 163.75 50.5832C163.281 50.3598 162.874 50.0252 162.563 49.6086V50.8061H161.245V40.2275H162.62V44.3867C162.933 43.9924 163.335 43.6774 163.793 43.4669C164.251 43.2565 164.752 43.1565 165.255 43.1751C165.765 43.1527 166.274 43.2371 166.75 43.4229C167.225 43.6087 167.656 43.8918 168.016 44.2541C168.376 44.6163 168.655 45.0497 168.838 45.5264C169.02 46.0032 169.101 46.5127 169.075 47.0225ZM167.693 47.0225C167.668 46.5259 167.498 46.0475 167.204 45.6464C166.91 45.2454 166.505 44.9393 166.039 44.7659C165.573 44.5926 165.066 44.5596 164.582 44.6712C164.097 44.7827 163.656 45.0337 163.313 45.3933C162.969 45.7529 162.739 46.2053 162.65 46.6945C162.561 47.1836 162.617 47.6882 162.812 48.1457C163.006 48.6033 163.331 48.9937 163.745 49.2689C164.159 49.544 164.645 49.6916 165.142 49.6937C165.49 49.7036 165.836 49.6403 166.158 49.5079C166.48 49.3755 166.771 49.177 167.011 48.9252C167.252 48.6734 167.437 48.374 167.554 48.0462C167.672 47.7184 167.719 47.3696 167.693 47.0225Z" fill="#231F20"/>
<path d="M177.443 43.2808L173.779 51.592C173.113 53.1933 172.242 53.7176 171.087 53.7176C170.374 53.7342 169.68 53.4812 169.146 53.0091L169.734 51.9817C170.095 52.3365 170.581 52.535 171.087 52.5343C171.739 52.5343 172.157 52.2367 172.504 51.3652L172.745 50.8409L169.429 43.2808H170.846L173.482 49.3246L176.089 43.2808H177.443Z" fill="#231F20"/>
<path d="M189.679 45.7541H191.046V49.6582C189.971 50.5038 188.637 50.9518 187.27 50.9265C186.579 50.9623 185.889 50.8564 185.241 50.6151C184.594 50.3738 184.002 50.0024 183.504 49.5237C183.005 49.045 182.61 48.4692 182.342 47.8318C182.075 47.1945 181.941 46.509 181.949 45.8179C181.949 42.8703 184.202 40.7164 187.298 40.7164C188.009 40.6864 188.719 40.8079 189.38 41.073C190.041 41.3381 190.638 41.7406 191.131 42.2539L190.246 43.1396C189.868 42.7605 189.416 42.4625 188.919 42.2639C188.422 42.0653 187.89 41.9703 187.355 41.9847C186.837 41.9624 186.32 42.0452 185.835 42.228C185.35 42.4107 184.907 42.6898 184.533 43.0482C184.159 43.4067 183.861 43.8372 183.658 44.3138C183.454 44.7904 183.35 45.3032 183.35 45.8214C183.35 46.3396 183.454 46.8525 183.658 47.3291C183.861 47.8057 184.159 48.2361 184.533 48.5946C184.907 48.9531 185.35 49.2321 185.835 49.4149C186.32 49.5977 186.837 49.6804 187.355 49.6582C188.181 49.6782 188.994 49.4539 189.693 49.0134L189.679 45.7541Z" fill="#231F20"/>
<path d="M200.371 47.4827H194.243C194.329 48.131 194.661 48.7214 195.17 49.1326C195.679 49.5437 196.325 49.7444 196.978 49.6933C197.386 49.7072 197.792 49.6327 198.169 49.4749C198.545 49.3172 198.883 49.0799 199.16 48.7793L199.918 49.665C199.54 50.0745 199.078 50.3964 198.562 50.6082C198.047 50.8199 197.492 50.9164 196.935 50.8907C194.498 50.8907 192.875 49.2753 192.875 47.0221C192.855 46.5162 192.938 46.0114 193.121 45.5391C193.303 45.0668 193.581 44.637 193.936 44.2763C194.291 43.9156 194.717 43.6317 195.187 43.4422C195.656 43.2527 196.16 43.1617 196.666 43.1747C197.173 43.1607 197.678 43.2529 198.148 43.4456C198.618 43.6382 199.042 43.9269 199.394 44.2932C199.745 44.6595 200.017 45.0953 200.19 45.5725C200.363 46.0498 200.435 46.5581 200.4 47.0646C200.4 47.1851 200.386 47.3551 200.371 47.4827ZM194.243 46.4978H199.11C199.046 45.9003 198.762 45.3478 198.315 44.9463C197.868 44.5449 197.288 44.3228 196.687 44.3228C196.086 44.3228 195.506 44.5449 195.059 44.9463C194.612 45.3478 194.329 45.9003 194.264 46.4978H194.243Z" fill="#231F20"/>
<path d="M209.1 47.4826H202.964C203.052 48.1315 203.386 48.722 203.896 49.133C204.405 49.5441 205.053 49.7445 205.706 49.6933C206.114 49.7072 206.52 49.6327 206.897 49.4749C207.274 49.3171 207.612 49.0799 207.888 48.7793L208.639 49.665C208.263 50.0747 207.802 50.3969 207.288 50.6087C206.774 50.8205 206.219 50.9168 205.664 50.8907C203.226 50.8907 201.597 49.2753 201.597 47.0221C201.577 46.5164 201.661 46.0121 201.844 45.5403C202.027 45.0684 202.305 44.639 202.66 44.2785C203.015 43.9181 203.44 43.6342 203.909 43.4443C204.378 43.2545 204.881 43.1627 205.387 43.1747C205.895 43.1608 206.4 43.253 206.87 43.4456C207.34 43.6381 207.765 43.9267 208.117 44.2929C208.47 44.6591 208.741 45.0948 208.915 45.572C209.09 46.0493 209.162 46.5577 209.128 47.0646C209.128 47.1851 209.114 47.3551 209.1 47.4826ZM202.964 46.4978H207.818C207.746 45.9047 207.459 45.3584 207.012 44.9621C206.565 44.5659 205.988 44.347 205.391 44.347C204.793 44.347 204.217 44.5659 203.769 44.9621C203.322 45.3584 203.036 45.9047 202.964 46.4978Z" fill="#231F20"/>
<path d="M213.989 47.2846L212.416 48.7371V50.8061H211.049V40.2275H212.416V47.0083L216.54 43.2459H218.191L215.017 46.3706L218.51 50.8061H216.823L213.989 47.2846Z" fill="#231F20"/>
<path d="M218.61 50.0051L219.177 48.921C219.969 49.4332 220.891 49.7063 221.834 49.7075C223.103 49.7075 223.627 49.3178 223.627 48.6801C223.627 46.9796 218.851 48.4534 218.851 45.4421C218.851 44.0887 220.063 43.1747 222.004 43.1747C222.967 43.1628 223.916 43.4074 224.753 43.8833L224.172 44.9673C223.52 44.557 222.761 44.3476 221.99 44.3651C220.793 44.3651 220.205 44.8115 220.205 45.4066C220.205 47.1922 224.994 45.7326 224.994 48.673C224.994 50.0405 223.74 50.912 221.735 50.912C220.626 50.9332 219.536 50.6169 218.61 50.0051Z" fill="#231F20"/>
<path d="M63.728 37.5205C61.4748 37.5205 60.5537 36.6136 60.5537 34.3887V12.7144C60.5537 10.5888 61.489 9.71729 63.7705 9.71729H89.9086V15.5769H68.2343C68.0008 15.5664 67.7677 15.6053 67.5504 15.6912C67.333 15.777 67.1362 15.9079 66.9729 16.0752C66.8097 16.2424 66.6836 16.4423 66.6031 16.6617C66.5225 16.8812 66.4893 17.1151 66.5055 17.3483V21.7696H89.774V25.4682H66.5055V30.1091C66.4864 30.3449 66.5173 30.5821 66.5963 30.8052C66.6753 31.0282 66.8005 31.232 66.9637 31.4032C67.1269 31.5745 67.3245 31.7093 67.5435 31.7989C67.7624 31.8885 67.9979 31.9308 68.2343 31.923H89.9086V37.5205H63.728Z" fill="#F76A2A"/>
<path d="M96.9712 37.5205C94.718 37.5205 93.7969 36.6136 93.7969 34.3887V12.7144C93.7969 10.5888 94.7322 9.71729 97.0207 9.71729H123.152V15.5769H101.477C101.244 15.5664 101.011 15.6053 100.794 15.6912C100.576 15.777 100.379 15.9079 100.216 16.0752C100.053 16.2424 99.9268 16.4423 99.8462 16.6617C99.7657 16.8812 99.7324 17.1151 99.7486 17.3483V21.7696H123.017V25.4682H99.7486V30.1091C99.7295 30.3449 99.7605 30.5821 99.8395 30.8052C99.9184 31.0282 100.044 31.232 100.207 31.4032C100.37 31.5745 100.568 31.7093 100.787 31.7989C101.006 31.8885 101.241 31.9308 101.477 31.923H123.152V37.5205H96.9712Z" fill="#F76A2A"/>
<path d="M150.113 37.5205C149.755 37.1626 149.377 36.8267 148.979 36.5144L133.008 23.1583V37.5205H126.972V9.71729H133.008V23.0591L148.27 10.7234C148.652 10.4157 149.01 10.0794 149.34 9.71729H157.304L142.191 21.4153C141.996 21.5641 141.838 21.7559 141.729 21.9759C141.62 22.1959 141.563 22.4381 141.563 22.6836C141.563 22.9291 141.62 23.1713 141.729 23.3913C141.838 23.6113 141.996 23.8032 142.191 23.9519L158.941 37.5134L150.113 37.5205Z" fill="#F76A2A"/>
<path d="M172.823 37.5205V14.1386C172.823 11.0635 174.169 9.68896 177.188 9.68896H202.171V15.5486H181.028C180.718 15.5272 180.408 15.5739 180.118 15.6854C179.828 15.797 179.567 15.9706 179.351 16.1941C179.136 16.4177 178.972 16.6857 178.871 16.9794C178.77 17.273 178.735 17.5852 178.768 17.8939V22.1451H202.036V27.523H178.768V37.4993L172.823 37.5205Z" fill="#F76A2A"/>
<path d="M218.95 37.5205V24.2353L205.757 9.71729H212.842C213.006 9.9727 213.196 10.2102 213.409 10.4258L220.92 18.5953C221.087 18.7853 221.293 18.9375 221.524 19.0417C221.755 19.1459 222.005 19.1998 222.259 19.1998C222.512 19.1998 222.763 19.1459 222.993 19.0417C223.224 18.9375 223.43 18.7853 223.598 18.5953H223.633L231.08 10.44C231.298 10.221 231.497 9.98397 231.675 9.73145H238.584L224.944 24.7809V37.5347L218.95 37.5205Z" fill="#F76A2A"/>
<path d="M165.866 7.51394C166.357 7.53139 166.847 7.44845 167.305 7.2702C167.763 7.09195 168.18 6.82214 168.53 6.47726C168.88 6.13238 169.156 5.7197 169.342 5.26444C169.527 4.80918 169.617 4.32092 169.607 3.82952C169.608 3.34711 169.51 2.86963 169.32 2.42634C169.13 1.98306 168.851 1.58331 168.5 1.25161C168.15 0.919904 167.736 0.663234 167.283 0.497332C166.83 0.33143 166.348 0.259794 165.866 0.28681C165.381 0.272604 164.897 0.355882 164.444 0.531734C163.991 0.707585 163.578 0.972441 163.229 1.31064C162.881 1.64883 162.603 2.05351 162.414 2.50076C162.224 2.948 162.126 3.42873 162.125 3.91455C162.124 4.39968 162.221 4.88006 162.41 5.32672C162.599 5.77338 162.877 6.17706 163.227 6.51341C163.576 6.84977 163.99 7.11183 164.444 7.28379C164.898 7.45574 165.381 7.53404 165.866 7.51394Z" fill="#F76A2A"/>
<path d="M169.041 9.78174H162.692V37.9321H169.041V9.78174Z" fill="#F76A2A"/>
<path fill-rule="evenodd" clip-rule="evenodd" d="M53.15 11.9211C50.8988 8.66771 47.7579 6.13172 44.1032 4.61659C40.4485 3.10146 36.4346 2.67135 32.5418 3.3777C28.649 4.08405 25.0422 5.89696 22.1528 8.59954C19.2633 11.3021 17.2137 14.7799 16.2491 18.6169H6.0744C5.70887 18.0018 5.15148 17.5237 4.48787 17.2561C3.82426 16.9885 3.09114 16.9462 2.40117 17.1358C1.7112 17.3253 1.10255 17.7362 0.668751 18.3052C0.234951 18.8742 0 19.57 0 20.2855C0 21.001 0.234951 21.6968 0.668751 22.2658C1.10255 22.8348 1.7112 23.2457 2.40117 23.4352C3.09114 23.6247 3.82426 23.5825 4.48787 23.3149C5.15148 23.0473 5.70887 22.5692 6.0744 21.9541H19.0478C19.4553 17.6849 21.4408 13.7213 24.6158 10.8385C27.7909 7.95561 31.9272 6.36087 36.2158 6.36616C37.1948 6.33739 38.174 6.4182 39.135 6.60708L39.468 6.67084C43.8163 7.50337 47.6763 9.98024 50.2449 13.5862C50.9093 14.4841 51.5038 15.4316 52.0234 16.4204L54.8576 14.812C54.3669 13.8041 53.7959 12.8373 53.15 11.9211ZM3.26857 21.7982C2.97008 21.7982 2.67829 21.7097 2.43011 21.5439C2.18192 21.378 1.98848 21.1423 1.87426 20.8666C1.76003 20.5908 1.73014 20.2874 1.78837 19.9946C1.84661 19.7018 1.99035 19.4329 2.20141 19.2219C2.41248 19.0108 2.68139 18.8671 2.97414 18.8088C3.2669 18.7506 3.57035 18.7805 3.84612 18.8947C4.12189 19.0089 4.35759 19.2024 4.52342 19.4506C4.68926 19.6988 4.77777 19.9905 4.77777 20.289C4.77591 20.6887 4.6163 21.0715 4.33368 21.3541C4.05105 21.6368 3.66826 21.7964 3.26857 21.7982Z" fill="#231F20"/>
<path fill-rule="evenodd" clip-rule="evenodd" d="M50.0239 25.2914C49.8844 26.4334 49.606 27.5541 49.1949 28.6286C48.3004 30.943 46.803 32.976 44.8581 34.5167C42.9132 36.0574 40.5916 37.0499 38.1339 37.3911C35.6763 37.7322 33.1721 37.4097 30.881 36.457C28.59 35.5044 26.5955 33.9561 25.1044 31.9729C24.419 31.0917 23.8432 30.1305 23.3897 29.1104C23.326 28.9616 23.2622 28.8128 23.2055 28.6569C22.791 27.5835 22.5125 26.4624 22.3765 25.3197C22.2443 24.2112 22.2443 23.091 22.3765 21.9825C22.5874 18.8574 23.8674 15.9001 26.0015 13.6075C28.1356 11.3149 30.9937 9.82663 34.0957 9.39275C37.1976 8.95887 40.3544 9.60583 43.0356 11.2249C45.7169 12.844 47.7591 15.3366 48.8193 18.2839L48.1887 18.6452L46.0631 19.8781C45.9002 19.4557 45.7109 19.0439 45.4963 18.6452C45.1818 18.0584 44.8117 17.5032 44.3909 16.9872C43.4006 15.7663 42.1499 14.7821 40.7303 14.1066C39.3107 13.4312 37.7581 13.0815 36.186 13.0832H35.8247H35.6688H35.4775C33.64 13.205 31.8665 13.8059 30.3335 14.8262L30.2343 14.897L30.1776 14.9396L30.1067 14.9821L30.0217 15.0458H29.9792C28.9454 15.8037 28.0572 16.7422 27.3576 17.8162L27.2867 17.9225V17.9721V18.0288C27.1734 18.2059 27.0742 18.3831 26.9679 18.5673C26.4191 19.5922 26.0432 20.7006 25.8555 21.8479V21.9045C25.6783 23.0099 25.6783 24.1364 25.8555 25.2418V25.2772V25.4118C26.0531 26.5064 26.4213 27.5632 26.9466 28.5436C27.0529 28.742 27.1663 28.9262 27.2796 29.1104L27.3647 29.245L27.4284 29.3442V29.4009C28.0745 30.3489 28.8743 31.1822 29.795 31.8667L29.9013 31.9446L29.9863 32.0084C31.5784 33.144 33.4553 33.8138 35.4066 33.9427H36.1152C38.6279 33.9323 41.0557 33.032 42.9677 31.4015C44.8796 29.771 46.152 27.5159 46.5591 25.0363L50.0239 25.2914Z" fill="#F76A2A"/>
<path fill-rule="evenodd" clip-rule="evenodd" d="M56.7348 21.9542H39.1346C38.769 21.3391 38.2116 20.861 37.548 20.5934C36.8844 20.3259 36.1513 20.2836 35.4613 20.4731C34.7714 20.6627 34.1627 21.0735 33.7289 21.6425C33.2951 22.2116 33.0602 22.9073 33.0602 23.6228C33.0602 24.3384 33.2951 25.0341 33.7289 25.6031C34.1627 26.1722 34.7714 26.583 35.4613 26.7725C36.1513 26.9621 36.8844 26.9198 37.548 26.6522C38.2116 26.3847 38.769 25.9066 39.1346 25.2914H53.3834C53.0358 28.7786 51.6345 32.0773 49.366 34.7485C47.0975 37.4197 44.0693 39.3367 40.6844 40.2445C37.2996 41.1522 33.7185 41.0077 30.4178 39.8301C27.1171 38.6524 24.2533 36.4976 22.2075 33.6523C21.5586 32.7458 21.0008 31.7775 20.5424 30.7614C20.2223 30.0733 19.9523 29.3629 19.7347 28.6358C19.4058 27.5477 19.1851 26.4299 19.0757 25.2985H10.8566C10.4911 24.6834 9.93371 24.2053 9.2701 23.9378C8.60648 23.6702 7.87337 23.6279 7.1834 23.8174C6.49343 24.007 5.88478 24.4178 5.45098 24.9869C5.01718 25.5559 4.78223 26.2516 4.78223 26.9672C4.78223 27.6827 5.01718 28.3784 5.45098 28.9474C5.88478 29.5165 6.49343 29.9273 7.1834 30.1169C7.87337 30.3064 8.60648 30.2641 9.2701 29.9965C9.93371 29.729 10.4911 29.2509 10.8566 28.6358H16.2486C16.573 29.9489 17.0288 31.2259 17.609 32.4477C18.0897 33.4537 18.6489 34.4203 19.2812 35.3386C21.6969 38.8296 25.1327 41.4886 29.1181 42.9514C33.1035 44.4142 37.4436 44.6094 41.5442 43.5101C45.6448 42.4109 49.3053 40.071 52.0247 36.8109C54.744 33.5508 56.3891 29.5298 56.7348 25.2985C56.7773 24.753 56.7985 24.1932 56.7985 23.6335C56.7985 23.0737 56.7773 22.5069 56.7348 21.9542ZM36.3287 25.1285C36.0299 25.1285 35.7379 25.0398 35.4895 24.8736C35.2412 24.7075 35.0478 24.4714 34.9338 24.1952C34.8197 23.919 34.7903 23.6152 34.8491 23.3222C34.9079 23.0293 35.0523 22.7604 35.2641 22.5496C35.4759 22.3388 35.7455 22.1957 36.0387 22.1382C36.3319 22.0808 36.6356 22.1117 36.9112 22.227C37.1868 22.3423 37.4221 22.5369 37.587 22.786C37.752 23.0351 37.8393 23.3276 37.8379 23.6264C37.8379 23.8242 37.7988 24.0201 37.7229 24.2028C37.647 24.3856 37.5357 24.5515 37.3955 24.691C37.2552 24.8306 37.0888 24.9411 36.9057 25.0162C36.7227 25.0912 36.5266 25.1294 36.3287 25.1285ZM8.0508 28.4728C7.75141 28.4728 7.45879 28.3837 7.21017 28.2169C6.96154 28.0501 6.76814 27.8131 6.65457 27.5361C6.54099 27.2591 6.51237 26.9546 6.57235 26.6613C6.63232 26.368 6.77818 26.0991 6.99138 25.8889C7.20458 25.6787 7.47548 25.5367 7.76962 25.4809C8.06376 25.4251 8.36785 25.458 8.64322 25.5755C8.9186 25.693 9.1528 25.8897 9.31605 26.1407C9.47929 26.3917 9.56421 26.6855 9.56 26.9849C9.55441 27.3814 9.39294 27.7599 9.11051 28.0383C8.82809 28.3168 8.44741 28.4728 8.0508 28.4728Z" fill="#231F20"/>
<path d="M244.158 11.44C245.299 11.44 245.894 12.0422 245.894 12.8145C245.896 13.0687 245.824 13.318 245.685 13.5311C245.546 13.7441 245.348 13.9114 245.114 14.012L246.22 15.592H245.235L244.25 14.1749H243.088V15.592H242.252V11.4116L244.158 11.44ZM244.158 12.1485H243.088V13.5231H244.158C244.732 13.5231 245.029 13.1688 245.029 12.8145C245.029 12.4603 244.732 12.106 244.158 12.106V12.1485Z" fill="#231F20"/>
<path d="M243.897 17.8304C243.086 17.8304 242.293 17.5898 241.618 17.139C240.944 16.6882 240.418 16.0475 240.107 15.2979C239.797 14.5483 239.715 13.7234 239.874 12.9276C240.032 12.1318 240.423 11.4008 240.997 10.8271C241.57 10.2533 242.301 9.86261 243.097 9.70432C243.893 9.54602 244.718 9.62727 245.467 9.93777C246.217 10.2483 246.858 10.7741 247.308 11.4487C247.759 12.1234 248 12.9166 248 13.7279C248.001 14.267 247.895 14.8008 247.689 15.299C247.484 15.7972 247.181 16.2498 246.8 16.6309C246.419 17.012 245.967 17.3142 245.468 17.52C244.97 17.7259 244.436 17.8313 243.897 17.8304ZM243.897 10.4049C243.238 10.4049 242.594 10.6004 242.047 10.9666C241.499 11.3329 241.072 11.8534 240.82 12.4623C240.568 13.0712 240.503 13.7412 240.632 14.3873C240.761 15.0335 241.079 15.6269 241.545 16.0923C242.012 16.5578 242.606 16.8744 243.252 17.0021C243.899 17.1298 244.568 17.0628 245.177 16.8097C245.785 16.5565 246.305 16.1286 246.67 15.58C247.035 15.0314 247.229 14.3869 247.228 13.7279C247.226 12.846 246.874 12.0008 246.25 11.3778C245.625 10.7548 244.779 10.4049 243.897 10.4049Z" fill="#231F20"/>
</svg>
