<svg width="50" height="32" viewBox="0 0 50 32" fill="none" xmlns="http://www.w3.org/2000/svg">
<path d="M3.54938 31.5031C2.61042 31.5041 1.70941 31.1326 1.04401 30.4702C0.378602 29.8077 0.00314421 28.9083 0 27.9694V3.53188C0.00363949 2.59325 0.379316 1.69437 1.04467 1.0323C1.71002 0.370231 2.61074 -0.000997771 3.54938 2.01965e-06H46.4506C47.389 -0.000998882 48.2896 0.370059 48.9549 1.03186C49.6202 1.69366 49.996 2.59222 50 3.53063V27.9681C49.9969 28.9071 49.6214 29.8064 48.956 30.4689C48.2906 31.1314 47.3896 31.5029 46.4506 31.5019L3.54938 31.5031Z" fill="black"/>
<path d="M46.4506 0.182618H3.54938C2.65993 0.181951 1.80651 0.534047 1.17629 1.16169C0.546069 1.78934 0.190478 2.6413 0.1875 3.53074V22.0932H0.2025V22.1089H0.1875V27.967C0.190479 28.8567 0.546241 29.7088 1.17673 30.3365C1.80723 30.9642 2.66096 31.3161 3.55063 31.3151H46.4506C47.3396 31.3158 48.1927 30.964 48.8228 30.3369C49.453 29.7098 49.8089 28.8585 49.8125 27.9695V3.53199C49.8099 2.64233 49.4544 1.79005 48.8242 1.16214C48.1939 0.53422 47.3403 0.181952 46.4506 0.182618Z" fill="#003564"/>
<path d="M25.4955 16.1643C25.4955 16.1868 25.4955 16.2118 25.4955 16.2406H21.918C22.0861 15.3537 22.668 14.3618 23.918 14.3618C24.818 14.3618 25.4955 14.9093 25.4955 16.1643Z" fill="#ED1B2E"/>
<path d="M13.2462 13.5806L12.3299 18.6018H11.2037L11.9893 14.4862H11.9768L10.2805 18.6018H9.19117L9.03055 14.4862H9.01805L8.26867 18.6018H7.2168L8.15742 13.5806H9.96492L10.033 16.9543H10.0455L11.4012 13.5806H13.2462Z" fill="#ED1B2E"/>
<path d="M16.6607 15.7673C16.6607 16.4179 16.3451 17.3467 16.2076 18.5923H15.1995L15.2538 18.0136L15.2401 17.9973V18.0136C14.9795 18.4898 14.5195 18.6873 14.0395 18.6873C13.2713 18.6873 12.8457 18.2904 12.8457 17.4886C12.8457 16.4729 13.7207 15.9723 14.8145 15.9723C15.0645 15.9723 15.3088 15.9967 15.4801 16.0123C15.492 15.9577 15.4968 15.9019 15.4945 15.8461C15.4945 15.4948 15.182 15.3586 14.8782 15.3211C14.5065 15.2717 14.1287 15.2946 13.7657 15.3886C13.7126 15.4036 13.4926 15.4573 13.472 15.5136L13.7995 14.5986C14.2169 14.4331 14.663 14.3522 15.112 14.3604C15.9607 14.3617 16.6607 14.7498 16.6607 15.7673Z" fill="#ED1B2E"/>
<path d="M18.0044 15.6718C18.0044 16.1318 19.6069 16.1005 19.6069 17.1405C19.6069 18.1643 18.8306 18.6718 17.8687 18.688C17.3422 18.694 16.8178 18.6217 16.3125 18.4736L16.5625 17.4999C16.887 17.6567 17.2427 17.7381 17.6031 17.738C17.81 17.738 18.3225 17.7136 18.3225 17.373C18.3225 16.7855 16.7913 17.0868 16.7913 15.7218C16.7913 14.753 17.8025 14.3643 18.6663 14.3643C19.0878 14.3785 19.5041 14.4617 19.8988 14.6105L19.6281 15.548C19.3088 15.3925 18.9583 15.3119 18.6031 15.3124C18.3181 15.3124 18.0044 15.3861 18.0044 15.6718Z" fill="#ED1B2E"/>
<path d="M21.0311 16.6312C20.9786 16.9374 20.933 17.1418 20.933 17.338C20.933 17.613 21.083 17.793 21.3173 17.793C21.3551 17.7928 21.3926 17.788 21.4292 17.7787C21.4511 17.9037 21.4767 18.0324 21.5048 18.1587H21.6255L21.563 18.6099C21.3234 18.6581 21.0798 18.6841 20.8355 18.6874C20.2373 18.6874 19.7617 18.3343 19.7617 17.4787C19.7617 17.2743 19.788 17.0699 19.8661 16.6387L20.068 15.4924L20.2555 14.5037L20.418 13.6243L20.4805 13.603H21.448C21.413 13.7805 21.3855 13.958 21.358 14.1387H21.483L21.4161 14.5037H22.2236L22.0798 15.4924H21.2323L21.0311 16.6312Z" fill="#ED1B2E"/>
<path d="M25.1609 18.1588L25.1503 18.2538C25.0556 18.3425 24.9446 18.4119 24.8234 18.4582C24.4393 18.6005 24.0342 18.678 23.6247 18.6876C23.0666 18.6876 22.6334 18.4863 22.3359 18.1582L25.1609 18.1588Z" fill="#ED1B2E"/>
<path d="M26.6125 18.1582L26.5419 18.602H25.4688L25.5394 18.1582H26.6125Z" fill="#ED1B2E"/>
<path d="M28.383 14.4656L28.1386 15.7299C28.0011 15.5868 27.8461 15.5549 27.6436 15.5549C27.308 15.5549 27.0742 15.8424 26.9442 16.2424H25.8398L25.9498 15.5412C26.0036 15.1831 26.0517 14.8331 26.0811 14.4593H27.0773L26.958 15.3106H26.9692C27.1423 14.8256 27.4886 14.3637 27.9292 14.3637C28.0866 14.359 28.2427 14.394 28.383 14.4656Z" fill="#ED1B2E"/>
<path d="M25.242 17.4248L25.2252 17.5798H24.9258L24.9583 17.5679C25.0583 17.5318 25.1535 17.4837 25.242 17.4248Z" fill="#ED1B2E"/>
<path d="M25.4095 16.9418H22.9814C22.9889 17.2062 23.057 17.4362 23.2633 17.58H21.9945C21.9073 17.3359 21.8629 17.0785 21.8633 16.8193H25.4302C25.4239 16.8618 25.417 16.9037 25.4095 16.9418Z" fill="#ED1B2E"/>
<path d="M28.7039 16.8193C28.6802 17.0748 28.6474 17.3283 28.6058 17.58H25.6289L25.7495 16.8193H28.7039Z" fill="#ED1B2E"/>
<path d="M28.7553 15.7498C28.7553 15.9139 28.7518 16.0775 28.7447 16.2404H28.1484C28.1653 15.5479 28.3541 14.9429 28.6841 14.4785C28.7003 14.6185 28.7134 14.7593 28.7234 14.901C28.7378 15.0916 28.7472 15.2848 28.7522 15.4785C28.7541 15.5685 28.7553 15.6591 28.7553 15.7498Z" fill="#ED1B2E"/>
<path d="M25.4941 16.2407C25.4872 16.3926 25.4622 16.6232 25.4316 16.8195H21.2972C21.2797 16.6276 21.2659 16.4345 21.2578 16.2407H25.4941Z" fill="#FCB330"/>
<path d="M26.542 18.6017H25.4689L25.5389 18.1586L25.6301 17.5799L25.7507 16.8192L25.842 16.2405L25.952 15.5392C26.0057 15.1811 26.0539 14.8311 26.0832 14.4574H27.0795L26.9601 15.3086H26.9714C27.1445 14.8236 27.4907 14.3617 27.9314 14.3617C28.0889 14.3576 28.245 14.3933 28.3851 14.4655L28.1407 15.7298C28.0032 15.5867 27.8482 15.5549 27.6457 15.5549C27.3101 15.5549 27.0764 15.8424 26.9464 16.2424H28.1489C28.1657 15.5499 28.3545 14.9448 28.6845 14.4805C28.672 14.3667 28.657 14.2536 28.6407 14.1411H21.4882L21.4214 14.5061H22.2289L22.0851 15.4949H21.2326L21.0314 16.633C20.9789 16.9392 20.9332 17.1436 20.9332 17.3399C20.9332 17.6149 21.0832 17.7949 21.3176 17.7949C21.3554 17.7946 21.3929 17.7898 21.4295 17.7805C21.5206 17.7538 21.6093 17.7193 21.6945 17.6774L21.6257 18.1586L21.5632 18.6099C21.3236 18.6581 21.0801 18.684 20.8357 18.6874C20.2376 18.6874 19.762 18.3342 19.762 17.4786C19.762 17.2742 19.7882 17.0698 19.8664 16.6386L20.0682 15.4924L20.2557 14.5036L20.4182 13.6242L20.4807 13.603H21.4482C21.4482 13.5886 21.4532 13.5749 21.4564 13.5605H28.5426C28.4926 13.3038 28.4337 13.0501 28.3657 12.7992H21.6364C21.6889 12.6042 21.7466 12.4115 21.8095 12.2211H28.1926C28.1076 11.963 28.0139 11.7086 27.9114 11.4599H22.0907C22.1707 11.2636 22.2566 11.0707 22.3482 10.8811H27.6539C27.5289 10.6215 27.3953 10.3678 27.2532 10.1199H22.7507C22.8637 9.9236 22.9826 9.73089 23.1076 9.54173H26.8982C26.7253 9.28006 26.5424 9.02631 26.3495 8.78048H23.6545C23.8107 8.58256 23.973 8.38964 24.1414 8.20173H25.8607C25.5894 7.90112 25.3023 7.61509 25.0007 7.34485C23.3774 5.89055 21.3677 4.93739 19.2144 4.6005C17.0611 4.2636 14.8563 4.55739 12.8664 5.44637C10.8764 6.33535 9.18643 7.78149 8.00054 9.61011C6.81465 11.4387 6.18359 13.5716 6.18359 15.7511C6.18359 17.9306 6.81465 20.0635 8.00054 21.8921C9.18643 23.7207 10.8764 25.1669 12.8664 26.0558C14.8563 26.9448 17.0611 27.2386 19.2144 26.9017C21.3677 26.5648 23.3774 25.6116 25.0007 24.1574C25.2282 23.9528 25.4472 23.7401 25.6576 23.5192H24.3451C24.1676 23.3321 23.9972 23.1392 23.8339 22.9405H26.1714C26.3747 22.6955 26.567 22.4419 26.7482 22.1799H23.2551C23.123 21.9911 22.998 21.7982 22.8801 21.6011H27.1257C27.2766 21.3536 27.4174 21.0999 27.5482 20.8399H22.4564C22.3601 20.6507 22.2693 20.458 22.1839 20.2617H27.8182C27.927 20.0117 28.027 19.7617 28.1176 19.5005H21.8845C21.817 19.3105 21.7545 19.1176 21.697 18.9217H28.3039C28.377 18.6717 28.442 18.418 28.497 18.1611H26.6126L26.542 18.6017ZM11.2032 18.6017L11.9895 14.4867H11.977L10.2807 18.6017H9.19137L9.03074 14.4867H9.01824L8.26824 18.6017H7.21636L8.15761 13.5805H9.96511L10.0332 16.9555H10.0457L11.4014 13.5805H13.2464L12.3295 18.6017H11.2032ZM15.1995 18.5924L15.2539 18.0136L15.2401 17.9973V18.0136C14.9795 18.4899 14.5195 18.6874 14.0395 18.6874C13.2714 18.6874 12.8457 18.2905 12.8457 17.4886C12.8457 16.473 13.7207 15.9724 14.8145 15.9724C15.0645 15.9724 15.3089 15.9967 15.4801 16.0124C15.492 15.9578 15.4968 15.9019 15.4945 15.8461C15.4945 15.4949 15.182 15.3586 14.8782 15.3211C14.5065 15.2717 14.1288 15.2946 13.7657 15.3886C13.7126 15.4036 13.4926 15.4574 13.472 15.5136L13.7995 14.5986C14.2169 14.4331 14.663 14.3522 15.112 14.3605C15.9626 14.3605 16.6626 14.7492 16.6626 15.7661C16.6626 16.4167 16.347 17.3455 16.2095 18.5911L15.1995 18.5924ZM19.6076 17.1405C19.6076 18.1642 18.8314 18.6717 17.8695 18.688C17.343 18.694 16.8185 18.6217 16.3132 18.4736L16.5632 17.4999C16.8877 17.6567 17.2435 17.7381 17.6039 17.738C17.8107 17.738 18.3232 17.7136 18.3232 17.373C18.3232 16.7855 16.792 17.0867 16.792 15.7217C16.792 14.753 17.8032 14.3642 18.667 14.3642C19.0885 14.3785 19.5048 14.4617 19.8995 14.6105L19.6289 15.548C19.3096 15.3924 18.959 15.3119 18.6039 15.3124C18.3189 15.3124 18.0051 15.3842 18.0051 15.6699C18.0051 16.1317 19.6076 16.1005 19.6076 17.1405ZM25.162 18.1586L25.1514 18.2536C25.0567 18.3423 24.9457 18.4117 24.8245 18.458C24.4404 18.6003 24.0353 18.6778 23.6257 18.6874C23.0676 18.6874 22.6345 18.4861 22.337 18.158C22.186 17.9894 22.0696 17.7927 21.9945 17.5792C21.9073 17.3351 21.8628 17.0778 21.8632 16.8186H21.2957C21.2782 16.6267 21.2645 16.4336 21.2564 16.2399H21.917C22.0851 15.353 22.667 14.3611 23.917 14.3611C24.8182 14.3611 25.4957 14.9086 25.4957 16.1636C25.4957 16.1861 25.4957 16.2111 25.4957 16.2399C25.4889 16.3917 25.4639 16.6224 25.4332 16.8186C25.427 16.8611 25.4201 16.903 25.4126 16.9436H22.9826C22.9901 17.208 23.0582 17.438 23.2645 17.5817C23.4051 17.6799 23.6095 17.7373 23.9039 17.7373C23.9039 17.7373 24.4564 17.7505 24.9257 17.5817L24.9582 17.5698C25.0582 17.5337 25.1535 17.4856 25.242 17.4267L25.2251 17.5817L25.162 18.1586Z" fill="#ED1B2E"/>
<path d="M21.694 17.6758L21.6252 18.1589H21.5034C21.4752 18.0339 21.4496 17.9089 21.4277 17.7789C21.5193 17.7523 21.6084 17.7178 21.694 17.6758Z" fill="#FCB330"/>
<path d="M25.2235 17.5801L25.161 18.1588H22.3366C22.1856 17.9902 22.0693 17.7936 21.9941 17.5801H23.2629C23.4035 17.6782 23.6079 17.7357 23.9023 17.7357C23.9023 17.7357 24.4548 17.7488 24.9241 17.5801H25.2235Z" fill="#FCB330"/>
<path d="M43.8195 15.7498C43.8195 17.9295 43.1884 20.0626 42.0023 21.8913C40.8162 23.7201 39.126 25.1663 37.1358 26.0551C35.1456 26.944 32.9405 27.2376 30.7871 26.9004C28.6336 26.5631 26.6239 25.6096 25.0007 24.1548C25.2282 23.9502 25.4472 23.7375 25.6576 23.5167H24.3451C24.1676 23.3296 23.9972 23.1367 23.8338 22.9379H26.1713C26.3747 22.6929 26.567 22.4394 26.7482 22.1773H23.2551C23.123 21.9886 22.998 21.7957 22.8801 21.5986H27.1257C27.2765 21.3511 27.4174 21.0973 27.5482 20.8373H22.4563C22.3601 20.6482 22.2692 20.4554 22.1838 20.2592H27.8182C27.927 20.0092 28.027 19.7592 28.1176 19.4979H21.8845C21.817 19.3079 21.7545 19.115 21.697 18.9192H28.3038C28.377 18.6692 28.442 18.4154 28.497 18.1586H25.5388L25.6301 17.5798H28.607C28.6486 17.3298 28.6813 17.0763 28.7051 16.8192H25.7507L25.842 16.2404H28.7445C28.7515 16.0779 28.7551 15.9144 28.7551 15.7498C28.7551 15.6592 28.7551 15.5686 28.752 15.4786C28.747 15.2848 28.7376 15.0917 28.7232 14.9011C28.7132 14.7594 28.7001 14.6186 28.6838 14.4786C28.6713 14.3648 28.6563 14.2517 28.6401 14.1392H21.3613C21.387 13.9586 21.4163 13.7811 21.4513 13.6036C21.4513 13.5892 21.4563 13.5754 21.4595 13.5611H28.5426C28.4926 13.3044 28.4336 13.0507 28.3657 12.7998H21.6363C21.6888 12.6048 21.7465 12.4121 21.8095 12.2217H28.1926C28.1076 11.9636 28.0138 11.7092 27.9113 11.4604H22.0907C22.1707 11.2642 22.2565 11.0713 22.3482 10.8817H27.6538C27.5288 10.6221 27.3953 10.3684 27.2532 10.1204H22.7507C22.8636 9.9242 22.9826 9.73149 23.1076 9.54232H26.8982C26.7253 9.28066 26.5424 9.02691 26.3495 8.78107H23.6545C23.8107 8.58316 23.973 8.39024 24.1413 8.20232H25.8607C25.5894 7.9015 25.3023 7.61527 25.0007 7.34482C26.6239 5.89008 28.6336 4.9365 30.7871 4.59928C32.9405 4.26205 35.1456 4.55562 37.1358 5.4445C39.126 6.33339 40.8162 7.77956 42.0023 9.60831C43.1884 11.4371 43.8195 13.5701 43.8195 15.7498Z" fill="#FCB330"/>
<path d="M11.3998 13.5806L10.0442 16.9556H10.0317L9.96359 13.5806H8.15609L7.21484 18.6018H8.26734L9.01734 14.4868H9.02984L9.19047 18.6018H10.2798L11.9761 14.4868H11.9886L11.2023 18.6018H12.3273L13.2442 13.5806H11.3998Z" fill="white"/>
<path d="M15.11 14.3619C14.6611 14.3536 14.2149 14.4346 13.7975 14.6L13.47 15.515C13.4906 15.4582 13.7106 15.4044 13.7638 15.39C14.1268 15.2961 14.5045 15.2731 14.8762 15.3225C15.1787 15.36 15.4925 15.4963 15.4925 15.8475C15.4948 15.9033 15.49 15.9592 15.4781 16.0138C15.3069 15.9982 15.06 15.9738 14.8125 15.9738C13.7219 15.9738 12.8438 16.4738 12.8438 17.49C12.8438 18.2919 13.2694 18.6888 14.0375 18.6888C14.5175 18.6888 14.975 18.4907 15.2381 18.0144V18L15.2519 18.0163L15.1975 18.595H16.2056C16.3431 17.3494 16.6587 16.4207 16.6587 15.77C16.6606 14.75 15.9606 14.3619 15.11 14.3619ZM14.4306 17.7369C14.3206 17.7366 14.2151 17.6931 14.1368 17.6159C14.0585 17.5386 14.0137 17.4338 14.0119 17.3238C14.0119 16.9588 14.4444 16.7132 15.0344 16.7369C15.1444 16.734 15.2545 16.7417 15.3631 16.76C15.275 17.3125 14.9594 17.7357 14.4306 17.7357V17.7369Z" fill="white"/>
<path d="M34.1353 18.0129L34.1216 17.9973V18.0129C33.8609 18.4892 33.4009 18.6879 32.9209 18.6879C32.1522 18.6879 31.7266 18.2911 31.7266 17.4892C31.7266 16.4736 32.6053 15.9729 33.6959 15.9729C33.9459 15.9729 34.1903 15.9973 34.3616 16.0129C34.3729 15.9581 34.3775 15.9021 34.3753 15.8461C34.3753 15.4961 34.0628 15.3592 33.7597 15.3217C33.3882 15.2724 33.0107 15.2951 32.6478 15.3886C32.5941 15.4042 32.3741 15.4579 32.3534 15.5136L32.6809 14.5986C33.0983 14.433 33.5445 14.3521 33.9934 14.3604C34.8441 14.3604 35.5441 14.7498 35.5441 15.7654C35.5441 16.4167 35.2316 17.3454 35.0909 18.5917H34.0803L34.1353 18.0129ZM33.3128 17.7354C33.8409 17.7354 34.1566 17.3148 34.2459 16.7592C34.1372 16.7404 34.0269 16.7325 33.9166 16.7354C33.3266 16.7117 32.8941 16.9573 32.8941 17.3229C32.896 17.4328 32.941 17.5375 33.0193 17.6147C33.0975 17.6918 33.2029 17.7351 33.3128 17.7354Z" fill="white"/>
<path d="M18.6031 15.3125C18.9581 15.3104 19.3089 15.3892 19.6287 15.5431L19.8994 14.6056C19.5047 14.4568 19.0884 14.3737 18.6669 14.3594C17.805 14.3594 16.7919 14.7481 16.7919 15.7169C16.7919 17.0819 18.3231 16.7794 18.3231 17.3681C18.3231 17.7088 17.8106 17.7331 17.6038 17.7331C17.2435 17.7349 16.8876 17.6552 16.5625 17.5L16.3125 18.4737C16.8178 18.6216 17.3423 18.6937 17.8687 18.6875C18.8306 18.6712 19.6069 18.1637 19.6069 17.14C19.6069 16.1 18.0044 16.1313 18.0044 15.6713C18.0044 15.3863 18.3181 15.3125 18.6031 15.3125Z" fill="white"/>
<path d="M21.2312 15.4929H22.0837L22.2274 14.5041H21.4199L21.4868 14.1391L21.5849 13.6035H20.4824L20.4199 13.6248L20.2574 14.5041L20.0699 15.4929L19.868 16.6391C19.7899 17.0704 19.7637 17.2748 19.7637 17.4791C19.7637 18.3348 20.2393 18.6879 20.8374 18.6879C21.0808 18.6842 21.3232 18.658 21.5618 18.6098L21.6243 18.1585L21.6918 17.6754C21.6066 17.7173 21.5179 17.7519 21.4268 17.7785C21.3902 17.7878 21.3527 17.7927 21.3149 17.7929C21.0805 17.7929 20.9305 17.6129 20.9305 17.3379C20.9305 17.1416 20.9762 16.9373 21.0287 16.631L21.2312 15.4929Z" fill="white"/>
<path d="M27.93 14.3617C27.4894 14.3617 27.1431 14.8235 26.97 15.3085H26.9587L27.0781 14.4573H26.0819C26.0525 14.8323 26.0044 15.181 25.9506 15.5392L25.8406 16.2404L25.75 16.8192L25.63 17.5798L25.5387 18.1585L25.4688 18.6017H26.5419L26.6125 18.1585L26.705 17.5798L26.8256 16.8192L26.8463 16.6942C26.8647 16.5407 26.898 16.3893 26.9456 16.2423C27.0756 15.8442 27.3094 15.5548 27.645 15.5548C27.8475 15.5548 28.0025 15.5867 28.14 15.7298L28.3844 14.4654C28.2441 14.3931 28.0878 14.3574 27.93 14.3617Z" fill="white"/>
<path d="M37.0299 14.4577L36.9105 15.309H36.9224C37.0955 14.824 37.4418 14.3621 37.8824 14.3621C38.0399 14.3584 38.1959 14.394 38.3362 14.4658L38.0912 15.7302C37.9543 15.5871 37.7993 15.5552 37.5968 15.5552C37.143 15.5552 36.8749 16.0802 36.7974 16.6927L36.4937 18.6021H35.4199L35.903 15.5396C35.9568 15.1815 36.0043 14.8315 36.0343 14.4577H37.0299Z" fill="white"/>
<path d="M30.8534 14.4866C31.2047 14.4866 31.5409 14.5441 31.8909 14.7891L32.1534 13.7604C31.9266 13.6591 31.4791 13.4941 30.6803 13.4941C29.8097 13.4941 29.1222 13.8635 28.6841 14.4785C28.3541 14.9429 28.1653 15.5479 28.1484 16.2404C28.1484 16.2766 28.1484 16.3135 28.1484 16.3498C28.1481 16.5068 28.1587 16.6636 28.1803 16.8191C28.2145 17.0826 28.2893 17.3392 28.4022 17.5798C28.7303 18.2673 29.3684 18.6879 30.2584 18.6879C30.6365 18.6854 31.0115 18.6197 31.3678 18.4935L31.4872 17.4148C31.168 17.6041 30.8026 17.7012 30.4316 17.6954C29.7634 17.6954 29.2928 17.2779 29.2928 16.386C29.2909 15.4373 29.7384 14.4866 30.8534 14.4866Z" fill="white"/>
<path d="M41.0418 13.6032L40.7649 15.2625H40.7499C40.5793 14.835 40.1805 14.5294 39.6049 14.5294C38.4799 14.5294 37.9355 15.7432 37.9355 17.0475C37.9374 17.9375 38.4562 18.6875 39.1649 18.6875C39.7974 18.6875 40.0693 18.405 40.3605 17.9625H40.373L40.2843 18.5957H41.328C41.3399 18.4357 41.3593 18.2375 41.3974 18.0007L42.1568 13.6025L41.0418 13.6032ZM39.6581 17.635C39.2974 17.635 39.1143 17.3069 39.1143 16.8188C39.1143 16.2007 39.4368 15.5825 39.9749 15.5825C40.3543 15.5825 40.5187 15.995 40.5187 16.3919C40.5187 16.9182 40.1962 17.635 39.6581 17.635Z" fill="white"/>
<path d="M23.9157 14.3618C22.6657 14.3618 22.0851 15.3537 21.9157 16.2406C21.8804 16.4247 21.8622 16.6118 21.8613 16.7993C21.8613 16.8062 21.8613 16.8124 21.8613 16.8193C21.8609 17.0785 21.9053 17.3359 21.9926 17.5799C22.0677 17.7934 22.1841 17.9901 22.3351 18.1587C22.6326 18.4868 23.0657 18.6881 23.6238 18.6881C24.033 18.6781 24.4376 18.6004 24.8213 18.4581C24.9425 18.4118 25.0535 18.3424 25.1482 18.2537L25.1588 18.1587L25.2213 17.5799L25.2382 17.4249C25.1497 17.4838 25.0544 17.5319 24.9545 17.5681L24.922 17.5799C24.4526 17.7487 23.9001 17.7356 23.9001 17.7356C23.6057 17.7356 23.4001 17.6781 23.2607 17.5799C23.0545 17.4362 22.9863 17.2049 22.9788 16.9418H25.407C25.4145 16.9037 25.4213 16.8618 25.4276 16.8168C25.4582 16.6206 25.4832 16.3899 25.4901 16.2381C25.4901 16.2093 25.4901 16.1843 25.4901 16.1618C25.4945 14.9093 24.817 14.3618 23.9157 14.3618ZM23.9282 15.3143C24.3657 15.3143 24.5076 15.6893 24.5076 16.1324H23.0538C23.1388 15.7356 23.4157 15.3124 23.9282 15.3124V15.3143Z" fill="white"/>
<path d="M42.6287 18.1413H42.5037V18.3857H42.3887V17.75H42.6212C42.6838 17.7462 42.7459 17.7636 42.7974 17.7994C42.8183 17.8166 42.8349 17.8384 42.8457 17.8632C42.8566 17.8879 42.8614 17.9149 42.8599 17.9419C42.8612 17.98 42.85 18.0176 42.828 18.0488C42.8052 18.0787 42.7745 18.1016 42.7393 18.115L42.8874 18.3794V18.385H42.7624L42.6287 18.1413ZM42.5037 18.0525H42.6212C42.654 18.0545 42.6864 18.0445 42.7124 18.0244C42.7232 18.0148 42.7317 18.0029 42.7373 17.9896C42.7429 17.9763 42.7455 17.9619 42.7449 17.9475C42.7458 17.933 42.7436 17.9185 42.7384 17.9049C42.7333 17.8913 42.7252 17.879 42.7149 17.8688C42.6895 17.8485 42.6574 17.8382 42.6249 17.84H42.5005L42.5037 18.0525Z" fill="white"/>
<path d="M42.6074 18.5781C42.5085 18.5781 42.4119 18.5488 42.3296 18.4939C42.2474 18.4389 42.1833 18.3608 42.1455 18.2695C42.1076 18.1781 42.0977 18.0776 42.117 17.9806C42.1363 17.8836 42.1839 17.7945 42.2539 17.7246C42.3238 17.6546 42.4129 17.607 42.5099 17.5877C42.6069 17.5684 42.7074 17.5783 42.7988 17.6162C42.8901 17.654 42.9682 17.7181 43.0232 17.8003C43.0781 17.8826 43.1074 17.9792 43.1074 18.0781C43.1074 18.2107 43.0547 18.3379 42.961 18.4317C42.8672 18.5254 42.74 18.5781 42.6074 18.5781ZM42.6074 17.6406C42.5208 17.64 42.4359 17.6651 42.3635 17.7128C42.2912 17.7605 42.2346 17.8286 42.201 17.9085C42.1674 17.9884 42.1583 18.0765 42.1748 18.1615C42.1914 18.2466 42.2328 18.3249 42.2938 18.3864C42.3549 18.4479 42.4328 18.4898 42.5178 18.507C42.6027 18.5241 42.6909 18.5156 42.771 18.4826C42.8511 18.4496 42.9196 18.3935 42.9678 18.3215C43.0161 18.2495 43.0418 18.1648 43.0418 18.0781C43.0415 17.9628 42.9957 17.8524 42.9143 17.7707C42.833 17.689 42.7227 17.6427 42.6074 17.6419V17.6406Z" fill="white"/>
<path d="M42.6287 22.733H42.5037V22.9768H42.3887V22.3424H42.6212C42.6838 22.3382 42.746 22.3557 42.7974 22.3918C42.8313 22.4231 42.8529 22.4655 42.8584 22.5113C42.8639 22.5571 42.8529 22.6033 42.8274 22.6418C42.8048 22.6719 42.774 22.6949 42.7387 22.708L42.8868 22.9724V22.978H42.7618L42.6287 22.733ZM42.5037 22.6436H42.6212C42.654 22.6456 42.6864 22.6356 42.7124 22.6155C42.7232 22.6059 42.7317 22.594 42.7373 22.5807C42.7429 22.5674 42.7455 22.5531 42.7449 22.5386C42.7458 22.5241 42.7436 22.5096 42.7384 22.496C42.7332 22.4825 42.7252 22.4701 42.7149 22.4599C42.6895 22.4396 42.6574 22.4293 42.6249 22.4311H42.5005L42.5037 22.6436Z" fill="#FCB330"/>
<path d="M42.6074 23.1694C42.5085 23.1694 42.4119 23.1401 42.3296 23.0852C42.2474 23.0302 42.1833 22.9521 42.1455 22.8608C42.1076 22.7694 42.0977 22.6689 42.117 22.5719C42.1363 22.4749 42.1839 22.3858 42.2539 22.3159C42.3238 22.246 42.4129 22.1983 42.5099 22.179C42.6069 22.1597 42.7074 22.1697 42.7988 22.2075C42.8901 22.2453 42.9682 22.3094 43.0232 22.3916C43.0781 22.4739 43.1074 22.5705 43.1074 22.6694C43.1074 22.802 43.0547 22.9292 42.961 23.023C42.8672 23.1168 42.74 23.1694 42.6074 23.1694ZM42.6074 22.2319C42.5215 22.2319 42.4375 22.2574 42.3661 22.3051C42.2947 22.3529 42.239 22.4207 42.2061 22.5001C42.1732 22.5795 42.1646 22.6668 42.1814 22.7511C42.1982 22.8353 42.2395 22.9127 42.3003 22.9735C42.361 23.0342 42.4384 23.0756 42.5227 23.0923C42.6069 23.1091 42.6943 23.1005 42.7736 23.0676C42.853 23.0347 42.9209 22.9791 42.9686 22.9076C43.0163 22.8362 43.0418 22.7522 43.0418 22.6663C43.0407 22.5516 42.9945 22.4419 42.9132 22.3609C42.832 22.2799 42.7222 22.234 42.6074 22.2332V22.2319Z" fill="#FCB330"/>
</svg>
