<svg width="95" height="96" viewBox="0 0 95 96" fill="none" xmlns="http://www.w3.org/2000/svg">
<circle cx="47.2371" cy="48.1761" r="47.2371" fill="#FAF2EF"/>
<path d="M69.257 28.4878H62.8415V25.773C62.8415 25.568 62.76 25.3714 62.6151 25.2264C62.4701 25.0814 62.2735 25 62.0685 25H57.3676C57.1638 25.0019 56.969 25.0842 56.8256 25.2289C56.6822 25.3737 56.6017 25.5692 56.6017 25.773V28.4878H38.3725V25.773C38.3725 25.568 38.2911 25.3714 38.1461 25.2264C38.0012 25.0814 37.8045 25 37.5995 25H32.9001C32.6951 25 32.4984 25.0814 32.3535 25.2264C32.2085 25.3714 32.1271 25.568 32.1271 25.773V28.4878H25.773C25.568 28.4878 25.3714 28.5692 25.2264 28.7142C25.0814 28.8592 25 29.0558 25 29.2608V69.227C25 69.432 25.0814 69.6286 25.2264 69.7736C25.3714 69.9186 25.568 70 25.773 70H69.2642C69.4692 70 69.6658 69.9186 69.8108 69.7736C69.9557 69.6286 70.0371 69.432 70.0371 69.227V29.2594C70.037 29.1574 70.0166 29.0564 69.9772 28.9623C69.9378 28.8683 69.8802 28.7829 69.8077 28.7112C69.7352 28.6394 69.6492 28.5828 69.5547 28.5444C69.4602 28.5061 69.359 28.4869 69.257 28.4878ZM58.3163 26.7103H61.134V28.4878H58.3163V26.7103ZM33.8417 26.7103H36.6579V28.4878H33.8417V26.7103ZM68.3225 68.2897H26.7146V60.5653L30.8197 65.0819H30.7811L32.0799 66.5251C32.1569 66.6106 32.251 66.6789 32.3561 66.7257C32.4612 66.7725 32.575 66.7966 32.69 66.7965H68.3182L68.3225 68.2897ZM27.5305 58.915H32.6986V64.6004L27.5305 58.915ZM68.3182 65.0762H34.4089V57.9677C34.4089 57.7627 34.3275 57.5661 34.1825 57.4211C34.0376 57.2761 33.8409 57.1947 33.6359 57.1947H26.7103V37.2623H68.3182V65.0762ZM68.3182 35.5477H26.7103V30.2024H32.1228V33.4702C32.1228 33.6752 32.2042 33.8718 32.3492 34.0168C32.4942 34.1617 32.6908 34.2432 32.8958 34.2432H33.0644C33.2694 34.2432 33.466 34.1617 33.611 34.0168C33.7559 33.8718 33.8374 33.6752 33.8374 33.4702V30.2024H56.6017V33.4702C56.6017 33.6752 56.6832 33.8718 56.8281 34.0168C56.9731 34.1617 57.1697 34.2432 57.3747 34.2432H57.5433C57.7484 34.2432 57.945 34.1617 58.0899 34.0168C58.2349 33.8718 58.3163 33.6752 58.3163 33.4702V30.2024H68.3182V35.5477Z" fill="#231F20"/>
<path d="M47.5088 39.0491C45.9057 39.0489 44.3183 39.3645 42.8371 39.9778C41.356 40.5912 40.0102 41.4903 38.8765 42.6238C37.7429 43.7573 36.8436 45.103 36.2301 46.5841C35.6166 48.0652 35.3008 49.6526 35.3008 51.2557C35.3008 52.8588 35.6166 54.4462 36.2301 55.9273C36.8436 57.4084 37.7429 58.7541 38.8765 59.8876C40.0102 61.0211 41.356 61.9202 42.8371 62.5335C44.3183 63.1469 45.9057 63.4625 47.5088 63.4623C49.1118 63.4623 50.6991 63.1466 52.1801 62.5331C53.6611 61.9197 55.0067 61.0205 56.1402 59.8871C57.2737 58.7536 58.1728 57.4079 58.7863 55.927C59.3997 54.446 59.7155 52.8587 59.7155 51.2557C59.7155 48.0183 58.4294 44.9135 56.1402 42.6243C53.851 40.3351 50.7462 39.0491 47.5088 39.0491ZM52.0811 52.2087H47.476C47.335 52.2089 47.1954 52.1813 47.0651 52.1274C46.9348 52.0736 46.8165 51.9945 46.7168 51.8949C46.6171 51.7952 46.5381 51.6768 46.4842 51.5465C46.4303 51.4163 46.4027 51.2766 46.4029 51.1357V43.9329C46.4028 43.6481 46.5153 43.3749 46.7158 43.1727C46.918 42.9722 47.1912 42.8597 47.476 42.8598C47.7605 42.8598 48.0335 42.9729 48.2347 43.1741C48.436 43.3753 48.549 43.6483 48.549 43.9329V50.0626H52.0811C52.2222 50.0622 52.3619 50.0897 52.4924 50.1434C52.6228 50.1971 52.7413 50.276 52.8413 50.3755C53.0413 50.578 53.1537 50.851 53.1542 51.1357C53.1538 51.2767 53.1257 51.4163 53.0713 51.5464C53.0169 51.6766 52.9374 51.7947 52.8374 51.8941C52.7373 51.9935 52.6186 52.0722 52.4881 52.1257C52.3576 52.1792 52.2179 52.2064 52.0769 52.2059L52.0811 52.2087Z" fill="#F76A2A"/>
</svg>
