<svg width="50" height="32" viewBox="0 0 50 32" fill="none" xmlns="http://www.w3.org/2000/svg">
<path d="M46.61 0H3.38813C2.48979 0.00115796 1.62858 0.358578 0.99342 0.993859C0.358256 1.62914 0.000992261 2.49041 0 3.38875V22.1712H0.015625V22.1875H0V28.115C0.00115762 29.0132 0.358491 29.8743 0.993637 30.5095C1.62878 31.1446 2.4899 31.502 3.38813 31.5031H46.6113C47.5096 31.502 48.3709 31.1446 49.0062 30.5093C49.6414 29.874 49.9988 29.0128 50 28.1144V3.38562C49.998 2.48755 49.6401 1.6269 49.0046 0.992273C48.3692 0.357649 47.5081 0.000824915 46.61 0ZM49.3738 28.1175C49.3731 28.8503 49.0817 29.5529 48.5635 30.071C48.0454 30.5892 47.3428 30.8806 46.61 30.8813H3.38813C2.65539 30.8804 1.9529 30.589 1.43477 30.0709C0.916648 29.5527 0.625205 28.8502 0.624378 28.1175V3.38562C0.626032 2.65343 0.91784 1.95174 1.43587 1.43429C1.95391 0.916841 2.65593 0.625825 3.38813 0.625H46.6113C47.3433 0.625991 48.0451 0.9171 48.5629 1.43455C49.0807 1.952 49.3723 2.65359 49.3738 3.38562V28.1175Z" fill="#325881"/>
<path d="M46.6106 0.625H3.38875C2.65601 0.625827 1.95352 0.917273 1.43539 1.4354C0.91727 1.95352 0.625827 2.65601 0.625 3.38875V28.1144C0.625827 28.8471 0.91727 29.5496 1.43539 30.0677C1.95352 30.5859 2.65601 30.8773 3.38875 30.8781H46.6119C47.3447 30.8775 48.0472 30.5861 48.5654 30.0679C49.0836 29.5498 49.375 28.8472 49.3756 28.1144V3.38562C49.3741 2.65316 49.0822 1.95119 48.5639 1.43367C48.0455 0.916147 47.3431 0.625329 46.6106 0.625ZM47.9375 28.1175C47.9372 28.4693 47.7973 28.8066 47.5485 29.0554C47.2997 29.3041 46.9624 29.444 46.6106 29.4444H3.38875C3.037 29.444 2.69976 29.3041 2.45109 29.0553C2.20243 28.8066 2.06267 28.4692 2.0625 28.1175V22.1712H47.9375V28.1175ZM47.9375 9.31188H2.0625V3.38562C2.06267 3.03387 2.20243 2.69657 2.45109 2.44779C2.69976 2.199 3.037 2.05908 3.38875 2.05875H46.6119C46.9637 2.05908 47.301 2.19898 47.5498 2.44775C47.7985 2.69651 47.9384 3.03382 47.9387 3.38562L47.9375 9.31188Z" fill="white"/>
<path d="M47.9375 3.38547V9.30859H2.0625V3.38547C2.06267 3.03372 2.20243 2.69641 2.45109 2.44763C2.69976 2.19885 3.037 2.05892 3.38875 2.05859H46.6119C46.9635 2.05926 47.3004 2.1993 47.5489 2.44803C47.7974 2.69676 47.9372 3.03388 47.9375 3.38547Z" fill="#325881"/>
<path d="M47.9375 22.1714V28.1145C47.9372 28.4663 47.7973 28.8036 47.5485 29.0524C47.2997 29.3012 46.9624 29.4411 46.6106 29.4414H3.38875C3.037 29.4411 2.69976 29.3011 2.45109 29.0524C2.20243 28.8036 2.06267 28.4663 2.0625 28.1145V22.1714H47.9375Z" fill="#DFA43B"/>
<path d="M9.35578 11.1248C10.9358 11.1248 12.5152 11.1286 14.0952 11.1211C14.3552 11.1211 14.3358 11.2723 14.3408 11.4461C14.402 13.574 14.4645 15.7026 14.5283 17.8317C14.5283 17.8892 14.5408 17.9473 14.557 18.0905C14.6577 17.9373 14.7208 17.8511 14.7739 17.7586C15.7383 16.0848 16.6902 14.4042 17.6702 12.7405C17.9733 12.2261 18.1514 11.7305 17.8208 11.1448H20.7789C20.7195 11.2561 20.6833 11.3373 20.6352 11.4117C18.6981 14.4017 16.7587 17.3903 14.817 20.3773C14.7545 20.4748 14.6195 20.5873 14.5164 20.5898C13.7377 20.6073 12.9583 20.5992 12.1414 20.5992C12.1158 20.3417 12.0845 20.0992 12.0683 19.8542C11.9183 17.5861 11.7764 15.3167 11.6189 13.0486C11.5789 12.4755 11.2189 12.1067 10.727 11.8611C10.2652 11.6298 9.79766 11.413 9.33203 11.1898L9.35578 11.1248Z" fill="#325881"/>
<path d="M36.5882 11.145H39.3345C39.3751 11.625 39.4032 12.0825 39.4545 12.5331C39.6513 14.2831 39.8557 16.0369 40.057 17.7888C40.1257 18.3863 40.1607 18.9906 40.2726 19.58C40.3351 19.9219 40.5257 20.24 40.6626 20.58H37.6095C37.9301 19.7831 37.5932 18.9981 37.5795 18.205C37.5757 17.9919 37.4688 17.9244 37.262 17.9263C36.512 17.935 35.762 17.9231 35.017 17.9375C34.9051 17.9375 34.7395 18.0125 34.6938 18.1019C34.4113 18.6544 34.1357 19.2131 33.9007 19.7894C33.8038 20.025 33.8138 20.3038 33.7713 20.5894H31.4395C32.3032 19.0231 33.1763 17.46 34.0307 15.8863C34.877 14.3244 35.7876 12.7975 36.5882 11.145ZM37.1351 13.4931L37.0445 13.4694L35.4057 16.615H37.4113C37.3176 15.5538 37.2263 14.5238 37.1351 13.4931Z" fill="#325881"/>
<path d="M32.2832 11.9136C32.2088 12.3342 32.122 12.7561 32.0332 13.1979L32.2832 11.9136Z" fill="#325881"/>
<path d="M22.1734 20.5856H18.8652C19.6259 19.2931 19.8746 17.8387 20.3415 16.4637C20.8084 15.0887 21.2377 13.7037 21.6346 12.3087C21.7346 11.9587 21.6496 11.5587 21.6496 11.1519H24.8634C23.9427 12.6144 23.7284 14.3287 23.1609 15.9144C22.8021 16.9187 22.5359 17.955 22.1996 18.9681C22.0658 19.3389 22.0402 19.7402 22.1259 20.125C22.1509 20.2774 22.1668 20.4313 22.1734 20.5856Z" fill="#325881"/>
<path d="M32.37 11.4684L32.2844 11.914L32.0344 13.1984C31.4862 12.9359 30.9812 12.6715 30.4587 12.4484C29.9781 12.2446 29.4769 12.1359 28.9406 12.2303C28.0725 12.3884 27.7287 13.2303 28.2887 13.9178C28.5175 14.1862 28.7758 14.428 29.0588 14.6384C29.5181 14.9946 30.0006 15.3215 30.4725 15.6615C31.9837 16.7465 32.035 18.5221 30.6331 19.7315C29.0419 21.1015 27.285 21.1115 25.4325 20.4396C25.0344 20.2953 24.6594 20.0853 24.2812 19.8921L24.0781 19.7903V18.0996V18.1215V18.0996C24.2488 18.1865 24.3613 18.2534 24.4806 18.304C25.0613 18.5503 25.6306 18.8234 26.2156 19.0584C26.7781 19.2853 27.3481 19.4853 27.9544 19.284C28.7475 19.0209 29.3819 18.0965 28.6969 17.3728C28.4729 17.1433 28.2284 16.9349 27.9662 16.7503C27.4694 16.3915 26.9581 16.0528 26.4531 15.7059C25.6313 15.1396 25.1488 13.8565 25.3869 12.8903C25.6731 11.729 26.9494 11.0778 28.0119 10.7953C29.4275 10.4203 30.9375 10.7059 32.2175 11.3846L32.37 11.4684Z" fill="#325881"/>
</svg>
