<svg xmlns="http://www.w3.org/2000/svg" xmlns:xlink="http://www.w3.org/1999/xlink" version="1.1" width="50" height="50" viewBox="0 0 50 50" xml:space="preserve">
<desc>Created with Fabric.js 3.5.0</desc>
<defs>
</defs>
<rect x="0" y="0" width="100%" height="100%" fill="#ffffff"/>
<g transform="matrix(0.5051 0 0 0.5051 25.0022 25.0022)" id="27300">
<g style="" vector-effect="non-scaling-stroke">
		<g transform="matrix(1 0 0 1 -0.0003 28.235)" id="443226">
<path style="stroke: none; stroke-width: 1; stroke-dasharray: none; stroke-linecap: butt; stroke-dashoffset: 0; stroke-linejoin: miter; stroke-miterlimit: 4; is-custom-font: none; font-file-url: none; fill: rgb(179,179,179); fill-rule: nonzero; opacity: 1;" transform=" translate(-44.9997, -71.735)" d="M 85.91 86.79 l 4.07 0.33 H 0.02 v -2.76 c 0 -0.02 0.01 -0.04 0.01 -0.06 c 0 -1.49 -0.01 -2.98 -0.01 -4.47 c -0.04 -3.48 2.06 -5.66 4.63 -7.5 c 5.41 -3.88 11.57 -6.08 17.95 -7.71 c 1.54 -0.39 2.69 -1.1 3.66 -2.36 c 1.62 -2.12 3.44 -4.06 5.79 -5.42 c 0.27 -0.15 0.54 -0.3 0.81 -0.45 c 0 0.42 0 0.84 -0.01 1.26 c 0 1.35 -0.01 2.71 -0.02 4.06 c -0.09 1.76 0.79 2.94 2.23 3.81 c 1.51 0.91 3 1.85 4.46 2.83 c 2.47 1.65 4.15 3.84 4.47 6.89 c 0.06 0.4 -0.25 1.08 0.47 1.02 c 0.42 -0.04 0.28 -0.64 0.29 -1.01 c 0.14 -1.38 0.71 -2.58 1.45 -3.75 c 1.67 -2.66 4.41 -3.98 6.85 -5.67 c 1.11 -0.77 2.35 -1.41 2.8 -2.84 c 0.01 -2.21 0.02 -4.43 0.03 -6.64 c 2.8 1.43 4.91 3.68 6.82 6.07 c 0.91 1.13 1.9 1.82 3.27 2.23 c 6.61 1.95 13.16 4.08 18.88 8.09 c 2.89 2.01 5.18 4.46 5.1 8.32 v 4.07 c 0.01 0.56 0.02 1.11 0.03 1.66 H 85.91 z" stroke-linecap="round"/>
</g>
		<g transform="matrix(1 0 0 1 -0.6309 32.2519)" id="69417">
<path style="stroke: none; stroke-width: 1; stroke-dasharray: none; stroke-linecap: butt; stroke-dashoffset: 0; stroke-linejoin: miter; stroke-miterlimit: 4; is-custom-font: none; font-file-url: none; fill: rgb(178,178,178); fill-rule: nonzero; opacity: 1;" transform=" translate(-44.3691, -75.7519)" d="M 44.46 76.26 c -0.72 0.06 -0.41 -0.62 -0.47 -1.02 c 0.25 0.29 0.51 0.29 0.76 0.01 C 44.74 75.62 44.88 76.22 44.46 76.26 z" stroke-linecap="round"/>
</g>
		<g transform="matrix(1 0 0 1 -0.73 0.4094)" id="416082">
<path style="stroke: none; stroke-width: 1; stroke-dasharray: none; stroke-linecap: butt; stroke-dashoffset: 0; stroke-linejoin: miter; stroke-miterlimit: 4; is-custom-font: none; font-file-url: none; fill: rgb(221,221,221); fill-rule: nonzero; opacity: 1;" transform=" translate(-44.2699, -43.9094)" d="M 62.84 40.23 c -0.15 0.37 -0.32 0.88 -0.62 1.02 c -2.78 1.23 -2.71 4.04 -3.54 6.32 c -0.69 1.88 -1.8 3.49 -2.83 5.16 c -2.82 3.22 -6.11 5.45 -10.59 5.76 c -4.49 0.33 -8.09 -1.47 -11.4 -4.23 c 2.85 4.59 6.91 7.45 12.06 8.74 c 3.04 0.77 6.11 0.42 9.17 0.08 c 0.25 -0.03 0.5 -0.06 0.76 -0.09 c -0.45 1.43 -1.69 2.07 -2.8 2.84 c -2.44 1.69 -5.18 3.01 -6.85 5.67 c -0.74 1.17 -1.31 2.37 -1.45 3.75 c -0.25 0.28 -0.51 0.28 -0.76 -0.01 c -0.32 -3.05 -2 -5.24 -4.47 -6.89 c -1.46 -0.98 -2.95 -1.92 -4.46 -2.83 c -1.44 -0.87 -2.32 -2.05 -2.23 -3.81 c 0.01 -1.35 0.02 -2.71 0.02 -4.06 c 0.01 -0.42 0.01 -0.84 0.01 -1.26 c 0.16 -2.29 -0.11 -4.39 -1.5 -6.39 c -1.23 -1.78 -1.97 -3.88 -2.24 -6.09 c -0.08 -0.6 -0.25 -1.32 -0.97 -1.41 c -1.71 -0.22 -2.09 -1.63 -2.59 -2.86 c -1.55 -3.86 -1.79 -7.76 -0.05 -11.65 c 0.69 2.62 1.35 5.25 2.09 7.85 c 0.15 0.53 0.09 1.46 0.81 1.46 c 0.87 0 0.8 -0.98 0.98 -1.59 c 0.17 -0.57 0.17 -1.21 0.17 -1.82 c 0 -2.65 0.1 -5.3 0.39 -7.95 c 0.69 -6.15 3.88 -10.13 9.22 -11.33 c 0.92 -0.2 1.94 0.13 2.77 -0.5 c 2.59 -0.02 5.17 -0.04 7.76 -0.06 c 0.17 0.03 0.33 0.05 0.48 0.05 c 1.2 0 2.09 -0.87 3.13 -1.33 c 0.1 -0.03 0.19 -0.08 0.29 -0.13 c 0.2 -0.12 0.4 -0.25 0.65 -0.28 h 0.1 c 0.03 0.16 0.05 0.32 0.07 0.48 c -0.03 0.54 0.06 1.09 0.03 1.62 v 0.06 c 0.01 0.01 0.01 0.01 0.01 0.02 c 0.05 0.39 0.11 0.79 0.14 1.2 c 0.01 0.13 0.03 0.25 0.07 0.37 c 0.17 3.25 1.47 6.04 3.41 8.58 c 0.5 0.65 1.07 1.24 1.05 2.14 c 0.02 2.86 0.03 5.72 0.05 8.57 c 0.13 0.8 0.14 1.55 1.2 1.97 c 1.55 -2.79 1.87 -5.99 2.83 -8.98 C 64.88 32.39 64.35 36.32 62.84 40.23 z" stroke-linecap="round"/>
</g>
		<g transform="matrix(1 0 0 1 -0.13 14.5961)" id="33687">
<path style="stroke: none; stroke-width: 1; stroke-dasharray: none; stroke-linecap: butt; stroke-dashoffset: 0; stroke-linejoin: miter; stroke-miterlimit: 4; is-custom-font: none; font-file-url: none; fill: rgb(200,198,199); fill-rule: nonzero; opacity: 1;" transform=" translate(-44.87, -58.0961)" d="M 55.88 56.35 c -0.01 2.21 -0.02 4.43 -0.03 6.64 c -0.26 0.03 -0.51 0.06 -0.76 0.09 c -3.06 0.34 -6.13 0.69 -9.17 -0.08 c -5.15 -1.29 -9.21 -4.15 -12.06 -8.74 c 3.31 2.76 6.91 4.56 11.4 4.23 c 4.48 -0.31 7.77 -2.54 10.59 -5.76 C 55.86 53.93 55.87 55.15 55.88 56.35 z" stroke-linecap="round"/>
</g>
		<g transform="matrix(1 0 0 1 -0.6309 32.2519)" id="492197">
<path style="stroke: none; stroke-width: 1; stroke-dasharray: none; stroke-linecap: butt; stroke-dashoffset: 0; stroke-linejoin: miter; stroke-miterlimit: 4; is-custom-font: none; font-file-url: none; fill: rgb(191,190,191); fill-rule: nonzero; opacity: 1;" transform=" translate(-44.3691, -75.7519)" d="M 44.46 76.26 c -0.72 0.06 -0.41 -0.62 -0.47 -1.02 c 0.25 0.01 0.51 0.01 0.76 0.01 C 44.74 75.62 44.88 76.22 44.46 76.26 z" stroke-linecap="round"/>
</g>
		<g transform="matrix(1 0 0 1 -0.6473 -24.8131)" id="7290">
<path style="stroke: none; stroke-width: 1; stroke-dasharray: none; stroke-linecap: butt; stroke-dashoffset: 0; stroke-linejoin: miter; stroke-miterlimit: 4; is-custom-font: none; font-file-url: none; fill: rgb(158,158,158); fill-rule: nonzero; opacity: 1;" transform=" translate(-44.3527, -18.687)" d="M 63.88 23.11 c -0.21 1.76 -0.45 3.52 -0.67 5.27 v 0.01 c -0.96 2.99 -1.28 6.19 -2.83 8.98 c -1.06 -0.42 -1.07 -1.17 -1.2 -1.97 c -0.02 -2.85 -0.03 -5.71 -0.05 -8.57 c 0.02 -0.9 -0.55 -1.49 -1.05 -2.14 c -1.94 -2.54 -3.24 -5.33 -3.41 -8.58 c -0.04 -0.12 -0.06 -0.24 -0.07 -0.37 c -0.03 -0.41 -0.09 -0.81 -0.14 -1.2 c 0 -0.01 0 -0.01 -0.01 -0.02 v -0.06 c 0.03 -0.53 -0.06 -1.08 -0.03 -1.62 c -0.02 -0.16 -0.04 -0.32 -0.07 -0.48 h -0.1 c -0.25 0.03 -0.45 0.16 -0.65 0.28 c -0.1 0.05 -0.19 0.1 -0.29 0.13 c -1.04 0.46 -1.93 1.33 -3.13 1.33 c -0.15 0 -0.31 -0.02 -0.48 -0.05 c -2.59 0.02 -5.17 0.04 -7.76 0.06 c -0.83 0.63 -1.85 0.3 -2.77 0.5 c -5.34 1.2 -8.53 5.18 -9.22 11.33 c -0.29 2.65 -0.39 5.3 -0.39 7.95 c 0 0.61 0 1.25 -0.17 1.82 c -0.18 0.61 -0.11 1.59 -0.98 1.59 c -0.72 0 -0.66 -0.93 -0.81 -1.46 c -0.74 -2.6 -1.4 -5.23 -2.09 -7.85 c -0.45 -3.3 -1.22 -6.56 -0.52 -9.95 c 0.77 -3.71 2.35 -6.82 5.55 -8.98 c 0.52 -0.35 0.94 -0.74 1.19 -1.35 c 1.45 -3.59 4.73 -4.8 7.85 -6.21 c 0.64 0.84 -0.71 1.73 0.23 2.16 c 0.68 0.32 1.4 -0.36 2.01 -0.79 c 0.6 -0.43 1.41 -0.83 1.69 -1.44 c 0.8 -1.77 1.98 -1.56 3.49 -1.12 c 3.71 1.07 6.76 2.92 8.37 6.61 c 0.24 0.55 0.59 0.89 1.13 1.09 C 62.53 10.34 64.53 17.65 63.88 23.11 z" stroke-linecap="round"/>
</g>
		<g transform="matrix(1 0 0 1 -44.975 38.595)" id="835479">
<path style="stroke: none; stroke-width: 1; stroke-dasharray: none; stroke-linecap: butt; stroke-dashoffset: 0; stroke-linejoin: miter; stroke-miterlimit: 4; is-custom-font: none; font-file-url: none; fill: rgb(221,221,221); fill-rule: nonzero; opacity: 1;" transform=" translate(-0.025, -82.095)" d="M 0.03 84.3 c 0 0.02 -0.01 0.04 -0.01 0.06 v -4.53 C 0.02 81.32 0.03 82.81 0.03 84.3 z" stroke-linecap="round"/>
</g>
</g>
</g>
</svg>