<svg width="36" height="22" viewBox="0 0 36 22" fill="none" xmlns="http://www.w3.org/2000/svg">
<path d="M22.5639 2.35211H12.959V19.6477H22.5639V2.35211Z" fill="#FF5F00"/>
<path d="M13.5687 11.0003C13.5656 7.6253 15.1116 4.43634 17.7613 2.35254C12.9948 -1.40167 6.09392 -0.573347 2.34739 4.20291C-1.39914 8.97886 -0.572206 15.8942 4.19397 19.6481C8.17498 22.7836 13.78 22.7836 17.761 19.6481C15.1116 17.5643 13.5656 14.3754 13.5687 11.0003Z" fill="#EB001B"/>
<path d="M35.5219 11.0002C35.5222 17.075 30.6079 21.9995 24.5458 21.9998C22.0854 21.9998 19.6964 21.1717 17.762 19.648C22.5281 15.8926 23.3539 8.97628 19.6061 4.20002C19.067 3.51285 18.4477 2.8926 17.762 2.35209C22.5281 -1.40181 29.4287 -0.573485 33.175 4.20216C34.6953 6.14053 35.5219 8.53476 35.5219 11.0002Z" fill="#F79E1B"/>
<path d="M34.4744 17.8159V17.4618H34.6168V17.3897H34.2539V17.4618H34.3963V17.8159H34.4744ZM35.179 17.8159V17.3891H35.0677L34.9397 17.6827L34.8116 17.3891H34.7003V17.8159H34.779V17.4939L34.8988 17.7716H34.9802L35.1001 17.4933V17.8159H35.179Z" fill="#F79E1B"/>
</svg>
