<svg width="71" height="22" viewBox="0 0 71 22" fill="none" xmlns="http://www.w3.org/2000/svg">
<path d="M29.0212 0L25.4577 21.9563H31.1541L34.7152 0H29.0212ZM46.2019 8.94391C44.2116 7.97106 42.9912 7.31325 42.9912 6.31811C43.015 5.41333 44.0227 4.48626 46.2731 4.48626C48.1231 4.44018 49.4826 4.87088 50.515 5.29918L51.0321 5.52748L51.8056 0.934299C50.6814 0.503594 48.8967 0.0283121 46.6938 0.0283121C41.07 0.0283121 37.1095 2.92368 37.0846 7.06507C37.0383 10.1216 39.9196 11.817 42.0762 12.8347C44.2804 13.8783 45.0302 14.5548 45.0302 15.4819C45.0052 16.9056 43.248 17.5622 41.6093 17.5622C39.3374 17.5622 38.116 17.2246 36.2636 16.4316L35.5137 16.0927L34.7177 20.8669C36.0555 21.4551 38.5164 21.9741 41.07 22C47.0466 22 50.9369 19.148 50.9855 14.7349C51.0047 12.3137 49.485 10.4595 46.2019 8.94391ZM66.4074 0.0683707H62.0016C60.6434 0.0683707 59.611 0.454198 59.0239 1.83426L50.5639 21.9563H56.5406L58.1874 17.5999H64.8747L65.7279 21.9741H71L66.4074 0.0683707ZM59.8449 13.2031C59.9602 13.2148 62.1382 6.09222 62.1382 6.09222L63.8742 13.2031H59.8449ZM20.699 0L15.119 14.9172L14.5106 11.976C13.4791 8.58158 10.2438 4.89197 6.63403 3.06012L11.7444 21.934H17.77L26.7255 0.00240954H20.699V0Z" fill="#2394BC"/>
<path d="M12.6331 2.83181C12.1985 1.15779 10.8117 0.0283148 8.92846 0.00482178H0.0915599L0 0.410528C6.89407 2.09299 12.6809 7.27109 14.5568 12.142L12.6331 2.83181Z" fill="#EFC75E"/>
</svg>
