<svg width="161" height="48" viewBox="0 0 161 48" fill="none" xmlns="http://www.w3.org/2000/svg">
<path d="M154.982 0H5.96697C2.67153 0 0 2.67143 0 5.96688V41.7211C0 45.0166 2.67153 47.688 5.96697 47.688H154.982C158.278 47.688 160.949 45.0166 160.949 41.7211V5.96688C160.949 2.67143 158.278 0 154.982 0Z" fill="black"/>
<path d="M154.998 0.947093C155.655 0.947093 156.306 1.07657 156.913 1.32805C157.52 1.57952 158.072 1.94806 158.536 2.41273C159.001 2.87739 159.37 3.42906 159.621 4.03618C159.873 4.64329 160.002 5.29394 160.002 5.95108V41.7211C160.002 42.3783 159.873 43.0289 159.621 43.636C159.37 44.2431 159.001 44.7948 158.536 45.2595C158.072 45.7241 157.52 46.0928 156.913 46.3443C156.306 46.5957 155.655 46.7251 154.998 46.7251H5.96697C4.63983 46.7251 3.36701 46.1979 2.42858 45.2595C1.49014 44.321 0.962942 43.0483 0.962942 41.7211V5.95108C0.962942 4.62393 1.49014 3.35116 2.42858 2.41273C3.36701 1.47429 4.63983 0.947093 5.96697 0.947093H154.998ZM154.998 0H5.96697C4.38845 0.00414303 2.87552 0.631969 1.75785 1.74668C0.640189 2.86139 0.00832453 4.37257 0 5.95108V41.7211C0.00416668 43.3024 0.6342 44.8176 1.75231 45.9357C2.87043 47.0539 4.38573 47.6838 5.96697 47.688H154.998C156.579 47.6838 158.095 47.0539 159.213 45.9357C160.331 44.8176 160.961 43.3024 160.965 41.7211V5.95108C160.957 4.37257 160.325 2.86139 159.207 1.74668C158.09 0.631969 156.577 0.00414303 154.998 0Z" fill="#A09F9F"/>
<path d="M38.6232 23.1431C38.6425 22.1485 38.9095 21.1743 39.4001 20.3089C39.8908 19.4434 40.5895 18.714 41.433 18.1865C40.8964 17.4206 40.1894 16.7896 39.3677 16.3431C38.546 15.8967 37.6319 15.6469 36.6973 15.6135C34.6926 15.4083 32.751 16.8132 31.7407 16.8132C30.7304 16.8132 29.1203 15.645 27.4312 15.6766C26.3362 15.7092 25.2685 16.0261 24.3331 16.5962C23.3976 17.1664 22.6266 17.9701 22.0957 18.9284C19.791 22.9222 21.5117 28.7943 23.6743 32.0146C24.7793 33.5931 26.0737 35.3611 27.7627 35.298C29.4518 35.2349 30.0358 34.2404 32.0248 34.2404C34.0138 34.2404 34.5821 35.298 36.3027 35.2507C38.0233 35.2033 39.2072 33.6721 40.2649 32.0936C41.0629 30.9669 41.6757 29.7198 42.0802 28.3997C41.0528 27.958 40.1776 27.2244 39.5631 26.29C38.9486 25.3556 38.6218 24.2615 38.6232 23.1431Z" fill="white"/>
<path d="M35.3706 13.4989C36.3371 12.3348 36.8126 10.8402 36.6966 9.33154C35.22 9.49584 33.8578 10.2051 32.8765 11.3205C32.3963 11.8659 32.029 12.501 31.796 13.1893C31.563 13.8775 31.4688 14.6052 31.519 15.3301C32.2568 15.3308 32.9854 15.1667 33.6518 14.8499C34.3181 14.5331 34.9054 14.0716 35.3706 13.4989Z" fill="white"/>
<path d="M59.5408 31.3677H53.8896L52.5321 35.3615H50.1484L55.4997 20.5547H57.9781L63.3294 35.3615H60.8826L59.5408 31.3677ZM54.4737 29.5209H58.9568L56.7468 23.0172L54.4737 29.5209Z" fill="white"/>
<path d="M74.8685 29.8998C74.8685 33.2621 73.069 35.4089 70.3539 35.4089C69.669 35.445 68.9878 35.288 68.3878 34.9559C67.7878 34.6238 67.2931 34.1299 66.96 33.5304V38.8659H64.75V24.5011H66.8968V26.3006C67.2444 25.7011 67.7479 25.2069 68.3538 24.8706C68.9597 24.5343 69.6454 24.3685 70.3381 24.3906C73.0532 24.3906 74.8685 26.6322 74.8685 29.8998ZM72.5954 29.8998C72.5954 27.7214 71.4589 26.2849 69.7382 26.2849C68.0176 26.2849 66.8968 27.7529 66.8968 29.8998C66.8968 32.0466 68.0492 33.5304 69.7382 33.5304C71.4273 33.5304 72.5954 32.1097 72.5954 29.8998Z" fill="white"/>
<path d="M86.7377 29.9C86.7377 33.2624 84.9539 35.4092 82.2388 35.4092C81.5536 35.4471 80.8717 35.2909 80.2713 34.9586C79.671 34.6264 79.1766 34.1314 78.8449 33.5307V38.8662H76.6191V24.5014H78.766V26.3009C79.1123 25.7038 79.6133 25.2112 80.2161 24.875C80.819 24.5389 81.5014 24.3716 82.1914 24.3909C84.9381 24.3909 86.7377 26.6324 86.7377 29.9ZM84.4645 29.9C84.4645 27.7216 83.3438 26.2852 81.6074 26.2852C79.871 26.2852 78.7817 27.7532 78.7817 29.9C78.7817 32.0469 79.9183 33.5307 81.6074 33.5307C83.2964 33.5307 84.4645 32.11 84.4645 29.9Z" fill="white"/>
<path d="M94.5518 31.1789C94.7096 32.6469 96.1303 33.6098 98.0877 33.6098C100.045 33.6098 101.245 32.6469 101.245 31.3209C101.245 29.9949 100.424 29.474 98.5139 29.0162L96.5881 28.5427C93.873 27.8955 92.6101 26.6168 92.6101 24.5489C92.6101 22.0074 94.8359 20.2395 97.993 20.2395C101.15 20.2395 103.265 22.0074 103.344 24.5489H101.103C100.976 23.0809 99.7452 22.1811 97.9456 22.1811C96.1461 22.1811 94.9464 23.0967 94.9464 24.4069C94.9464 25.4487 95.7199 25.9854 97.6299 26.5379L99.2085 26.9325C102.255 27.6587 103.518 28.8741 103.518 31.0367C103.518 33.815 101.308 35.5515 97.8036 35.5515C94.2992 35.5515 92.2944 33.8466 92.1523 31.1789H94.5518Z" fill="white"/>
<path d="M108.472 21.8967V24.454H110.524V26.2061H108.472V32.1573C108.472 33.0887 108.883 33.5149 109.782 33.5149H110.509V35.2513C110.103 35.3316 109.69 35.3687 109.277 35.3618C107.099 35.3618 106.247 34.5409 106.247 32.4414V26.2535H104.668V24.5014H106.247V21.8967H108.472Z" fill="white"/>
<path d="M111.713 29.8994C111.713 26.5056 113.718 24.3745 116.827 24.3745C119.937 24.3745 121.958 26.5056 121.958 29.8994C121.958 33.2933 119.969 35.4244 116.827 35.4244C113.686 35.4244 111.713 33.3091 111.713 29.8994ZM119.7 29.8994C119.7 27.579 118.627 26.1898 116.827 26.1898C115.028 26.1898 113.97 27.579 113.97 29.8994C113.97 32.2199 115.044 33.609 116.827 33.609C118.611 33.609 119.7 32.2357 119.7 29.8994Z" fill="white"/>
<path d="M123.77 24.501H125.885V26.3479C126.024 25.7725 126.357 25.2628 126.83 24.9059C127.302 24.5489 127.883 24.3668 128.474 24.3905C128.726 24.3672 128.98 24.3672 129.232 24.3905V26.632C128.911 26.5269 128.575 26.4788 128.237 26.4899C127.916 26.4764 127.596 26.5327 127.298 26.655C127.001 26.7772 126.733 26.9625 126.514 27.1981C126.295 27.4336 126.13 27.7138 126.029 28.0194C125.929 28.325 125.896 28.6487 125.933 28.9682V35.3772H123.707L123.77 24.501Z" fill="white"/>
<path d="M139.509 32.1252C139.266 33.1437 138.662 34.0395 137.808 34.6462C136.955 35.2529 135.91 35.5294 134.868 35.4244C131.711 35.4244 129.77 33.3249 129.77 29.9468C129.77 26.5686 131.743 24.3745 134.774 24.3745C137.804 24.3745 139.635 26.4266 139.635 29.6942V30.4519H132.011V30.594C131.977 30.9905 132.028 31.3897 132.16 31.7651C132.292 32.1405 132.502 32.4835 132.777 32.7716C133.052 33.0596 133.384 33.2861 133.753 33.4359C134.122 33.5857 134.518 33.6555 134.916 33.6406C135.447 33.6849 135.977 33.5547 136.428 33.2698C136.878 32.9849 137.223 32.5608 137.41 32.0621L139.509 32.1252ZM132.027 28.9681H137.426C137.443 28.6115 137.387 28.2552 137.261 27.9212C137.135 27.5873 136.941 27.2828 136.693 27.0268C136.444 26.7707 136.145 26.5684 135.815 26.4326C135.485 26.2968 135.13 26.2303 134.774 26.2372C134.057 26.2329 133.368 26.51 132.854 27.009C132.341 27.508 132.043 28.1889 132.027 28.9049V28.9681Z" fill="white"/>
<path d="M54.2039 9.34668C55.107 9.40685 55.9535 9.80809 56.5719 10.469C57.1902 11.13 57.5342 12.0012 57.5342 12.9063C57.5342 13.8114 57.1902 14.6827 56.5719 15.3436C55.9535 16.0046 55.107 16.4058 54.2039 16.466H51.6309V9.34668H54.2039ZM52.7358 15.4557H54.0776C54.7191 15.4052 55.318 15.1146 55.7548 14.6421C56.1915 14.1696 56.4341 13.5498 56.4341 12.9063C56.4341 12.2628 56.1915 11.6431 55.7548 11.1705C55.318 10.698 54.7191 10.4075 54.0776 10.357H52.7358V15.4557Z" fill="white"/>
<path d="M58.7979 13.7827C58.8438 13.292 59.0313 12.8254 59.3377 12.4394C59.644 12.0534 60.056 11.7649 60.5234 11.6089C60.9908 11.4528 61.4934 11.436 61.9702 11.5604C62.447 11.6849 62.8773 11.9453 63.2088 12.3099C63.5403 12.6745 63.7586 13.1276 63.8372 13.6141C63.9158 14.1005 63.8513 14.5994 63.6515 15.0498C63.4517 15.5003 63.1253 15.8829 62.712 16.1512C62.2987 16.4195 61.8163 16.5619 61.3235 16.5609C60.9665 16.5731 60.6111 16.5074 60.2821 16.3684C59.953 16.2295 59.658 16.0207 59.4178 15.7563C59.1775 15.492 58.9975 15.1786 58.8905 14.8378C58.7834 14.497 58.7519 14.1369 58.7979 13.7827ZM62.7758 13.7827C62.7758 12.6145 62.2391 11.9358 61.3235 11.9358C60.408 11.9358 59.887 12.6145 59.887 13.7827C59.887 14.9508 60.408 15.6296 61.3235 15.6296C62.2391 15.6296 62.7758 14.9508 62.7758 13.7827Z" fill="white"/>
<path d="M70.5897 16.4667H69.4847L68.3797 12.5045L67.2747 16.4667H66.1381L64.6543 11.0996H65.7277L66.6906 15.1881L67.7956 11.0996H68.8059L69.9109 15.1881H70.0056L70.9527 11.0996H72.0104L70.5897 16.4667Z" fill="white"/>
<path d="M73.3048 11.0991H74.3309V11.9516H74.4098C74.5383 11.6455 74.76 11.3877 75.0434 11.2148C75.3268 11.0419 75.6574 10.9628 75.9884 10.9887C76.2505 10.9693 76.5135 11.009 76.7582 11.105C77.0028 11.201 77.2226 11.3508 77.4015 11.5434C77.5804 11.7359 77.7137 11.9662 77.7915 12.2172C77.8693 12.4682 77.8897 12.7334 77.8511 12.9934V16.4662H76.7935V13.3091C76.7935 12.4567 76.4146 12.0305 75.6253 12.0305C75.4485 12.0227 75.2721 12.0532 75.1081 12.1198C74.9441 12.1864 74.7964 12.2875 74.675 12.4164C74.5537 12.5452 74.4615 12.6987 74.4049 12.8664C74.3482 13.0341 74.3284 13.212 74.3467 13.388V16.5451H73.2891L73.3048 11.0991Z" fill="white"/>
<path d="M79.5566 9H80.6143V16.4665H79.5566V9Z" fill="white"/>
<path d="M82.0828 13.7826C82.1287 13.2927 82.3158 12.8266 82.6214 12.4409C82.9271 12.0552 83.3381 11.7667 83.8046 11.6101C84.2711 11.4535 84.7731 11.4358 85.2495 11.559C85.7259 11.6821 86.1563 11.941 86.4885 12.3041C86.8206 12.6672 87.0402 13.1188 87.1206 13.6043C87.2009 14.0898 87.1387 14.5882 86.9413 15.039C86.7439 15.4898 86.4198 15.8735 86.0085 16.1436C85.5973 16.4138 85.1164 16.5588 84.6243 16.5609C84.2667 16.5727 83.9108 16.5069 83.5811 16.3681C83.2514 16.2293 82.9556 16.0207 82.7142 15.7567C82.4727 15.4927 82.2912 15.1797 82.1822 14.8389C82.0732 14.4981 82.0393 14.1378 82.0828 13.7826ZM86.0608 13.7826C86.0608 12.6145 85.5399 11.9358 84.6243 11.9358C83.7087 11.9358 83.1878 12.6145 83.1878 13.7826C83.1878 14.9508 83.7087 15.6296 84.6243 15.6296C85.5399 15.6296 86.0608 14.9508 86.0608 13.7826Z" fill="white"/>
<path d="M88.2383 14.9507C88.2383 13.972 88.9486 13.3722 90.2272 13.3722L91.6795 13.2933V12.8197C91.6795 12.2514 91.3165 11.9357 90.5903 11.9357C89.8642 11.9357 89.58 12.1567 89.4696 12.5356H88.4435C88.554 11.62 89.4222 10.957 90.6377 10.957C91.8532 10.957 92.7372 11.6358 92.7372 12.7566V16.4346H91.7269V15.6769H91.6322C91.4658 15.9428 91.2323 16.1602 90.9552 16.3071C90.678 16.454 90.3671 16.5252 90.0536 16.5136C89.8287 16.5477 89.5991 16.5327 89.3804 16.4698C89.1618 16.4069 88.9594 16.2976 88.787 16.1492C88.6145 16.0008 88.4763 15.8168 88.3816 15.6099C88.2868 15.4031 88.238 15.1782 88.2383 14.9507ZM91.6795 14.493V14.0036L90.3693 14.0825C89.6432 14.0825 89.2959 14.3824 89.2959 14.856C89.2959 15.3296 89.7221 15.6296 90.2904 15.6296C90.4588 15.6515 90.63 15.6392 90.7936 15.5935C90.9571 15.5477 91.1098 15.4695 91.2425 15.3634C91.3751 15.2573 91.485 15.1255 91.5655 14.976C91.646 14.8264 91.6955 14.6621 91.7111 14.493H91.6795Z" fill="white"/>
<path d="M94.1738 13.783C94.1738 12.0781 95.042 11.0047 96.3996 11.0047C96.7247 11.0006 97.0445 11.0871 97.3233 11.2543C97.6021 11.4216 97.8288 11.6631 97.9781 11.9519V9H99.0358V16.4665H98.0255V15.5825H97.9308C97.765 15.8771 97.5209 16.12 97.2256 16.2844C96.9303 16.4488 96.5952 16.5282 96.2575 16.5139C95.0263 16.5455 94.1738 15.472 94.1738 13.783ZM95.263 13.783C95.263 14.9195 95.7997 15.5983 96.6995 15.5983C97.5993 15.5983 98.136 14.9037 98.136 13.783C98.136 12.6622 97.5835 11.9519 96.6995 11.9519C95.8155 11.9519 95.263 12.6464 95.263 13.783Z" fill="white"/>
<path d="M103.563 13.7827C103.609 13.292 103.797 12.8254 104.103 12.4394C104.41 12.0534 104.822 11.7649 105.289 11.6089C105.756 11.4528 106.259 11.436 106.736 11.5604C107.213 11.6849 107.643 11.9453 107.974 12.3099C108.306 12.6745 108.524 13.1276 108.603 13.6141C108.681 14.1005 108.617 14.5994 108.417 15.0498C108.217 15.5003 107.891 15.8829 107.478 16.1512C107.064 16.4195 106.582 16.5619 106.089 16.5609C105.732 16.5731 105.377 16.5074 105.048 16.3684C104.719 16.2295 104.424 16.0207 104.183 15.7563C103.943 15.492 103.763 15.1786 103.656 14.8378C103.549 14.497 103.517 14.1369 103.563 13.7827ZM107.541 13.7827C107.541 12.6145 107.005 11.9358 106.089 11.9358C105.174 11.9358 104.653 12.6145 104.653 13.7827C104.653 14.9508 105.174 15.6296 106.089 15.6296C107.005 15.6296 107.541 14.9508 107.541 13.7827Z" fill="white"/>
<path d="M110.053 11.0991H111.063V11.9516H111.142C111.271 11.6455 111.493 11.3877 111.776 11.2148C112.059 11.0419 112.39 10.9628 112.721 10.9887C113.921 10.9887 114.568 11.7148 114.568 12.9934V16.4662H113.494V13.3091C113.494 12.4567 113.131 12.0305 112.342 12.0305C112.165 12.0227 111.989 12.0532 111.825 12.1198C111.661 12.1864 111.513 12.2875 111.392 12.4164C111.27 12.5452 111.178 12.6987 111.122 12.8664C111.065 13.0341 111.045 13.212 111.063 13.388V16.5451H110.006L110.053 11.0991Z" fill="white"/>
<path d="M120.597 9.75768V11.1152H121.749V12.015H120.597V14.7775C120.597 15.33 120.818 15.5825 121.355 15.5825H121.749V16.4665C121.56 16.4847 121.37 16.4847 121.181 16.4665C119.997 16.4665 119.602 16.0403 119.602 15.0143V11.9834H118.75V11.0837H119.602V9.72607L120.597 9.75768Z" fill="white"/>
<path d="M123.204 9H124.261V11.9519H124.34C124.469 11.6458 124.69 11.388 124.974 11.2151C125.257 11.0422 125.588 10.9631 125.919 10.989C126.179 10.975 126.439 11.0185 126.68 11.1167C126.921 11.2148 127.138 11.3649 127.314 11.5565C127.491 11.748 127.623 11.9762 127.701 12.2246C127.779 12.4731 127.801 12.7357 127.766 12.9937V16.4665H126.708V13.3094C126.708 12.4412 126.298 12.015 125.556 12.015C125.374 12.0008 125.191 12.0261 125.02 12.0893C124.849 12.1525 124.693 12.252 124.564 12.381C124.435 12.51 124.336 12.6655 124.273 12.8366C124.209 13.0078 124.184 13.1906 124.198 13.3725V16.5296H123.141L123.204 9Z" fill="white"/>
<path d="M134.019 15.0141C133.883 15.5101 133.575 15.9415 133.15 16.2308C132.724 16.5201 132.21 16.6484 131.698 16.5926C131.345 16.6028 130.994 16.5359 130.67 16.3966C130.345 16.2573 130.055 16.0489 129.819 15.786C129.583 15.523 129.407 15.2118 129.304 14.8741C129.2 14.5363 129.172 14.1801 129.22 13.8301C129.173 13.4793 129.201 13.1224 129.303 12.7834C129.405 12.4445 129.579 12.1314 129.812 11.8651C130.046 11.5989 130.333 11.3858 130.656 11.24C130.979 11.0943 131.329 11.0193 131.683 11.0203C133.182 11.0203 134.082 12.0464 134.082 13.7354V14.0038H130.294C130.271 14.2045 130.292 14.4077 130.354 14.5999C130.416 14.792 130.519 14.9686 130.655 15.118C130.791 15.2674 130.957 15.3861 131.142 15.4661C131.328 15.5462 131.528 15.5858 131.73 15.5823C131.983 15.6123 132.24 15.5669 132.467 15.4518C132.695 15.3366 132.883 15.157 133.009 14.9351L134.019 15.0141ZM130.294 13.2776H133.009C133.022 13.0971 132.997 12.9159 132.936 12.7456C132.875 12.5752 132.779 12.4196 132.654 12.2887C132.529 12.1578 132.378 12.0545 132.211 11.9856C132.043 11.9166 131.864 11.8836 131.683 11.8885C131.498 11.8842 131.315 11.9172 131.144 11.9853C130.972 12.0534 130.817 12.1553 130.685 12.2849C130.554 12.4146 130.451 12.5692 130.381 12.7398C130.311 12.9103 130.276 13.0932 130.278 13.2776H130.294Z" fill="white"/>
</svg>
