<svg width="159" height="60" viewBox="0 0 159 60" fill="none" xmlns="http://www.w3.org/2000/svg">
<path d="M158.293 7.02186V40.8651C158.294 41.5173 158.166 43.2495 157.918 43.8523C157.669 44.4551 157.304 45.0029 156.843 45.4644C156.382 45.9259 155.835 46.2921 155.232 46.5419C154.63 46.7917 153.984 46.9202 153.332 46.9202H99.0855H44.839C43.5233 46.9202 42.2614 46.3976 41.3311 45.4672C40.4007 44.5369 39.8781 43.2751 39.8781 41.9594V31.0309C39.8781 29.8101 39.3931 28.6394 38.5299 27.7762C37.6667 26.913 36.496 26.428 35.2752 26.428H25.1089C24.8179 26.4284 24.5329 26.3454 24.2875 26.1889C24.0422 26.0324 23.8468 25.8089 23.7245 25.5448C23.6966 25.4852 23.6648 25.4215 23.6369 25.3539C23.2362 24.3622 22.5341 23.5214 21.6296 22.9503C20.7252 22.3792 19.6642 22.1067 18.5965 22.1713C16.3488 22.2151 14.479 23.2932 13.6277 25.4772C13.5111 25.7594 13.3128 26.0003 13.0584 26.1691C12.8039 26.3378 12.4814 26.2991 12.176 26.2966H11.1007L6.74313 26.1692C4.95291 26.164 3.23782 25.4491 1.97381 24.1814C0.709791 22.9136 -7.74316e-06 21.1964 0 19.4062V13.0747V6.74315C0.00524755 4.95637 0.717351 3.24428 1.9808 1.98083C3.24425 0.717375 4.95635 0.00524755 6.74313 0L151.554 0.254836C153.008 0.259922 154.422 0.73367 155.586 1.6058C156.75 2.47794 157.601 3.70201 158.014 5.09639C158.199 5.72163 158.293 6.37003 158.293 7.02186Z" fill="#F76A2A"/>
<path d="M54.0648 31.5249L51.7444 38.5972H49.8753L53.0452 30.0659H54.2347L54.0648 31.5249ZM55.9925 38.5972L53.6663 31.5249L53.4788 30.0659H54.68L57.8675 38.5972H55.9925ZM55.887 35.4214V36.7983H51.3812V35.4214H55.887ZM65.6019 30.0659V38.5972H63.8441L60.4163 32.8784V38.5972H58.6585V30.0659H60.4163L63.8499 35.7905V30.0659H65.6019ZM69.7503 38.5972H67.8929L67.9046 37.2261H69.7503C70.2112 37.2261 70.5999 37.1226 70.9163 36.9155C71.2327 36.7046 71.471 36.3979 71.6312 35.9956C71.7952 35.5933 71.8773 35.1069 71.8773 34.5366V34.1206C71.8773 33.6831 71.8304 33.2983 71.7366 32.9663C71.6468 32.6343 71.512 32.355 71.3323 32.1284C71.1527 31.9019 70.9319 31.7319 70.6702 31.6187C70.4085 31.5015 70.1077 31.4429 69.7679 31.4429H67.8577V30.0659H69.7679C70.3382 30.0659 70.8597 30.1636 71.3323 30.3589C71.8089 30.5503 72.221 30.8257 72.5687 31.1851C72.9163 31.5444 73.1839 31.9741 73.3714 32.4741C73.5628 32.9702 73.6585 33.5229 73.6585 34.1323V34.5366C73.6585 35.1421 73.5628 35.6948 73.3714 36.1948C73.1839 36.6948 72.9163 37.1245 72.5687 37.4839C72.2249 37.8394 71.8128 38.1147 71.3323 38.3101C70.8558 38.5015 70.3284 38.5972 69.7503 38.5972ZM68.889 30.0659V38.5972H67.1312V30.0659H68.889ZM84.6859 34.1382V37.519C84.553 37.6792 84.348 37.853 84.0706 38.0405C83.7933 38.2241 83.4359 38.3823 82.9984 38.5151C82.5609 38.6479 82.0316 38.7144 81.4105 38.7144C80.8597 38.7144 80.3577 38.6245 79.9046 38.4448C79.4515 38.2612 79.0609 37.9937 78.7327 37.6421C78.4085 37.2905 78.1585 36.8608 77.9827 36.353C77.8069 35.8413 77.7191 35.2573 77.7191 34.6011V34.0679C77.7191 33.4116 77.803 32.8276 77.971 32.3159C78.1429 31.8042 78.387 31.3726 78.7034 31.021C79.0198 30.6694 79.3968 30.4019 79.8343 30.2183C80.2718 30.0347 80.7581 29.9429 81.2933 29.9429C82.0355 29.9429 82.6448 30.064 83.1214 30.3062C83.598 30.5444 83.9612 30.8765 84.2112 31.3022C84.4652 31.7241 84.6214 32.2085 84.68 32.7554H82.9749C82.9319 32.4663 82.8499 32.2144 82.7288 31.9995C82.6077 31.7847 82.4339 31.6167 82.2073 31.4956C81.9847 31.3745 81.6956 31.314 81.3402 31.314C81.0472 31.314 80.7855 31.3745 80.555 31.4956C80.3284 31.6128 80.137 31.7866 79.9808 32.0171C79.8245 32.2476 79.7054 32.5327 79.6234 32.8726C79.5413 33.2124 79.5003 33.6069 79.5003 34.0562V34.6011C79.5003 35.0464 79.5433 35.4409 79.6292 35.7847C79.7152 36.1245 79.8421 36.4116 80.0101 36.646C80.1819 36.8765 80.3929 37.0503 80.6429 37.1675C80.8929 37.2847 81.1839 37.3433 81.5159 37.3433C81.7933 37.3433 82.0237 37.3198 82.2073 37.2729C82.3948 37.2261 82.5452 37.1694 82.6585 37.103C82.7757 37.0327 82.8655 36.9663 82.928 36.9038V35.3921H81.3226V34.1382H84.6859ZM91.8284 37.2261V38.5972H87.2874V37.2261H91.8284ZM87.8616 30.0659V38.5972H86.1038V30.0659H87.8616ZM91.2366 33.5405V34.8765H87.2874V33.5405H91.2366ZM91.8226 30.0659V31.4429H87.2874V30.0659H91.8226ZM96.7855 30.0659V38.5972H95.0335V30.0659H96.7855ZM99.4105 30.0659V31.4429H92.4495V30.0659H99.4105ZM107.022 30.0483V38.5972H105.334V31.9937L103.307 32.6382V31.3081L106.84 30.0483H107.022ZM115.541 33.5815V35.0581C115.541 35.6987 115.473 36.2515 115.336 36.7163C115.2 37.1772 115.002 37.5562 114.744 37.853C114.491 38.146 114.188 38.3628 113.836 38.5034C113.485 38.644 113.094 38.7144 112.664 38.7144C112.321 38.7144 112 38.6714 111.703 38.5854C111.407 38.4956 111.139 38.3569 110.901 38.1694C110.666 37.9819 110.463 37.7456 110.291 37.4604C110.123 37.1714 109.994 36.8276 109.905 36.4292C109.815 36.0308 109.77 35.5737 109.77 35.0581V33.5815C109.77 32.9409 109.838 32.3921 109.975 31.9351C110.116 31.4741 110.313 31.0972 110.567 30.8042C110.825 30.5112 111.129 30.2964 111.481 30.1597C111.832 30.019 112.223 29.9487 112.653 29.9487C112.996 29.9487 113.315 29.9937 113.608 30.0835C113.905 30.1694 114.172 30.3042 114.41 30.4878C114.649 30.6714 114.852 30.9077 115.02 31.1968C115.188 31.4819 115.317 31.8237 115.407 32.2222C115.496 32.6167 115.541 33.0698 115.541 33.5815ZM113.848 35.2808V33.353C113.848 33.0444 113.83 32.7749 113.795 32.5444C113.764 32.314 113.715 32.1187 113.649 31.9585C113.582 31.7944 113.5 31.6616 113.403 31.5601C113.305 31.4585 113.194 31.3843 113.069 31.3374C112.944 31.2905 112.805 31.2671 112.653 31.2671C112.461 31.2671 112.291 31.3042 112.143 31.3784C111.998 31.4526 111.875 31.5718 111.774 31.7358C111.672 31.896 111.594 32.1108 111.539 32.3804C111.489 32.646 111.463 32.9702 111.463 33.353V35.2808C111.463 35.5894 111.479 35.8608 111.51 36.0952C111.545 36.3296 111.596 36.5308 111.662 36.6987C111.733 36.8628 111.815 36.9976 111.909 37.103C112.006 37.2046 112.117 37.2788 112.242 37.3257C112.371 37.3726 112.512 37.396 112.664 37.396C112.852 37.396 113.018 37.3589 113.162 37.2847C113.311 37.2065 113.436 37.0854 113.537 36.9214C113.643 36.7534 113.721 36.5347 113.772 36.2651C113.823 35.9956 113.848 35.6675 113.848 35.2808ZM116.666 32.1577V31.7065C116.666 31.3823 116.737 31.0874 116.877 30.8218C117.018 30.5562 117.225 30.3433 117.498 30.1831C117.772 30.0229 118.108 29.9429 118.506 29.9429C118.916 29.9429 119.258 30.0229 119.532 30.1831C119.809 30.3433 120.016 30.5562 120.153 30.8218C120.293 31.0874 120.364 31.3823 120.364 31.7065V32.1577C120.364 32.4741 120.293 32.7651 120.153 33.0308C120.016 33.2964 119.811 33.5093 119.537 33.6694C119.264 33.8296 118.926 33.9097 118.524 33.9097C118.117 33.9097 117.776 33.8296 117.498 33.6694C117.225 33.5093 117.018 33.2964 116.877 33.0308C116.737 32.7651 116.666 32.4741 116.666 32.1577ZM117.785 31.7065V32.1577C117.785 32.2944 117.811 32.4253 117.862 32.5503C117.916 32.6714 117.998 32.771 118.108 32.8491C118.221 32.9233 118.358 32.9604 118.518 32.9604C118.686 32.9604 118.823 32.9233 118.928 32.8491C119.034 32.771 119.112 32.6714 119.162 32.5503C119.213 32.4253 119.239 32.2944 119.239 32.1577V31.7065C119.239 31.562 119.211 31.4292 119.157 31.3081C119.106 31.1831 119.026 31.0835 118.916 31.0093C118.811 30.9312 118.674 30.8921 118.506 30.8921C118.35 30.8921 118.217 30.9312 118.108 31.0093C117.998 31.0835 117.916 31.1831 117.862 31.3081C117.811 31.4292 117.785 31.562 117.785 31.7065ZM120.744 36.9565V36.5054C120.744 36.1851 120.815 35.8921 120.955 35.6265C121.1 35.3608 121.309 35.1479 121.582 34.9878C121.86 34.8276 122.2 34.7476 122.602 34.7476C123.008 34.7476 123.348 34.8276 123.621 34.9878C123.895 35.1479 124.102 35.3608 124.242 35.6265C124.383 35.8921 124.453 36.1851 124.453 36.5054V36.9565C124.453 37.2769 124.383 37.5698 124.242 37.8354C124.106 38.1011 123.901 38.314 123.627 38.4741C123.354 38.6343 123.016 38.7144 122.614 38.7144C122.207 38.7144 121.866 38.6343 121.588 38.4741C121.311 38.314 121.1 38.1011 120.955 37.8354C120.815 37.5698 120.744 37.2769 120.744 36.9565ZM121.869 36.5054V36.9565C121.869 37.0972 121.901 37.23 121.963 37.355C122.026 37.48 122.112 37.5796 122.221 37.6538C122.334 37.728 122.465 37.7651 122.614 37.7651C122.801 37.7651 122.948 37.728 123.053 37.6538C123.159 37.5796 123.231 37.48 123.27 37.355C123.313 37.23 123.334 37.0972 123.334 36.9565V36.5054C123.334 36.3647 123.307 36.2339 123.252 36.1128C123.198 35.9878 123.116 35.8882 123.006 35.814C122.901 35.7358 122.766 35.6968 122.602 35.6968C122.438 35.6968 122.301 35.7358 122.192 35.814C122.086 35.8882 122.006 35.9878 121.951 36.1128C121.897 36.2339 121.869 36.3647 121.869 36.5054ZM123.018 31.2847L118.852 37.9526L118.032 37.519L122.198 30.8511L123.018 31.2847ZM135.733 34.1323V34.5366C135.733 35.1851 135.645 35.7671 135.469 36.2827C135.293 36.7983 135.045 37.2378 134.725 37.6011C134.405 37.9604 134.022 38.2358 133.576 38.4272C133.135 38.6187 132.645 38.7144 132.106 38.7144C131.571 38.7144 131.08 38.6187 130.635 38.4272C130.194 38.2358 129.811 37.9604 129.487 37.6011C129.162 37.2378 128.91 36.7983 128.731 36.2827C128.555 35.7671 128.467 35.1851 128.467 34.5366V34.1323C128.467 33.48 128.555 32.8979 128.731 32.3862C128.907 31.8706 129.155 31.4312 129.475 31.0679C129.799 30.7046 130.182 30.4272 130.623 30.2358C131.069 30.0444 131.559 29.9487 132.094 29.9487C132.633 29.9487 133.123 30.0444 133.565 30.2358C134.01 30.4272 134.393 30.7046 134.713 31.0679C135.037 31.4312 135.287 31.8706 135.463 32.3862C135.643 32.8979 135.733 33.48 135.733 34.1323ZM133.957 34.5366V34.1206C133.957 33.6675 133.916 33.269 133.834 32.9253C133.752 32.5815 133.631 32.2925 133.471 32.0581C133.311 31.8237 133.116 31.6479 132.885 31.5308C132.655 31.4097 132.391 31.3491 132.094 31.3491C131.797 31.3491 131.534 31.4097 131.303 31.5308C131.076 31.6479 130.883 31.8237 130.723 32.0581C130.567 32.2925 130.448 32.5815 130.366 32.9253C130.284 33.269 130.242 33.6675 130.242 34.1206V34.5366C130.242 34.9858 130.284 35.3843 130.366 35.7319C130.448 36.0757 130.569 36.3667 130.729 36.605C130.889 36.8394 131.084 37.0171 131.315 37.1382C131.545 37.2593 131.809 37.3198 132.106 37.3198C132.403 37.3198 132.666 37.2593 132.897 37.1382C133.127 37.0171 133.321 36.8394 133.477 36.605C133.633 36.3667 133.752 36.0757 133.834 35.7319C133.916 35.3843 133.957 34.9858 133.957 34.5366ZM138.756 30.0659V38.5972H136.998V30.0659H138.756ZM142.155 33.7104V35.0815H138.276V33.7104H142.155ZM142.565 30.0659V31.4429H138.276V30.0659H142.565ZM145.342 30.0659V38.5972H143.584V30.0659H145.342ZM148.741 33.7104V35.0815H144.862V33.7104H148.741ZM149.151 30.0659V31.4429H144.862V30.0659H149.151Z" fill="#FFFF00"/>
<path d="M38.3156 13.7295H35.5983L35.5836 12.3892H37.9567C38.3571 12.3892 38.6964 12.3306 38.9747 12.2134C39.2579 12.0913 39.4728 11.918 39.6193 11.6934C39.7657 11.4639 39.839 11.188 39.839 10.8657C39.839 10.5093 39.7706 10.2188 39.6339 9.99414C39.4972 9.76953 39.2872 9.60596 39.004 9.50342C38.7257 9.40088 38.3693 9.34961 37.9347 9.34961H36.1549V18.5488H34.3165V7.88477H37.9347C38.5206 7.88477 39.0431 7.94092 39.5021 8.05322C39.9659 8.16553 40.359 8.34131 40.6813 8.58057C41.0084 8.81494 41.255 9.11279 41.421 9.47412C41.5919 9.83545 41.6774 10.2651 41.6774 10.7632C41.6774 11.2026 41.5724 11.6055 41.3624 11.9717C41.1525 12.333 40.8424 12.6284 40.4323 12.8579C40.0221 13.0874 39.5118 13.2241 38.9015 13.2681L38.3156 13.7295ZM38.235 18.5488H35.0197L35.8473 17.0913H38.235C38.65 17.0913 38.9967 17.0229 39.275 16.8862C39.5533 16.7446 39.7609 16.5518 39.8976 16.3076C40.0392 16.0586 40.11 15.7681 40.11 15.436C40.11 15.0894 40.049 14.7891 39.9269 14.5352C39.8048 14.2764 39.6119 14.0786 39.3483 13.9419C39.0846 13.8003 38.7404 13.7295 38.3156 13.7295H36.2501L36.2648 12.3892H38.9528L39.3702 12.8945C39.9562 12.9141 40.4371 13.0435 40.8131 13.2827C41.194 13.522 41.4772 13.832 41.6627 14.2129C41.8483 14.5938 41.941 15.0039 41.941 15.4434C41.941 16.1221 41.7921 16.6909 41.4943 17.1499C41.2013 17.6089 40.7789 17.958 40.2272 18.1973C39.6754 18.4316 39.0114 18.5488 38.235 18.5488ZM52.2975 12.9238V13.5098C52.2975 14.3154 52.1925 15.0381 51.9825 15.6777C51.7726 16.3174 51.4723 16.8618 51.0817 17.311C50.6959 17.7603 50.2321 18.1045 49.6901 18.3438C49.1481 18.5781 48.5475 18.6953 47.8883 18.6953C47.234 18.6953 46.6359 18.5781 46.0939 18.3438C45.5568 18.1045 45.0905 17.7603 44.6949 17.311C44.2994 16.8618 43.9918 16.3174 43.7721 15.6777C43.5573 15.0381 43.4498 14.3154 43.4498 13.5098V12.9238C43.4498 12.1182 43.5573 11.3979 43.7721 10.7632C43.9869 10.1235 44.2897 9.5791 44.6803 9.12988C45.0758 8.67578 45.5421 8.33154 46.0792 8.09717C46.6212 7.85791 47.2194 7.73828 47.8737 7.73828C48.5328 7.73828 49.1334 7.85791 49.6754 8.09717C50.2174 8.33154 50.6837 8.67578 51.0743 9.12988C51.465 9.5791 51.7653 10.1235 51.9752 10.7632C52.1901 11.3979 52.2975 12.1182 52.2975 12.9238ZM50.4591 13.5098V12.9092C50.4591 12.3135 50.4005 11.7886 50.2833 11.3345C50.171 10.8755 50.0026 10.4922 49.778 10.1846C49.5582 9.87207 49.2872 9.6377 48.965 9.48145C48.6427 9.32031 48.2789 9.23975 47.8737 9.23975C47.4684 9.23975 47.1071 9.32031 46.7897 9.48145C46.4723 9.6377 46.2013 9.87207 45.9767 10.1846C45.757 10.4922 45.5885 10.8755 45.4713 11.3345C45.3541 11.7886 45.2955 12.3135 45.2955 12.9092V13.5098C45.2955 14.1055 45.3541 14.6328 45.4713 15.0918C45.5885 15.5508 45.7594 15.939 45.984 16.2563C46.2135 16.5688 46.4869 16.8057 46.8043 16.9668C47.1217 17.123 47.483 17.2012 47.8883 17.2012C48.2985 17.2012 48.6622 17.123 48.9796 16.9668C49.297 16.8057 49.5656 16.5688 49.7853 16.2563C50.005 15.939 50.171 15.5508 50.2833 15.0918C50.4005 14.6328 50.4591 14.1055 50.4591 13.5098ZM62.6393 12.9238V13.5098C62.6393 14.3154 62.5343 15.0381 62.3243 15.6777C62.1144 16.3174 61.8141 16.8618 61.4235 17.311C61.0377 17.7603 60.5739 18.1045 60.0319 18.3438C59.4899 18.5781 58.8893 18.6953 58.2301 18.6953C57.5758 18.6953 56.9777 18.5781 56.4357 18.3438C55.8986 18.1045 55.4323 17.7603 55.0367 17.311C54.6412 16.8618 54.3336 16.3174 54.1139 15.6777C53.899 15.0381 53.7916 14.3154 53.7916 13.5098V12.9238C53.7916 12.1182 53.899 11.3979 54.1139 10.7632C54.3287 10.1235 54.6315 9.5791 55.0221 9.12988C55.4176 8.67578 55.8839 8.33154 56.421 8.09717C56.963 7.85791 57.5612 7.73828 58.2155 7.73828C58.8746 7.73828 59.4752 7.85791 60.0172 8.09717C60.5592 8.33154 61.0255 8.67578 61.4161 9.12988C61.8068 9.5791 62.1071 10.1235 62.317 10.7632C62.5319 11.3979 62.6393 12.1182 62.6393 12.9238ZM60.8009 13.5098V12.9092C60.8009 12.3135 60.7423 11.7886 60.6251 11.3345C60.5128 10.8755 60.3444 10.4922 60.1198 10.1846C59.9 9.87207 59.629 9.6377 59.3068 9.48145C58.9845 9.32031 58.6207 9.23975 58.2155 9.23975C57.8102 9.23975 57.4489 9.32031 57.1315 9.48145C56.8141 9.6377 56.5431 9.87207 56.3185 10.1846C56.0988 10.4922 55.9303 10.8755 55.8131 11.3345C55.6959 11.7886 55.6373 12.3135 55.6373 12.9092V13.5098C55.6373 14.1055 55.6959 14.6328 55.8131 15.0918C55.9303 15.5508 56.1012 15.939 56.3258 16.2563C56.5553 16.5688 56.8287 16.8057 57.1461 16.9668C57.4635 17.123 57.8248 17.2012 58.2301 17.2012C58.6403 17.2012 59.004 17.123 59.3214 16.9668C59.6388 16.8057 59.9073 16.5688 60.1271 16.2563C60.3468 15.939 60.5128 15.5508 60.6251 15.0918C60.7423 14.6328 60.8009 14.1055 60.8009 13.5098ZM66.316 7.88477V18.5488H64.4777V7.88477H66.316ZM72.7247 7.88477L68.4034 13.019L65.9425 15.6265L65.6202 13.8027L67.3781 11.6348L70.4835 7.88477H72.7247ZM70.7472 18.5488L67.2389 13.4951L68.506 12.2427L72.9298 18.5488H70.7472ZM86.194 12.9238V13.5098C86.194 14.3154 86.089 15.0381 85.879 15.6777C85.6691 16.3174 85.3688 16.8618 84.9781 17.311C84.5924 17.7603 84.1285 18.1045 83.5865 18.3438C83.0446 18.5781 82.444 18.6953 81.7848 18.6953C81.1305 18.6953 80.5323 18.5781 79.9904 18.3438C79.4532 18.1045 78.9869 17.7603 78.5914 17.311C78.1959 16.8618 77.8883 16.3174 77.6686 15.6777C77.4537 15.0381 77.3463 14.3154 77.3463 13.5098V12.9238C77.3463 12.1182 77.4537 11.3979 77.6686 10.7632C77.8834 10.1235 78.1862 9.5791 78.5768 9.12988C78.9723 8.67578 79.4386 8.33154 79.9757 8.09717C80.5177 7.85791 81.1158 7.73828 81.7701 7.73828C82.4293 7.73828 83.0299 7.85791 83.5719 8.09717C84.1139 8.33154 84.5802 8.67578 84.9708 9.12988C85.3615 9.5791 85.6617 10.1235 85.8717 10.7632C86.0865 11.3979 86.194 12.1182 86.194 12.9238ZM84.3556 13.5098V12.9092C84.3556 12.3135 84.297 11.7886 84.1798 11.3345C84.0675 10.8755 83.899 10.4922 83.6744 10.1846C83.4547 9.87207 83.1837 9.6377 82.8615 9.48145C82.5392 9.32031 82.1754 9.23975 81.7701 9.23975C81.3649 9.23975 81.0035 9.32031 80.6862 9.48145C80.3688 9.6377 80.0978 9.87207 79.8732 10.1846C79.6534 10.4922 79.485 10.8755 79.3678 11.3345C79.2506 11.7886 79.192 12.3135 79.192 12.9092V13.5098C79.192 14.1055 79.2506 14.6328 79.3678 15.0918C79.485 15.5508 79.6559 15.939 79.8805 16.2563C80.11 16.5688 80.3834 16.8057 80.7008 16.9668C81.0182 17.123 81.3795 17.2012 81.7848 17.2012C82.1949 17.2012 82.5587 17.123 82.8761 16.9668C83.1935 16.8057 83.462 16.5688 83.6818 16.2563C83.9015 15.939 84.0675 15.5508 84.1798 15.0918C84.297 14.6328 84.3556 14.1055 84.3556 13.5098ZM96.4918 7.88477V18.5488H94.6534L89.8707 10.9097V18.5488H88.0323V7.88477H89.8707L94.6681 15.5386V7.88477H96.4918ZM105.361 17.0913V18.5488H100.007V17.0913H105.361ZM100.52 7.88477V18.5488H98.6818V7.88477H100.52ZM108.745 7.88477V18.5488H106.907V7.88477H108.745ZM119.49 7.88477V18.5488H117.651L112.869 10.9097V18.5488H111.03V7.88477H112.869L117.666 15.5386V7.88477H119.49ZM128.66 17.0913V18.5488H122.998V17.0913H128.66ZM123.518 7.88477V18.5488H121.68V7.88477H123.518ZM127.92 12.3379V13.7734H122.998V12.3379H127.92ZM128.623 7.88477V9.34961H122.998V7.88477H128.623Z" fill="white"/>
<path d="M33.5565 37.9509C32.6056 36.1561 31.2217 35.6099 30.5018 35.2813C30.3485 35.2142 30.1826 35.1799 30.0151 35.1807C29.8365 35.1802 29.6602 35.2202 29.4994 35.2977C29.4194 35.1215 29.3277 34.9507 29.2251 34.7864C28.266 33.1559 26.9068 32.9793 26.3664 32.9793C26.21 32.9786 26.0539 32.9931 25.9003 33.0224C25.7035 33.0675 25.5208 33.1599 25.3682 33.2914C25.312 33.1694 25.2428 33.0538 25.1619 32.9465C24.4049 31.971 23.5119 31.7657 22.9117 31.7657C22.2908 31.7794 21.6868 31.9697 21.1709 32.314C20.8202 25.3875 20.4552 25.1431 20.0427 24.7488C19.7889 24.5069 19.4894 24.3177 19.1615 24.1922C18.8336 24.0667 18.4839 24.0074 18.1327 24.0178C17.0045 24.0178 15.7587 24.6523 15.4122 25.9604C15.239 26.6093 15.3792 31.3303 14.9997 39.6881C14.9275 39.6101 14.8533 39.5341 14.779 39.4623C13.8433 38.5144 12.5742 37.9658 11.2397 37.9324C10.6664 37.9305 10.0991 38.0495 9.57522 38.2815C9.30091 38.4026 8.46763 38.7723 8.19125 39.5773C7.93962 40.3186 8.28613 40.9572 8.51714 41.3782C8.58325 41.4923 8.64248 41.6103 8.69452 41.7314C8.87449 42.1713 9.18916 42.5435 9.59379 42.7951C9.93411 43.0395 10.4456 43.4112 11.3325 44.9102C11.8815 45.8311 12.3593 46.7921 12.7619 47.7852C13.1652 48.8055 13.6688 49.7836 14.2655 50.7053C14.8312 51.6389 15.5822 52.4481 16.4724 53.0832C16.8641 53.3406 17.2006 53.6729 17.4624 54.0607C17.8749 54.6768 17.9615 57.525 17.9492 58.0671C17.9492 58.1657 17.9492 58.2622 17.9492 58.3567C17.9492 59.3259 18.6917 59.9995 19.7518 59.9995H31.1763C31.3424 59.9951 31.5059 59.9564 31.6562 59.8859C31.8066 59.8155 31.9407 59.7147 32.05 59.5901C32.1593 59.4654 32.2415 59.3196 32.2913 59.1617C32.3412 59.0038 32.3576 58.8374 32.3396 58.6729C32.3066 58.371 32.0735 54.3852 32.6531 53.1161C33.5235 51.2063 33.9092 48.5224 34.398 45.1238C34.9157 41.5199 34.4392 39.6327 33.5565 37.9509ZM33.3502 44.9698C32.8738 48.3252 32.4922 50.9127 31.6899 52.6705C31.0113 54.1572 31.234 58.291 31.2897 58.7838C31.2917 58.8016 31.29 58.8197 31.2846 58.8368C31.2793 58.8539 31.2704 58.8697 31.2586 58.8832C31.2467 58.8967 31.2322 58.9076 31.2159 58.9153C31.1996 58.9229 31.1819 58.9271 31.1639 58.9275H19.7952C19.5889 58.9275 19.0361 58.8824 19.0361 58.3485C19.0361 57.6687 19.0609 54.4878 18.372 53.4611C17.4108 52.0236 16.6312 52.3563 15.1874 50.12C13.7436 47.8837 13.8798 47.0705 12.2751 44.3558C10.6704 41.641 10.0166 42.1216 9.69485 41.3289C9.37309 40.5362 8.57283 39.8914 10.0166 39.2507C11.4604 38.61 13.0651 39.2507 14.0283 40.2097C14.6513 40.8591 15.2223 41.556 15.7361 42.2941C15.7513 42.3161 15.7732 42.3328 15.7985 42.3417C15.8238 42.3507 15.8514 42.3515 15.8772 42.344C15.903 42.3365 15.9258 42.3211 15.9423 42.2999C15.9588 42.2788 15.9682 42.253 15.9691 42.2263C16.0578 39.8812 16.3136 27.4738 16.4538 26.4697C16.6601 25.0117 18.6669 24.6708 19.4033 25.6482C19.857 26.2458 20.3479 38.914 20.385 39.1891C20.3974 39.2754 20.3974 39.2898 20.3995 39.2918C20.4593 39.3616 21.4803 39.3904 21.4823 39.337C21.5071 38.3862 21.5256 34.2586 21.5194 33.7206C21.5227 33.5789 21.5543 33.4393 21.6123 33.3099C21.8721 33.1046 23.2314 32.2092 24.308 33.5995C25.0382 34.542 24.6958 39.76 24.9453 39.7929L25.857 40.0475C25.8623 40.0487 25.8679 40.0487 25.8732 40.0476C25.8786 40.0464 25.8836 40.0441 25.888 40.0407C25.8923 40.0374 25.8958 40.0331 25.8983 40.0283C25.9008 40.0234 25.9022 40.0181 25.9024 40.0126L25.8487 34.3778C25.9027 34.2544 25.9925 34.15 26.1066 34.0779C26.4489 34.0143 27.5173 33.9958 28.3052 35.3347C28.7672 36.1171 28.8188 36.6592 28.8724 37.9221C28.9178 39.0639 28.9322 40.2652 28.9591 40.5794C28.9859 40.6574 29.0787 40.6779 29.1426 40.7026L29.8047 40.8853C29.8872 40.912 29.9862 40.8853 29.9883 40.7991L29.881 36.3943C29.8813 36.373 29.8869 36.3521 29.8972 36.3335C29.9075 36.3148 29.9223 36.299 29.9403 36.2874C29.9583 36.2758 29.9788 36.2688 30.0001 36.2671C30.0215 36.2653 30.0429 36.2688 30.0625 36.2773C30.5885 36.5093 31.9188 37.2362 32.5376 38.4478C33.3337 40.0126 33.8122 41.6246 33.3378 44.9698H33.3502Z" fill="#F76A2A"/>
<path d="M33.3373 44.9686C32.8608 48.324 32.4792 50.9115 31.6769 52.6693C30.9983 54.156 31.2211 58.2898 31.2768 58.7826C31.2788 58.8004 31.277 58.8185 31.2717 58.8356C31.2663 58.8527 31.2574 58.8685 31.2456 58.882C31.2338 58.8955 31.2193 58.9064 31.203 58.9141C31.1867 58.9217 31.169 58.9259 31.151 58.9263H19.7822C19.5759 58.9263 19.0232 58.8812 19.0232 58.3473C19.0232 57.6675 19.0479 54.4866 18.359 53.4599C17.3979 52.0224 16.6182 52.3551 15.1745 50.1188C13.7307 47.8825 13.8668 47.0693 12.2621 44.3546C10.6575 41.6398 10.016 42.1204 9.69426 41.3277C9.3725 40.535 8.57224 39.8902 10.016 39.2495C11.4598 38.6088 13.0645 39.2495 14.0277 40.2085C14.6507 40.8579 15.2217 41.5548 15.7355 42.2928C15.7507 42.3149 15.7726 42.3316 15.7979 42.3405C15.8232 42.3495 15.8508 42.3503 15.8766 42.3428C15.9024 42.3353 15.9252 42.3199 15.9417 42.2987C15.9582 42.2776 15.9676 42.2518 15.9685 42.2251C16.0572 39.88 16.313 27.4726 16.4532 26.4684C16.6595 25.0104 18.6663 24.6696 19.4027 25.647C19.8564 26.2446 20.3473 38.9128 20.3845 39.1879C20.3968 39.2742 20.3968 39.2886 20.3989 39.2906C20.4587 39.3604 21.4797 39.3892 21.4817 39.3358C21.5065 38.385 21.525 34.2574 21.5189 33.7194C21.5221 33.5777 21.5537 33.4381 21.6117 33.3087C21.8715 33.1034 23.2308 32.208 24.3074 33.5983C25.0376 34.5408 24.6952 39.7588 24.9447 39.7917L25.8564 40.0463C25.8617 40.0475 25.8673 40.0475 25.8726 40.0464C25.878 40.0452 25.883 40.0429 25.8874 40.0395C25.8917 40.0362 25.8952 40.0319 25.8977 40.0271C25.9002 40.0222 25.9016 40.0168 25.9018 40.0114L25.8481 34.3765C25.9021 34.2532 25.9919 34.1488 26.106 34.0767C26.4483 34.0131 27.5167 33.9946 28.3046 35.3335C28.7666 36.1159 28.8182 36.658 28.8718 37.9209C28.9172 39.0627 28.9317 40.264 28.9585 40.5782C28.9853 40.6562 29.0781 40.6767 29.142 40.7014L29.8041 40.8841C29.8866 40.9108 29.9856 40.8841 29.9877 40.7979L29.8804 36.3931C29.8807 36.3718 29.8863 36.3509 29.8966 36.3322C29.9069 36.3136 29.9218 36.2978 29.9397 36.2862C29.9577 36.2746 29.9782 36.2676 29.9995 36.2659C30.0209 36.2641 30.0423 36.2676 30.0619 36.276C30.5879 36.5081 31.9182 37.235 32.537 38.4466C33.3331 40.0114 33.8116 41.6234 33.3373 44.9686Z" fill="white"/>
</svg>
