<svg width="33" height="33" viewBox="0 0 33 33" fill="none" xmlns="http://www.w3.org/2000/svg">
<path d="M24.189 32.1152H23.9373C22.2728 31.9375 20.6439 31.5133 19.104 30.8566C16.1368 29.5991 13.3881 27.8785 10.9605 25.759C7.57841 22.9322 4.73071 19.5217 2.55258 15.6897C1.36257 13.6349 0.526491 11.3947 0.0792965 9.06278C-0.0193314 8.6318 -0.0260341 8.18488 0.0596298 7.75114C0.145294 7.3174 0.321402 6.90657 0.57647 6.54544C1.95311 4.48963 3.5576 2.59592 5.3594 0.900326C5.59119 0.689831 5.83952 0.498313 6.10201 0.327631C6.42176 0.0919935 6.81465 -0.0227524 7.21096 0.00374522C7.60727 0.0302428 7.98138 0.196277 8.26692 0.472384C8.50593 0.677132 8.71747 0.911943 8.89625 1.17095C10.3355 3.14166 11.599 5.23486 12.6723 7.42651C13.396 8.96837 13.2638 9.62289 11.98 10.762L11.6842 11.0263L10.2871 12.285C11.1484 14.918 12.7473 17.2486 14.8938 19C16.3201 20.2353 17.9874 21.1611 19.79 21.7187C19.9725 21.5047 20.1613 21.297 20.3501 21.0893L21.1997 20.1327C22.4269 18.723 23.0877 18.5846 24.7303 19.3776C26.8526 20.4244 28.8822 21.6497 30.797 23.0403C31.1168 23.2146 31.395 23.4562 31.6123 23.7485C31.8296 24.0408 31.9809 24.3767 32.0557 24.7332C32.0517 25.0912 31.9723 25.4444 31.8226 25.7697C31.673 26.095 31.4565 26.3851 31.1872 26.6212C29.4247 28.5329 27.4238 30.2102 25.2337 31.6118C25.0165 31.7474 24.7842 31.8572 24.5415 31.939L24.4345 31.9768L24.189 32.1152ZM7.09636 1.94502C6.93636 2.04817 6.78484 2.16393 6.64324 2.29117C4.94707 3.89143 3.43371 5.67496 2.13092 7.60902C2.01934 7.76812 1.94403 7.94979 1.91032 8.14117C1.87661 8.33256 1.88532 8.529 1.93583 8.71665C2.34655 10.8414 3.11248 12.8818 4.20143 14.752C6.26952 18.3801 8.9724 21.6074 12.1814 24.2801C14.4634 26.2705 17.0463 27.8869 19.8341 29.0693C21.1428 29.625 22.5211 29.9998 23.931 30.1832C24.0266 30.1488 24.1192 30.1067 24.2079 30.0573C26.2619 28.7426 28.138 27.1689 29.7901 25.3751C29.9192 25.2418 30.0351 25.0964 30.1362 24.9409C30.0038 24.8116 29.8606 24.6937 29.7083 24.5884C27.8802 23.2579 25.941 22.0872 23.9121 21.0893C23.683 20.9588 23.4375 20.8593 23.1821 20.7936C23.1066 20.8439 22.7542 21.253 22.6346 21.3851C22.3514 21.7124 22.0619 22.0145 21.7724 22.3606C21.4829 22.7067 21.2564 22.9333 21.0046 23.2228C20.835 23.4283 20.607 23.5774 20.3508 23.6504C20.0946 23.7235 19.8222 23.717 19.5697 23.6318C17.4058 23.0206 15.4003 21.947 13.6918 20.4852C11.1832 18.4209 9.35063 15.6524 8.43055 12.5367C8.34366 12.283 8.33564 12.0089 8.40753 11.7505C8.47943 11.4922 8.62787 11.2616 8.83332 11.0892C9.38084 10.6109 9.92836 10.1201 10.4696 9.63547L10.7654 9.37116C10.9454 9.22263 11.1117 9.05836 11.2625 8.88028C11.1959 8.66399 11.1118 8.45351 11.0108 8.25095C9.98933 6.16322 8.7869 4.169 7.41732 2.29117C7.32498 2.16302 7.21718 2.04675 7.09636 1.94502Z" fill="white"/>
<path d="M31.0794 14.9471H28.9585C28.9612 13.3936 28.6567 11.855 28.0627 10.4197C27.4687 8.98429 26.5968 7.68048 25.4972 6.58321C24.4037 5.47811 23.1022 4.60051 21.6677 4.00102C20.2333 3.40154 18.6943 3.09205 17.1396 3.09042V0.994752C24.1127 0.711552 31.1612 6.86013 31.0794 14.9471Z" fill="white"/>
<path d="M25.6792 14.9471H23.5646C23.5609 13.2388 22.8823 11.6011 21.6766 10.3908C20.4721 9.18405 18.8378 8.50497 17.1328 8.50276V6.38819C18.2564 6.38736 19.3692 6.60827 20.4072 7.03826C21.4453 7.46825 22.3884 8.09886 23.1823 8.89396C23.9762 9.68906 24.6055 10.633 25.0339 11.6717C25.4624 12.7105 25.6816 13.8235 25.6792 14.9471Z" fill="white"/>
</svg>
