<svg width="15" height="15" viewBox="0 0 15 15" fill="none" xmlns="http://www.w3.org/2000/svg">
<path d="M1.51223 6.84844C1.98434 6.85806 2.34132 7.00641 2.64654 7.29167C3.5271 8.11585 4.40811 8.93896 5.28957 9.761C5.56489 10.0188 5.73579 10.011 5.97854 9.72711C8.71542 6.5525 11.4523 3.37789 14.1892 0.203283C14.3306 0.0393635 14.4913 -0.0471745 14.7055 0.0265436C14.7913 0.0534203 14.8664 0.108078 14.9195 0.182353C14.9726 0.256627 15.0008 0.346531 15 0.438632C14.9906 0.544946 14.9563 0.647358 14.9 0.737169C13.5242 3.01892 12.1459 5.29914 10.7653 7.57784C9.43341 9.78023 8.10141 11.9825 6.76927 14.1845C6.50956 14.6145 6.15748 14.9062 5.65994 14.9808C5.14053 15.0591 4.69162 14.8988 4.36007 14.4858C3.01573 12.81 1.67837 11.1281 0.348011 9.44002C-0.0535965 8.92812 -0.103127 8.33837 0.176213 7.74588C0.455553 7.15339 0.943283 6.88187 1.51223 6.84844Z" fill="#FF9100"/>
</svg>
