<svg width="161" height="48" viewBox="0 0 161 48" fill="none" xmlns="http://www.w3.org/2000/svg">
<path d="M154.982 0H5.96697C2.67153 0 0 2.67143 0 5.96688V41.7211C0 45.0166 2.67153 47.688 5.96697 47.688H154.982C158.278 47.688 160.949 45.0166 160.949 41.7211V5.96688C160.949 2.67143 158.278 0 154.982 0Z" fill="black"/>
<path d="M154.998 0.947093C155.655 0.947093 156.306 1.07657 156.913 1.32805C157.52 1.57952 158.072 1.94806 158.536 2.41273C159.001 2.87739 159.37 3.42906 159.621 4.03618C159.873 4.64329 160.002 5.29394 160.002 5.95108V41.7211C160.002 42.3783 159.873 43.0289 159.621 43.636C159.37 44.2431 159.001 44.7948 158.536 45.2595C158.072 45.7241 157.52 46.0928 156.913 46.3443C156.306 46.5957 155.655 46.7251 154.998 46.7251H5.96697C4.63983 46.7251 3.36701 46.1979 2.42858 45.2595C1.49014 44.321 0.962942 43.0483 0.962942 41.7211V5.95108C0.962942 4.62393 1.49014 3.35116 2.42858 2.41273C3.36701 1.47429 4.63983 0.947093 5.96697 0.947093H154.998ZM154.998 0H5.96697C4.38845 0.00414303 2.87552 0.631969 1.75785 1.74668C0.640189 2.86139 0.00832453 4.37257 0 5.95108V41.7211C0.00416668 43.3024 0.6342 44.8176 1.75231 45.9357C2.87043 47.0539 4.38573 47.6838 5.96697 47.688H154.998C156.579 47.6838 158.095 47.0539 159.213 45.9357C160.331 44.8176 160.961 43.3024 160.965 41.7211V5.95108C160.957 4.37257 160.325 2.86139 159.207 1.74668C158.09 0.631969 156.577 0.00414303 154.998 0Z" fill="#A09F9F"/>
<path d="M56.5446 12.2025C56.5706 12.6432 56.504 13.0843 56.3491 13.4976C56.1941 13.9109 55.9541 14.2871 55.6448 14.602C55.3059 14.9513 54.8977 15.2258 54.4464 15.4079C53.9952 15.5901 53.5108 15.6758 53.0244 15.6596C52.0322 15.6596 51.0806 15.2654 50.379 14.5638C49.6774 13.8622 49.2832 12.9106 49.2832 11.9184C49.2832 10.9262 49.6774 9.97461 50.379 9.273C51.0806 8.5714 52.0322 8.17725 53.0244 8.17725C53.5285 8.18216 54.0269 8.28399 54.4925 8.47717C54.9208 8.6596 55.3036 8.93454 55.6132 9.28225L54.9818 9.91362C54.7435 9.63009 54.4427 9.40557 54.1031 9.25768C53.7635 9.1098 53.3943 9.04259 53.0244 9.06123C52.2666 9.06123 51.5399 9.36228 51.0041 9.8981C50.4682 10.4339 50.1672 11.1606 50.1672 11.9184C50.1672 12.6762 50.4682 13.4029 51.0041 13.9387C51.5399 14.4745 52.2666 14.7756 53.0244 14.7756C53.3935 14.7854 53.7606 14.719 54.1028 14.5805C54.4451 14.442 54.755 14.2343 55.0134 13.9705C55.3821 13.5811 55.5955 13.0701 55.6132 12.5341H53.1033V11.6658H56.5604C56.5774 11.8446 56.5721 12.025 56.5446 12.2025Z" fill="white" stroke="white" stroke-width="0.2" stroke-miterlimit="10"/>
<path d="M62.0388 9.21919H58.7712V11.4923H61.7073V12.3448H58.7712V14.6178H62.0388V15.5019H57.8398V8.33521H62.023L62.0388 9.21919Z" fill="white" stroke="white" stroke-width="0.2" stroke-miterlimit="10"/>
<path d="M65.9066 15.501H64.9911V9.18682H62.9863V8.30273H67.9114V9.18682H65.9066V15.501Z" fill="white" stroke="white" stroke-width="0.2" stroke-miterlimit="10"/>
<path d="M71.4609 15.5019V8.33521H72.3765V15.5019H71.4609Z" fill="white" stroke="white" stroke-width="0.2" stroke-miterlimit="10"/>
<path d="M76.4664 15.501H75.535V9.18682H73.625V8.30273H78.5343V9.18682H76.4664V15.501Z" fill="white" stroke="white" stroke-width="0.2" stroke-miterlimit="10"/>
<path d="M87.8324 14.5699C87.4951 14.9234 87.0879 15.2027 86.6368 15.3902C86.1857 15.5777 85.7004 15.6693 85.212 15.6591C84.7231 15.6723 84.237 15.5821 83.7855 15.3944C83.3339 15.2067 82.927 14.9257 82.5916 14.5699C81.912 13.8542 81.5332 12.9049 81.5332 11.918C81.5332 10.931 81.912 9.98175 82.5916 9.266C82.927 8.91019 83.3339 8.62916 83.7855 8.44146C84.237 8.25377 84.7231 8.16362 85.212 8.1768C85.7003 8.16754 86.1852 8.25949 86.6362 8.44696C87.0872 8.63442 87.4945 8.91332 87.8324 9.266C88.5119 9.98175 88.8908 10.931 88.8908 11.918C88.8908 12.9049 88.5119 13.8542 87.8324 14.5699ZM83.2703 13.9701C83.5197 14.2326 83.8213 14.4398 84.1558 14.5785C84.4902 14.7172 84.85 14.7842 85.212 14.7751C85.5734 14.7803 85.9321 14.7116 86.266 14.5732C86.5999 14.4347 86.9019 14.2295 87.1536 13.9701C87.6617 13.4073 87.9429 12.6761 87.9429 11.918C87.9429 11.1598 87.6617 10.4286 87.1536 9.86586C86.9019 9.60644 86.5999 9.40117 86.266 9.26273C85.9321 9.12429 85.5734 9.05557 85.212 9.06078C84.85 9.05175 84.4902 9.11866 84.1558 9.25733C83.8213 9.396 83.5197 9.60336 83.2703 9.86586C82.7522 10.4236 82.4643 11.1567 82.4643 11.918C82.4643 12.6792 82.7522 13.4123 83.2703 13.9701Z" fill="white" stroke="white" stroke-width="0.2" stroke-miterlimit="10"/>
<path d="M90.1055 15.5019V8.33521H91.2262L94.6991 13.9075V12.5342V8.33521H95.6304V15.5019H94.6675L91.021 9.66123V11.0346V15.5019H90.1055Z" fill="white" stroke="white" stroke-width="0.2" stroke-miterlimit="10"/>
<path d="M81.2326 25.9354C80.2318 25.9416 79.2552 26.2441 78.4261 26.8046C77.597 27.3652 76.9524 28.1587 76.5738 29.0852C76.1951 30.0116 76.0992 31.0294 76.2982 32.0103C76.4973 32.9911 76.9824 33.891 77.6923 34.5965C78.4022 35.302 79.3051 35.7815 80.2872 35.9745C81.2692 36.1674 82.2865 36.0653 83.2105 35.6809C84.1346 35.2965 84.9241 34.647 85.4795 33.8144C86.0349 32.9818 86.3313 32.0033 86.3313 31.0025C86.3399 30.332 86.2136 29.6667 85.96 29.0459C85.7064 28.4252 85.3307 27.8618 84.8551 27.3892C84.3795 26.9165 83.8137 26.5442 83.1915 26.2945C82.5692 26.0447 81.903 25.9226 81.2326 25.9354ZM81.2326 34.0649C80.6161 34.1061 80.0014 33.9607 79.4685 33.6478C78.9357 33.3348 78.5094 32.8688 78.245 32.3103C77.9807 31.7517 77.8906 31.1266 77.9865 30.5161C78.0823 29.9057 78.3597 29.3382 78.7825 28.8876C79.2052 28.4369 79.7539 28.1239 80.357 27.9893C80.9601 27.8547 81.5897 27.9048 82.164 28.133C82.7383 28.3611 83.2306 28.7568 83.5768 29.2686C83.9231 29.7804 84.1074 30.3845 84.1056 31.0025C84.1161 31.3886 84.0498 31.773 83.9107 32.1334C83.7716 32.4938 83.5624 32.8229 83.2952 33.1019C83.028 33.3808 82.7081 33.604 82.3541 33.7585C82 33.9129 81.6189 33.9956 81.2326 34.0018V34.0649ZM70.1828 25.9354C69.1786 25.926 68.1943 26.2151 67.3548 26.7662C66.5153 27.3172 65.8585 28.1053 65.4677 29.0303C65.0769 29.9554 64.9697 30.9757 65.1599 31.9617C65.35 32.9477 65.8288 33.8551 66.5356 34.5685C67.2423 35.2819 68.1451 35.7692 69.1293 35.9686C70.1135 36.168 71.1347 36.0704 72.0634 35.6883C72.9921 35.3062 73.7863 34.6568 74.3452 33.8226C74.9041 32.9883 75.2025 32.0067 75.2025 31.0025C75.2132 30.3341 75.0894 29.6705 74.8385 29.0509C74.5877 28.4313 74.2148 27.8684 73.7422 27.3957C73.2695 26.923 72.7066 26.5502 72.0871 26.2994C71.4675 26.0485 70.8038 25.9247 70.1354 25.9354H70.1828ZM70.1828 34.0649C69.545 34.1255 68.904 33.9907 68.3446 33.6784C67.7853 33.3661 67.3342 32.891 67.0513 32.3163C66.7684 31.7415 66.667 31.0943 66.7606 30.4606C66.8543 29.8269 67.1384 29.2367 67.5755 28.7683C68.0125 28.2999 68.5816 27.9755 69.2073 27.8382C69.8331 27.701 70.4857 27.7573 71.0787 27.9997C71.6716 28.2422 72.1768 28.6592 72.5271 29.1956C72.8774 29.7319 73.0563 30.3621 73.0399 31.0025C73.0504 31.3912 72.9832 31.7782 72.8421 32.1406C72.7011 32.503 72.4891 32.8337 72.2185 33.113C71.948 33.3924 71.6243 33.6149 71.2666 33.7675C70.9089 33.9201 70.5243 33.9998 70.1354 34.0018L70.1828 34.0649ZM56.9703 27.4823V29.6291H62.1163C62.0501 30.6414 61.6376 31.6001 60.9482 32.3443C60.4318 32.8701 59.8111 33.2821 59.126 33.5539C58.441 33.8258 57.7067 33.9515 56.9703 33.9228C55.5046 33.8458 54.1243 33.2093 53.1141 32.1447C52.1039 31.08 51.5408 29.6683 51.5408 28.2006C51.5408 26.7329 52.1039 25.3212 53.1141 24.2565C54.1243 23.1918 55.5046 22.5553 56.9703 22.4783C57.6897 22.4719 58.4033 22.6081 59.0698 22.8791C59.7363 23.15 60.3426 23.5503 60.8535 24.0569L62.4321 22.4783C61.7229 21.7737 60.8799 21.2179 59.9528 20.8438C59.0256 20.4697 58.033 20.2848 57.0334 20.2999C54.9401 20.2999 52.9326 21.1315 51.4524 22.6117C49.9722 24.0919 49.1406 26.0994 49.1406 28.1927C49.1406 30.286 49.9722 32.2935 51.4524 33.7737C52.9326 35.2539 54.9401 36.0855 57.0334 36.0855C58.0535 36.1287 59.0712 35.954 60.0184 35.5729C60.9657 35.1918 61.8208 34.6131 62.5268 33.8754C63.7825 32.5052 64.4512 30.6974 64.3894 28.8399C64.3966 28.3901 64.3595 27.9407 64.2789 27.4981L56.9703 27.4823ZM110.988 29.1556C110.669 28.2519 110.083 27.4663 109.308 26.9026C108.533 26.3389 107.605 26.0237 106.647 25.9985C106 26.0082 105.361 26.1484 104.769 26.4108C104.177 26.6731 103.644 27.052 103.202 27.5251C102.76 27.9982 102.418 28.5555 102.196 29.1639C101.974 29.7722 101.878 30.4191 101.912 31.0657C101.899 31.7319 102.02 32.3939 102.268 33.0124C102.516 33.6308 102.886 34.1931 103.356 34.6658C103.826 35.1385 104.386 35.5119 105.003 35.7639C105.62 36.016 106.281 36.1413 106.947 36.1328C107.782 36.1368 108.606 35.9343 109.344 35.5432C110.082 35.1521 110.712 34.5846 111.178 33.8912L109.441 32.7389C109.182 33.1667 108.815 33.5196 108.378 33.7631C107.941 34.0066 107.448 34.1324 106.947 34.1281C106.425 34.1461 105.91 34.0047 105.47 33.7227C105.03 33.4408 104.686 33.0315 104.485 32.5495L111.272 29.7396L110.988 29.1556ZM104.027 30.8447C104.003 30.4759 104.054 30.1061 104.175 29.757C104.296 29.4079 104.486 29.0865 104.733 28.8116C104.98 28.5367 105.279 28.314 105.613 28.1562C105.947 27.9984 106.31 27.9088 106.679 27.8928C107.063 27.8651 107.447 27.9524 107.781 28.1436C108.116 28.3347 108.386 28.6211 108.557 28.9662L104.027 30.8447ZM98.5177 35.7697H100.744V20.8524H98.5177V35.7697ZM94.8713 27.0561C94.5296 26.6933 94.1156 26.4062 93.6562 26.2131C93.1967 26.0201 92.7018 25.9255 92.2035 25.9354C90.8596 25.9354 89.5708 26.4692 88.6205 27.4195C87.6702 28.3698 87.1364 29.6586 87.1364 31.0025C87.1364 32.3464 87.6702 33.6352 88.6205 34.5855C89.5708 35.5358 90.8596 36.0697 92.2035 36.0697C92.705 36.0817 93.2032 35.9848 93.6638 35.7859C94.1243 35.587 94.5362 35.2907 94.8713 34.9173V35.5803C94.928 35.9622 94.8991 36.3519 94.7867 36.7213C94.6743 37.0906 94.4811 37.4304 94.2213 37.7159C93.9614 38.0015 93.6413 38.2256 93.2842 38.3723C92.927 38.5189 92.5417 38.5844 92.1562 38.5638C91.5978 38.5497 91.0562 38.3694 90.6007 38.046C90.1452 37.7227 89.7965 37.2709 89.5989 36.7484L87.6731 37.5693C88.0289 38.4631 88.6484 39.2273 89.4493 39.7602C90.2502 40.2932 91.1943 40.5697 92.1562 40.5528C94.7766 40.5528 96.9865 38.9742 96.9865 35.2804V26.1721H94.8713V27.0561ZM92.314 34.0018C91.927 33.9917 91.546 33.9044 91.1932 33.745C90.8404 33.5856 90.5231 33.3572 90.2598 33.0734C89.9966 32.7895 89.7927 32.4559 89.6603 32.0922C89.5278 31.7284 89.4693 31.3418 89.4884 30.9552C89.4584 30.5605 89.5084 30.1639 89.6356 29.7892C89.7627 29.4144 89.9643 29.0691 90.2283 28.7742C90.4922 28.4794 90.813 28.2409 91.1715 28.0731C91.5299 27.9054 91.9185 27.8118 92.314 27.7981C92.703 27.8175 93.084 27.9158 93.4338 28.087C93.7836 28.2582 94.0949 28.4989 94.3489 28.7942C94.6028 29.0895 94.7941 29.4333 94.911 29.8048C95.028 30.1763 95.0682 30.5677 95.0292 30.9552C95.0592 31.3353 95.0121 31.7175 94.8905 32.0789C94.7689 32.4402 94.5755 32.7733 94.3218 33.0579C94.0681 33.3426 93.7595 33.573 93.4144 33.7352C93.0694 33.8974 92.6951 33.988 92.314 34.0018ZM121.375 20.7893H116.055V35.7066H118.281V30.0554H121.438C122.07 30.0922 122.702 29.9998 123.296 29.7836C123.89 29.5674 124.434 29.2321 124.893 28.7982C125.353 28.3644 125.72 27.8412 125.97 27.2606C126.221 26.6801 126.35 26.0546 126.35 25.4223C126.35 24.7901 126.221 24.1645 125.97 23.584C125.72 23.0035 125.353 22.4803 124.893 22.0464C124.434 21.6126 123.89 21.2772 123.296 21.0611C122.702 20.8449 122.07 20.7524 121.438 20.7893H121.375ZM121.375 27.9717H118.218V22.9519H121.375C121.727 22.9242 122.08 22.9696 122.414 23.0851C122.747 23.2007 123.053 23.3839 123.312 23.6233C123.571 23.8628 123.777 24.1532 123.919 24.4764C124.06 24.7996 124.133 25.1485 124.133 25.5012C124.133 25.854 124.06 26.2029 123.919 26.5261C123.777 26.8493 123.571 27.1397 123.312 27.3791C123.053 27.6186 122.747 27.8019 122.414 27.9174C122.08 28.033 121.727 28.0783 121.375 28.0506V27.9717ZM135.124 25.8407C134.314 25.7927 133.508 25.9822 132.804 26.386C132.1 26.7898 131.53 27.3903 131.162 28.1138L133.135 28.9504C133.325 28.5866 133.618 28.2873 133.978 28.0906C134.337 27.8938 134.748 27.8085 135.156 27.8454C135.723 27.7924 136.287 27.9649 136.727 28.3254C137.168 28.6859 137.448 29.2054 137.508 29.7712V29.9291C136.795 29.5435 135.998 29.3427 135.188 29.345C133.056 29.345 130.894 30.5131 130.894 32.7073C130.914 33.1672 131.026 33.6185 131.224 34.034C131.422 34.4496 131.702 34.8209 132.047 35.1259C132.391 35.4309 132.794 35.6633 133.231 35.8091C133.667 35.955 134.129 36.0114 134.588 35.9749C135.148 36.0071 135.706 35.8895 136.205 35.6343C136.705 35.379 137.127 34.9953 137.429 34.5227H137.508V35.675H139.655V29.9607C139.653 29.393 139.533 28.8319 139.302 28.3132C139.071 27.7945 138.735 27.3296 138.315 26.948C137.895 26.5664 137.4 26.2764 136.861 26.0967C136.323 25.9169 135.753 25.8512 135.188 25.9038L135.124 25.8407ZM134.856 34.0018C134.13 34.0018 133.104 33.6387 133.104 32.7389C133.104 31.5866 134.382 31.1604 135.472 31.1604C136.183 31.1458 136.886 31.3201 137.508 31.6655C137.419 32.2969 137.112 32.877 136.638 33.3042C136.165 33.7314 135.556 33.9783 134.919 34.0018H134.856ZM147.484 26.109L144.943 32.581L142.291 26.109H139.923L143.901 35.1541L141.581 40.316H143.901L150.01 26.2511L147.484 26.109ZM127.453 35.5803H129.678V20.663H127.453V35.5803Z" fill="white"/>
<path d="M12.4399 8.98189C12.0473 9.44779 11.8495 10.0471 11.8874 10.6551V37.0327C11.8543 37.6401 12.0515 38.2377 12.4399 38.706H12.5346L27.3099 23.9307V23.5835L12.5346 8.82397L12.4399 8.98189Z" fill="url(#paint0_linear_1992_2)"/>
<path d="M32.2356 28.9349L27.3105 24.0099V23.6626L32.2356 18.7375H32.3461L38.171 22.0525C38.5393 22.1653 38.8617 22.3934 39.0908 22.7031C39.3198 23.0128 39.4434 23.3879 39.4434 23.7731C39.4434 24.1584 39.3198 24.5333 39.0908 24.8431C38.8617 25.1528 38.5393 25.3809 38.171 25.4937L32.3461 28.8087L32.2356 28.9349Z" fill="url(#paint1_linear_1992_2)"/>
<path d="M32.345 28.8718L27.3094 23.8362L12.4395 38.7377C12.7891 39.0237 13.2269 39.1799 13.6786 39.1799C14.1303 39.1799 14.5681 39.0237 14.9178 38.7377L32.2819 28.8402" fill="url(#paint2_linear_1992_2)"/>
<path d="M32.3444 18.8006L14.9803 8.90307C14.6306 8.61712 14.1928 8.46094 13.7411 8.46094C13.2894 8.46094 12.8516 8.61712 12.502 8.90307L27.3719 23.7573L32.3444 18.8006Z" fill="url(#paint3_linear_1992_2)"/>
<path opacity="0.2" d="M32.233 28.7615L14.869 38.5958C14.526 38.8557 14.1075 38.9964 13.6771 38.9964C13.2468 38.9964 12.8283 38.8557 12.4853 38.5958L12.3906 38.6905H12.4853C12.8283 38.9504 13.2468 39.0911 13.6771 39.0911C14.1075 39.0911 14.526 38.9504 14.869 38.6905L32.233 28.7931V28.7615Z" fill="black"/>
<path opacity="0.12" d="M12.4389 38.5326C12.0505 38.0644 11.8533 37.4668 11.8864 36.8594V37.033C11.8533 37.6404 12.0505 38.238 12.4389 38.7063L12.5336 38.6115L12.4389 38.5326Z" fill="black"/>
<path opacity="0.12" d="M38.1697 25.3831L32.2344 28.7613L32.3449 28.8718L38.1697 25.5568C38.5139 25.4097 38.8116 25.1719 39.0312 24.8689C39.2508 24.5659 39.3841 24.209 39.4168 23.8362C39.3465 24.1745 39.1968 24.4912 38.9799 24.7602C38.7631 25.0291 38.4854 25.2426 38.1697 25.3831Z" fill="black"/>
<path opacity="0.25" d="M14.9195 9.07701L38.1716 22.2895C38.488 22.4373 38.7656 22.6569 38.9821 22.931C39.1986 23.205 39.3481 23.526 39.4186 23.868C39.3842 23.4957 39.2503 23.1395 39.0309 22.8367C38.8115 22.534 38.5147 22.2959 38.1716 22.1474L14.9195 8.9349C13.262 7.98776 11.8887 8.77702 11.8887 10.6871V10.8608C11.8887 8.91916 13.262 8.12988 14.9195 9.07701Z" fill="white"/>
<defs>
<linearGradient id="paint0_linear_1992_2" x1="25.9997" y1="10.3867" x2="5.98362" y2="30.387" gradientUnits="userSpaceOnUse">
<stop stop-color="#4992CE"/>
<stop offset="0.01" stop-color="#4893CE"/>
<stop offset="0.26" stop-color="#43B5E6"/>
<stop offset="0.51" stop-color="#40C1ED"/>
<stop offset="0.76" stop-color="#54C4E6"/>
<stop offset="1" stop-color="#59C6E4"/>
</linearGradient>
<linearGradient id="paint1_linear_1992_2" x1="40.3494" y1="23.852" x2="11.4935" y2="23.852" gradientUnits="userSpaceOnUse">
<stop stop-color="#FADB00"/>
<stop offset="0.41" stop-color="#F9B816"/>
<stop offset="0.78" stop-color="#F79F1D"/>
<stop offset="1" stop-color="#F4961F"/>
</linearGradient>
<linearGradient id="paint2_linear_1992_2" x1="29.5983" y1="26.5829" x2="2.46309" y2="53.7182" gradientUnits="userSpaceOnUse">
<stop stop-color="#EC3F4A"/>
<stop offset="1" stop-color="#BD1E63"/>
</linearGradient>
<linearGradient id="paint3_linear_1992_2" x1="8.69764" y1="0.205287" x2="20.8209" y2="12.3286" gradientUnits="userSpaceOnUse">
<stop stop-color="#309B72"/>
<stop offset="0.07" stop-color="#27A271"/>
<stop offset="0.48" stop-color="#4AB46F"/>
<stop offset="0.8" stop-color="#5DB86A"/>
<stop offset="1" stop-color="#64BB69"/>
</linearGradient>
</defs>
</svg>
