<svg width="343" height="84" viewBox="0 0 343 84" fill="none" xmlns="http://www.w3.org/2000/svg">
<path opacity="0.5" d="M33.6743 83.0058C18.5195 83.0058 0 64.4863 0 41.6428C0 30.6726 4.35777 20.1517 12.1148 12.3946C19.8719 4.63756 30.3929 0.279785 41.363 0.279785H301.637C312.607 0.279785 323.128 4.63756 330.885 12.3946C338.642 20.1517 343 30.6726 343 41.6428C343 52.6129 338.642 63.1337 330.885 70.8908C323.128 78.6478 312.607 83.0058 301.637 83.0058H33.6743Z" fill="#00B8D1"/>
<path d="M128.59 9.66455H299.965C308.446 9.66455 316.58 13.0337 322.577 19.0308C328.574 25.0278 331.943 33.1615 331.943 41.6427C331.943 50.1238 328.574 58.2575 322.577 64.2546C316.58 70.2516 308.446 73.6208 299.965 73.6208H248.994" stroke="#03FFF8" stroke-width="4" stroke-miterlimit="10" stroke-linecap="round"/>
<path d="M227.796 73.6208H43.9918C35.5107 73.6208 27.3768 70.2516 21.3797 64.2546C15.3827 58.2575 12.0137 50.1238 12.0137 41.6427C12.0137 33.1615 15.3827 25.0278 21.3797 19.0308C27.3768 13.0337 35.5107 9.66455 43.9918 9.66455H107.281" stroke="#03FFF8" stroke-width="4" stroke-linecap="round" stroke-linejoin="round"/>
<path d="M226.905 73.6208H43.1002C34.6191 73.6208 26.4852 70.2516 20.4881 64.2546C14.4911 58.2575 11.1221 50.1238 11.1221 41.6427C11.1221 33.1615 14.4911 25.0278 20.4881 19.0308C26.4852 13.0337 34.6191 9.66455 43.1002 9.66455H106.389" stroke="white" stroke-width="2.5" stroke-miterlimit="10" stroke-linecap="round"/>
<path d="M127.698 9.66455H299.073C307.554 9.66455 315.688 13.0337 321.685 19.0308C327.682 25.0278 331.051 33.1615 331.051 41.6427C331.051 50.1238 327.682 58.2575 321.685 64.2546C315.688 70.2516 307.554 73.6208 299.073 73.6208H248.103" stroke="white" stroke-width="2.5" stroke-miterlimit="10" stroke-linecap="round"/>
<path d="M87.448 49C87.288 49 87.152 48.944 87.04 48.832C86.928 48.72 86.872 48.584 86.872 48.424V32.8C86.872 32.624 86.928 32.48 87.04 32.368C87.152 32.256 87.288 32.2 87.448 32.2H93.664C95.6 32.2 97.128 32.648 98.248 33.544C99.368 34.44 99.928 35.744 99.928 37.456C99.928 38.64 99.632 39.624 99.04 40.408C98.464 41.192 97.688 41.76 96.712 42.112L100.216 48.232C100.264 48.328 100.288 48.416 100.288 48.496C100.288 48.64 100.232 48.76 100.12 48.856C100.024 48.952 99.912 49 99.784 49H97.6C97.328 49 97.12 48.928 96.976 48.784C96.832 48.64 96.72 48.496 96.64 48.352L93.544 42.664H90.208V48.424C90.208 48.584 90.152 48.72 90.04 48.832C89.944 48.944 89.808 49 89.632 49H87.448ZM90.208 39.952H93.592C94.568 39.952 95.296 39.736 95.776 39.304C96.256 38.856 96.496 38.232 96.496 37.432C96.496 36.632 96.256 36.008 95.776 35.56C95.312 35.096 94.584 34.864 93.592 34.864H90.208V39.952ZM107.968 49.24C106.192 49.24 104.784 48.728 103.744 47.704C102.704 46.68 102.144 45.224 102.064 43.336C102.048 43.176 102.04 42.976 102.04 42.736C102.04 42.48 102.048 42.28 102.064 42.136C102.128 40.936 102.4 39.896 102.88 39.016C103.376 38.136 104.056 37.464 104.92 37C105.784 36.52 106.8 36.28 107.968 36.28C109.264 36.28 110.352 36.552 111.232 37.096C112.112 37.624 112.776 38.368 113.224 39.328C113.672 40.272 113.896 41.368 113.896 42.616V43.12C113.896 43.28 113.84 43.416 113.728 43.528C113.616 43.64 113.472 43.696 113.296 43.696H105.328C105.328 43.696 105.328 43.72 105.328 43.768C105.328 43.816 105.328 43.856 105.328 43.888C105.344 44.448 105.448 44.968 105.64 45.448C105.848 45.912 106.144 46.288 106.528 46.576C106.928 46.864 107.4 47.008 107.944 47.008C108.392 47.008 108.768 46.944 109.072 46.816C109.376 46.672 109.624 46.512 109.816 46.336C110.008 46.16 110.144 46.016 110.224 45.904C110.368 45.712 110.48 45.6 110.56 45.568C110.656 45.52 110.792 45.496 110.968 45.496H113.032C113.192 45.496 113.32 45.544 113.416 45.64C113.528 45.736 113.576 45.856 113.56 46C113.544 46.256 113.408 46.568 113.152 46.936C112.912 47.304 112.56 47.664 112.096 48.016C111.632 48.368 111.048 48.664 110.344 48.904C109.656 49.128 108.864 49.24 107.968 49.24ZM105.328 41.68H110.632V41.608C110.632 40.984 110.528 40.44 110.32 39.976C110.112 39.512 109.808 39.144 109.408 38.872C109.008 38.6 108.528 38.464 107.968 38.464C107.408 38.464 106.928 38.6 106.528 38.872C106.128 39.144 105.824 39.512 105.616 39.976C105.424 40.44 105.328 40.984 105.328 41.608V41.68ZM125.347 53.56C125.187 53.56 125.051 53.504 124.939 53.392C124.827 53.28 124.771 53.144 124.771 52.984V47.536C124.387 48.048 123.891 48.464 123.283 48.784C122.675 49.088 121.939 49.24 121.075 49.24C120.259 49.24 119.531 49.096 118.891 48.808C118.267 48.52 117.739 48.128 117.307 47.632C116.891 47.12 116.571 46.528 116.347 45.856C116.123 45.168 115.995 44.424 115.963 43.624C115.947 43.336 115.939 43.048 115.939 42.76C115.939 42.472 115.947 42.192 115.963 41.92C116.011 41.088 116.139 40.328 116.347 39.64C116.571 38.952 116.891 38.36 117.307 37.864C117.739 37.352 118.267 36.96 118.891 36.688C119.531 36.416 120.259 36.28 121.075 36.28C122.003 36.28 122.779 36.448 123.403 36.784C124.043 37.12 124.547 37.544 124.915 38.056V37.096C124.915 36.936 124.971 36.8 125.083 36.688C125.195 36.576 125.331 36.52 125.491 36.52H127.411C127.571 36.52 127.707 36.576 127.819 36.688C127.931 36.8 127.987 36.936 127.987 37.096V52.984C127.987 53.144 127.931 53.28 127.819 53.392C127.707 53.504 127.571 53.56 127.411 53.56H125.347ZM121.987 46.672C122.627 46.672 123.147 46.528 123.547 46.24C123.947 45.952 124.243 45.592 124.435 45.16C124.643 44.712 124.755 44.248 124.771 43.768C124.803 43.464 124.819 43.152 124.819 42.832C124.819 42.512 124.803 42.208 124.771 41.92C124.755 41.424 124.651 40.944 124.459 40.48C124.267 40 123.971 39.608 123.571 39.304C123.171 39 122.643 38.848 121.987 38.848C121.315 38.848 120.779 39 120.379 39.304C119.979 39.592 119.691 39.976 119.515 40.456C119.355 40.936 119.259 41.464 119.227 42.04C119.195 42.52 119.195 43 119.227 43.48C119.259 44.056 119.355 44.584 119.515 45.064C119.691 45.544 119.979 45.936 120.379 46.24C120.779 46.528 121.315 46.672 121.987 46.672ZM135.818 49.24C134.842 49.24 133.994 49.024 133.274 48.592C132.57 48.144 132.026 47.52 131.642 46.72C131.258 45.904 131.066 44.944 131.066 43.84V37.096C131.066 36.936 131.122 36.8 131.234 36.688C131.346 36.576 131.482 36.52 131.642 36.52H133.754C133.93 36.52 134.066 36.576 134.162 36.688C134.274 36.8 134.33 36.936 134.33 37.096V43.696C134.33 45.68 135.202 46.672 136.946 46.672C137.778 46.672 138.434 46.408 138.914 45.88C139.41 45.352 139.658 44.624 139.658 43.696V37.096C139.658 36.936 139.714 36.8 139.826 36.688C139.938 36.576 140.074 36.52 140.234 36.52H142.346C142.506 36.52 142.642 36.576 142.754 36.688C142.866 36.8 142.922 36.936 142.922 37.096V48.424C142.922 48.584 142.866 48.72 142.754 48.832C142.642 48.944 142.506 49 142.346 49H140.402C140.226 49 140.082 48.944 139.97 48.832C139.874 48.72 139.826 48.584 139.826 48.424V47.44C139.394 48 138.858 48.44 138.218 48.76C137.578 49.08 136.778 49.24 135.818 49.24ZM151.468 49.24C149.692 49.24 148.284 48.728 147.244 47.704C146.204 46.68 145.644 45.224 145.564 43.336C145.548 43.176 145.54 42.976 145.54 42.736C145.54 42.48 145.548 42.28 145.564 42.136C145.628 40.936 145.9 39.896 146.38 39.016C146.876 38.136 147.556 37.464 148.42 37C149.284 36.52 150.3 36.28 151.468 36.28C152.764 36.28 153.852 36.552 154.732 37.096C155.612 37.624 156.276 38.368 156.724 39.328C157.172 40.272 157.396 41.368 157.396 42.616V43.12C157.396 43.28 157.34 43.416 157.228 43.528C157.116 43.64 156.972 43.696 156.796 43.696H148.828C148.828 43.696 148.828 43.72 148.828 43.768C148.828 43.816 148.828 43.856 148.828 43.888C148.844 44.448 148.948 44.968 149.14 45.448C149.348 45.912 149.644 46.288 150.028 46.576C150.428 46.864 150.9 47.008 151.444 47.008C151.892 47.008 152.268 46.944 152.572 46.816C152.876 46.672 153.124 46.512 153.316 46.336C153.508 46.16 153.644 46.016 153.724 45.904C153.868 45.712 153.98 45.6 154.06 45.568C154.156 45.52 154.292 45.496 154.468 45.496H156.532C156.692 45.496 156.82 45.544 156.916 45.64C157.028 45.736 157.076 45.856 157.06 46C157.044 46.256 156.908 46.568 156.652 46.936C156.412 47.304 156.06 47.664 155.596 48.016C155.132 48.368 154.548 48.664 153.844 48.904C153.156 49.128 152.364 49.24 151.468 49.24ZM148.828 41.68H154.132V41.608C154.132 40.984 154.028 40.44 153.82 39.976C153.612 39.512 153.308 39.144 152.908 38.872C152.508 38.6 152.028 38.464 151.468 38.464C150.908 38.464 150.428 38.6 150.028 38.872C149.628 39.144 149.324 39.512 149.116 39.976C148.924 40.44 148.828 40.984 148.828 41.608V41.68ZM164.671 49.24C163.711 49.24 162.887 49.128 162.199 48.904C161.527 48.68 160.975 48.4 160.543 48.064C160.111 47.728 159.791 47.392 159.583 47.056C159.375 46.72 159.263 46.44 159.247 46.216C159.231 46.04 159.279 45.904 159.391 45.808C159.519 45.696 159.655 45.64 159.799 45.64H161.695C161.759 45.64 161.815 45.648 161.863 45.664C161.911 45.68 161.975 45.728 162.055 45.808C162.263 45.984 162.479 46.168 162.703 46.36C162.943 46.552 163.223 46.72 163.543 46.864C163.863 46.992 164.263 47.056 164.743 47.056C165.367 47.056 165.887 46.936 166.303 46.696C166.735 46.44 166.951 46.08 166.951 45.616C166.951 45.28 166.855 45.008 166.663 44.8C166.487 44.592 166.151 44.408 165.655 44.248C165.159 44.072 164.455 43.888 163.543 43.696C162.647 43.488 161.903 43.224 161.311 42.904C160.719 42.584 160.279 42.184 159.991 41.704C159.703 41.224 159.559 40.664 159.559 40.024C159.559 39.4 159.743 38.808 160.111 38.248C160.495 37.672 161.055 37.2 161.791 36.832C162.543 36.464 163.471 36.28 164.575 36.28C165.439 36.28 166.191 36.392 166.831 36.616C167.471 36.824 167.999 37.088 168.415 37.408C168.847 37.728 169.175 38.056 169.399 38.392C169.623 38.712 169.743 38.992 169.759 39.232C169.775 39.408 169.727 39.552 169.615 39.664C169.503 39.76 169.375 39.808 169.231 39.808H167.455C167.375 39.808 167.303 39.792 167.239 39.76C167.175 39.728 167.111 39.688 167.047 39.64C166.871 39.48 166.679 39.312 166.471 39.136C166.263 38.96 166.007 38.808 165.703 38.68C165.415 38.536 165.031 38.464 164.551 38.464C163.943 38.464 163.479 38.6 163.159 38.872C162.839 39.128 162.679 39.456 162.679 39.856C162.679 40.128 162.751 40.368 162.895 40.576C163.055 40.768 163.367 40.952 163.831 41.128C164.295 41.304 164.999 41.488 165.943 41.68C167.015 41.872 167.863 42.16 168.487 42.544C169.127 42.912 169.575 43.344 169.831 43.84C170.103 44.32 170.239 44.856 170.239 45.448C170.239 46.168 170.023 46.816 169.591 47.392C169.175 47.968 168.551 48.424 167.719 48.76C166.903 49.08 165.887 49.24 164.671 49.24ZM178.31 49C177.35 49 176.542 48.832 175.886 48.496C175.23 48.16 174.742 47.664 174.422 47.008C174.102 46.336 173.942 45.504 173.942 44.512V39.064H172.046C171.886 39.064 171.75 39.008 171.638 38.896C171.526 38.784 171.47 38.648 171.47 38.488V37.096C171.47 36.936 171.526 36.8 171.638 36.688C171.75 36.576 171.886 36.52 172.046 36.52H173.942V32.536C173.942 32.376 173.99 32.24 174.086 32.128C174.198 32.016 174.342 31.96 174.518 31.96H176.462C176.622 31.96 176.758 32.016 176.87 32.128C176.982 32.24 177.038 32.376 177.038 32.536V36.52H180.038C180.198 36.52 180.334 36.576 180.446 36.688C180.558 36.8 180.614 36.936 180.614 37.096V38.488C180.614 38.648 180.558 38.784 180.446 38.896C180.334 39.008 180.198 39.064 180.038 39.064H177.038V44.272C177.038 44.928 177.15 45.44 177.374 45.808C177.614 46.176 178.022 46.36 178.598 46.36H180.254C180.414 46.36 180.55 46.416 180.662 46.528C180.774 46.64 180.83 46.776 180.83 46.936V48.424C180.83 48.584 180.774 48.72 180.662 48.832C180.55 48.944 180.414 49 180.254 49H178.31ZM192.067 49.24C191.235 49.24 190.483 49.08 189.811 48.76C189.139 48.424 188.603 47.984 188.203 47.44C187.819 46.88 187.627 46.256 187.627 45.568C187.627 44.448 188.075 43.56 188.971 42.904C189.883 42.232 191.083 41.784 192.571 41.56L195.859 41.08V40.576C195.859 39.904 195.691 39.384 195.355 39.016C195.019 38.648 194.443 38.464 193.627 38.464C193.051 38.464 192.579 38.584 192.211 38.824C191.859 39.048 191.595 39.352 191.419 39.736C191.291 39.944 191.107 40.048 190.867 40.048H188.971C188.795 40.048 188.659 40 188.563 39.904C188.483 39.808 188.443 39.68 188.443 39.52C188.459 39.264 188.563 38.952 188.755 38.584C188.947 38.216 189.251 37.864 189.667 37.528C190.083 37.176 190.619 36.88 191.275 36.64C191.931 36.4 192.723 36.28 193.651 36.28C194.659 36.28 195.507 36.408 196.195 36.664C196.899 36.904 197.459 37.232 197.875 37.648C198.291 38.064 198.595 38.552 198.787 39.112C198.979 39.672 199.075 40.264 199.075 40.888V48.424C199.075 48.584 199.019 48.72 198.907 48.832C198.795 48.944 198.659 49 198.499 49H196.555C196.379 49 196.235 48.944 196.123 48.832C196.027 48.72 195.979 48.584 195.979 48.424V47.488C195.771 47.792 195.491 48.08 195.139 48.352C194.787 48.608 194.355 48.824 193.843 49C193.347 49.16 192.755 49.24 192.067 49.24ZM192.883 46.96C193.443 46.96 193.947 46.84 194.395 46.6C194.859 46.36 195.219 45.992 195.475 45.496C195.747 44.984 195.883 44.344 195.883 43.576V43.072L193.483 43.456C192.539 43.6 191.835 43.832 191.371 44.152C190.907 44.472 190.675 44.864 190.675 45.328C190.675 45.68 190.779 45.984 190.987 46.24C191.211 46.48 191.491 46.664 191.827 46.792C192.163 46.904 192.515 46.96 192.883 46.96ZM213.039 49.24C211.887 49.24 210.871 49.024 209.991 48.592C209.127 48.16 208.447 47.536 207.951 46.72C207.471 45.888 207.207 44.888 207.159 43.72C207.143 43.48 207.135 43.168 207.135 42.784C207.135 42.384 207.143 42.056 207.159 41.8C207.207 40.632 207.471 39.64 207.951 38.824C208.447 37.992 209.127 37.36 209.991 36.928C210.871 36.496 211.887 36.28 213.039 36.28C214.063 36.28 214.935 36.424 215.655 36.712C216.375 37 216.967 37.36 217.431 37.792C217.895 38.224 218.239 38.68 218.463 39.16C218.703 39.624 218.831 40.048 218.847 40.432C218.863 40.608 218.807 40.752 218.679 40.864C218.567 40.96 218.431 41.008 218.271 41.008H216.159C215.999 41.008 215.871 40.968 215.775 40.888C215.695 40.808 215.615 40.688 215.535 40.528C215.295 39.888 214.975 39.44 214.575 39.184C214.191 38.912 213.695 38.776 213.087 38.776C212.287 38.776 211.647 39.032 211.167 39.544C210.703 40.04 210.455 40.832 210.423 41.92C210.391 42.528 210.391 43.088 210.423 43.6C210.455 44.704 210.703 45.504 211.167 46C211.647 46.496 212.287 46.744 213.087 46.744C213.711 46.744 214.215 46.616 214.599 46.36C214.983 46.088 215.295 45.632 215.535 44.992C215.615 44.832 215.695 44.712 215.775 44.632C215.871 44.552 215.999 44.512 216.159 44.512H218.271C218.431 44.512 218.567 44.568 218.679 44.68C218.807 44.776 218.863 44.912 218.847 45.088C218.831 45.376 218.751 45.704 218.607 46.072C218.479 46.424 218.263 46.792 217.959 47.176C217.671 47.544 217.303 47.888 216.855 48.208C216.407 48.512 215.863 48.76 215.223 48.952C214.599 49.144 213.871 49.24 213.039 49.24ZM224.974 49.24C224.142 49.24 223.39 49.08 222.718 48.76C222.046 48.424 221.51 47.984 221.11 47.44C220.726 46.88 220.534 46.256 220.534 45.568C220.534 44.448 220.982 43.56 221.878 42.904C222.79 42.232 223.99 41.784 225.478 41.56L228.766 41.08V40.576C228.766 39.904 228.598 39.384 228.262 39.016C227.926 38.648 227.35 38.464 226.534 38.464C225.958 38.464 225.486 38.584 225.118 38.824C224.766 39.048 224.502 39.352 224.326 39.736C224.198 39.944 224.014 40.048 223.774 40.048H221.878C221.702 40.048 221.566 40 221.47 39.904C221.39 39.808 221.35 39.68 221.35 39.52C221.366 39.264 221.47 38.952 221.662 38.584C221.854 38.216 222.158 37.864 222.574 37.528C222.99 37.176 223.526 36.88 224.182 36.64C224.838 36.4 225.63 36.28 226.558 36.28C227.566 36.28 228.414 36.408 229.102 36.664C229.806 36.904 230.366 37.232 230.782 37.648C231.198 38.064 231.502 38.552 231.694 39.112C231.886 39.672 231.982 40.264 231.982 40.888V48.424C231.982 48.584 231.926 48.72 231.814 48.832C231.702 48.944 231.566 49 231.406 49H229.462C229.286 49 229.142 48.944 229.03 48.832C228.934 48.72 228.886 48.584 228.886 48.424V47.488C228.678 47.792 228.398 48.08 228.046 48.352C227.694 48.608 227.262 48.824 226.75 49C226.254 49.16 225.662 49.24 224.974 49.24ZM225.79 46.96C226.35 46.96 226.854 46.84 227.302 46.6C227.766 46.36 228.126 45.992 228.382 45.496C228.654 44.984 228.79 44.344 228.79 43.576V43.072L226.39 43.456C225.446 43.6 224.742 43.832 224.278 44.152C223.814 44.472 223.582 44.864 223.582 45.328C223.582 45.68 223.686 45.984 223.894 46.24C224.118 46.48 224.398 46.664 224.734 46.792C225.07 46.904 225.422 46.96 225.79 46.96ZM235.661 49C235.501 49 235.365 48.944 235.253 48.832C235.141 48.72 235.085 48.584 235.085 48.424V32.536C235.085 32.376 235.141 32.24 235.253 32.128C235.365 32.016 235.501 31.96 235.661 31.96H237.653C237.813 31.96 237.949 32.016 238.061 32.128C238.173 32.24 238.229 32.376 238.229 32.536V48.424C238.229 48.584 238.173 48.72 238.061 48.832C237.949 48.944 237.813 49 237.653 49H235.661ZM242.012 49C241.852 49 241.716 48.944 241.604 48.832C241.492 48.72 241.436 48.584 241.436 48.424V32.536C241.436 32.376 241.492 32.24 241.604 32.128C241.716 32.016 241.852 31.96 242.012 31.96H244.004C244.164 31.96 244.3 32.016 244.412 32.128C244.524 32.24 244.58 32.376 244.58 32.536V48.424C244.58 48.584 244.524 48.72 244.412 48.832C244.3 48.944 244.164 49 244.004 49H242.012ZM260.16 49.24C259.232 49.24 258.456 49.08 257.832 48.76C257.224 48.44 256.72 48.032 256.32 47.536V48.424C256.32 48.584 256.264 48.72 256.152 48.832C256.056 48.944 255.92 49 255.744 49H253.848C253.688 49 253.552 48.944 253.44 48.832C253.328 48.72 253.272 48.584 253.272 48.424V32.536C253.272 32.376 253.328 32.24 253.44 32.128C253.552 32.016 253.688 31.96 253.848 31.96H255.888C256.064 31.96 256.2 32.016 256.296 32.128C256.408 32.24 256.464 32.376 256.464 32.536V37.864C256.864 37.4 257.36 37.024 257.952 36.736C258.56 36.432 259.296 36.28 260.16 36.28C261.008 36.28 261.744 36.424 262.368 36.712C262.992 37 263.512 37.408 263.928 37.936C264.36 38.448 264.688 39.048 264.912 39.736C265.136 40.424 265.256 41.168 265.272 41.968C265.288 42.256 265.296 42.52 265.296 42.76C265.296 42.984 265.288 43.24 265.272 43.528C265.24 44.36 265.112 45.128 264.888 45.832C264.664 46.52 264.344 47.12 263.928 47.632C263.512 48.144 262.992 48.544 262.368 48.832C261.744 49.104 261.008 49.24 260.16 49.24ZM259.272 46.672C259.96 46.672 260.496 46.528 260.88 46.24C261.264 45.936 261.536 45.544 261.696 45.064C261.872 44.584 261.976 44.056 262.008 43.48C262.04 43 262.04 42.52 262.008 42.04C261.976 41.464 261.872 40.936 261.696 40.456C261.536 39.976 261.264 39.592 260.88 39.304C260.496 39 259.96 38.848 259.272 38.848C258.632 38.848 258.112 38.992 257.712 39.28C257.312 39.568 257.008 39.936 256.8 40.384C256.592 40.816 256.48 41.272 256.464 41.752C256.448 42.04 256.44 42.352 256.44 42.688C256.44 43.008 256.448 43.312 256.464 43.6C256.496 44.096 256.6 44.584 256.776 45.064C256.968 45.528 257.264 45.912 257.664 46.216C258.08 46.52 258.616 46.672 259.272 46.672ZM271.591 49.24C270.759 49.24 270.007 49.08 269.335 48.76C268.663 48.424 268.127 47.984 267.727 47.44C267.343 46.88 267.151 46.256 267.151 45.568C267.151 44.448 267.599 43.56 268.495 42.904C269.407 42.232 270.607 41.784 272.095 41.56L275.383 41.08V40.576C275.383 39.904 275.215 39.384 274.879 39.016C274.543 38.648 273.967 38.464 273.151 38.464C272.575 38.464 272.103 38.584 271.735 38.824C271.383 39.048 271.119 39.352 270.943 39.736C270.815 39.944 270.631 40.048 270.391 40.048H268.495C268.319 40.048 268.183 40 268.087 39.904C268.007 39.808 267.967 39.68 267.967 39.52C267.983 39.264 268.087 38.952 268.279 38.584C268.471 38.216 268.775 37.864 269.191 37.528C269.607 37.176 270.143 36.88 270.799 36.64C271.455 36.4 272.247 36.28 273.175 36.28C274.183 36.28 275.031 36.408 275.719 36.664C276.423 36.904 276.983 37.232 277.399 37.648C277.815 38.064 278.119 38.552 278.311 39.112C278.503 39.672 278.599 40.264 278.599 40.888V48.424C278.599 48.584 278.543 48.72 278.431 48.832C278.319 48.944 278.183 49 278.023 49H276.079C275.903 49 275.759 48.944 275.647 48.832C275.551 48.72 275.503 48.584 275.503 48.424V47.488C275.295 47.792 275.015 48.08 274.663 48.352C274.311 48.608 273.879 48.824 273.367 49C272.871 49.16 272.279 49.24 271.591 49.24ZM272.407 46.96C272.967 46.96 273.471 46.84 273.919 46.6C274.383 46.36 274.743 45.992 274.999 45.496C275.271 44.984 275.407 44.344 275.407 43.576V43.072L273.007 43.456C272.063 43.6 271.359 43.832 270.895 44.152C270.431 44.472 270.199 44.864 270.199 45.328C270.199 45.68 270.303 45.984 270.511 46.24C270.735 46.48 271.015 46.664 271.351 46.792C271.687 46.904 272.039 46.96 272.407 46.96ZM287.078 49.24C285.926 49.24 284.91 49.024 284.03 48.592C283.166 48.16 282.486 47.536 281.99 46.72C281.51 45.888 281.246 44.888 281.198 43.72C281.182 43.48 281.174 43.168 281.174 42.784C281.174 42.384 281.182 42.056 281.198 41.8C281.246 40.632 281.51 39.64 281.99 38.824C282.486 37.992 283.166 37.36 284.03 36.928C284.91 36.496 285.926 36.28 287.078 36.28C288.102 36.28 288.974 36.424 289.694 36.712C290.414 37 291.006 37.36 291.47 37.792C291.934 38.224 292.278 38.68 292.502 39.16C292.742 39.624 292.87 40.048 292.886 40.432C292.902 40.608 292.846 40.752 292.718 40.864C292.606 40.96 292.47 41.008 292.31 41.008H290.198C290.038 41.008 289.91 40.968 289.814 40.888C289.734 40.808 289.654 40.688 289.574 40.528C289.334 39.888 289.014 39.44 288.614 39.184C288.23 38.912 287.734 38.776 287.126 38.776C286.326 38.776 285.686 39.032 285.206 39.544C284.742 40.04 284.494 40.832 284.462 41.92C284.43 42.528 284.43 43.088 284.462 43.6C284.494 44.704 284.742 45.504 285.206 46C285.686 46.496 286.326 46.744 287.126 46.744C287.75 46.744 288.254 46.616 288.638 46.36C289.022 46.088 289.334 45.632 289.574 44.992C289.654 44.832 289.734 44.712 289.814 44.632C289.91 44.552 290.038 44.512 290.198 44.512H292.31C292.47 44.512 292.606 44.568 292.718 44.68C292.846 44.776 292.902 44.912 292.886 45.088C292.87 45.376 292.79 45.704 292.646 46.072C292.518 46.424 292.302 46.792 291.998 47.176C291.71 47.544 291.342 47.888 290.894 48.208C290.446 48.512 289.902 48.76 289.262 48.952C288.638 49.144 287.91 49.24 287.078 49.24ZM295.989 49C295.829 49 295.693 48.944 295.581 48.832C295.469 48.72 295.413 48.584 295.413 48.424V32.536C295.413 32.376 295.469 32.24 295.581 32.128C295.693 32.016 295.829 31.96 295.989 31.96H297.933C298.109 31.96 298.245 32.016 298.341 32.128C298.453 32.24 298.509 32.376 298.509 32.536V40.744L302.541 36.928C302.685 36.8 302.813 36.704 302.925 36.64C303.037 36.56 303.205 36.52 303.429 36.52H305.661C305.821 36.52 305.949 36.568 306.045 36.664C306.141 36.76 306.189 36.888 306.189 37.048C306.189 37.112 306.173 37.184 306.141 37.264C306.109 37.344 306.045 37.416 305.949 37.48L301.005 42.112L306.549 48.064C306.709 48.224 306.789 48.36 306.789 48.472C306.789 48.632 306.733 48.76 306.621 48.856C306.525 48.952 306.405 49 306.261 49H303.981C303.741 49 303.565 48.968 303.453 48.904C303.357 48.824 303.237 48.72 303.093 48.592L298.509 43.768V48.424C298.509 48.584 298.453 48.72 298.341 48.832C298.245 48.944 298.109 49 297.933 49H295.989Z" fill="white"/>
<path d="M61.189 58.1152H60.9373C59.2728 57.9375 57.6439 57.5133 56.104 56.8566C53.1368 55.5991 50.3881 53.8785 47.9605 51.759C44.5784 48.9322 41.7307 45.5217 39.5526 41.6897C38.3626 39.6349 37.5265 37.3947 37.0793 35.0628C36.9807 34.6318 36.974 34.1849 37.0596 33.7511C37.1453 33.3174 37.3214 32.9066 37.5765 32.5454C38.9531 30.4896 40.5576 28.5959 42.3594 26.9003C42.5912 26.6898 42.8395 26.4983 43.102 26.3276C43.4218 26.092 43.8147 25.9772 44.211 26.0037C44.6073 26.0302 44.9814 26.1963 45.2669 26.4724C45.5059 26.6771 45.7175 26.9119 45.8963 27.171C47.3355 29.1417 48.599 31.2349 49.6723 33.4265C50.396 34.9684 50.2638 35.6229 48.98 36.762L48.6842 37.0263L47.2871 38.285C48.1484 40.918 49.7473 43.2486 51.8938 45C53.3201 46.2353 54.9874 47.1611 56.79 47.7187C56.9725 47.5047 57.1613 47.297 57.3501 47.0893L58.1997 46.1327C59.4269 44.723 60.0877 44.5846 61.7303 45.3776C63.8526 46.4244 65.8822 47.6497 67.797 49.0403C68.1168 49.2146 68.395 49.4562 68.6123 49.7485C68.8296 50.0408 68.9809 50.3767 69.0557 50.7332C69.0517 51.0912 68.9723 51.4444 68.8226 51.7697C68.673 52.095 68.4565 52.3851 68.1872 52.6212C66.4247 54.5329 64.4238 56.2102 62.2337 57.6118C62.0165 57.7474 61.7842 57.8572 61.5415 57.939L61.4345 57.9768L61.189 58.1152ZM44.0964 27.945C43.9364 28.0482 43.7848 28.1639 43.6432 28.2912C41.9471 29.8914 40.4337 31.675 39.1309 33.609C39.0193 33.7681 38.944 33.9498 38.9103 34.1412C38.8766 34.3326 38.8853 34.529 38.9358 34.7167C39.3465 36.8414 40.1125 38.8818 41.2014 40.752C43.2695 44.3801 45.9724 47.6074 49.1814 50.2801C51.4634 52.2705 54.0463 53.8869 56.8341 55.0693C58.1428 55.625 59.5211 55.9998 60.931 56.1832C61.0266 56.1488 61.1192 56.1067 61.2079 56.0573C63.2619 54.7426 65.138 53.1689 66.7901 51.3751C66.9192 51.2418 67.0351 51.0964 67.1362 50.9409C67.0038 50.8116 66.8606 50.6937 66.7083 50.5884C64.8802 49.2579 62.941 48.0872 60.9121 47.0893C60.683 46.9588 60.4375 46.8593 60.1821 46.7936C60.1066 46.8439 59.7542 47.253 59.6346 47.3851C59.3514 47.7124 59.0619 48.0145 58.7724 48.3606C58.4829 48.7067 58.2564 48.9333 58.0046 49.2228C57.835 49.4283 57.607 49.5774 57.3508 49.6504C57.0946 49.7235 56.8222 49.717 56.5697 49.6318C54.4058 49.0206 52.4003 47.947 50.6918 46.4852C48.1832 44.4209 46.3506 41.6524 45.4305 38.5367C45.3437 38.283 45.3356 38.0089 45.4075 37.7505C45.4794 37.4922 45.6279 37.2616 45.8333 37.0892C46.3808 36.6109 46.9284 36.1201 47.4696 35.6355L47.7654 35.3712C47.9454 35.2226 48.1117 35.0584 48.2625 34.8803C48.1959 34.664 48.1118 34.4535 48.0108 34.251C46.9893 32.1632 45.7869 30.169 44.4173 28.2912C44.325 28.163 44.2172 28.0468 44.0964 27.945Z" fill="white"/>
<path d="M68.0794 40.9471H65.9585C65.9612 39.3936 65.6567 37.855 65.0627 36.4197C64.4687 34.9843 63.5968 33.6805 62.4972 32.5832C61.4037 31.4781 60.1022 30.6005 58.6677 30.001C57.2333 29.4015 55.6943 29.092 54.1396 29.0904V26.9948C61.1127 26.7116 68.1612 32.8601 68.0794 40.9471Z" fill="white"/>
<path d="M62.6792 40.9471H60.5646C60.5609 39.2388 59.8823 37.6011 58.6766 36.3908C57.4721 35.1841 55.8378 34.505 54.1328 34.5028V32.3882C55.2564 32.3874 56.3692 32.6083 57.4072 33.0383C58.4453 33.4682 59.3884 34.0989 60.1823 34.894C60.9762 35.6891 61.6055 36.633 62.0339 37.6717C62.4624 38.7105 62.6816 39.8235 62.6792 40.9471Z" fill="white"/>
</svg>
